<?xml version="1.0" encoding="UTF-8" standalone="no"?>
<!-- Created with Inkscape (http://www.inkscape.org/) -->

<svg
   width="215"
   height="215"
   viewBox="0 0 56.885415 56.885416"
   version="1.1"
   id="svg5"
   xml:space="preserve"
   inkscape:version="1.2.1 (9c6d41e, 2022-07-14)"
   sodipodi:docname="oreali.svg"
   xmlns:inkscape="http://www.inkscape.org/namespaces/inkscape"
   xmlns:sodipodi="http://sodipodi.sourceforge.net/DTD/sodipodi-0.dtd"
   xmlns="http://www.w3.org/2000/svg"
   xmlns:svg="http://www.w3.org/2000/svg"><sodipodi:namedview
     id="namedview7"
     pagecolor="#ffffff"
     bordercolor="#000000"
     borderopacity="0.25"
     inkscape:showpageshadow="2"
     inkscape:pageopacity="0.0"
     inkscape:pagecheckerboard="0"
     inkscape:deskcolor="#d1d1d1"
     inkscape:document-units="px"
     showgrid="false"
     inkscape:zoom="2.8284272"
     inkscape:cx="109.77832"
     inkscape:cy="17.147339"
     inkscape:window-width="2560"
     inkscape:window-height="1387"
     inkscape:window-x="0"
     inkscape:window-y="25"
     inkscape:window-maximized="1"
     inkscape:current-layer="layer1" /><defs
     id="defs2"><inkscape:perspective
       sodipodi:type="inkscape:persp3d"
       inkscape:vp_x="0 : 28.442708 : 1"
       inkscape:vp_y="0 : 1000 : 0"
       inkscape:vp_z="56.885415 : 28.442708 : 1"
       inkscape:persp3d-origin="28.442708 : 18.961805 : 1"
       id="perspective31856" /></defs><g
     inkscape:label="Layer 1"
     inkscape:groupmode="layer"
     id="layer1"
     transform="translate(0,-480.22914)"><path
       style="fill:#000000;fill-opacity:1;stroke-width:0.989033"
       d="m 28.937723,531.18033 -1.79312,-2.53442 v -13.97007 c 0,0 -0.567303,-0.46902 2.410774,-3.02893 2.978074,-2.55991 17.122648,-8.60002 17.122648,-17.98806 0,-5.06099 -4.418449,-9.79822 -9.488547,-12.30109 -5.070098,-2.50287 -18.38985,-0.0617 -18.38985,-0.0617 0,0 13.424769,0.1656 18.482573,5.22333 7.035869,7.03586 0.309064,13.25924 0.309064,13.25924 0,0 -3.597253,-5.68925 -7.386845,-7.13958 -8.884297,-2.38053 -14.062826,0.52542 -14.062826,0.52542 0,0 11.73608,0.50303 13.90829,3.70889 2.172211,3.20581 2.140153,7.83053 -1.050849,8.77765 -6.78326,2.01333 -13.245517,-5.43629 -14.464621,-6.36689 -0.484411,-0.3697 -0.886311,-0.37642 -1.359922,-0.12373 -0.473611,0.25269 -2.967102,6.36692 -2.967102,6.36692 0,0 5.649389,0.18205 7.974086,1.79264 2.324698,1.61048 4.821542,7.35587 4.821542,7.35587 l -0.309064,13.97007 -1.978081,2.53449 4.110925,5.93417 z"
       id="path1901"
       sodipodi:nodetypes="ccczczccccczcczczccccc" /></g></svg>
