<?xml version="1.0" encoding="UTF-8" standalone="no"?>
<!-- Created with Inkscape (http://www.inkscape.org/) -->

<svg
   width="215"
   height="215"
   viewBox="0 0 56.885415 56.885416"
   version="1.1"
   id="svg5"
   xml:space="preserve"
   inkscape:version="1.2.1 (9c6d41e, 2022-07-14)"
   sodipodi:docname="ydriliqi.svg"
   xmlns:inkscape="http://www.inkscape.org/namespaces/inkscape"
   xmlns:sodipodi="http://sodipodi.sourceforge.net/DTD/sodipodi-0.dtd"
   xmlns="http://www.w3.org/2000/svg"
   xmlns:svg="http://www.w3.org/2000/svg"><sodipodi:namedview
     id="namedview7"
     pagecolor="#ffffff"
     bordercolor="#000000"
     borderopacity="0.25"
     inkscape:showpageshadow="2"
     inkscape:pageopacity="0.0"
     inkscape:pagecheckerboard="0"
     inkscape:deskcolor="#d1d1d1"
     inkscape:document-units="px"
     showgrid="false"
     inkscape:zoom="1.4142136"
     inkscape:cx="-56.214989"
     inkscape:cy="-50.558135"
     inkscape:window-width="2560"
     inkscape:window-height="1387"
     inkscape:window-x="0"
     inkscape:window-y="25"
     inkscape:window-maximized="0"
     inkscape:current-layer="layer1" /><defs
     id="defs2"><inkscape:perspective
       sodipodi:type="inkscape:persp3d"
       inkscape:vp_x="0 : 28.442708 : 1"
       inkscape:vp_y="0 : 1000 : 0"
       inkscape:vp_z="56.885415 : 28.442708 : 1"
       inkscape:persp3d-origin="28.442708 : 18.961805 : 1"
       id="perspective31856" /></defs><g
     inkscape:label="Layer 1"
     inkscape:groupmode="layer"
     id="layer1"
     transform="translate(0,-480.22914)"><path
       id="path36541"
       style="fill:#000000;fill-opacity:1;stroke:none;stroke-width:0.965184"
       d="m 12.82269,480.22914 -0.518409,14.39482 c 0.265826,-0.0536 0.476144,-0.17474 0.784213,-0.32978 0.299496,-0.15066 1.641826,-2.50595 2.465743,-2.52419 1.647845,-0.0365 9.009467,8.26981 11.374855,10.12125 0.174408,0.13644 0.331671,0.25682 0.480707,0.37136 0.0835,1.67186 0.386865,8.6221 -0.282752,9.78193 -1.500654,3.54335 -17.4994114,9.86498 -16.35159,16.74748 1.147822,6.88247 10.262623,8.10493 16.483547,8.30775 6.220925,0.20283 17.007348,-1.65113 17.382754,-7.38405 0.375407,-5.73293 -8.905682,-7.77909 -13.427756,-7.91188 -4.522078,-0.13278 -10.288508,2.13901 -10.285255,5.2746 0.0033,3.13548 4.457039,3.25185 6.462218,3.29708 2.005176,0.0452 4.350872,-1.97941 4.350872,-1.97941 0,0 -6.044294,0.6219 -6.196414,-1.44965 -0.152119,-2.07145 3.21116,-2.46576 5.668579,-2.24141 2.457415,0.22435 7.610966,1.11521 7.385924,4.61479 -0.225042,3.49958 -6.912811,5.36514 -11.208961,5.14262 -4.296153,-0.22253 -10.870341,-1.05046 -11.604843,-6.8562 -0.734499,-5.80574 12.470522,-8.47213 15.297805,-15.2978 0.536777,-1.29589 0.07734,-9.11288 0.01897,-10.07412 0.137637,-0.10579 0.282424,-0.21887 0.441121,-0.3429 2.365391,-1.85144 9.727013,-10.15774 11.374855,-10.12126 0.82392,0.0182 2.166236,2.37339 2.465746,2.5242 0.308069,0.15503 0.518369,0.27615 0.784213,0.32977 l -0.518409,-14.39482 c 0,0 -0.326856,0.0445 -1.210253,0.55423 -0.883374,0.51002 2.378638,4.36291 -15.203545,16.95294 -17.582184,-12.59003 -14.320175,-16.44292 -15.203546,-16.95294 -0.883383,-0.50987 -1.210253,-0.55423 -1.210253,-0.55423 z" /></g></svg>
