<?xml version="1.0" encoding="UTF-8" standalone="no"?>
<!-- Created with Inkscape (http://www.inkscape.org/) -->

<svg
   width="215"
   height="215"
   viewBox="0 0 56.885418 56.885418"
   version="1.1"
   id="svg5"
   xml:space="preserve"
   inkscape:version="1.2.1 (9c6d41e, 2022-07-14)"
   sodipodi:docname="order_serpentis_runemark.svg"
   xmlns:inkscape="http://www.inkscape.org/namespaces/inkscape"
   xmlns:sodipodi="http://sodipodi.sourceforge.net/DTD/sodipodi-0.dtd"
   xmlns="http://www.w3.org/2000/svg"
   xmlns:svg="http://www.w3.org/2000/svg"><sodipodi:namedview
     id="namedview7"
     pagecolor="#ffffff"
     bordercolor="#000000"
     borderopacity="0.25"
     inkscape:showpageshadow="2"
     inkscape:pageopacity="0.0"
     inkscape:pagecheckerboard="0"
     inkscape:deskcolor="#d1d1d1"
     inkscape:document-units="mm"
     showgrid="false"
     inkscape:zoom="1.2938725"
     inkscape:cx="170.41865"
     inkscape:cy="126.36485"
     inkscape:window-width="2560"
     inkscape:window-height="1387"
     inkscape:window-x="0"
     inkscape:window-y="25"
     inkscape:window-maximized="1"
     inkscape:current-layer="layer1" /><defs
     id="defs2" /><g
     inkscape:label="Layer 1"
     inkscape:groupmode="layer"
     id="layer1"
     transform="translate(0,-480.22914)"><path
       id="path302"
       style="fill:#000000;fill-opacity:1;stroke-width:0.309383"
       d="m 38.47591,480.23103 c -5.725733,-0.0959 -10.587511,3.49245 -12.696193,3.83345 -0.04425,-0.59592 0.126895,-1.52154 0.126895,-1.52154 -7.081081,5.36982 -12.022398,8.96994 -16.865616,16.65412 0.7077266,0.98245 2.434064,1.54682 5.220238,1.56385 -1.836136,-0.64727 -2.071417,-1.3735 -2.071417,-1.3735 0,0 2.999225,0.0321 4.227432,-0.29608 -1.081356,-0.35572 -1.828483,-0.43808 -1.859927,-2.24002 0,0 2.522146,-2.22777 2.873881,-2.09256 0.351737,0.13521 0.649244,0.41188 1.056858,0.52813 0.407613,0.11623 1.290997,0.15956 2.134865,-0.16859 -0.2552,1.39415 -0.643982,1.8102 -2.156015,1.92277 0.0011,0.39676 1.479843,0.63447 1.479843,0.63447 -0.650625,0.35474 -1.185264,0.55068 -1.923372,0.54928 1.170872,0.74411 2.069859,0.55287 2.937329,0.80306 0.38154,-1.81231 1.41103,-3.72059 2.240611,-4.22682 -0.840076,-0.0835 -1.078008,-0.54928 -1.078008,-0.54928 1.899005,-3.90932 9.931972,-6.82851 11.983766,-4.77671 2.715941,2.71594 -7.144295,7.68618 -16.568922,14.70296 -7.8357465,5.83385 -8.7592563,15.2698 -6.721834,17.33754 3.358073,3.2044 8.197706,0.49681 11.732997,-2.93671 3.53529,-3.43354 7.032404,-9.10813 10.83929,-7.54607 3.806885,1.56208 -10.724289,10.88781 -12.596491,13.10348 -1.872204,2.21567 -3.166121,3.96084 -3.166121,6.811 0,2.85017 1.275628,6.1673 5.424265,6.1673 2.788675,0 4.204402,-1.05249 5.064391,-2.32378 0.859988,-1.2713 1.164237,-2.76136 2.566851,-5.19077 1.53804,-3.33339 3.061985,-5.56224 4.98941,-7.40827 -3.802206,0.67524 -7.852345,9.98172 -8.369662,6.00276 -0.571441,1.99824 -1.093136,5.07219 -3.318014,5.07219 -5.310573,0 1.592377,-12.52486 3.656402,-7.2705 0.295394,-2.61244 6.431276,-9.82121 6.678327,-5.57978 1.406847,-1.68822 2.340772,-2.76195 2.325208,-5.09334 1.644535,-1.12342 3.430286,-6.7332 5.579775,-2.19832 0.893387,-2.96724 -1.537805,-5.6823 -2.409804,-6.67833 0.417226,-0.34085 1.352946,-0.31724 1.352946,-0.31724 -0.939391,-1.51774 -2.527396,-2.02789 -4.480618,-2.2823 l 0.929963,-0.92996 c -3.387521,-1.10735 -9.351686,6.15793 -11.159551,3.80444 -0.174041,1.17415 -1.371253,1.47436 -1.859925,0.92997 0.09671,4.15645 -5.4672,9.65023 -7.946678,8.36906 -1.344607,-0.77631 1.005196,-6.27855 3.889044,-4.39602 0.03034,-3.40964 5.917103,-9.95267 9.299625,-7.98898 2.056861,-2.41646 9.905525,-11.7858 10.735961,-4.86071 3.64831,-6.84937 0.767203,-7.83846 3.049117,-7.87778 -1.669494,-1.06536 1.144146,-5.72183 4.221389,-3.45094 -3.53407,-3.56203 -3.959583,-4.64547 -9.172124,-4.98762 0,0 -1.031085,-0.74674 1.606134,-2.07141 -0.608725,-0.0965 -1.210203,-0.14598 -1.802521,-0.1559 z m -25.905408,15.09814 0.44353,1.20491 -1.606133,1.43694 c 0.302932,-1.00743 0.648322,-1.80349 1.162603,-2.64185 z"
       sodipodi:nodetypes="scccccccsscccccccsscsszzcscccsccccccccccccccccccscccc" /></g></svg>
