<?xml version="1.0" encoding="UTF-8" standalone="no"?>
<svg
   xmlns:dc="http://purl.org/dc/elements/1.1/"
   xmlns:cc="http://creativecommons.org/ns#"
   xmlns:rdf="http://www.w3.org/1999/02/22-rdf-syntax-ns#"
   xmlns:svg="http://www.w3.org/2000/svg"
   xmlns="http://www.w3.org/2000/svg"
   xmlns:sodipodi="http://sodipodi.sourceforge.net/DTD/sodipodi-0.dtd"
   xmlns:inkscape="http://www.inkscape.org/namespaces/inkscape"
   version="1.1"
   x="0px"
   y="0px"
   width="215"
   height="215"
   viewBox="0 0 215 215"
   xml:space="preserve"
   id="svg12"
   sodipodi:docname="restless_dead.svg"
   inkscape:version="1.0.2-2 (e86c870879, 2021-01-15)"><metadata
   id="metadata16"><rdf:RDF><cc:Work
       rdf:about=""><dc:format>image/svg+xml</dc:format><dc:type
         rdf:resource="http://purl.org/dc/dcmitype/StillImage" /><dc:title></dc:title></cc:Work></rdf:RDF></metadata><sodipodi:namedview
   pagecolor="#ffffff"
   bordercolor="#666666"
   borderopacity="1"
   objecttolerance="10"
   gridtolerance="10"
   guidetolerance="10"
   inkscape:pageopacity="0"
   inkscape:pageshadow="2"
   inkscape:window-width="1920"
   inkscape:window-height="1017"
   id="namedview14"
   showgrid="false"
   inkscape:zoom="1.2029838"
   inkscape:cx="-13.932112"
   inkscape:cy="27.214305"
   inkscape:window-x="-8"
   inkscape:window-y="-8"
   inkscape:window-maximized="1"
   inkscape:current-layer="svg12"
   inkscape:document-rotation="0" />
<defs
   id="defs2">

	

		
		
	<clipPath
   id="clip73"><path
     d="m 133.25,505.33203 h 20.01172 V 529 H 133.25 Z m 0,0"
     id="path5454" /></clipPath><clipPath
   id="clip74"><path
     d="m 141,528 h 3 v 2.71484 h -3 z m 0,0"
     id="path5457" /></clipPath><clipPath
   id="clip75"><path
     d="m 144,528 h 2 v 2.71484 h -2 z m 0,0"
     id="path5460" /></clipPath><clipPath
   id="clip76"><path
     d="m 145,528 h 2 v 2.71484 h -2 z m 0,0"
     id="path5463" /></clipPath><clipPath
   id="clip77"><path
     d="m 143,528 h 2 v 2.71484 h -2 z m 0,0"
     id="path5466" /></clipPath><clipPath
   id="clip78"><path
     d="m 139,528 h 2 v 2.71484 h -2 z m 0,0"
     id="path5469" /></clipPath><clipPath
   id="clip79"><path
     d="m 140,528 h 2 v 2.71484 h -2 z m 0,0"
     id="path5472" /></clipPath></defs>

<g
   id="g962"
   style="fill:#ffffff;fill-opacity:1"><g
     clip-path="url(#clip73)"
     clip-rule="nonzero"
     id="g14443"
     transform="matrix(8.4748591,0,0,8.4748591,-1106.9334,-4282.7005)"
     style="fill:#ffffff;fill-opacity:1"><path
       style="fill:#ffffff;fill-opacity:1;fill-rule:nonzero;stroke:none"
       d="m 142.35937,525.59375 c 0.0937,0.11719 0.15625,0.27344 0.25782,0.30859 0.48437,0.17188 0.84375,0 1.04687,-0.45703 0.0273,-0.0625 0.0977,-0.1289 0.16016,-0.14453 0.0391,-0.0117 0.12109,0.0586 0.14844,0.11328 0.082,0.14453 0.14453,0.30469 0.21875,0.45313 0.0391,0.0781 0.0859,0.21093 0.1289,0.21093 0.15625,0 0.35938,0 0.44922,-0.0937 0.13672,-0.13671 0.30078,-0.38671 0.26172,-0.53125 -0.10547,-0.35546 -0.25781,-0.73046 -0.5,-1 -0.45703,-0.51171 -0.42969,-1.14453 -0.54297,-1.73828 -0.0391,-0.19531 -0.0508,-0.36718 -0.26172,-0.40234 -0.2539,-0.0391 -0.23437,0.17969 -0.28515,0.33984 -0.17579,0.55078 -0.24219,1.12891 -0.60157,1.64063 -0.24609,0.35156 -0.3164,0.82812 -0.48047,1.30078 m 0.0195,-13.35156 c -0.98438,-0.78125 -1.97657,-1.55078 -2.94922,-2.33985 -0.24219,-0.19922 -0.47266,-0.43359 -0.63282,-0.69922 -0.14062,-0.22656 -0.30859,-0.375 -0.54296,-0.41406 -0.19532,-0.0351 -0.41797,-0.008 -0.60938,0.0469 -0.0703,0.0195 -0.0703,0.21875 -0.13672,0.30468 -0.1289,0.15625 -0.25781,0.33985 -0.42969,0.42969 -0.5664,0.30078 -0.67968,0.45313 -0.63671,0.9961 0.0156,0.21484 0.0742,0.41796 0.29687,0.47265 0.23047,0.0547 0.46094,0.082 0.65234,-0.14844 0.22657,-0.27734 0.63672,-0.34765 0.95704,-0.21484 1.0039,0.41797 1.89453,1.01953 2.74218,1.68359 0.67578,0.53125 0.66016,0.55079 1.26953,-0.0469 0.004,-0.008 0.004,-0.0195 0.0195,-0.0703 m 1.4375,2.17578 c 0.83984,0.66015 1.66796,1.3125 2.49218,1.96484 0.51172,0.40235 1.03516,0.80078 1.28516,1.42578 0.12891,0.32032 0.35156,0.50391 0.63281,0.64063 0.40235,0.19531 0.85938,-0.11328 0.78906,-0.5586 -0.0742,-0.47656 0.125,-0.80859 0.4375,-1.11718 0.26954,-0.26172 0.21485,-0.66407 -0.14453,-0.76563 -0.27343,-0.0781 -0.58203,-0.0508 -0.875,-0.0273 -0.33203,0.0234 -0.6289,0.0234 -0.9375,-0.17969 -1.0039,-0.67187 -2.03515,-1.30859 -3.05859,-1.96094 -0.21484,0.19922 -0.41016,0.38282 -0.62109,0.57813 m -7.11329,6.14062 c 0.004,-0.0273 0.004,-0.0547 0.004,-0.082 -0.26953,-0.0156 -0.83984,0.19141 -0.86328,0.35547 -0.0508,0.30859 0.0312,0.58984 0.26172,0.82422 0.1875,0.19141 0.34765,0.41406 0.54297,0.59766 0.63281,0.61328 1.38672,0.89062 2.26953,0.76171 0.40625,-0.0547 0.8125,-0.10546 1.21484,-0.18359 0.4961,-0.0937 0.91797,-0.31641 1.23438,-0.73047 0.17187,-0.22656 0.35547,-0.45312 0.5625,-0.65234 0.20703,-0.19922 0.21484,-0.35156 -0.0664,-0.45703 -0.32422,-0.1211 -0.66797,-0.2461 -1.00781,-0.26563 -1.38281,-0.0781 -2.76563,-0.11328 -4.15235,-0.16797 m 8.16797,0.42969 c -0.0195,0.0508 -0.0352,0.10156 -0.0547,0.15234 0.20312,0.29297 0.37109,0.62891 0.625,0.875 0.47656,0.47266 1.05468,0.81641 1.76171,0.75391 0.58594,-0.0547 1.16407,-0.19141 1.75,-0.25 0.97657,-0.0977 1.47657,-0.80469 1.98438,-1.5 0.15625,-0.21484 0.0547,-0.83984 -0.11719,-0.95312 -0.59765,-0.38672 -1.20703,-0.5 -1.92187,-0.2461 -0.9961,0.35156 -2.02735,0.59766 -3.04297,0.89063 -0.32813,0.0937 -0.65625,0.18359 -0.98438,0.27734 m -7.71484,-5.45312 c -0.35156,0 -0.52734,0.11718 -0.73438,0.65625 -0.0742,0.20312 -0.0547,0.38281 0.14844,0.52343 0.38281,0.26172 0.48047,0.60157 0.25781,1.00782 -0.1289,0.23828 -0.0742,0.41015 0.11329,0.57812 0.41796,0.37109 1.08203,0.17188 1.3789,-0.35156 0.23438,-0.41797 0.50781,-0.85547 0.8711,-1.15625 1.23828,-1.03125 2.51953,-2.00781 3.79296,-2.9961 0.58594,-0.44921 1.17579,-0.89062 1.77735,-1.32421 0.91015,-0.66016 1.73047,-1.46485 2.89062,-1.72657 0.46094,-0.10547 0.65625,-0.0937 0.95703,0.25391 0.043,0.0469 0.13672,0.0742 0.20704,0.0781 0.26953,0 0.52343,-0.0508 0.67187,-0.30468 0.17188,-0.28907 0.0703,-0.58985 -0.0273,-0.86328 -0.0352,-0.10157 -0.26563,-0.21875 -0.37891,-0.19141 -0.46484,0.10156 -0.77734,-0.0898 -0.84766,-0.57813 -0.0117,-0.0664 -0.004,-0.14843 -0.043,-0.1914 -0.21485,-0.25781 -0.76563,-0.21094 -0.91407,0.0976 -0.1875,0.39454 -0.48828,0.67188 -0.82031,0.92969 -0.87891,0.6875 -1.75,1.38672 -2.625,2.07813 -1.13281,0.89062 -2.22656,1.83984 -3.5,2.53906 -0.92187,0.5 -1.83594,1.03516 -3.17578,0.94141 m 10.71875,12.49218 c -0.25,0.082 -0.47656,0.17188 -0.70703,0.23047 -0.082,0.0195 -0.20703,0 -0.26563,-0.0508 -0.43359,-0.375 -0.65234,-0.38672 -1.07031,-0.0391 -0.19922,-0.3086 -0.48047,-0.60547 -0.84766,-0.46094 -0.29687,0.11328 -0.52343,0.42188 -0.80859,0.66797 -0.26172,-0.15625 -0.57812,-0.20313 -0.88281,0.0781 -0.29688,-0.20703 -0.38281,-0.70703 -0.85547,-0.65625 -0.42188,0.0469 -0.63281,0.39063 -0.875,0.69922 -0.0391,-0.0273 -0.0859,-0.0469 -0.11719,-0.082 -0.22656,-0.27344 -0.45703,-0.4375 -0.78515,-0.12109 -0.0469,0.0469 -0.26172,0.0117 -0.30469,-0.0508 -0.20313,-0.29688 -0.48828,-0.37891 -0.875,-0.35547 0.35937,-0.58203 0.0625,-1.08985 -0.082,-1.60938 -0.0352,-0.12109 -0.10547,-0.2539 -0.19922,-0.32422 -0.22656,-0.16796 -0.1836,-0.30859 -0.0312,-0.49609 0.21875,-0.26953 0.1914,-0.44922 -0.0898,-0.65234 -0.60156,-0.44532 -1.21875,-0.48047 -1.61718,0.28906 -0.22266,0.43359 -0.83594,0.47656 -1.22266,0.14453 -0.25391,-0.22266 -0.52344,-0.42969 -0.80078,-0.61719 -0.59375,-0.40234 -0.95703,-0.94922 -1.12109,-1.64062 -0.0859,-0.3711 -0.17969,-0.73828 -0.28516,-1.10547 -0.0859,-0.30859 -0.21484,-0.58203 -0.46094,-0.81641 -0.32031,-0.30468 -0.28125,-0.78515 0.13281,-1.09765 0.60157,-0.45703 0.56641,-1.05078 0.55469,-1.69532 -0.0117,-0.55078 -0.27344,-1.0039 -0.41015,-1.5039 -0.12891,-0.46485 -0.1836,-0.95703 -0.22266,-1.44141 -0.14453,-1.74609 0.28906,-3.39453 0.92578,-4.98828 0.48828,-1.22266 1.26172,-2.24609 2.32813,-3.0625 0.66796,-0.51172 1.41015,-0.82422 2.18359,-1.07812 0.85937,-0.28125 1.74219,-0.50391 2.625,-0.70313 0.39453,-0.0898 0.8125,-0.0703 1.22266,-0.0859 0.83984,-0.0273 1.67968,-0.0703 2.51953,-0.0586 0.35937,0.004 0.73437,0.0742 1.07422,0.19922 0.67578,0.24609 1.34375,0.51562 1.98437,0.84375 0.42578,0.21875 0.82813,0.51172 1.19141,0.83594 0.48828,0.4375 0.98047,0.88281 1.33593,1.46484 0.8086,1.33203 1.48438,2.71875 1.73829,4.26953 0.11328,0.71875 0.24609,1.44531 0.24218,2.16797 -0.008,0.66797 -0.15234,1.34375 -0.30859,2 -0.125,0.54297 -0.12891,1.06641 -0.004,1.59766 0.0508,0.21875 0.14063,0.39843 0.375,0.5039 0.0898,0.043 0.16016,0.2461 0.15235,0.36719 -0.0273,0.41797 -0.13672,0.83203 -0.12891,1.24609 0.004,0.50391 0.0898,1.00782 0.14844,1.51172 0.0312,0.25391 -0.0195,0.42188 -0.21094,0.64844 -0.35547,0.41016 -0.85937,0.49219 -1.26172,0.76562 -0.42969,0.29297 -0.84765,0.59375 -1.26562,0.89454 -0.32032,0.23046 -0.64063,0.32421 -0.98438,0.0469 -0.0352,-0.0273 -0.10937,-0.0586 -0.13281,-0.043 -0.25781,0.17578 -0.63672,0.15625 -0.75,0.5625 -0.13281,0.46094 -0.26563,0.94531 -0.52344,1.33203 -0.33203,0.5 -0.27344,0.9961 -0.22656,1.46875"
       id="path14441" /></g><g
     clip-path="url(#clip74)"
     clip-rule="nonzero"
     id="g14447"
     transform="matrix(8.4748591,0,0,8.4748591,-1106.9334,-4282.7005)"
     style="fill:#ffffff;fill-opacity:1"><path
       style="fill:#ffffff;fill-opacity:1;fill-rule:nonzero;stroke:none"
       d="m 143.04687,530.71094 c -0.20703,-0.0312 -0.42187,-0.0664 -0.71484,-0.11719 -0.11719,-0.61328 -0.24609,-1.25391 -0.36719,-1.89453 -0.0547,-0.28516 0.13282,-0.46485 0.34766,-0.57031 0.20703,-0.10547 0.32031,0.10546 0.46484,0.22656 0.22657,0.19531 0.34375,0.39453 0.26563,0.69922 -0.0156,0.0742 0.0312,0.17187 0.0586,0.25781 0.17188,0.48437 0.16406,0.875 -0.0547,1.39844"
       id="path14445" /></g><g
     clip-path="url(#clip75)"
     clip-rule="nonzero"
     id="g14451"
     transform="matrix(8.4748591,0,0,8.4748591,-1106.9334,-4282.7005)"
     style="fill:#ffffff;fill-opacity:1"><path
       style="fill:#ffffff;fill-opacity:1;fill-rule:nonzero;stroke:none"
       d="m 145.00781,530.44531 c -0.22656,0.0312 -0.44922,0.0625 -0.6875,0.0937 -0.1289,-0.80859 -0.0117,-1.55469 0.48438,-2.20312 0.0898,-0.1211 0.26172,-0.21094 0.41015,-0.25 0.23828,-0.0586 0.38672,0.0937 0.35547,0.33593 -0.0273,0.21485 -0.0781,0.42188 -0.14062,0.62891 -0.13282,0.46875 -0.28125,0.92969 -0.42188,1.39453"
       id="path14449" /></g><g
     clip-path="url(#clip76)"
     clip-rule="nonzero"
     id="g14455"
     transform="matrix(8.4748591,0,0,8.4748591,-1106.9334,-4282.7005)"
     style="fill:#ffffff;fill-opacity:1"><path
       style="fill:#ffffff;fill-opacity:1;fill-rule:nonzero;stroke:none"
       d="m 146.84375,528.71875 c 0.0742,0.49609 -0.30469,0.81641 -0.48828,1.21484 -0.0547,0.1211 -0.15625,0.23047 -0.25,0.32813 -0.0508,0.0508 -0.14063,0.11719 -0.1875,0.0977 -0.0586,-0.0195 -0.0859,-0.11328 -0.125,-0.17968 -0.008,-0.0156 -0.008,-0.0391 -0.008,-0.0586 0.043,-0.45312 0.0586,-0.91406 0.13671,-1.35937 0.0352,-0.1875 0.17188,-0.37891 0.3086,-0.51953 0.0859,-0.0899 0.27734,-0.14844 0.38672,-0.11328 0.0937,0.0273 0.15234,0.20312 0.20312,0.32421 0.0312,0.0781 0.0156,0.17579 0.0234,0.26563"
       id="path14453" /></g><g
     clip-path="url(#clip77)"
     clip-rule="nonzero"
     id="g14459"
     transform="matrix(8.4748591,0,0,8.4748591,-1106.9334,-4282.7005)"
     style="fill:#ffffff;fill-opacity:1"><path
       style="fill:#ffffff;fill-opacity:1;fill-rule:nonzero;stroke:none"
       d="m 144.13281,528.97656 c -0.0742,0.32422 -0.15625,0.66797 -0.22656,1.01563 -0.0273,0.125 -0.004,0.26172 -0.0352,0.38281 -0.0312,0.10547 -0.11328,0.19531 -0.16797,0.28906 -0.11328,-0.0742 -0.29687,-0.13281 -0.32031,-0.22656 -0.0664,-0.27734 -0.0742,-0.57031 -0.0977,-0.85938 -0.0117,-0.17968 0,-0.35937 -0.0117,-0.53906 -0.0234,-0.32422 0.27734,-0.60547 0.59765,-0.54687 0.19532,0.0391 0.25782,0.14843 0.26172,0.48437"
       id="path14457" /></g><g
     clip-path="url(#clip78)"
     clip-rule="nonzero"
     id="g14463"
     transform="matrix(8.4748591,0,0,8.4748591,-1106.9334,-4282.7005)"
     style="fill:#ffffff;fill-opacity:1"><path
       style="fill:#ffffff;fill-opacity:1;fill-rule:nonzero;stroke:none"
       d="m 140.85547,530.32031 c -0.74219,-0.36719 -0.89453,-1.05859 -1.17188,-1.66406 -0.0234,-0.0469 0.0586,-0.20313 0.10547,-0.21094 0.22266,-0.0312 0.46485,-0.0742 0.61328,0.17188 0.0312,0.0469 0.0937,0.0703 0.12891,0.11718 0.11328,0.14063 0.28906,0.28125 0.30859,0.4375 0.043,0.36719 0.0156,0.7461 0.0156,1.14844"
       id="path14461" /></g><g
     clip-path="url(#clip79)"
     clip-rule="nonzero"
     id="g14467"
     transform="matrix(8.4748591,0,0,8.4748591,-1106.9334,-4282.7005)"
     style="fill:#ffffff;fill-opacity:1"><path
       style="fill:#ffffff;fill-opacity:1;fill-rule:nonzero;stroke:none"
       d="m 141.36719,530.41797 c -0.21094,-0.46485 -0.47266,-0.91406 -0.44532,-1.45313 0.008,-0.0976 0.11719,-0.27343 0.15235,-0.26953 0.17969,0.0391 0.35937,0.10156 0.51562,0.19531 0.0586,0.0352 0.0586,0.1836 0.0586,0.28125 0.004,0.31641 0.0117,0.63672 -0.0156,0.95313 -0.008,0.11328 -0.10937,0.21875 -0.16797,0.33203 -0.0352,-0.0156 -0.0664,-0.0273 -0.0977,-0.0391"
       id="path14465" /></g><path
     style="fill:#ffffff;fill-opacity:1;fill-rule:nonzero;stroke:none;stroke-width:8.47484"
     d="m 146.65054,199.04335 c -1.68838,3.14502 -3.04567,5.7272 -4.53543,8.24322 -0.0318,0.0318 -2.21804,-0.79407 -2.25109,-1.22496 -0.068,-3.01249 0.068,-6.02511 0.43031,-9.00456 0.068,-0.52946 1.98623,-1.39027 2.58219,-1.12541 1.35722,0.66186 2.4166,1.95311 3.77396,3.11171"
     id="path14469" /></g></svg>
