<?xml version="1.0" encoding="UTF-8" standalone="no"?>
<svg
   width="215"
   height="215"
   viewBox="0 0 56.885415 56.885418"
   version="1.1"
   id="svg8"
   inkscape:version="1.2.1 (9c6d41e, 2022-07-14)"
   sodipodi:docname="dhar-alt.svg"
   xmlns:inkscape="http://www.inkscape.org/namespaces/inkscape"
   xmlns:sodipodi="http://sodipodi.sourceforge.net/DTD/sodipodi-0.dtd"
   xmlns="http://www.w3.org/2000/svg"
   xmlns:svg="http://www.w3.org/2000/svg"
   xmlns:rdf="http://www.w3.org/1999/02/22-rdf-syntax-ns#"
   xmlns:cc="http://creativecommons.org/ns#"
   xmlns:dc="http://purl.org/dc/elements/1.1/">
  <defs
     id="defs2" />
  <sodipodi:namedview
     id="base"
     pagecolor="#ffffff"
     bordercolor="#666666"
     borderopacity="1.0"
     inkscape:pageopacity="0.0"
     inkscape:pageshadow="2"
     inkscape:zoom="2.1380914"
     inkscape:cx="209.76652"
     inkscape:cy="82.082553"
     inkscape:document-units="px"
     inkscape:current-layer="layer1"
     inkscape:document-rotation="0"
     showgrid="false"
     units="px"
     inkscape:window-width="1728"
     inkscape:window-height="971"
     inkscape:window-x="0"
     inkscape:window-y="38"
     inkscape:window-maximized="1"
     inkscape:snap-global="false"
     inkscape:pagecheckerboard="false"
     inkscape:showpageshadow="2"
     inkscape:deskcolor="#d1d1d1" />
  <metadata
     id="metadata5">
    <rdf:RDF>
      <cc:Work
         rdf:about="">
        <dc:format>image/svg+xml</dc:format>
        <dc:type
           rdf:resource="http://purl.org/dc/dcmitype/StillImage" />
        <dc:title />
      </cc:Work>
    </rdf:RDF>
  </metadata>
  <g
     inkscape:label="Layer 1"
     inkscape:groupmode="layer"
     id="layer1"
     transform="translate(0,-240.11457)">
    <path
       id="rect845"
       style="fill:#000000;fill-opacity:1;stroke-width:0.764241;paint-order:markers fill stroke"
       d="m 28.442465,240.11457 -3.849002,6.66777 h 2.310963 v 18.06095 l -12.771084,-12.77109 1.633739,-1.63373 -7.4367784,-1.9931 1.9935894,7.43629 1.633739,-1.63375 12.771571,12.77109 H 6.6677574 v -2.31096 L -2.0000002e-7,268.55704 6.6677574,272.40653 v -2.31097 H 24.728714 l -12.771083,12.77109 -1.633739,-1.63374 -1.9935894,7.43629 7.4367784,-1.99311 -1.633739,-1.63373 12.771084,-12.77109 v 18.06096 h -2.310963 l 3.849002,6.66776 3.849486,-6.66776 h -2.310962 v -18.06096 l 12.771082,12.77109 -1.633738,1.63373 7.436291,1.99359 -1.993102,-7.43677 -1.633736,1.63374 -12.770596,-12.77109 h 18.060466 v 2.31097 l 6.667761,-3.84949 -6.667761,-3.849 V 267.019 H 32.156702 l 12.771084,-12.77109 1.633736,1.63375 1.993102,-7.43678 -7.436291,1.99359 1.633738,1.63373 -12.771082,12.77109 v -18.06095 h 2.310962 z" />
  </g>
</svg>
