<?xml version="1.0" encoding="UTF-8" standalone="no"?>
<!-- Created with Inkscape (http://www.inkscape.org/) -->

<svg
   width="215"
   height="215"
   viewBox="0 0 56.885418 56.885416"
   version="1.1"
   id="svg5"
   xml:space="preserve"
   inkscape:version="1.2.1 (9c6d41e, 2022-07-14)"
   sodipodi:docname="aleguzzlers.svg"
   inkscape:export-filename="Aleguzzler Gargants Runemark.png"
   inkscape:export-xdpi="96"
   inkscape:export-ydpi="96"
   xmlns:inkscape="http://www.inkscape.org/namespaces/inkscape"
   xmlns:sodipodi="http://sodipodi.sourceforge.net/DTD/sodipodi-0.dtd"
   xmlns="http://www.w3.org/2000/svg"
   xmlns:svg="http://www.w3.org/2000/svg"><sodipodi:namedview
     id="namedview7"
     pagecolor="#ffffff"
     bordercolor="#000000"
     borderopacity="0.25"
     inkscape:showpageshadow="2"
     inkscape:pageopacity="0.0"
     inkscape:pagecheckerboard="0"
     inkscape:deskcolor="#d1d1d1"
     inkscape:document-units="px"
     showgrid="false"
     inkscape:zoom="1.1893044"
     inkscape:cx="68.527452"
     inkscape:cy="122.34042"
     inkscape:window-width="1728"
     inkscape:window-height="971"
     inkscape:window-x="0"
     inkscape:window-y="38"
     inkscape:window-maximized="1"
     inkscape:current-layer="layer1" /><defs
     id="defs2" /><g
     inkscape:label="Layer 1"
     inkscape:groupmode="layer"
     id="layer1"
     transform="translate(0,-480.22916)"><g
       id="g2570"
       transform="matrix(1.1673628,0.05889805,-0.05889805,1.1673628,-58.175217,309.62283)"
       style="fill:#ffffff;fill-opacity:1"><path
         style="fill:#ffffff;fill-opacity:1;stroke-width:0.264583"
         d="m 72.524886,189.54747 c 0.563328,0.37973 1.018554,0.48573 2.113455,0.66741 1.955971,0.32456 6.313189,0.37987 9.6774,0.22247 3.364211,-0.1574 8.282353,0.19194 10.456042,-1.22358 0.639923,-1.21888 1.133436,-2.30219 2.558394,-4.33814 0.704728,-0.12357 1.877621,-0.20566 3.670733,-0.33371 1.90097,-3.03084 3.819,-6.29711 6.22914,-12.79196 -1.53868,-0.37695 -2.663,-0.82178 -4.78309,-1.11235 -0.74922,2.81002 -2.882498,8.62175 -4.671847,12.45826 -3.755713,-3.20308 -6.350601,-5.44465 -10.567275,-9.56616 -1.03116,1.85625 -1.829141,2.72701 -2.669628,3.67073 -2.374253,-1.53389 -2.837068,-2.8982 -3.559503,-4.44937 -2.256201,3.20743 -1.660573,6.52231 -2.335924,8.00888 -2.327103,-1.22702 -3.477033,-1.93049 -5.339257,-3.11457 0.340107,1.21489 0.473336,2.17767 0.444939,3.00333 -5.851644,-0.44379 -14.452866,-7.21145 -14.349248,-11.90209 -1.363997,4.47312 -1.756734,13.36293 6.340364,16.24024 0.624905,0.28171 1.523497,-0.91428 2.558393,-0.55617 1.457696,0.50442 3.003392,4.29203 4.226912,5.11678 z"
         id="path358"
         sodipodi:nodetypes="ccccccccccccccccccc" /><path
         style="fill:#ffffff;fill-opacity:1;stroke-width:0.264583"
         d="m 96.981197,181.22033 c 6.397243,-8.78311 1.389565,-27.94863 -7.23623,-39.5633 2.569384,15.07548 0.5768,23.22935 -1.258475,31.77649 2.831572,2.5956 5.663138,5.19121 8.494705,7.78681 z"
         id="path1064"
         sodipodi:nodetypes="cccc" /><path
         style="fill:#ffffff;fill-opacity:1;stroke-width:0.264583"
         d="m 84.396449,175.7145 c 0,0 1.393075,-1.83908 1.651749,-4.24735 -0.763839,-2.60491 -3.539458,-8.73067 -3.539458,-8.73067 0,0 -0.560277,6.48882 -0.393274,8.88798 0.520949,2.20252 2.280983,4.09004 2.280983,4.09004 z"
         id="path2541"
         sodipodi:nodetypes="ccccc" /><path
         style="fill:#ffffff;fill-opacity:1;stroke-width:0.264583"
         d="m 77.632149,178.90002 c 0.580608,-2.10814 1.19279,-4.20637 1.848384,-6.29238 -0.714298,-3.96068 -1.10654,-7.93446 -1.219147,-11.9555 -2.813919,2.67877 -4.236045,5.779 -5.387842,9.47788 0.597903,2.09544 0.775902,3.8969 0.07865,5.97776 1.713509,0.69313 3.174294,1.69458 4.679953,2.79224 z"
         id="path2543"
         sodipodi:nodetypes="cccccc" /><path
         style="fill:#ffffff;fill-opacity:1;stroke-width:0.264583"
         d="m 72.302417,178.86896 c -5.661419,-10.7403 -1.99267,-21.25826 -0.333703,-32.75855 -6.642316,8.20645 -9.974852,14.67471 -10.734128,25.58393 4.207778,3.63735 5.978795,5.68705 11.067831,7.17462 z"
         id="path2547"
         sodipodi:nodetypes="cccc" /><path
         style="fill:#ffffff;fill-opacity:1;stroke-width:0.264583"
         d="m 71.89036,174.80997 c 0.833433,-1.85315 0.865931,-1.74123 -0.157311,-3.34282 -1.14572,1.59655 -0.689979,1.64825 0.157311,3.34282 z"
         id="path2559"
         sodipodi:nodetypes="ccc" /><path
         style="fill:#ffffff;fill-opacity:1;stroke-width:0.264583"
         d="m 87.503308,171.42782 c -0.561959,-0.9837 -0.455092,-1.52245 -0.196635,-2.55627 0.70238,0.98489 0.501429,1.45902 0.196635,2.55627 z"
         id="path2561"
         sodipodi:nodetypes="ccc" /></g></g></svg>
