<?xml version="1.0" encoding="UTF-8" standalone="no"?>
<svg
   width="215"
   height="215"
   viewBox="0 0 56.885415 56.885415"
   version="1.1"
   id="svg8"
   inkscape:version="1.2.1 (9c6d41e, 2022-07-14)"
   sodipodi:docname="greenskinz.svg"
   xmlns:inkscape="http://www.inkscape.org/namespaces/inkscape"
   xmlns:sodipodi="http://sodipodi.sourceforge.net/DTD/sodipodi-0.dtd"
   xmlns="http://www.w3.org/2000/svg"
   xmlns:svg="http://www.w3.org/2000/svg"
   xmlns:rdf="http://www.w3.org/1999/02/22-rdf-syntax-ns#"
   xmlns:cc="http://creativecommons.org/ns#"
   xmlns:dc="http://purl.org/dc/elements/1.1/">
  <defs
     id="defs2" />
  <sodipodi:namedview
     id="base"
     pagecolor="#ffffff"
     bordercolor="#666666"
     borderopacity="1.0"
     inkscape:pageopacity="0.0"
     inkscape:pageshadow="2"
     inkscape:zoom="0.7"
     inkscape:cx="127.14286"
     inkscape:cy="270"
     inkscape:document-units="px"
     inkscape:current-layer="layer1"
     inkscape:document-rotation="0"
     showgrid="false"
     units="px"
     inkscape:window-width="1309"
     inkscape:window-height="456"
     inkscape:window-x="0"
     inkscape:window-y="38"
     inkscape:window-maximized="0"
     inkscape:showpageshadow="2"
     inkscape:pagecheckerboard="0"
     inkscape:deskcolor="#d1d1d1" />
  <metadata
     id="metadata5">
    <rdf:RDF>
      <cc:Work
         rdf:about="">
        <dc:format>image/svg+xml</dc:format>
        <dc:type
           rdf:resource="http://purl.org/dc/dcmitype/StillImage" />
        <dc:title />
      </cc:Work>
    </rdf:RDF>
  </metadata>
  <g
     inkscape:label="Layer 1"
     inkscape:groupmode="layer"
     id="layer1"
     transform="translate(0,-240.11459)">
    <g
       id="g886"
       transform="matrix(4.4309129,0,0,4.4309129,-322.08044,-86.554747)"
       style="fill:#ffffff;fill-opacity:1"
       inkscape:export-filename="C:\Users\Abed\Desktop\Greenskinz Runemark.png"
       inkscape:export-xdpi="96"
       inkscape:export-ydpi="96">
      <path
         style="fill:#ffffff;fill-opacity:1;stroke:none;stroke-width:0.264583px;stroke-linecap:butt;stroke-linejoin:miter;stroke-opacity:1"
         d="m 75.403415,83.284593 1.904294,1.33635 0.434313,-0.53454 -0.233859,0.801809 2.305198,1.302938 1.336349,-1.637025 0.200451,-0.467722 1.302941,-1.135896 -0.33409,-3.173826 -1.169302,2.939966 -0.601358,-1.069078 -0.200451,2.037929 -0.53454,-1.637025 -0.567947,1.302938 -0.501131,-1.469982 -0.801807,1.77066 -0.601358,-1.77066 -0.601356,0.668173 -0.334086,-2.505652 z"
         id="path849" />
      <path
         id="path851"
         style="fill:#ffffff;fill-opacity:1;stroke:none;stroke-width:0.999999px;stroke-linecap:butt;stroke-linejoin:miter;stroke-opacity:1"
         d="m 300.39453,280.05273 -9.21875,6.69141 1.13672,2.27344 -2.27148,-0.37891 -3.53711,7.32422 c 0,0 0.0838,1.76214 0.2539,2.39844 0.66118,0.12292 1.28727,0.29587 2.01953,0.3789 1.11173,-0.65358 4.16602,-2.14648 4.16602,-2.14648 l -2.52539,12.5 3.41015,-3.2832 0.88477,6.94531 3.28125,-6.69141 1.51563,5.55469 2.65234,-4.67187 0.63086,3.53515 0.88476,-2.14648 2.65039,-1.51367 0.25391,3.02929 1.51367,-3.66211 -0.88281,-0.75781 1.64063,-3.53516 -1.13672,-5.05078 c 0,0 3.09141,1.31251 4.79882,1.26368 0.91823,-1.50093 1.76758,-5.05079 1.76758,-5.05079 l -5.55468,-2.52539 z m -4.32226,6.99805 c 0.18778,0 1.9827,0.18958 2.29882,0.44727 0.3161,0.25767 0.45395,0.9546 0.55664,1.33789 0.10271,0.38329 -0.97896,3.0437 -1.13671,3.28125 -0.15778,0.23753 -0.76072,0.66314 -1.00586,0.80469 -0.24514,0.14151 -2.53711,-0.36834 -2.70118,-0.5586 -0.16406,-0.19026 -0.571,-1.27497 -0.55664,-1.60742 0.0144,-0.33245 0.95489,-2.55318 1.00391,-2.56641 0,0 1.35325,-1.13867 1.54102,-1.13867 z m 8.9082,1.44727 c 0.41559,0.0666 0.71349,0.65471 0.62305,1.05859 -0.0904,0.40389 -0.65975,0.80955 -1.04688,0.72266 -0.38715,-0.0869 -0.60596,-0.55977 -0.53906,-0.94532 0.0669,-0.38552 0.54729,-0.90253 0.96289,-0.83593 z m -3.48242,4.43359 0.82226,3.15625 -2.24219,-0.2207 z"
         transform="scale(0.26458333)"
         sodipodi:nodetypes="ccccccccccccccccccccccccccssssssscsssssscccc" />
      <path
         style="fill:#ffffff;fill-opacity:1;stroke:none;stroke-width:0.264583px;stroke-linecap:butt;stroke-linejoin:miter;stroke-opacity:1"
         d="m 75.240884,82.628432 0.673272,-2.102493 c 0,0 -0.775549,0.24115 -1.004001,0.04725 -0.108729,-0.09229 -0.06676,-0.283951 -0.04725,-0.425223 0.02151,-0.155717 0.230529,-0.289173 0.177175,-0.437036 -0.101643,-0.281687 -0.503076,-0.344257 -0.791387,-0.425222 -0.208794,-0.05863 -0.45572,-0.132525 -0.649647,-0.03544 -0.291964,0.146165 -0.567776,0.48942 -0.543341,0.815012 0.01752,0.233469 0.416349,0.292416 0.472472,0.519716 0.07898,0.319855 -0.09,0.667672 -0.248047,0.956752 -0.138997,0.254242 -0.583259,0.348172 -0.59059,0.637836 -0.0079,0.312955 0.345971,0.540942 0.602401,0.720516 0.198939,0.139314 0.46894,0.358805 0.685083,0.248047 0.244024,-0.125046 0.09478,-0.549773 0.224422,-0.791387 0.03432,-0.06397 0.07224,-0.14437 0.14174,-0.165365 0.180167,-0.05443 0.375978,0.06746 0.543343,0.153554 0.134513,0.06919 0.354355,0.283483 0.354355,0.283483 z"
         id="path876"
         sodipodi:nodetypes="ccssssssssssssssc" />
      <path
         style="fill:#ffffff;fill-opacity:1;stroke:none;stroke-width:0.264583px;stroke-linecap:butt;stroke-linejoin:miter;stroke-opacity:1"
         d="M 82.882462,82.343953 82.614203,80.15265 c 0,0 0.716778,0.381914 0.977458,0.234152 0.124068,-0.07033 0.118677,-0.26646 0.125927,-0.408888 0.008,-0.156993 -0.172391,-0.327179 -0.09233,-0.462457 0.152522,-0.257713 0.558574,-0.244117 0.85694,-0.269744 0.216074,-0.01855 0.472462,-0.04497 0.644815,0.08666 0.259484,0.19818 0.466247,0.586954 0.381362,0.902235 -0.06087,0.226075 -0.463684,0.209406 -0.561319,0.422203 -0.137396,0.299445 -0.03643,0.672725 0.06477,0.986259 0.08901,0.275748 0.507868,0.451093 0.460907,0.737018 -0.05076,0.308913 -0.441018,0.46671 -0.726503,0.595167 -0.22148,0.09966 -0.527761,0.264791 -0.719382,0.115571 -0.216338,-0.16847 0.0097,-0.557799 -0.07248,-0.819393 -0.02175,-0.06926 -0.04397,-0.155331 -0.108319,-0.188952 -0.166812,-0.08716 -0.381961,-0.004 -0.562473,0.04925 -0.145078,0.04282 -0.401112,0.212223 -0.401112,0.212223 z"
         id="path880"
         sodipodi:nodetypes="ccssssssssssssssc" />
    </g>
  </g>
</svg>
