<?xml version="1.0" encoding="UTF-8" standalone="no"?>
<!-- Created with Inkscape (http://www.inkscape.org/) -->

<svg
   width="215"
   height="215"
   viewBox="0 0 56.885416 56.885416"
   version="1.1"
   id="svg5"
   xml:space="preserve"
   inkscape:version="1.2.1 (9c6d41e, 2022-07-14)"
   sodipodi:docname="Gutbusters Runemark.svg"
   inkscape:export-filename="Gutbusters Runemark.png"
   inkscape:export-xdpi="96"
   inkscape:export-ydpi="96"
   xmlns:inkscape="http://www.inkscape.org/namespaces/inkscape"
   xmlns:sodipodi="http://sodipodi.sourceforge.net/DTD/sodipodi-0.dtd"
   xmlns="http://www.w3.org/2000/svg"
   xmlns:svg="http://www.w3.org/2000/svg"><sodipodi:namedview
     id="namedview7"
     pagecolor="#ffffff"
     bordercolor="#000000"
     borderopacity="0.25"
     inkscape:showpageshadow="2"
     inkscape:pageopacity="0.0"
     inkscape:pagecheckerboard="0"
     inkscape:deskcolor="#d1d1d1"
     inkscape:document-units="px"
     showgrid="false"
     inkscape:zoom="0.84096521"
     inkscape:cx="473.86027"
     inkscape:cy="51.131723"
     inkscape:window-width="1728"
     inkscape:window-height="966"
     inkscape:window-x="0"
     inkscape:window-y="38"
     inkscape:window-maximized="1"
     inkscape:current-layer="layer1" /><defs
     id="defs2" /><g
     inkscape:label="Layer 1"
     inkscape:groupmode="layer"
     id="layer1"
     transform="translate(0,-480.22914)"><g
       id="g5237"
       transform="matrix(0.5729294,0,0,0.5729294,-23.58318,421.12094)"
       style="fill:#ffffff;fill-opacity:1"><path
         style="fill:#ffffff;fill-opacity:1;stroke-width:0.264583"
         d="m 102.72299,200.56938 c -1.3883,0.71398 -4.146527,0.17159 -5.033903,-0.62924 -0.887376,-0.80083 0.324455,-1.70255 -0.471927,-2.04503 -0.796382,-0.34248 -1.806156,0.81613 -2.674258,1.5731 -0.868102,0.75697 -1.419877,2.44137 -2.359641,2.98888 -1.352701,-0.98626 -1.975063,-2.48734 -3.303495,-2.98888 -1.308768,-0.24591 -2.54202,0.80152 -3.303495,1.25847 -1.05643,-0.95884 -1.012275,-1.52124 -2.045022,-2.35964 -1.032747,-0.8384 -2.88441,-2.17218 -4.247351,-2.35963 -1.362941,-0.18745 -2.609464,0.44576 -3.303495,0.78654 -1.185623,-0.0918 -1.873885,-0.55833 -3.303497,-0.96352 -0.623401,-1.23105 1.329164,-3.5435 0.943855,-4.85692 -0.385309,-1.31342 -2.674257,-2.51695 -2.674257,-2.51695 l 4.561969,-27.52913 c -6.371027,-4.53575 -9.202595,-15.04926 -11.798199,-20.92214 -1.048729,-4.56197 -2.018803,-8.65202 -2.438294,-13.21399 2.587707,-3.31314 2.394265,-4.86594 7.157574,-2.98887 0,0 8.169822,9.49923 11.168962,14.62976 -1.798794,2.37762 -3.153064,3.39309 -4.71928,4.24736 -3.375274,-3.7077 -5.348518,-4.24736 -5.348518,-4.24736 0,0 1.1706,2.9565 5.505829,5.50583 5.672358,-4.13631 14.483536,-10.33117 20.20668,-12.38055 1.850799,0.45803 5.482443,0.82994 5.741453,1.76776 0.25901,0.93783 -0.48885,1.94138 -0.82472,2.47088 -1.161738,1.74865 -2.346073,1.78329 -4.673201,3.73725 -4.962059,6.83055 -3.303498,9.28125 -3.303498,9.28125 0,0 0.197337,-5.60349 10.225109,-11.95551 1.5724,-1.12148 1.25847,-2.67426 1.25847,-2.67426 0,0 -1.34887,-3.79369 -1.94251,-3.79369 -0.59364,0 -1.5485,0.97035 -3.139098,0.69358 -1.590601,-0.27678 -3.726285,-1.7256 -5.53118,-2.52649 -1.218131,-0.617 -2.902632,-1.77022 -3.729348,-3.15409 -0.826716,-1.38387 -1.558706,-2.72622 -1.624759,-4.35464 2.890244,-1.59188 13.413255,-3.64318 22.259275,-4.79793 1.65043,1.56597 3.54349,5.2313 5.49319,8.69783 1.9497,3.46653 3.95605,6.73426 4.88922,9.70736 -0.25734,2.72136 -0.56492,5.48041 -1.33713,6.84295 -1.87338,3.32891 -4.06061,7.05407 -6.21372,10.46108 -2.15311,3.40701 -6.15269,6.96538 -6.29237,9.59586 0.50407,9.49452 3.02214,18.90654 5.82044,28.00106 0,0 -0.79318,1.28361 -1.57309,1.73041 -0.77991,0.4468 -2.1623,-0.11815 -2.98888,0.62923 -1.12153,0.70805 -0.52285,2.64675 -1.10116,3.46081 -0.67663,0.49944 -1.8319,0.65484 -1.88771,1.41578 -0.72438,0.8396 -0.65672,3.06145 -2.04502,3.77543 z"
         id="path356"
         sodipodi:nodetypes="cccccccccccccccccccccczccccczzccccscccccccccc" /><path
         style="fill:#ffffff;fill-opacity:1;stroke-width:0.264583"
         d="m 81.145559,138.04591 c 3.659715,-1.76555 4.827044,-2.97466 7.119006,-6.00667 -4.495895,-6.32362 -11.2446,-18.06018 -11.816125,-18.32731 -0.515624,-0.24101 -0.941204,-0.15299 -1.226117,-0.082 -3.32288,2.1164 -4.882827,3.58428 -6.145706,5.00556 -0.247864,0.54531 -0.596096,1.01063 -0.556173,1.9466 1.903101,4.03663 8.520462,12.66654 12.625115,17.46382 z"
         id="path5212"
         sodipodi:nodetypes="ccscccc" /><path
         style="fill:#ffffff;fill-opacity:1;stroke-width:0.264583"
         d="m 109.25132,115.22907 c -3.22388,-6.61118 -6.84194,-13.11871 -14.433126,-11.91618 -7.591187,1.20252 -0.351642,10.33662 1.769733,14.11851 2.948125,-0.25189 7.292513,-1.107 12.663393,-2.20233 z"
         id="path5221"
         sodipodi:nodetypes="czcc" /><path
         style="fill:#ffffff;fill-opacity:1;stroke-width:0.264583"
         d="m 94.936174,117.74602 c -1.883964,-4.45979 -4.109685,-7.50777 -5.42717,-9.00596 -0.602261,-0.60226 -0.884816,-0.82248 -1.140492,-0.90453 -1.493243,-0.4792 -6.176689,-0.6036 -7.944123,0.39327 -1.767434,0.99687 -2.083147,2.59539 -2.359638,3.50014 -0.02086,0.29518 -0.07722,0.56795 0,1.45511 1.7683,3.8957 7.914417,12.47269 11.444253,18.09057 1.03255,0.52499 1.46902,0.52485 2.04502,0.4326 0.576,-0.0923 1.063381,-0.36668 1.219147,-0.70789 0.155766,-0.34121 -0.01119,-0.57279 -0.157308,-0.82588 -0.658965,-1.29433 -5.136411,-4.80342 -5.387846,-5.74179 -0.358323,-1.1995 -0.552553,-2.18565 -0.589909,-2.94955 -0.03736,-0.7639 -0.01915,-1.20815 0.15731,-1.57309 1.041663,-0.83686 5.423423,-1.20334 8.140756,-2.163 z"
         id="path5231"
         sodipodi:nodetypes="cccccccccccccc" /></g></g></svg>
