<?xml version="1.0" encoding="UTF-8" standalone="no"?>
<svg
   xmlns:dc="http://purl.org/dc/elements/1.1/"
   xmlns:cc="http://creativecommons.org/ns#"
   xmlns:rdf="http://www.w3.org/1999/02/22-rdf-syntax-ns#"
   xmlns:svg="http://www.w3.org/2000/svg"
   xmlns="http://www.w3.org/2000/svg"
   xmlns:sodipodi="http://sodipodi.sourceforge.net/DTD/sodipodi-0.dtd"
   xmlns:inkscape="http://www.inkscape.org/namespaces/inkscape"
   id="Layer_1"
   data-name="Layer 1"
   viewBox="0 0 215.00001 215"
   version="1.1"
   sodipodi:docname="kruleboyz.svg"
   width="215"
   height="215"
   inkscape:version="1.0.2-2 (e86c870879, 2021-01-15)">
  <metadata
     id="metadata12">
    <rdf:RDF>
      <cc:Work
         rdf:about="">
        <dc:format>image/svg+xml</dc:format>
        <dc:type
           rdf:resource="http://purl.org/dc/dcmitype/StillImage" />
        <dc:title></dc:title>
      </cc:Work>
    </rdf:RDF>
  </metadata>
  <sodipodi:namedview
     pagecolor="#ffffff"
     bordercolor="#666666"
     borderopacity="1"
     objecttolerance="10"
     gridtolerance="10"
     guidetolerance="10"
     inkscape:pageopacity="0"
     inkscape:pageshadow="2"
     inkscape:window-width="1920"
     inkscape:window-height="1017"
     id="namedview10"
     showgrid="false"
     inkscape:zoom="2.5520927"
     inkscape:cx="40.441453"
     inkscape:cy="85.849571"
     inkscape:window-x="-8"
     inkscape:window-y="-8"
     inkscape:window-maximized="1"
     inkscape:current-layer="Layer_1" />
  <defs
     id="defs4">
    <style
       id="style2">.cls-1{fill:#fff;}</style>
  </defs>
  <g
     id="orhuak.tif"
     transform="matrix(1.2910871,0,0,1.2910871,11.349842,0.00113944)">
    <path
       class="cls-1"
       d="m 953.16,1545.25 c -7.44,-3.55 -8.44,-6.64 -8.59,-14.61 -0.11,-5.76 -2,-11.61 -3.83,-17.19 -1.23,-3.76 -2.58,-7.06 -0.43,-10.93 a 7.48,7.48 0 0 0 0.55,-4.82 c -3.64,-16.56 -2.87,-32.58 6.26,-47.35 2.16,-3.5 5.6,-6.21 8.48,-9.26 0.9,-0.95 2.37,-1.65 2.75,-2.76 3.44,-9.88 11.78,-12.85 20.69,-15.5 3.27,-1 5.52,-4.28 9.37,-4.84 4.17,-0.62 8.23,-3 12.29,-2.85 2.74,0.08 5.5,3 8,4.92 1.1,0.86 1.57,2.52 2.34,3.81 a 27.13,27.13 0 0 0 3.42,-3.8 c 2.61,-4.32 8.79,-7.45 13.15,-5.75 2.41,0.94 4.31,3.21 6.85,5.2 3.62,-4.17 7.87,-2.18 12,0.76 3.38,2.39 6.67,4.89 10,7.35 0.39,0.29 1.07,0.71 1,1 -0.8,7.2 6,7 9.63,9.24 8,5 10.76,12.9 12.52,21.05 1.11,5.12 1.78,10 5.27,14.2 3.13,3.74 3.67,8 1.88,12.62 a 4.79,4.79 0 0 0 -0.35,3.24 c 1.55,3.44 -0.07,5.5 -1.87,8.42 -1.62,2.64 -1.24,6.93 -0.72,10.33 0.45,2.92 1.36,5.26 -1.37,7.65 -0.82,0.72 -0.89,3.35 -0.24,4.51 3,5.37 2.41,8.37 -2.51,12.2 -1.21,0.94 -1.76,2.71 -2.67,4.07 -2.26,3.36 -4.66,6.65 -6.79,10.1 a 14.81,14.81 0 0 0 -2.17,5.35 c -0.83,5.5 -3.2,9.61 -8.6,11.77 -9.25,3.7 -19,6.64 -27.48,11.6 -9.16,5.33 -17.58,7.1 -27.79,3.54 -4.77,-1.66 -10.58,-0.14 -15.87,-0.6 -1.64,-0.15 -3.11,-2.09 -4.68,-3.16 -1.21,-0.82 -2.46,-2.2 -3.71,-2.23 -5.51,-0.11 -9.75,-1.57 -12.82,-6.83 -2,-3.45 -5.44,-6.37 -8.8,-8.7 -4.19,-2.94 -5.67,-6.64 -5.16,-11.75 z m 82.62,-42 c 1.91,-5.36 7.41,-8.14 6.7,-14.72 l -12.12,15.47 -1.34,-1 q 2.57,-9.6 5.14,-19.2 l -1.76,-0.85 c -3.83,5.94 -7.65,11.89 -12,18.59 l -2.34,-16.89 -2.33,-0.47 -8.69,14.47 -5,-11.22 -1.79,0.47 -3.08,13.38 -1.55,0.1 -5.85,-15.38 c -3.17,5.91 1,11.17 1.46,16.71 l -1.43,0.6 -10.65,-19.12 -1.2,-0.34 c -0.36,2.12 -1.19,4.29 -1,6.33 0.28,2.52 1.46,4.93 2.32,7.62 -7,1 -8.38,-6.94 -15.4,-8.25 1.41,3.61 2.48,6.15 3.39,8.75 a 30.29,30.29 0 0 1 0.84,3.94 c -1.23,0.12 -2.46,0.16 -3.67,0.37 -1.44,0.25 -2.84,0.65 -4.26,1 0.46,1.64 0.64,3.46 1.49,4.87 a 8.58,8.58 0 0 0 2.52,2.32 c -1.42,4.47 -3,7.87 -3.39,11.39 -0.18,1.73 1.86,5.18 3.06,5.26 3,0.19 3.82,-2.34 4.21,-5.43 0.58,-4.49 2.28,-8.83 3.84,-14.45 2.81,6.17 4.95,10.55 6.8,15.05 1.85,4.5 3.25,9.28 5.27,13.75 0.6,1.32 2.68,2.8 4,2.72 1.09,-0.07 2.46,-2.16 3,-3.62 1.3,-3.56 2.17,-7.26 3.57,-12.15 2.51,6.91 4.46,12.53 6.62,18.08 a 35,35 0 0 0 2.84,4.9 c 1,-1.78 2.4,-3.45 2.83,-5.35 1,-4.7 1.65,-9.5 2.44,-14.26 h 1.06 l 6,16.37 2.21,0.18 q 4,-9.13 8,-18.26 l 1.34,0.06 c 0,4.84 -0.2,9.69 0.1,14.51 0.12,2 1.3,3.89 2,5.84 1.55,-1.38 4.13,-2.53 4.49,-4.17 1.56,-7.08 2.5,-14.3 3.59,-21.48 a 43.25,43.25 0 0 0 0.24,-4.56 l 1.67,-0.85 a 25.64,25.64 0 0 1 1.7,3.07 c 1.53,3.84 2.73,7.84 4.53,11.54 1,2.15 3,3.85 4.56,5.76 1.39,-1.86 3.64,-3.56 4,-5.59 a 92.43,92.43 0 0 0 1.1,-14.79 c 0,-3.59 -1.63,-5.4 -5.74,-4.72 -3.16,0.52 -6.46,0.1 -10.92,0.1 l 9.22,-9.87 z m 4.41,-38.87 c 3.94,4.11 7.82,4.78 12.68,2.28 3.63,-1.86 4.56,-5.1 4.05,-8.85 -0.38,-2.85 -3.92,-5.26 -5.66,-3.78 -3.84,3.31 -7.4,6.97 -11.07,10.38 z m -67.7,-15.8 c -1,5.62 0.82,10.91 4.53,12.91 3.36,1.82 6.8,2.57 10.15,-1.1 -4.42,-4.39 -7.34,-10.34 -14.68,-11.78 z"
       transform="translate(-938.83,-1413.85)"
       id="path6" />
  </g>
</svg>
