<?xml version="1.0" encoding="UTF-8" standalone="no"?>
<svg
   xmlns:dc="http://purl.org/dc/elements/1.1/"
   xmlns:cc="http://creativecommons.org/ns#"
   xmlns:rdf="http://www.w3.org/1999/02/22-rdf-syntax-ns#"
   xmlns:svg="http://www.w3.org/2000/svg"
   xmlns="http://www.w3.org/2000/svg"
   xmlns:sodipodi="http://sodipodi.sourceforge.net/DTD/sodipodi-0.dtd"
   xmlns:inkscape="http://www.inkscape.org/namespaces/inkscape"
   version="1.1"
   width="215"
   height="215"
   viewBox="0 0 215 215"
   id="svg40"
   sodipodi:docname="kruleboyz.svg"
   inkscape:version="1.0.2-2 (e86c870879, 2021-01-15)">
  <metadata
     id="metadata46">
    <rdf:RDF>
      <cc:Work
         rdf:about="">
        <dc:format>image/svg+xml</dc:format>
        <dc:type
           rdf:resource="http://purl.org/dc/dcmitype/StillImage" />
        <dc:title>faction-destruction-kruleboyz</dc:title>
      </cc:Work>
    </rdf:RDF>
  </metadata>
  <defs
     id="defs44" />
  <sodipodi:namedview
     pagecolor="#ffffff"
     bordercolor="#666666"
     borderopacity="1"
     objecttolerance="10"
     gridtolerance="10"
     guidetolerance="10"
     inkscape:pageopacity="0"
     inkscape:pageshadow="2"
     inkscape:window-width="1920"
     inkscape:window-height="1017"
     id="namedview42"
     showgrid="false"
     inkscape:zoom="1.7969313"
     inkscape:cx="14.535821"
     inkscape:cy="60.052884"
     inkscape:window-x="-8"
     inkscape:window-y="-8"
     inkscape:window-maximized="1"
     inkscape:current-layer="svg40" />
  <title
     id="title2">faction-destruction-kruleboyz</title>
  <g
     id="g889"
     transform="matrix(6.71896,0,0,6.71896,0.00491539,-0.01343844)"
     style="fill:#ffffff;fill-opacity:1">
    <path
       d="M 11.841,0.625 C 10.826,1.078 10.248,1.25 9.686,1.25 8.952,1.25 8.827,1.313 7.765,2.203 6.469,3.296 4.423,5.514 1.19,9.371 1.065,9.512 0.831,11.104 0.581,13.26 c -0.359,3.248 -0.375,3.842 -0.219,5.263 0.359,3.389 2.046,6.622 4.935,9.464 1.234,1.218 1.562,1.437 3.248,2.249 2.592,1.218 5.247,1.765 8.511,1.765 h 2.264 l 2.374,-1.124 c 2.061,-0.968 2.592,-1.312 3.998,-2.499 l 1.608,-1.374 1.89,-3.483 1.905,-3.467 0.312,-2.296 C 31.891,14.322 31.86,13.479 31.11,11.043 30.345,8.576 29.548,7.201 27.752,5.249 25.894,3.219 23.957,2.001 20.834,0.861 L 18.445,0.002 h -5.216 l -1.39,0.625 z m 4.966,1.125 c 0.047,0.203 0.094,0.656 0.094,1.015 0,0.765 -0.265,0.984 -1.156,0.984 -0.469,0 -0.625,-0.094 -0.875,-0.515 -0.671,-1.093 -0.265,-1.827 1.015,-1.827 0.718,0 0.828,0.047 0.921,0.344 z m 2.218,1.811 c -0.64,0.812 -0.718,0.999 -0.718,1.718 0,0.453 -0.047,0.812 -0.109,0.812 -0.078,0 -0.094,-0.406 -0.047,-0.906 0.063,-0.75 0.187,-1.031 0.703,-1.702 0.344,-0.453 0.687,-0.812 0.75,-0.828 0.078,0 -0.187,0.406 -0.578,0.906 z m 1.842,0.125 c 0.141,0.125 0.25,0.437 0.25,0.687 0,0.734 -0.562,1.077 -1.562,0.937 -0.656,-0.078 -0.843,-1.234 -0.281,-1.624 0.453,-0.312 1.281,-0.312 1.593,0 z m -7.948,0.719 c 0.422,0.625 0.547,0.968 0.531,1.452 L 13.434,6.482 13.309,5.748 C 13.231,5.342 13.012,4.78 12.794,4.499 12.325,3.859 12.169,3.593 12.279,3.593 c 0.047,0 0.328,0.375 0.64,0.812 z M 25.24,3.999 c 0.39,0.375 0.312,1.203 -0.125,1.608 -0.312,0.297 -0.5,0.344 -0.906,0.266 C 23.928,5.826 23.584,5.717 23.459,5.639 23.162,5.436 23.209,4.421 23.553,4.046 23.881,3.671 24.896,3.64 25.24,3.999 Z M 17.073,5.81 c -0.125,0.328 -0.281,0.593 -0.359,0.593 -0.078,0 -0.031,-0.203 0.109,-0.468 0.125,-0.25 0.25,-0.828 0.265,-1.281 l 0.016,-0.828 0.094,0.703 C 17.261,4.966 17.214,5.45 17.073,5.81 Z M 14.777,6.482 C 14.855,6.685 14.793,6.638 14.621,6.388 14.387,6.06 14.34,5.779 14.402,5.139 l 0.063,-0.843 0.094,0.937 c 0.063,0.515 0.156,1.077 0.219,1.249 z M 7.656,5.076 C 7.859,5.326 7.937,5.591 7.875,5.826 7.781,6.138 7.766,6.138 7.688,5.717 7.594,5.155 7.235,4.921 6.688,5.061 6.141,5.201 5.923,5.764 6.251,6.138 6.438,6.357 6.673,6.419 7.11,6.372 7.703,6.31 7.703,6.31 7.344,6.591 6.938,6.888 6.313,6.825 6.017,6.435 5.705,6.06 5.767,5.045 6.095,4.858 6.595,4.561 7.329,4.655 7.657,5.077 Z m 4.935,-0.234 c 0.5,0.187 0.531,0.656 0.094,1.359 -0.265,0.437 -0.39,0.515 -0.921,0.515 -0.469,0 -0.656,-0.078 -0.859,-0.39 C 10.608,5.873 10.577,5.139 10.842,4.874 11.061,4.655 12.045,4.624 12.591,4.843 Z M 7.453,5.701 C 7.453,6.107 7.391,6.169 6.969,6.216 6.313,6.278 6.048,5.95 6.376,5.482 6.548,5.248 6.751,5.154 7.032,5.185 7.391,5.216 7.454,5.31 7.454,5.7 Z m 15.913,1.265 c -0.141,0.328 -0.39,0.796 -0.562,1.046 -0.297,0.422 -0.297,0.422 0.016,0.953 l 0.328,0.515 -0.468,0.656 c -0.265,0.344 -0.562,0.64 -0.672,0.64 -0.125,-0.016 -0.109,-0.078 0.063,-0.203 0.125,-0.109 0.375,-0.375 0.515,-0.625 0.25,-0.359 0.265,-0.484 0.094,-0.89 -0.265,-0.625 -0.375,-0.593 -0.609,0.156 -0.25,0.859 -0.812,1.124 -1.999,0.999 -0.734,-0.094 -1.015,-0.219 -1.499,-0.64 -0.672,-0.593 -0.843,-0.593 -0.562,0 0.125,0.265 0.547,0.562 1.327,0.906 1.343,0.625 1.39,0.765 0.687,2.155 -0.484,0.968 -0.937,1.265 -1.89,1.265 -0.328,0 -0.5,0.141 -0.812,0.671 -0.64,1.078 -0.921,1.249 -2.046,1.265 -0.859,0.016 -1.062,-0.031 -1.421,-0.375 -0.234,-0.219 -0.515,-0.578 -0.64,-0.828 -0.203,-0.359 -0.328,-0.422 -0.921,-0.422 -0.593,0 -0.781,-0.078 -1.171,-0.515 -0.359,-0.39 -0.453,-0.64 -0.469,-1.203 0,-0.64 0.047,-0.75 0.515,-1.015 l 0.5,-0.312 -0.812,-0.047 C 10.124,11.071 9.983,11.009 9.624,10.525 9.218,10.01 9.202,9.932 9.374,9.198 9.639,8.089 9.608,7.808 9.218,7.34 9.015,7.121 9.14,7.231 9.483,7.59 c 0.343,0.359 0.812,0.937 1.046,1.281 0.344,0.515 0.578,0.671 1.452,0.968 0.562,0.187 1.062,0.312 1.078,0.297 0.031,-0.031 0.203,-0.359 0.39,-0.734 0.187,-0.359 0.437,-0.656 0.562,-0.656 0.141,0 0.234,-0.141 0.234,-0.359 0,-0.484 0.999,-1.046 1.827,-1.046 0.625,0 0.937,0.266 1.562,1.327 0.172,0.265 0.203,0.203 0.219,-0.547 l 0.031,-0.859 0.187,1.718 h 1.078 c 1.046,0 1.062,-0.016 1.593,-0.625 0.281,-0.344 0.531,-0.703 0.531,-0.812 0,-0.094 0.063,-0.219 0.141,-0.266 0.063,-0.047 0.094,0.078 0.063,0.281 -0.063,0.281 0.031,0.39 0.406,0.562 0.437,0.172 0.515,0.156 0.796,-0.172 0.156,-0.203 0.297,-0.422 0.312,-0.468 0,-0.234 0.5,-1.265 0.562,-1.202 0.031,0.047 -0.047,0.344 -0.187,0.687 z M 7.515,8.215 c 0.5,0.422 0.796,1.281 0.796,2.311 0,0.671 0.031,0.75 0.515,0.953 0.562,0.25 0.344,0.312 -0.265,0.078 C 8.202,11.432 8.155,11.323 8.155,10.651 8.155,9.652 7.796,8.636 7.296,8.246 7.03,8.043 6.906,7.809 6.921,7.528 6.952,7.122 6.952,7.122 7.015,7.481 7.062,7.684 7.281,8.012 7.515,8.215 Z M 28.16,7.653 c 0.39,0.219 0.422,1.577 0.047,1.89 -0.375,0.313 -1.265,0.25 -1.608,-0.109 -0.515,-0.515 -0.531,-0.921 -0.078,-1.452 0.422,-0.515 1.046,-0.64 1.64,-0.328 z M 6,10.105 c 0.328,0.297 0.344,0.5 0.109,1.296 -0.203,0.656 -0.64,0.937 -1.452,0.937 C 4.251,12.338 4.11,12.26 4.032,11.979 3.876,11.37 3.938,10.761 4.204,10.292 4.423,9.917 4.579,9.839 5.094,9.839 5.453,9.839 5.828,9.948 6,10.104 Z m 19.318,1.515 0.5,0.297 1.468,-1.374 -0.64,0.703 c -0.359,0.39 -0.765,0.921 -0.906,1.203 -0.25,0.5 -1.452,1.452 -1.843,1.452 -0.109,0 -0.531,-0.125 -0.937,-0.265 -0.671,-0.234 -0.765,-0.234 -1.015,-0.016 -0.312,0.265 -1.296,0.469 -1.296,0.25 0,-0.063 0.172,-0.125 0.39,-0.125 0.218,0 0.578,-0.109 0.781,-0.25 0.453,-0.297 0.515,-0.999 0.156,-1.624 -0.344,-0.593 -0.281,-0.765 0.078,-0.187 0.172,0.281 0.312,0.75 0.312,1.031 0,0.5 0.047,0.547 0.781,0.796 l 0.781,0.265 0.687,-0.437 c 0.953,-0.609 1.312,-1.359 0.718,-1.546 -0.468,-0.141 -0.781,-0.531 -0.765,-0.906 0.016,-0.312 0.031,-0.312 0.125,0.047 0.063,0.203 0.344,0.515 0.625,0.687 z m 1.89,0.78 -0.656,1.031 0.359,0.5 c 0.187,0.281 0.593,0.765 0.875,1.078 l 0.547,0.562 -0.172,1.078 -0.156,1.078 0.063,-1.031 c 0.063,-1.015 0.063,-1.031 -0.609,-1.796 -1.14,-1.312 -1.156,-1.327 -0.406,-2.577 0.359,-0.609 0.687,-1.062 0.734,-1.031 0.031,0.047 -0.219,0.547 -0.578,1.109 z m -18.24,0.906 c -0.109,0.422 -0.078,0.593 0.187,0.937 0.328,0.469 0.968,0.578 1.327,0.234 0.172,-0.156 0.172,-0.125 0.031,0.156 -0.25,0.5 -0.812,0.453 -1.343,-0.109 -0.625,-0.656 -0.765,-0.422 -0.547,0.968 0.297,1.843 0.125,1.687 1.812,1.687 1.421,0 1.515,0.016 2.061,0.468 0.531,0.422 2.139,1.093 2.639,1.093 0.109,0 1.078,-0.328 2.139,-0.718 1.78,-0.64 1.968,-0.75 2.139,-1.203 0.141,-0.375 0.203,-0.437 0.25,-0.234 0.047,0.156 0.078,0.281 0.094,0.281 0.016,0 0.422,-0.109 0.89,-0.25 0.468,-0.141 1.671,-0.297 2.655,-0.359 l 1.78,-0.094 0.484,-1.484 0.468,-1.484 0.094,4.06 0.921,1.171 c 0.828,1.046 0.906,1.203 0.734,1.484 -0.125,0.172 -0.75,1.203 -1.421,2.296 -0.984,1.624 -1.327,2.061 -1.952,2.452 -0.64,0.422 -0.89,0.484 -1.78,0.484 -0.89,0 -1.156,-0.078 -1.796,-0.468 l -0.765,-0.468 h -3.186 l -3.186,0.016 -0.609,0.453 c -0.344,0.265 -0.75,0.468 -0.89,0.468 -0.406,0 -2.53,0.999 -2.78,1.296 -0.156,0.203 -0.469,0.265 -1.171,0.265 H 7.279 L 6.42,25.814 C 5.686,25.049 5.405,24.58 4.671,22.862 l -0.89,-2.046 0.25,-0.625 c 0.219,-0.547 0.39,-0.687 1.53,-1.249 l 1.296,-0.64 0.344,-1.39 C 7.388,16.162 7.576,15.428 7.607,15.303 7.669,15.116 7.545,15.084 6.967,15.131 6.171,15.194 5.686,14.85 5.234,13.975 5.109,13.71 4.812,13.319 4.594,13.085 4.376,12.851 4.235,12.616 4.282,12.57 c 0.047,-0.047 0.297,0.156 0.578,0.469 0.266,0.312 0.484,0.469 0.484,0.359 0.016,-0.219 0.781,-0.843 0.781,-0.64 0,0.078 -0.125,0.203 -0.297,0.312 -0.437,0.265 -0.484,0.734 -0.141,1.281 0.281,0.437 0.375,0.484 1.156,0.484 0.547,0 0.875,-0.078 0.921,-0.203 0.031,-0.094 0.156,-0.5 0.266,-0.89 0.187,-0.703 0.187,-0.703 0.25,-0.203 0.031,0.281 0.109,0.515 0.187,0.515 0.156,0 0.234,-0.25 0.406,-1.171 0.078,-0.344 0.156,-0.515 0.187,-0.359 0.016,0.141 -0.016,0.484 -0.094,0.781 z m -5.029,0.89 c 0.344,0.547 0.625,0.812 0.953,0.875 0.25,0.063 0.453,0.172 0.453,0.25 0,0.094 -0.141,0.078 -0.328,-0.016 -0.39,-0.219 -0.765,-0.094 -0.765,0.234 0,0.141 -0.312,0.578 -0.703,0.984 -0.687,0.75 -0.687,0.75 -0.75,2.077 L 2.752,19.912 2.721,18.507 2.69,17.086 3.377,16.414 C 4.314,15.493 4.376,15.149 3.783,14.29 3.346,13.65 3.236,13.431 3.377,13.431 c 0.031,0 0.281,0.344 0.562,0.765 z m 12.337,11.822 c 0.234,0.609 0.187,1.14 -0.172,1.64 -0.25,0.359 -0.437,0.453 -0.875,0.453 -1.031,0 -1.437,-0.843 -0.906,-1.874 0.265,-0.515 0.422,-0.593 1.218,-0.609 0.484,-0.016 0.609,0.047 0.734,0.39 z m 6.637,0.297 c 0.219,0.203 0.39,0.5 0.39,0.656 0,0.219 -0.047,0.187 -0.203,-0.109 -0.312,-0.625 -1.39,-0.625 -1.593,0.016 -0.203,0.625 0.875,1.234 1.421,0.796 0.078,-0.063 0.016,0.016 -0.141,0.156 -0.359,0.344 -1.093,0.359 -1.343,0.063 -0.109,-0.125 -0.234,-0.484 -0.281,-0.796 -0.078,-0.5 -0.031,-0.625 0.281,-0.875 0.515,-0.39 1.015,-0.375 1.468,0.094 z m 0.032,0.484 c 0.141,0.39 -0.172,0.765 -0.656,0.765 -0.547,0 -0.843,-0.422 -0.562,-0.765 0.281,-0.328 1.093,-0.328 1.218,0 z M 8.874,27.267 c 0.656,0.515 0.718,1.14 0.141,1.702 -0.375,0.39 -1.062,0.515 -1.421,0.265 -0.266,-0.172 -0.531,-0.75 -0.531,-1.171 0,-0.453 0.593,-1.031 1.218,-1.187 0.031,-0.016 0.297,0.172 0.593,0.39 z m 3.748,0.25 c 0.484,0.375 0.344,1.687 -0.203,1.968 -0.375,0.203 -1.14,0.063 -1.609,-0.281 L 10.435,28.923 10.7,28.064 c 0.172,-0.547 0.375,-0.89 0.547,-0.921 0.281,-0.078 1.093,0.156 1.374,0.375 z m 7.152,0.157 c 0.047,0.203 0.094,0.656 0.094,1.015 0,0.75 -0.265,0.984 -1.156,0.984 -0.422,0 -0.609,-0.094 -0.859,-0.453 -0.39,-0.547 -0.422,-1.218 -0.063,-1.608 0.187,-0.203 0.468,-0.281 1.062,-0.281 0.718,0 0.828,0.047 0.921,0.344 z"
       id="path4"
       style="fill:#ffffff;fill-opacity:1" />
    <path
       d="m 15.214,2.062 c -0.297,0.297 -0.234,0.562 0.203,0.843 0.547,0.359 0.89,0.187 0.828,-0.437 C 16.214,2.046 16.12,1.937 15.808,1.906 15.589,1.875 15.324,1.953 15.215,2.062 Z m 0.875,0.344 c 0.031,0.156 0,0.344 -0.078,0.422 -0.25,0.25 -0.671,-0.031 -0.671,-0.437 0,-0.312 0.063,-0.375 0.344,-0.328 0.203,0.031 0.375,0.172 0.406,0.344 z"
       id="path6"
       style="fill:#ffffff;fill-opacity:1" />
    <path
       d="M 19.649,4.045 C 19.43,4.279 19.415,4.42 19.555,4.67 c 0.297,0.578 1.093,0.359 1.093,-0.297 0,-0.39 -0.234,-0.625 -0.609,-0.625 -0.063,0 -0.25,0.141 -0.39,0.297 z m 0.844,0.328 c 0,0.375 -0.468,0.531 -0.734,0.266 -0.187,-0.187 -0.187,-0.25 0.031,-0.468 0.297,-0.297 0.703,-0.187 0.703,0.203 z"
       id="path8"
       style="fill:#ffffff;fill-opacity:1" />
    <path
       d="m 23.866,4.545 c -0.281,0.422 -0.172,0.703 0.328,0.843 0.468,0.109 0.828,-0.156 0.828,-0.625 0,-0.593 -0.781,-0.75 -1.156,-0.219 z m 0.921,0.297 c 0,0.453 -0.344,0.578 -0.765,0.266 -0.265,-0.203 -0.265,-0.219 -0.016,-0.484 0.375,-0.375 0.781,-0.25 0.781,0.219 z"
       id="path10"
       style="fill:#ffffff;fill-opacity:1" />
    <path
       d="m 11.123,5.31 c -0.234,0.437 0.047,0.89 0.64,1.015 0.5,0.109 0.906,-0.203 0.921,-0.718 C 12.7,4.967 11.435,4.732 11.122,5.31 Z m 1.155,-0.062 c 0.312,0.125 0.328,0.593 0.016,0.843 -0.422,0.344 -1.265,-0.187 -1.078,-0.687 0.094,-0.25 0.609,-0.328 1.062,-0.156 z"
       id="path12"
       style="fill:#ffffff;fill-opacity:1" />
    <path
       d="m 14.918,7.84 c -0.312,0.187 -0.515,0.437 -0.515,0.625 0,0.172 -0.125,0.344 -0.297,0.39 -0.156,0.031 -0.437,0.406 -0.625,0.796 -0.281,0.593 -0.578,0.89 -1.515,1.499 -1.078,0.703 -1.156,0.796 -1.156,1.312 0,0.344 0.141,0.734 0.406,1.078 l 0.406,0.531 0.281,-0.515 c 0.219,-0.422 0.359,-0.515 0.796,-0.515 0.515,0 0.531,0.016 0.531,0.625 0,1.359 1.015,2.233 2.327,2.03 0.344,-0.063 0.75,-0.172 0.89,-0.25 0.297,-0.156 1.234,-1.733 1.234,-2.061 0,-0.359 0.547,-0.734 1.062,-0.734 0.375,0 0.5,0.063 0.5,0.281 0,0.156 -0.078,0.359 -0.187,0.469 -0.203,0.203 0,0.25 0.281,0.063 0.25,-0.156 0.999,-1.687 0.999,-2.046 0,-0.219 -0.297,-0.422 -1.171,-0.796 -1.109,-0.5 -1.171,-0.547 -1.437,-1.281 C 17.587,8.919 17.26,8.342 17.01,8.045 16.651,7.592 16.463,7.498 15.995,7.514 c -0.312,0 -0.812,0.156 -1.078,0.328 z"
       id="path14"
       style="fill:#ffffff;fill-opacity:1" />
    <path
       d="m 20.493,9.027 c 0,0.078 0.109,0.234 0.234,0.344 0.125,0.11 0.234,0.125 0.234,0.031 0,-0.078 -0.109,-0.234 -0.234,-0.344 -0.125,-0.11 -0.234,-0.125 -0.234,-0.031 z"
       id="path16"
       style="fill:#ffffff;fill-opacity:1" />
    <path
       d="m 10.607,9.792 c -0.063,0.047 -0.109,0.203 -0.109,0.328 0,0.187 0.047,0.187 0.234,0.031 0.125,-0.109 0.234,-0.25 0.234,-0.328 0,-0.172 -0.219,-0.187 -0.359,-0.031 z"
       id="path18"
       style="fill:#ffffff;fill-opacity:1" />
    <path
       d="m 26.974,8.215 c -0.344,0.359 -0.234,0.718 0.297,0.984 0.515,0.25 0.718,0.078 0.718,-0.625 0,-0.609 -0.562,-0.796 -1.015,-0.359 z m 0.827,0.422 c 0.047,0.359 0,0.422 -0.328,0.422 -0.5,0 -0.703,-0.469 -0.312,-0.734 0.375,-0.281 0.578,-0.172 0.64,0.312 z"
       id="path20"
       style="fill:#ffffff;fill-opacity:1" />
    <path
       d="M 4.579,10.526 C 4.47,10.651 4.407,10.948 4.438,11.197 4.469,11.541 4.579,11.65 4.922,11.681 5.734,11.775 6.109,11.088 5.531,10.572 5.172,10.244 4.813,10.228 4.578,10.525 Z m 0.922,0.266 c 0.266,0.484 0.078,0.796 -0.422,0.734 -0.437,-0.047 -0.625,-0.39 -0.453,-0.843 0.125,-0.328 0.687,-0.265 0.875,0.109 z"
       id="path22"
       style="fill:#ffffff;fill-opacity:1" />
    <path
       d="m 21.039,16.695 -1.093,0.265 0.031,0.531 c 0.234,3.498 0.219,4.498 -0.016,5.403 -0.297,1.156 -0.297,1.156 -0.047,1.156 0.125,0 0.406,-0.968 0.812,-2.827 0.328,-1.546 0.64,-2.842 0.703,-2.873 0.047,-0.031 0.25,0.734 0.453,1.687 0.359,1.608 0.359,1.827 0.172,2.842 -0.312,1.749 -0.359,2.202 -0.187,2.03 0.172,-0.187 2.249,-5.7 2.764,-7.355 l 0.359,-1.156 -1.437,0.016 c -0.781,0.016 -1.905,0.141 -2.514,0.281 z"
       id="path24"
       style="fill:#ffffff;fill-opacity:1" />
    <path
       d="m 8.936,17.413 c 0,0.875 2.795,7.387 3.248,7.543 0.234,0.078 0.234,-0.515 -0.031,-2.499 -0.109,-0.828 -0.141,-1.484 -0.078,-1.437 0.063,0.031 0.469,0.734 0.921,1.546 0.437,0.812 0.89,1.484 0.999,1.484 0.265,0 0.359,-0.562 0.5,-3.092 0.047,-1.062 0.156,-1.874 0.219,-1.796 0.063,0.063 0.531,1.203 1.015,2.499 0.656,1.718 0.968,2.389 1.156,2.389 0.188,0 0.484,-0.75 1.187,-3.061 0.515,-1.687 0.953,-3.155 0.984,-3.264 0.031,-0.109 -0.687,0.078 -1.796,0.484 -1.015,0.375 -1.983,0.672 -2.171,0.687 -0.172,0 -0.718,-0.141 -1.203,-0.297 l -0.875,-0.312 -0.047,1.265 -0.047,1.249 -1.452,-1.733 C 10.122,17.491 9.95,17.335 9.466,17.335 c -0.297,0 -0.531,0.031 -0.531,0.078 z"
       id="path26"
       style="fill:#ffffff;fill-opacity:1" />
    <path
       d="m 26.115,19.225 c 0,1.281 -0.078,1.89 -0.39,2.858 -0.219,0.687 -0.359,1.265 -0.328,1.296 0.016,0.031 0.578,-0.812 1.218,-1.874 L 27.786,19.6 27.068,18.71 c -0.39,-0.484 -0.765,-0.937 -0.828,-0.999 -0.078,-0.063 -0.125,0.625 -0.125,1.515 z"
       id="path28"
       style="fill:#ffffff;fill-opacity:1" />
    <path
       d="m 5.563,19.116 c -0.953,0.453 -1.14,0.609 -1.343,1.124 -0.234,0.578 -0.234,0.625 0.312,1.858 0.297,0.687 0.656,1.53 0.796,1.874 0.25,0.625 0.25,0.625 0.328,-1.874 l 0.078,-2.499 0.828,2.343 c 0.703,2.03 0.937,2.483 1.687,3.436 0.484,0.609 0.89,1.124 0.921,1.14 0.031,0.031 0.125,-0.094 0.234,-0.265 C 9.545,25.972 9.388,25.519 8.451,23.395 7.842,22.005 7.233,20.35 7.092,19.725 6.967,19.1 6.811,18.585 6.764,18.601 c -0.047,0 -0.593,0.234 -1.202,0.515 z"
       id="path30"
       style="fill:#ffffff;fill-opacity:1" />
    <path
       d="m 14.605,26.487 c -0.172,0.453 0.156,1.078 0.593,1.124 0.5,0.063 0.796,-0.281 0.734,-0.859 -0.047,-0.375 -0.125,-0.437 -0.64,-0.484 -0.422,-0.031 -0.609,0.016 -0.687,0.219 z m 1.156,0.156 c 0.125,0.344 -0.156,0.765 -0.5,0.765 -0.156,0 -0.344,-0.109 -0.437,-0.25 -0.234,-0.375 -0.016,-0.765 0.437,-0.765 0.234,0 0.437,0.109 0.5,0.25 z"
       id="path32"
       style="fill:#ffffff;fill-opacity:1" />
    <path
       d="m 7.984,27.595 c -0.375,0.094 -0.468,0.765 -0.141,1.062 0.141,0.125 0.328,0.234 0.422,0.234 0.203,0 0.671,-0.515 0.671,-0.734 0,-0.234 -0.656,-0.625 -0.953,-0.562 z m 0.734,0.812 c -0.063,0.094 -0.281,0.172 -0.5,0.172 -0.297,0 -0.375,-0.078 -0.375,-0.375 0,-0.203 0.094,-0.406 0.203,-0.453 0.25,-0.094 0.796,0.437 0.671,0.656 z"
       id="path34"
       style="fill:#ffffff;fill-opacity:1" />
    <path
       d="m 11.31,28.111 c -0.297,0.468 0.016,0.968 0.562,0.906 0.297,-0.031 0.437,-0.156 0.469,-0.406 0.109,-0.734 -0.656,-1.093 -1.031,-0.5 z m 0.75,0.078 c 0.25,0.297 0.094,0.703 -0.297,0.703 -0.359,0 -0.547,-0.437 -0.312,-0.718 0.235,-0.281 0.375,-0.281 0.609,0.016 z"
       id="path36"
       style="fill:#ffffff;fill-opacity:1" />
    <path
       d="m 18.181,27.986 c -0.265,0.265 -0.234,0.5 0.094,0.796 0.593,0.547 1.109,0.203 0.906,-0.593 -0.109,-0.422 -0.656,-0.547 -0.999,-0.203 z m 0.828,0.421 c 0,0.468 -0.234,0.562 -0.625,0.265 -0.265,-0.187 -0.265,-0.25 -0.094,-0.468 0.312,-0.375 0.718,-0.25 0.718,0.203 z"
       id="path38"
       style="fill:#ffffff;fill-opacity:1" />
  </g>
</svg>
