<?xml version="1.0" encoding="UTF-8" standalone="no"?>
<svg
   version="1.1"
   width="215"
   height="215"
   viewBox="0 0 215 215"
   id="svg6"
   sodipodi:docname="rotmire_creed.svg"
   inkscape:version="1.2.1 (9c6d41e, 2022-07-14)"
   xmlns:inkscape="http://www.inkscape.org/namespaces/inkscape"
   xmlns:sodipodi="http://sodipodi.sourceforge.net/DTD/sodipodi-0.dtd"
   xmlns="http://www.w3.org/2000/svg"
   xmlns:svg="http://www.w3.org/2000/svg"
   xmlns:rdf="http://www.w3.org/1999/02/22-rdf-syntax-ns#"
   xmlns:cc="http://creativecommons.org/ns#"
   xmlns:dc="http://purl.org/dc/elements/1.1/">
  <metadata
     id="metadata12">
    <rdf:RDF>
      <cc:Work
         rdf:about="">
        <dc:format>image/svg+xml</dc:format>
        <dc:type
           rdf:resource="http://purl.org/dc/dcmitype/StillImage" />
        <dc:title>factions-chaos-rotmire-creed</dc:title>
      </cc:Work>
    </rdf:RDF>
  </metadata>
  <defs
     id="defs10" />
  <sodipodi:namedview
     pagecolor="#ffffff"
     bordercolor="#666666"
     borderopacity="1"
     objecttolerance="10"
     gridtolerance="10"
     guidetolerance="10"
     inkscape:pageopacity="0"
     inkscape:pageshadow="2"
     inkscape:window-width="1309"
     inkscape:window-height="456"
     id="namedview8"
     showgrid="false"
     inkscape:pagecheckerboard="true"
     inkscape:zoom="1.6601563"
     inkscape:cx="-26.503529"
     inkscape:cy="9.0352938"
     inkscape:window-x="0"
     inkscape:window-y="38"
     inkscape:window-maximized="0"
     inkscape:current-layer="svg6"
     inkscape:showpageshadow="2"
     inkscape:deskcolor="#d1d1d1" />
  <title
     id="title2">factions-chaos-rotmire-creed</title>
  <path
     fill="#ffffff"
     d="m 112.15528,212.5329 c -2.55339,-3.06406 -5.10677,-3.3194 -7.27715,-0.63835 -1.91504,2.29805 -8.043168,2.55339 -11.490239,0.38301 -2.04271,-1.27669 -3.064064,-1.27669 -5.106773,-0.12767 -1.787371,1.14902 -2.681056,1.14902 -3.319403,0.25534 -0.510677,-0.89369 -4.468426,-3.06406 -8.809183,-5.10677 -7.66016,-3.44707 -8.043168,-3.83008 -8.936853,-9.06453 -0.510677,-3.06406 -1.404362,-6.12812 -1.91504,-6.76647 -0.638346,-0.76602 -1.276693,-4.21309 -1.532032,-7.66016 -0.383007,-5.61745 -0.893685,-6.6388 -4.851434,-9.31986 -3.447072,-2.29805 -5.872789,-2.93639 -10.213546,-2.55339 -8.298506,0.51068 -15.447988,-2.93639 -18.256713,-8.93685 -1.149024,-2.55339 -2.681056,-5.61745 -3.191734,-6.6388 -4.596095,-8.17084 -5.234442,-10.21355 -3.447071,-10.21355 4.723765,0 5.74512,-9.44753 2.170378,-18.12904 -2.042709,-4.5961 -3.957749,-19.78875 -4.468426,-33.583753 -0.255339,-6.383466 3.319402,-35.115784 4.979103,-41.116242 9.702869,-33.711421 62.181681,-60.7773175 99.723186,-51.4574568 25.7892,6.5111355 54.52152,29.6192828 62.82003,50.8191098 3.44707,8.809184 5.61745,36.775485 3.83008,49.414742 -0.63835,4.97911 -1.53204,13.78829 -2.04271,19.78875 -0.38301,6.00046 -1.53203,12.00092 -2.42572,13.40528 -2.55339,3.70241 -2.17038,8.68151 1.02135,12.76693 3.19174,4.08542 3.19174,3.95775 -6.89414,16.85235 -5.74512,7.27715 -6.89414,8.04317 -10.21354,7.53249 -2.04271,-0.25534 -7.14949,0.63835 -11.23491,2.04271 -9.9582,3.3194 -12.76693,7.02181 -12.76693,17.23536 -0.12767,6.2558 -0.63834,8.04317 -3.70241,11.61791 -5.23444,6.12813 -12.25625,9.5752 -15.57566,7.78783 -2.17037,-1.14903 -3.19173,-0.89369 -5.48978,1.27669 -3.57474,3.44707 -8.55385,3.44707 -11.36257,0.12767 z m -7.28387,-40.98857 3.19173,-5.10678 1.02136,4.21309 c 0.63834,2.29805 1.53203,4.72377 2.17038,5.36211 0.51067,0.51068 3.95775,-0.63834 7.53249,-2.55338 6.00046,-3.44708 6.51114,-4.08542 6.51114,-8.42618 0,-2.68105 -0.51068,-4.85143 -1.2767,-4.85143 -0.63834,0 -1.27669,-0.89369 -1.27669,-2.04271 0,-1.02136 -0.51068,-1.53203 -1.27669,-1.14903 -0.63835,0.38301 -1.2767,-0.12767 -1.2767,-1.14902 0,-1.02135 -1.6597,-4.72377 -3.83008,-8.04317 -2.04271,-3.3194 -3.83008,-6.76647 -3.83008,-7.66016 0,-2.80872 -6.89414,-1.91504 -9.5752,1.2767 -4.979103,5.74512 -12.256255,21.32077 -11.362569,24.1295 0.766016,2.55338 7.787828,10.59655 9.447529,10.97956 0.38301,0.12767 2.04271,-2.17038 3.83008,-4.9791 z M 73.464757,145.88279 c -0.383008,-0.51067 1.404362,-1.27669 3.957749,-1.78737 2.425717,-0.38301 4.468426,-1.27669 4.468426,-1.91504 0,-0.63834 0.893685,-1.14902 1.91504,-1.14902 1.021355,0 1.91504,-0.51068 1.91504,-1.14903 0,-0.76601 1.404362,-2.80872 3.191733,-4.72376 2.298048,-2.55339 3.191733,-4.85144 3.191733,-8.68151 0,-9.31987 -0.766016,-10.21355 -9.319861,-12.63927 -4.340757,-1.14902 -10.596554,-3.57474 -14.043625,-5.36211 -8.809184,-4.72376 -14.298965,-4.21309 -21.193108,1.78737 -5.106773,4.34076 -5.61745,5.36211 -6.128128,11.74558 -1.149024,15.06498 10.213546,25.53386 27.321236,24.89552 2.808725,0 4.979103,-0.51068 4.723765,-1.02136 z m 93.205333,-3.06406 c 2.04271,-1.53203 4.21308,-5.36211 5.74512,-10.08588 2.55338,-7.27715 4.72376,-19.66107 3.3194,-18.38438 -0.38301,0.38301 -3.44707,-2.04271 -7.02181,-5.48978 -8.29851,-7.9155 -13.40528,-8.29851 -23.36349,-1.6597 -16.08634,10.59655 -16.85235,11.36257 -17.23536,16.214 -1.27669,14.93731 25.91687,28.59793 38.56286,19.40574 z m -53.23812,-41.11624 c 4.08542,-4.08542 8.93686,-10.213547 10.97957,-13.660619 1.91504,-3.574741 5.74512,-10.085876 8.55385,-14.681972 2.80872,-4.723765 6.12812,-12.639263 7.66015,-18.512052 1.40437,-5.61745 3.19174,-11.234901 3.83008,-12.383925 2.68106,-4.723765 -1.27669,-2.042709 -7.27715,4.723765 -12.38392,14.426634 -24.1295,35.243453 -28.85327,51.07445 -1.02135,3.574743 -2.29805,7.404823 -2.80872,8.681513 -1.53204,3.70241 0.25533,2.55339 7.91549,-5.23444 z M 80.486569,92.382628 c 9.192192,-4.723765 17.746037,-16.724681 28.853271,-40.094887 2.68105,-5.61745 5.87279,-11.617908 7.14948,-13.405279 2.80873,-4.213088 12.76694,-22.980478 12.00092,-22.980478 -0.25534,0 -2.9364,1.659701 -6.00046,3.70241 -12.38393,8.426175 -24.640182,24.64018 -35.626464,46.989031 -4.851434,9.830538 -8.809183,18.76739 -8.809183,19.788745 0,1.021355 -0.893685,2.936394 -1.91504,4.340757 -3.70241,4.979104 -2.681056,5.362112 4.340757,1.659701 z M 53.293003,81.403066 C 61.59151,73.615238 73.464757,56.379879 78.57153,45.01059 c 1.659701,-3.702411 5.362111,-10.979562 8.170836,-15.958666 2.808726,-5.106773 4.596096,-9.319861 3.957749,-9.319861 -3.319402,0 -9.31986,4.596096 -17.107689,13.022271 -8.681514,9.44753 -17.107689,24.64018 -24.257172,43.797298 -1.532031,4.213088 -3.319402,8.681514 -3.830079,9.958207 -0.510678,1.149024 -0.766016,2.170379 -0.510678,2.170379 0.255339,0 4.085419,-3.319403 8.298506,-7.277152 z"
     id="path4"
     style="stroke-width:6.71944" />
</svg>
