<?xml version="1.0" encoding="UTF-8" standalone="no"?>
<!-- Created with Inkscape (http://www.inkscape.org/) -->

<svg
   width="215"
   height="215"
   viewBox="0 0 56.885415 56.885416"
   version="1.1"
   id="svg5"
   xml:space="preserve"
   inkscape:version="1.2.1 (9c6d41e, 2022-07-14)"
   sodipodi:docname="brayherds.svg"
   xmlns:inkscape="http://www.inkscape.org/namespaces/inkscape"
   xmlns:sodipodi="http://sodipodi.sourceforge.net/DTD/sodipodi-0.dtd"
   xmlns="http://www.w3.org/2000/svg"
   xmlns:svg="http://www.w3.org/2000/svg"><sodipodi:namedview
     id="namedview7"
     pagecolor="#ffffff"
     bordercolor="#000000"
     borderopacity="0.25"
     inkscape:showpageshadow="2"
     inkscape:pageopacity="0.0"
     inkscape:pagecheckerboard="0"
     inkscape:deskcolor="#d1d1d1"
     inkscape:document-units="px"
     showgrid="false"
     inkscape:zoom="2.587745"
     inkscape:cx="90.812659"
     inkscape:cy="198.43532"
     inkscape:window-width="2560"
     inkscape:window-height="1387"
     inkscape:window-x="0"
     inkscape:window-y="25"
     inkscape:window-maximized="0"
     inkscape:current-layer="layer1" /><defs
     id="defs2"><inkscape:perspective
       sodipodi:type="inkscape:persp3d"
       inkscape:vp_x="0 : 28.442708 : 1"
       inkscape:vp_y="0 : 1000 : 0"
       inkscape:vp_z="56.885415 : 28.442708 : 1"
       inkscape:persp3d-origin="28.442708 : 18.961805 : 1"
       id="perspective31856" /></defs><g
     inkscape:label="Layer 1"
     inkscape:groupmode="layer"
     id="layer1"
     transform="translate(0,-480.22914)"><path
       style="fill:#000000;stroke-width:0.262312"
       d="m 29.442316,535.9997 c -0.02141,-0.61315 -0.02996,-2.23621 -0.01901,-3.60679 0.1677,-2.53361 0.213962,-5.18358 0.213962,-5.18358 0,0 -0.244315,2.03415 -0.455032,4.00318 -0.07826,0.73132 -0.322408,2.0557 -0.397472,2.9652 -0.07506,0.9095 -0.214657,1.61007 -0.310205,1.55681 -0.09554,-0.0532 -0.547831,-0.24494 -1.005072,-0.42594 -0.241086,-0.70322 -0.952466,-0.63495 -1.265601,-1.42565 -0.238841,-0.6031 -0.763719,-1.45067 -1.166395,-1.88348 -0.467339,-0.50231 -1.014185,-1.70362 -1.014185,-1.70362 0,0 -0.314536,-1.41203 -0.31725,-2.33579 -0.0031,-1.04169 -0.178342,-1.77444 -0.602431,-2.51839 -0.570225,-1.00032 -0.658143,-1.04926 -1.885325,-1.04926 -0.585751,0 -1.178824,0.12686 -1.178824,0.12686 0,0 -0.437691,-0.61417 -0.712677,-1.02108 -0.332373,-0.49182 -0.735761,-1.33304 -0.89645,-1.86936 -0.13018,-0.4345 -0.141891,-0.95116 -0.141891,-0.95116 0,0 0.190188,-0.48446 0.463809,-0.85455 0.468013,-0.63302 0.634883,-1.24906 0.701558,-2.58995 0.103802,-2.08756 -0.267709,-2.83766 -2.182596,-4.40677 -1.210486,-0.99191 -1.315074,-1.02497 -3.242287,-1.02497 -1.726076,0 -2.138505,0.0956 -3.094974,0.71751 -0.900737,0.58566 -1.1779059,0.96798 -1.5082963,2.08053 -0.7139684,2.40419 -0.4768167,4.2391 0.8148573,6.30471 0.581178,0.92941 0.507291,1.18588 0.507291,1.18588 0,0 -1.8757571,-0.68779 -2.8203021,-1.69759 -0.6954338,-0.74347 -1.3456918,-1.74774 -1.5063854,-2.32648 -0.3261224,-1.17454 -0.355858,-3.95019 -0.058682,-5.47763 0.4346408,-2.23397 3.5500749,-5.10374 6.3914105,-5.88743 1.746614,-0.48175 1.968594,-0.83982 1.180707,-1.90456 -0.351759,-0.47537 -0.969779,-1.89847 -1.373377,-3.16243 -0.695373,-2.17774 -0.725488,-2.47319 -0.574828,-5.63971 0.122667,-2.57817 0.324841,-3.88094 0.884947,-5.7024 0.977414,-3.17854 1.045881,-6.99498 0.157393,-8.77314 -0.320461,-0.64136 -0.534014,-1.21473 -0.474562,-1.27419 0.230535,-0.23053 2.20253,2.19273 2.922494,3.59127 0.757846,1.47213 0.757846,1.47213 0.757846,8.42341 0,6.95126 0,6.95126 0.712664,8.30252 0.852687,1.61676 1.759348,2.38582 3.051895,2.58872 0.526384,0.0826 1.325255,0.33209 1.77527,0.55435 0.768587,0.3796 0.887903,0.36693 1.967341,-0.20892 1.047079,-0.5586 1.47527,-0.61304 4.821503,-0.61304 3.300798,0 3.785986,0.0597 4.795275,0.5902 1.311442,0.68931 1.965368,0.74251 2.418311,0.19674 0.179602,-0.21641 0.658532,-0.39346 1.064292,-0.39346 0.405758,0 1.037859,-0.11411 1.404671,-0.25358 0.724648,-0.2755 2.239622,-2.46473 2.247672,-3.248 0.0028,-0.26674 0.199725,-0.89536 0.437741,-1.39695 0.375159,-0.79059 0.39344,-1.19736 0.137352,-3.05623 -1.015208,-7.36916 -0.967391,-9.78381 0.234072,-11.82014 0.537921,-0.9117 2.821954,-2.91763 3.055834,-2.68375 0.05797,0.058 -0.0875,0.56081 -0.323268,1.11742 -0.265124,0.62592 -0.482888,2.11287 -0.570786,3.89746 -0.124776,2.53342 -0.07215,3.07744 0.431331,4.45931 1.268914,3.48266 1.58665,4.95372 1.585176,7.33907 -0.0019,2.81663 -0.338105,4.23974 -1.055948,4.46757 -0.521572,0.16554 -0.617426,0.39438 -0.527486,1.25928 0.02716,0.26122 -0.254134,1.05541 -0.625101,1.76487 -0.770789,1.47411 -0.810136,1.41469 1.750952,2.64405 0.68529,0.32895 1.245983,0.6926 1.245983,0.80813 0,0.11552 0.227023,0.21004 0.504497,0.21004 0.687565,0 2.118625,1.24558 2.118625,1.84402 0,0.2672 0.120286,0.56017 0.267301,0.65103 0.147013,0.0908 0.560155,0.74312 0.918093,1.44947 0.544117,1.07377 0.650792,1.65722 0.650792,3.5595 0,2.46439 -0.49736,3.9128 -1.836186,5.34739 -0.64854,0.69494 -3.888741,1.70914 -3.888741,1.70914 0,0 0.295384,-0.57744 0.836542,-1.10307 1.314496,-1.27677 1.770243,-2.46425 1.796219,-4.68017 0.03673,-3.13345 -1.253143,-4.87883 -3.859107,-5.22189 -1.505864,-0.19824 -3.291232,0.31528 -4.259843,1.22524 -0.693451,0.65146 -1.37987,2.72904 -1.37987,4.17643 0,0.73264 0.209747,1.23141 0.801052,1.90487 0.760925,0.86664 0.786711,0.96893 0.51478,2.04204 -0.476118,1.87888 -1.106737,3.14875 -1.412056,2.84343 -0.37721,-0.37721 -2.08072,-0.33943 -2.564907,0.0569 -0.519294,0.42505 -0.989267,2.11082 -1.191133,4.27258 -0.06266,0.67098 -0.08339,1.55666 -0.08339,1.55666 0,0 -0.527341,0.73102 -0.81476,1.09269 -0.40557,0.51034 -0.816683,1.18312 -0.913584,1.49508 -0.267981,0.8627 -2.420531,4.10839 -2.724702,4.10839 -0.147181,0 -0.28512,-0.50167 -0.30653,-1.11483 z m -4.354802,-14.79226 c 0.541018,-0.0894 0.98367,-0.26629 0.98367,-0.39303 0,-0.12674 -0.77254,-0.6114 -1.716757,-1.07702 -1.461771,-0.72082 -1.753378,-0.78864 -1.963326,-0.45659 -0.375029,0.59315 -0.306055,0.9943 0.270025,1.57038 0.562029,0.56202 0.890075,0.6102 2.426388,0.35626 z m 9.849822,-0.40872 c 0.44717,-0.44717 0.404352,-1.78373 -0.05714,-1.78373 -0.30048,0 -2.911109,1.17071 -3.261144,1.46243 -0.05051,0.0421 -0.01403,0.20243 0.08106,0.35631 0.236672,0.38295 2.847502,0.35471 3.237225,-0.035 z"
       id="path35707"
       sodipodi:nodetypes="sccssscsscssscsscsssscsscssssssssssssscssscssscssssssscssssssscssscsssssssscscsssssssssssssccss" /></g></svg>
