<?xml version="1.0" encoding="UTF-8" standalone="no"?>
<!-- Created with Inkscape (http://www.inkscape.org/) -->

<svg
   width="215"
   height="215"
   viewBox="0 0 56.885415 56.885416"
   version="1.1"
   id="svg5"
   xml:space="preserve"
   inkscape:version="1.2.1 (9c6d41e, 2022-07-14)"
   sodipodi:docname="clans_moulder.svg"
   xmlns:inkscape="http://www.inkscape.org/namespaces/inkscape"
   xmlns:sodipodi="http://sodipodi.sourceforge.net/DTD/sodipodi-0.dtd"
   xmlns="http://www.w3.org/2000/svg"
   xmlns:svg="http://www.w3.org/2000/svg"><sodipodi:namedview
     id="namedview7"
     pagecolor="#ffffff"
     bordercolor="#000000"
     borderopacity="0.25"
     inkscape:showpageshadow="2"
     inkscape:pageopacity="0.0"
     inkscape:pagecheckerboard="0"
     inkscape:deskcolor="#d1d1d1"
     inkscape:document-units="px"
     showgrid="false"
     inkscape:zoom="1.829812"
     inkscape:cx="45.359851"
     inkscape:cy="130.34126"
     inkscape:window-width="2560"
     inkscape:window-height="1387"
     inkscape:window-x="0"
     inkscape:window-y="25"
     inkscape:window-maximized="0"
     inkscape:current-layer="layer1" /><defs
     id="defs2"><inkscape:perspective
       sodipodi:type="inkscape:persp3d"
       inkscape:vp_x="0 : 28.442708 : 1"
       inkscape:vp_y="0 : 1000 : 0"
       inkscape:vp_z="56.885415 : 28.442708 : 1"
       inkscape:persp3d-origin="28.442708 : 18.961805 : 1"
       id="perspective31856" /></defs><g
     inkscape:label="Layer 1"
     inkscape:groupmode="layer"
     id="layer1"
     transform="translate(0,-480.22914)"><path
       id="path29490"
       style="fill:#000000;fill-opacity:0.95634919;stroke:none;stroke-width:0.202159"
       d="m 18.560322,480.22914 c 0.01971,0.49419 0.01357,0.62918 -0.05093,0.89117 -0.547882,0.35964 -2.277326,1.61268 -2.91789,2.15544 1.490881,0.45001 6.179022,4.06107 11.099032,8.59771 -1.4109,1.40339 -2.84985,2.8216 -4.33143,4.26312 -0.97675,-1.03703 -1.95874,-2.07692 -2.959347,-3.12755 -0.172718,1.28827 -1.696121,1.82721 -2.716514,2.95618 0.623854,0.19966 1.863767,1.04562 3.451711,2.3205 -1.458792,1.39875 -2.966318,2.824 -4.543452,4.28641 0.36424,0.39189 3.010773,2.49499 3.124789,2.65611 -0.118001,-0.61198 0.234339,-1.26744 0.440248,-1.87156 0.513835,-0.77175 1.580135,-1.96626 2.979475,-3.39604 1.45279,1.26037 3.06297,2.74228 4.70338,4.34604 -1.45345,1.53284 -2.93878,3.08374 -4.47713,4.66507 -0.62411,-0.66602 -1.29233,-1.38005 -1.85971,-1.98488 0.0465,0.40527 0.005,0.59055 -0.16544,0.74941 -0.40176,0.33902 -1.549818,1.21904 -1.976578,1.61728 0.384606,0.12496 1.171748,0.67191 2.181108,1.4779 -1.241911,1.25966 -2.522686,2.54165 -3.858401,3.85485 0.3333,0.38022 2.755122,2.42081 2.859448,2.57714 -0.107978,-0.59377 0.214323,-1.22977 0.402733,-1.81588 0.43978,-0.70033 1.32603,-1.76259 2.48594,-3.03161 1.49259,1.30102 3.18197,2.87103 4.7472,4.42461 -1.44562,1.54782 -2.93018,3.11835 -4.49095,4.73298 -0.85121,-0.80978 -1.31799,-1.28404 -1.31562,-1.41788 0.009,-0.50122 0.0277,-1.10477 0.0277,-1.10477 -0.83354,1.11771 -1.64985,2.22345 -2.707042,3.14887 0,0 0.358287,-0.10929 0.662944,-0.16583 0.09303,-0.0173 0.653798,0.34033 1.756648,1.15689 -0.63334,0.64511 -1.27877,1.29738 -1.94302,1.9604 0.262847,0.30441 2.17267,1.93789 2.25495,2.06305 -0.0851,-0.47539 0.16886,-0.98456 0.31745,-1.45381 0.21282,-0.34408 0.55784,-0.79665 1.0033,-1.32944 1.19243,0.92335 2.71649,2.13271 4.62637,3.68388 -2.41664,2.39209 -5.32789,5.36904 -8.678642,8.99966 3.937022,-3.33138 7.148162,-6.00024 9.750252,-8.12705 2.60205,2.12678 5.81294,4.79577 9.74985,8.12705 -3.35075,-3.63062 -6.262,-6.60757 -8.67864,-8.99966 1.84343,-1.4972 3.32664,-2.67542 4.50042,-3.58635 0.71015,0.94519 1.33624,1.86023 1.84154,2.71612 0.44187,-0.64254 0.92061,-1.34536 1.43723,-2.21507 l 0.42287,0.12162 c -0.66412,-0.66289 -1.31016,-1.31539 -1.94341,-1.9604 1.10302,-0.81669 1.66401,-1.17416 1.75705,-1.15689 0.30466,0.0565 0.66294,0.16583 0.66294,0.16583 -1.05719,-0.92542 -1.8735,-2.03116 -2.70704,-3.14887 0,0 0.0187,0.60355 0.0277,1.10477 0.002,0.13384 -0.46448,0.60809 -1.31562,1.41788 -1.49616,-1.54778 -2.92255,-3.0552 -4.31129,-4.54069 1.53208,-1.47612 3.19274,-3.03343 4.65085,-4.35985 1.30394,1.61768 2.44356,3.19009 3.30563,4.62834 0.74903,-1.23704 1.50835,-1.87693 2.35918,-2.61504 -1.29256,-1.27079 -2.53358,-2.51203 -3.73798,-3.73246 1.06757,-0.92692 1.83781,-1.53943 2.06069,-1.60029 -0.92188,-0.92343 -1.71819,-1.74971 -2.14202,-2.36669 -0.56743,0.60488 -1.23556,1.31918 -1.85971,1.98527 -1.45815,-1.49882 -2.8691,-2.97083 -4.24969,-4.4254 1.60665,-1.52473 3.19971,-2.99568 4.6315,-4.28089 1.50807,1.74872 2.82542,3.4506 3.81102,5.00148 l 0.27323,-1.01553 0.70322,-0.19545 1.01554,-1.64058 0.58595,0.15636 c -1.50784,-1.39814 -2.95294,-2.76242 -4.35196,-4.10202 1.67987,-1.44871 2.90457,-2.40924 3.26021,-2.50489 -1.02039,-1.12897 -2.19286,-2.15416 -2.71652,-2.95618 -1.00071,1.05075 -1.98291,2.09077 -2.95974,3.12794 -1.39489,-1.35712 -2.75111,-2.69319 -4.08228,-4.01594 5.06131,-4.53016 10.03448,-8.63834 10.85029,-8.84528 -1.25323,-1.13602 -2.49738,-2.23315 -2.96883,-3.04661 -3.37407,3.34137 -6.58248,6.59347 -9.88213,9.89477 -3.29971,-3.30137 -6.50838,-6.55333 -9.882517,-9.89477 z m 10.101272,13.50087 c 1.42472,1.37127 2.83433,2.79509 4.16045,4.21771 -1.45803,1.55292 -2.90864,3.10194 -4.3792,4.66191 -1.45457,-1.54301 -2.89014,-3.07508 -4.33222,-4.61097 1.3901,-1.34963 2.95044,-2.80962 4.55097,-4.26865 z m -0.0186,12.37793 c 1.46443,1.49445 2.91131,3.05307 4.25167,4.60229 -1.55571,1.66257 -3.11148,3.32812 -4.45185,4.77168 -1.33398,-1.43669 -2.88202,-3.09399 -4.43054,-4.74878 1.38481,-1.44076 2.98325,-3.03285 4.63072,-4.62519 z m -0.0422,12.17498 c 1.45456,1.50701 2.88887,3.09551 4.15809,4.6477 -1.12137,1.0543 -2.56419,2.41645 -4.31602,4.13005 -1.76979,-1.73115 -3.22192,-3.10109 -4.34802,-4.15966 1.25875,-1.37161 2.85148,-2.99461 4.50595,-4.61809 z"
       sodipodi:nodetypes="cccccccccccccccccccccccccccscccccccccccccccscccccccccccccccccccccccccccccccccccccccccccc" /></g></svg>
