<?xml version="1.0" encoding="UTF-8" standalone="no"?>
<svg
   xmlns:dc="http://purl.org/dc/elements/1.1/"
   xmlns:cc="http://creativecommons.org/ns#"
   xmlns:rdf="http://www.w3.org/1999/02/22-rdf-syntax-ns#"
   xmlns:svg="http://www.w3.org/2000/svg"
   xmlns="http://www.w3.org/2000/svg"
   xmlns:sodipodi="http://sodipodi.sourceforge.net/DTD/sodipodi-0.dtd"
   xmlns:inkscape="http://www.inkscape.org/namespaces/inkscape"
   width="215"
   height="215"
   viewBox="0 0 56.885415 56.885418"
   version="1.1"
   id="svg8"
   inkscape:version="1.0.2-2 (e86c870879, 2021-01-15)"
   sodipodi:docname="thunderscorn.svg">
  <defs
     id="defs2" />
  <sodipodi:namedview
     id="base"
     pagecolor="#ffffff"
     bordercolor="#666666"
     borderopacity="1.0"
     inkscape:pageopacity="0.0"
     inkscape:pageshadow="2"
     inkscape:zoom="2.3377954"
     inkscape:cx="207.7758"
     inkscape:cy="63.431104"
     inkscape:document-units="px"
     inkscape:current-layer="layer1"
     inkscape:document-rotation="0"
     showgrid="false"
     units="px"
     inkscape:window-width="1920"
     inkscape:window-height="1017"
     inkscape:window-x="-8"
     inkscape:window-y="-8"
     inkscape:window-maximized="1" />
  <metadata
     id="metadata5">
    <rdf:RDF>
      <cc:Work
         rdf:about="">
        <dc:format>image/svg+xml</dc:format>
        <dc:type
           rdf:resource="http://purl.org/dc/dcmitype/StillImage" />
        <dc:title></dc:title>
      </cc:Work>
    </rdf:RDF>
  </metadata>
  <g
     inkscape:label="Layer 1"
     inkscape:groupmode="layer"
     id="layer1"
     transform="translate(0,-240.11457)">
    <g
       id="g881"
       transform="matrix(2.2869981,0,0,2.2869981,-238.87091,-7.3548857)"
       style="fill:#000000;fill-opacity:1">
      <path
         id="rect847"
         style="fill:#000000;fill-opacity:1;stroke-width:3.43293;paint-order:markers fill stroke"
         d="m 441.76758,433.61914 -0.002,0.002 -5.58789,6.0586 v 9.58984 c -4.13896,2.41931 -9.05397,2.93459 -14.20898,3.86719 0.70734,-2.88563 1.24735,-4.04274 3.04297,-6.75977 -13.51639,3.76112 -21.15124,6.66158 -30.25,17.06836 10.25155,-5.15762 14.68733,-6.75523 20.61719,-8.28125 -1.22136,3.10126 -1.58812,3.96617 -2.53516,7.09766 7.66152,-1.18639 17.30772,-4.33784 23.33398,-0.26563 v 10.27735 h -0.002 l 5.58984,6.05859 0.002,0.002 5.58984,-6.05859 h -0.002 v -10.27734 c 6.02627,-4.07223 15.67246,-0.9207 23.33398,0.26562 -0.94703,-3.13149 -1.3138,-3.9964 -2.53515,-7.09765 5.92985,1.52602 10.36563,3.12363 20.61718,8.28125 -9.09875,-10.40678 -16.73361,-13.30724 -30.25,-17.06836 1.79562,2.71702 2.3356,3.87413 3.04297,6.75976 -5.15501,-0.93259 -10.07001,-1.44788 -14.20898,-3.86719 v -9.58984 l -5.58789,-6.05859 z m 0,15.58008 6.77734,6.77734 -6.77734,6.77735 -6.7793,-6.77735 z"
         transform="scale(0.26458333)" />
      <rect
         style="fill:#000000;fill-opacity:1;stroke:none;stroke-width:0.929816;paint-order:markers fill stroke"
         id="rect876"
         width="1.8614494"
         height="1.8614494"
         x="167.02686"
         y="1.7277966"
         transform="rotate(45)" />
    </g>
  </g>
</svg>
