<?xml version="1.0" encoding="UTF-8" standalone="no"?>
<svg
   xmlns:dc="http://purl.org/dc/elements/1.1/"
   xmlns:cc="http://creativecommons.org/ns#"
   xmlns:rdf="http://www.w3.org/1999/02/22-rdf-syntax-ns#"
   xmlns:svg="http://www.w3.org/2000/svg"
   xmlns="http://www.w3.org/2000/svg"
   xmlns:sodipodi="http://sodipodi.sourceforge.net/DTD/sodipodi-0.dtd"
   xmlns:inkscape="http://www.inkscape.org/namespaces/inkscape"
   id="Layer_1"
   data-name="Layer 1"
   viewBox="0 0 214.99999 215.00001"
   version="1.1"
   sodipodi:docname="thunderstrike_stormcasts.svg"
   width="215"
   height="215"
   inkscape:version="1.0.2-2 (e86c870879, 2021-01-15)">
  <metadata
     id="metadata14">
    <rdf:RDF>
      <cc:Work
         rdf:about="">
        <dc:format>image/svg+xml</dc:format>
        <dc:type
           rdf:resource="http://purl.org/dc/dcmitype/StillImage" />
        <dc:title></dc:title>
      </cc:Work>
    </rdf:RDF>
  </metadata>
  <defs
     id="defs12" />
  <sodipodi:namedview
     pagecolor="#ffffff"
     bordercolor="#666666"
     borderopacity="1"
     objecttolerance="10"
     gridtolerance="10"
     guidetolerance="10"
     inkscape:pageopacity="0"
     inkscape:pageshadow="2"
     inkscape:window-width="1920"
     inkscape:window-height="1017"
     id="namedview10"
     showgrid="false"
     inkscape:zoom="4.3957182"
     inkscape:cx="88.305"
     inkscape:cy="151.28358"
     inkscape:window-x="-8"
     inkscape:window-y="-8"
     inkscape:window-maximized="1"
     inkscape:current-layer="Layer_1" />
  <g
     id="vPvsIZ.tif"
     transform="matrix(1.1115221,0,0,1.1115221,9.3303681,-0.01111841)">
    <path
       fill="#ffffff"
       d="m 697.87,1604.6 c -1.74,-0.8 -3.17,-1.85 -4.71,-2.07 -2.57,-0.38 -4.81,0.37 -4.31,3.71 0.69,4.59 1.75,9.14 2.27,13.75 a 83,83 0 0 1 0.83,14.75 c -0.49,7.09 -4.5,11.91 -11.29,14.44 -7.26,2.71 -14.26,1.52 -19.54,-3.46 -2.92,-2.76 -3.59,-8 -5.08,-12.14 -0.47,-1.31 -0.33,-2.82 -1.14,-4.23 -1.86,4.66 -1.4,9.39 0,14 1.53,5 4.8,8.34 10.29,8.86 4.88,0.45 9.78,0.81 14.73,1.22 -5.69,8.65 -18.82,12.82 -27.7,8.56 -2.06,-1 -4.47,-3 -5,-5 a 205.76,205.76 0 0 1 -4.23,-20.32 c -0.43,-2.5 -0.07,-5.13 -0.07,-7.7 l -1.32,-0.22 a 8.94,8.94 0 0 0 -1.1,2.67 c -0.23,4 -0.8,8 -0.3,12 2,15.67 -14.31,25 -28.59,20.51 -3.85,-1.2 -6.75,-5.4 -9.81,-8.84 10.36,2.89 19.73,2.08 27.15,-5.86 3.92,-4.18 4.36,-14.79 0.92,-20.77 0,2.67 0,5.33 0,8 -0.08,12 -14.87,21.22 -25.69,16 -12.23,-5.94 -17.34,-17.58 -13.59,-30.72 a 87.21,87.21 0 0 0 2.34,-10.21 c 1.32,-8.28 -0.4,-9.77 -8.6,-7.51 a 9.19,9.19 0 0 1 3.86,-10.84 12.71,12.71 0 0 1 9.69,-1.28 c 4.66,1.51 7.46,5.56 7.14,10.88 -0.4,6.65 -1.12,13.27 -1.5,19.92 a 38.59,38.59 0 0 0 0.36,8.93 6.29,6.29 0 0 0 8.35,4.82 c 3.62,-1.15 6.82,-6.58 5.35,-9.54 -0.46,-0.92 -2,-1.36 -3.2,-1.84 -2.06,-0.86 -4.18,-1.57 -7.3,-2.72 7.76,-5.64 6.82,-12.93 6.27,-20 -0.65,-8.26 -6.86,-12.06 -12.23,-14.87 1,-10 1.71,-19.16 2.81,-28.29 2.07,-17.11 11.81,-28.69 28.16,-32.46 16.72,-3.84 34.26,1.19 42.06,20.62 a 77.33,77.33 0 0 1 5.46,27.67 c 0,1.83 -0.26,4 0.58,5.41 3.19,5.42 -0.27,7.42 -4.13,10 -6.63,4.35 -10.19,18.07 -6.59,24.78 1.14,2.13 3.17,3.78 5.35,6.29 -1.42,0.81 -3.16,2.38 -5.16,2.82 -3.82,0.84 -3.63,3.57 -3.25,6.14 0.42,2.89 2.48,4.11 5.48,3.72 4.35,-0.57 7.18,-3.64 7,-8.82 -0.31,-7.45 -1.41,-14.86 -1.66,-22.31 a 13.38,13.38 0 0 1 2.29,-7.37 c 3.16,-4.76 8.07,-5.94 13,-3.78 4.1,1.64 6.48,7.1 5.35,12.7 z m -53.07,-7.19 c 3.28,5.26 6,9.31 8.4,13.58 3.15,5.7 8.54,9.28 12.58,8.49 -2.15,-4 -5.71,-8 -6.29,-12.31 -0.84,-6.33 -4.55,-10.29 -7.41,-14.18 -1.59,1 -2.88,1.71 -4.16,2.49 z m -27.41,22.35 c 4,-0.17 9.15,-3.89 11.56,-8.33 2.28,-4.21 3,-9.62 8.44,-11.67 a 2.24,2.24 0 0 0 0.67,-2.07 5.07,5.07 0 0 0 -2,-1.72 c -1.63,-1 -3.33,-2 -5.19,-3 -2,2.65 -5,5.69 -6.77,9.34 -2.72,5.61 -4.55,11.69 -6.71,17.45 z m 23.71,-83.67 c -7.53,0 -13.65,5.87 -13.52,13 0.13,6.6 6.68,13.25 13.54,12.73 7.16,-0.54 13.48,-4.91 13.8,-12.5 0.3,-7.32 -5.92,-13.21 -13.82,-13.23 z m 7.78,38.53 0.21,2.27 c 4.52,0.38 9,0.86 13.55,1.11 2.87,0.15 5.8,-0.54 5.23,-4.21 -0.5,-3.25 -3,-5.66 -6.43,-4.62 -4.34,1.32 -8.39,3.59 -12.56,5.45 z m -15.15,1.92 0.29,-2.11 c -4.12,-1.9 -8.11,-4.17 -12.38,-5.58 a 5,5 0 0 0 -6.9,4.39 c -0.16,1.33 2.45,4.23 3.88,4.28 5.02,0.17 10.07,-0.58 15.11,-0.98 z m -1.12,34.07 h 17.56 c -2.95,-4.61 -14.17,-4.79 -17.56,0 z"
       transform="translate(-553.09,-1471.62)"
       id="path2" />
    <path
       fill="#ffffff"
       d="m 591.91,1494.64 c 6.34,3.84 12.7,7.64 19,11.52 6.3,3.88 16.19,0.63 18.77,-6.53 3.22,-8.91 6.31,-17.86 9.88,-28 3.41,8.43 6.92,15.7 9.27,23.33 2.06,6.7 6.64,10.13 12.61,12.23 1.49,0.52 3.8,-0.14 5.32,-1 7.16,-4 14.18,-8.31 21.25,-12.5 l 1,1.09 c -2.68,6 -5,12.16 -8.14,17.94 -2.59,4.86 0.7,7.72 3.13,10.49 1.2,1.36 4.39,1.75 6.5,1.42 11.31,-1.8 22.57,-4 34.38,-5 -1.33,1.06 -2.62,2.17 -4,3.19 -6.68,5 -13.48,9.79 -20,15 -1.83,1.44 -4.29,4 -4,5.78 0.54,4 2,7.76 7.34,8.71 a 160.13,160.13 0 0 1 25.52,6.94 l -28.43,10.1 c 0.4,2 0.77,3.82 1.24,6.15 h -17.31 a 66.32,66.32 0 0 0 -7.64,-29.77 c -13.36,-25.53 -42,-31.56 -63.86,-13 -10.66,9.08 -15,21.74 -16.73,35.29 -1,7.8 -0.74,7.83 -8.56,7.83 h -6.88 c 1.22,-4.79 -2,-5.65 -5,-6.77 -7.13,-2.6 -14.22,-5.32 -22.72,-8.51 8.78,-2.72 15.95,-5.52 23.38,-7 4.67,-1 4.87,-4.23 5.35,-7.18 0.32,-2 -0.5,-5.14 -2,-6.35 -7.33,-6 -15.05,-11.56 -22.62,-17.28 -1.26,-1 -2.49,-2 -4.88,-3.84 13.17,2.33 24.82,4.24 36.39,6.53 3.45,0.68 5.55,-0.11 7.73,-2.78 2.18,-2.67 2.75,-4.89 1.14,-8.06 -2.35,-4.58 -4.27,-9.39 -6.32,-14.12 -0.62,-1.43 -1.1,-2.93 -1.64,-4.4 z"
       transform="translate(-553.09,-1471.62)"
       id="path4" />
    <path
       fill="#ffffff"
       d="m 652,1549.08 c -0.1,5.86 -4.5,9.91 -10.76,9.91 -6,0 -10.48,-4.39 -10.4,-10.25 0.08,-6 4.7,-10.06 11.27,-9.84 a 9.86,9.86 0 0 1 9.89,10.18 z"
       transform="translate(-553.09,-1471.62)"
       id="path6" />
  </g>
</svg>
