<?xml version="1.0" encoding="UTF-8" standalone="no"?>
<svg
   width="215"
   height="215"
   viewBox="0 0 56.885415 56.885418"
   version="1.1"
   id="svg8"
   inkscape:version="1.2.1 (9c6d41e, 2022-07-14)"
   sodipodi:docname="orç.svg"
   xmlns:inkscape="http://www.inkscape.org/namespaces/inkscape"
   xmlns:sodipodi="http://sodipodi.sourceforge.net/DTD/sodipodi-0.dtd"
   xmlns="http://www.w3.org/2000/svg"
   xmlns:svg="http://www.w3.org/2000/svg"
   xmlns:rdf="http://www.w3.org/1999/02/22-rdf-syntax-ns#"
   xmlns:cc="http://creativecommons.org/ns#"
   xmlns:dc="http://purl.org/dc/elements/1.1/">
  <defs
     id="defs2">
    <pattern
       id="EMFhbasepattern"
       patternUnits="userSpaceOnUse"
       width="6"
       height="6"
       x="0"
       y="0" />
  </defs>
  <sodipodi:namedview
     id="base"
     pagecolor="#ffffff"
     bordercolor="#666666"
     borderopacity="1.0"
     inkscape:pageopacity="0.0"
     inkscape:pageshadow="2"
     inkscape:zoom="1.979899"
     inkscape:cx="160.61425"
     inkscape:cy="160.10918"
     inkscape:document-units="px"
     inkscape:current-layer="layer1"
     inkscape:document-rotation="0"
     showgrid="false"
     inkscape:snap-global="false"
     units="px"
     inkscape:window-width="1309"
     inkscape:window-height="456"
     inkscape:window-x="0"
     inkscape:window-y="38"
     inkscape:window-maximized="0"
     inkscape:showpageshadow="2"
     inkscape:pagecheckerboard="0"
     inkscape:deskcolor="#d1d1d1" />
  <metadata
     id="metadata5">
    <rdf:RDF>
      <cc:Work
         rdf:about="">
        <dc:format>image/svg+xml</dc:format>
        <dc:type
           rdf:resource="http://purl.org/dc/dcmitype/StillImage" />
        <dc:title />
      </cc:Work>
    </rdf:RDF>
  </metadata>
  <g
     inkscape:label="Layer 1"
     inkscape:groupmode="layer"
     id="layer1"
     transform="translate(0,-240.11457)">
    <path
       id="path993"
       style="fill:#ffffff;fill-opacity:1;stroke:none;stroke-width:0.257284;stroke-linecap:round;stroke-linejoin:round;stroke-opacity:1;paint-order:markers fill stroke"
       d="m 28.599287,240.11469 c -0.07401,0.14808 -0.145546,0.26028 -0.188967,0.38793 -0.265513,0.74548 -0.574118,1.46829 -1.033653,2.11419 -0.359996,0.50805 -0.643582,1.13832 -1.437553,1.07454 -0.03068,-0.003 -0.06118,0.0257 -0.09427,0.0334 -0.704621,0.17615 -1.406965,0.35972 -2.11669,0.52056 -0.57187,0.12766 -1.171924,0.15601 -1.718262,0.35004 -1.182027,0.41613 -2.335589,0.91885 -3.50485,1.37072 -0.352334,0.13531 -0.722925,0.22736 -1.088025,0.33458 -0.165945,0.0485 -0.313681,0.0894 -0.374952,0.29369 -0.07912,0.27318 -0.293727,0.41865 -0.569448,0.49015 -0.546309,0.14043 -1.049015,0.0256 -1.541743,-0.2144 -0.61529,-0.30381 -1.23857,-0.5949 -1.856388,-0.89105 0,-0.005 -0.0048,0.0408 -0.0048,0.0867 0.0048,0.85014 0.01274,1.69741 0.02046,2.54499 0.0048,0.30125 -0.09475,0.54636 -0.350038,0.72251 -0.05104,0.0357 -0.08645,0.0974 -0.122157,0.15357 -0.09446,0.14809 -0.165973,0.31147 -0.27575,0.44678 -0.288487,0.35487 -0.607783,0.68659 -0.886061,1.04911 -0.242529,0.31405 -0.574697,0.37771 -0.924455,0.38793 -0.265503,0.008 -0.7274218,0.28578 -0.7962967,0.53853 -0.020456,0.074 -0.015245,0.17394 0.017947,0.24033 0.1224945,0.24253 0.1150069,0.47231 -0.025474,0.70207 -0.4238147,0.69441 -0.8554934,1.3812 -1.2665232,2.08326 -0.1991369,0.33955 -0.4466733,0.63274 -0.7913177,0.8038 -0.3752897,0.18637 -0.4699275,0.52352 -0.5873949,0.86561 -0.084236,0.24764 -0.1787774,0.49277 -0.2527951,0.74296 -0.068894,0.23233 -0.1757959,0.47229 -0.1630591,0.70206 0.017851,0.337 -0.1150841,0.60998 -0.2248612,0.90103 -0.038307,0.10212 -0.091569,0.20199 -0.117178,0.30665 -0.1531785,0.61782 -0.2837203,1.24069 -0.4547688,1.8534 -0.2373953,0.84249 -0.6277472,1.63658 -0.6532014,2.54799 -0.020456,0.74292 -0.1788835,1.47804 -0.2707423,2.2184 -0.046026,0.37018 -0.1024535,0.74021 -0.1151903,1.11294 -0.017947,0.54377 0.030588,1.08777 -0.00772,1.62901 -0.030587,0.41614 -0.1687231,0.81155 -0.5873852,1.03366 -0.2885063,0.15063 -0.5666012,0.31929 -0.8576452,0.48267 0.071499,0.0613 0.1609942,0.10998 0.2069429,0.18399 0.2859107,0.45189 0.7276244,0.73026 1.1258885,1.05959 0.1021158,0.0842 0.2117674,0.19913 0.237347,0.31911 0.1480742,0.66378 0.2706942,1.33268 0.4008983,1.99901 0.00289,0.008 0,0.0177 0,0.0255 0.040815,0.66888 0.020167,1.34543 0.1401041,1.99899 0.1812668,1.00332 0.030684,1.91228 -0.5130684,2.82623 0.1097771,0.0408 0.2247647,0.12766 0.3141148,0.1072 0.574417,-0.13275 1.0057483,0.16818 1.0261946,0.75792 0.00772,0.24253 -0.00289,0.493 -0.043421,0.73298 -0.061271,0.33955 -0.1581767,0.67622 -0.2373181,1.01321 -0.1863712,0.79143 -0.3652547,1.58566 -0.5669389,2.37198 -0.079122,0.30635 -0.2093263,0.59984 -0.3216314,0.91897 0.1787098,-0.0537 0.3321199,-0.0946 0.480194,-0.14311 0.4492979,-0.14807 0.97271,-0.11191 1.3173544,-0.52805 0.022965,-0.0306 0.073912,-0.041 0.1122086,-0.0564 0.25019,-0.0996 0.5026571,-0.19912 0.7553944,-0.29867 0.2859396,-0.11235 0.5565758,-0.0896 0.7863484,0.11717 0.1097771,0.0996 0.1863905,0.23503 0.2782493,0.35502 0.5514426,-0.14042 0.9498707,0.0997 1.2689936,0.52606 0.21445,0.28848 0.308885,0.68901 0.745446,0.75791 0.0077,0.003 0.01274,0.0106 0.02046,0.0154 0.25019,0.17615 0.508022,0.33956 0.745446,0.53103 0.372733,0.3038 0.730452,0.62535 1.092976,0.94191 0.239981,0.20935 0.45913,0.44714 0.719529,0.62329 0.418691,0.28593 0.868037,0.52319 1.296937,0.79381 0.472301,0.2987 0.949938,0.59245 1.39416,0.92944 0.579522,0.43911 1.130684,0.91657 1.692336,1.38121 0.194032,0.16082 0.439089,0.29875 0.55397,0.5081 0.434004,0.79651 0.824694,1.61602 1.230639,2.42531 0.08173,0.15829 0.160936,0.31882 0.250296,0.50264 0.155726,-0.23744 0.283228,-0.43664 0.410875,-0.63575 0.127647,-0.19915 0.24524,-0.40577 0.377963,-0.60235 0.385498,-0.57442 0.760711,-0.90654 1.470436,-0.48018 0.117438,0.0715 0.268012,0.0945 0.405906,0.12764 0.57186,0.14042 1.179701,0.20204 1.713274,0.43182 0.576974,0.24503 1.148679,0.36757 1.751185,0.29866 0.342097,-0.0408 0.630767,0.0305 0.886061,0.21693 0.262956,0.19145 0.520653,0.4061 0.729998,0.65119 0.229763,0.26551 0.390449,0.58974 0.602322,0.87312 0.135338,0.18126 0.324632,0.32402 0.472707,0.49762 0.510598,0.5974 1.013583,1.20241 1.508858,1.78956 0.05616,-0.12509 0.109343,-0.27799 0.185986,-0.41585 0.165944,-0.29615 0.370233,-0.57223 0.508099,-0.87859 0.262955,-0.57696 0.493075,-1.16892 0.73048,-1.75863 0.06378,-0.15318 0.14023,-0.31438 0.155581,-0.47522 0.03068,-0.34976 0.181258,-0.61274 0.510589,-0.72249 0.37529,-0.12765 0.760865,-0.21422 1.146364,-0.30618 0.324207,-0.0766 0.653307,-0.0892 0.883051,-0.41085 0.09186,-0.13022 0.336915,-0.212 0.515596,-0.21491 0.520807,-0.008 1.029157,-0.0508 1.539755,-0.16055 0.765893,-0.16342 1.513606,-0.36017 2.225879,-0.69461 0.995665,-0.46719 2.009422,-0.89873 3.01022,-1.35825 0.280797,-0.13021 0.595047,-0.2552 0.799278,-0.47221 0.533573,-0.57187 1.143614,-0.62513 1.83547,-0.41834 0.06639,0.0201 0.15065,0.0225 0.211921,-0.003 0.339569,-0.13786 0.622846,-0.0638 0.89601,0.16853 0.45173,0.38281 0.916215,0.75019 1.403655,1.15084 0.05095,-0.22959 0.107433,-0.44102 0.143096,-0.65021 0.0358,-0.2068 0.02267,-0.42415 0.07632,-0.62328 0.112334,-0.41868 0.268166,-0.82192 0.377943,-1.24059 0.168501,-0.6408 0.283228,-1.29462 0.474704,-1.92521 0.127647,-0.42123 0.150978,-0.89088 0.495632,-1.23808 0.188919,-0.18893 0.35466,-0.4086 0.49763,-0.63326 0.523354,-0.82207 1.059252,-1.63614 1.541762,-2.48117 0.377847,-0.65867 0.684609,-1.35825 1.026677,-2.0399 0.05365,-0.10467 0.117342,-0.20683 0.193955,-0.29617 0.398264,-0.46977 0.671226,-0.99307 0.732497,-1.61855 0.03059,-0.31657 0.03599,-0.65853 0.161043,-0.94191 0.173654,-0.39827 0.160965,-0.79178 0.15808,-1.19771 0,-0.0919 0.0029,-0.18889 0.02296,-0.27823 0.15065,-0.67654 0.314269,-1.35282 0.457239,-2.03191 0.127647,-0.61272 0.283431,-1.22306 0.339569,-1.84343 0.05876,-0.63058 0.02316,-1.27106 0.0077,-1.90675 -0.01785,-0.67655 -0.0385,-1.35593 -0.09974,-2.02992 -0.04342,-0.4774 -0.160811,-0.94722 -0.234848,-1.42208 -0.08173,-0.50804 -0.09693,-1.03364 -0.237347,-1.52381 -0.242538,-0.84504 -0.441337,-1.69799 -0.60981,-2.56345 -0.224687,-1.14627 -0.615396,-2.23369 -1.271511,-3.21914 -0.216998,-0.32933 -0.370253,-0.70448 -0.528536,-1.06956 -0.158283,-0.36507 -0.158158,-0.79952 -0.49515,-1.088 -0.08935,-0.0766 -0.173963,-0.16582 -0.242818,-0.26029 -0.490171,-0.68163 -0.980285,-1.35826 -1.342809,-2.12414 -0.316575,-0.67143 -0.528217,-1.35277 -0.502628,-2.09824 0.0048,-0.14807 -0.01312,-0.30126 -0.01795,-0.40338 -0.395688,0.0485 -0.768556,0.10707 -1.143836,0.13263 -0.472301,0.0307 -0.737862,-0.18614 -0.870623,-0.64822 -0.05616,-0.19402 -0.143143,-0.38044 -0.206914,-0.57192 -0.06889,-0.21189 -0.157926,-0.42375 -0.183505,-0.64074 -0.05365,-0.45188 -0.05867,-0.90887 -0.1097,-1.36075 -0.03319,-0.29104 -0.130359,-0.57208 -0.163551,-0.86312 -0.02779,-0.24764 -0.0048,-0.50277 -0.0048,-0.77338 -0.171048,0.0945 -0.316595,0.17868 -0.467216,0.2553 -0.80419,0.41102 -1.605639,0.79901 -2.560459,0.68412 -0.528459,-0.0638 -1.087891,-0.57713 -1.072549,-1.12092 0.01283,-0.46464 0.06146,-0.92905 0.09724,-1.41411 -0.199137,0.16338 -0.408251,0.30595 -0.584404,0.48466 -0.416134,0.41614 -1.256063,0.49297 -1.787079,0.24533 -0.444222,-0.20679 -0.91167,-0.37024 -1.414607,-0.37796 -0.270588,-0.003 -0.469956,-0.1479 -0.651213,-0.34704 -0.319123,-0.35487 -0.441463,-0.78391 -0.49763,-1.29195 -0.158283,0.14041 -0.326929,0.22713 -0.39839,0.365 -0.311461,0.60505 -0.923847,0.59239 -1.43954,0.35751 -0.4289,-0.19658 -0.857906,-0.34433 -1.314884,-0.43879 -0.270617,-0.0562 -0.535975,-0.15068 -0.793827,-0.2528 -0.145517,-0.0587 -0.247999,-0.0717 -0.388431,0.0304 -0.418662,0.30381 -0.954869,0.22205 -1.210163,-0.18897 -0.26806,-0.43146 -0.530562,-0.87031 -0.742455,-1.32984 -0.349759,-0.76335 -0.868298,-1.40682 -1.391681,-2.10123 z m -1.795561,10.01245 c 1.575727,3.44761 1.793949,7.26916 2.202451,10.97979 0.408376,-3.71057 0.627091,-7.53181 2.201438,-10.97979 3.388434,0.39286 6.656602,1.74772 9.331325,3.86437 -1.324919,3.55043 -3.871947,6.4064 -6.206407,9.31836 2.911897,-2.33402 5.767626,-4.88084 9.317846,-6.20543 2.118581,2.67328 3.473171,5.94336 3.864874,9.33183 -3.447283,1.57362 -7.267637,1.79207 -10.977306,2.20044 3.70993,0.40851 7.530862,0.62637 10.977788,2.20194 -0.392397,3.38832 -1.748531,6.65573 -3.863851,9.33082 -3.551117,-1.32474 -6.407512,-3.87209 -9.319862,-6.20691 2.335,2.91265 4.88307,5.76916 6.206406,9.32134 -2.674211,2.1172 -5.944087,3.46897 -9.331305,3.86487 -1.573932,-3.44773 -1.79257,-7.26859 -2.200946,-10.97879 -0.408502,3.71009 -0.626493,7.53115 -2.20194,10.97829 -3.388028,-0.39209 -6.656138,-1.74744 -9.330331,-3.86386 1.323646,-3.55176 3.871282,-6.40823 6.205924,-9.32086 -2.912205,2.33464 -5.76834,4.88204 -9.31935,6.20643 -2.116565,-2.67362 -3.471888,-5.94233 -3.864874,-9.32983 3.447157,-1.57544 7.268196,-1.79345 10.9783,-2.20194 -3.710384,-0.40841 -7.531529,-0.62698 -10.979294,-2.20145 0.395611,-3.38774 1.747643,-6.65743 3.86635,-9.33082 3.551165,1.32342 6.406875,3.87105 9.318868,6.20543 -2.334382,-2.91195 -4.881612,-5.76772 -6.205924,-9.31837 2.674376,-2.11643 5.9443,-3.46973 9.32982,-3.86586 z" />
  </g>
</svg>
