<?xml version="1.0" encoding="UTF-8" standalone="no"?>
<svg
   width="215"
   height="215"
   viewBox="0 0 56.885415 56.885418"
   version="1.1"
   id="svg8"
   inkscape:version="1.2.1 (9c6d41e, 2022-07-14)"
   sodipodi:docname="qhaysh.svg"
   xmlns:inkscape="http://www.inkscape.org/namespaces/inkscape"
   xmlns:sodipodi="http://sodipodi.sourceforge.net/DTD/sodipodi-0.dtd"
   xmlns="http://www.w3.org/2000/svg"
   xmlns:svg="http://www.w3.org/2000/svg"
   xmlns:rdf="http://www.w3.org/1999/02/22-rdf-syntax-ns#"
   xmlns:cc="http://creativecommons.org/ns#"
   xmlns:dc="http://purl.org/dc/elements/1.1/">
  <defs
     id="defs2" />
  <sodipodi:namedview
     id="base"
     pagecolor="#ffffff"
     bordercolor="#666666"
     borderopacity="1.0"
     inkscape:pageopacity="0.0"
     inkscape:pageshadow="2"
     inkscape:zoom="2.1577602"
     inkscape:cx="69.979973"
     inkscape:cy="98.250028"
     inkscape:document-units="px"
     inkscape:current-layer="layer1"
     inkscape:document-rotation="0"
     showgrid="false"
     units="px"
     inkscape:window-width="1309"
     inkscape:window-height="456"
     inkscape:window-x="0"
     inkscape:window-y="38"
     inkscape:window-maximized="0"
     inkscape:snap-global="false"
     inkscape:showpageshadow="2"
     inkscape:pagecheckerboard="0"
     inkscape:deskcolor="#d1d1d1" />
  <metadata
     id="metadata5">
    <rdf:RDF>
      <cc:Work
         rdf:about="">
        <dc:format>image/svg+xml</dc:format>
        <dc:type
           rdf:resource="http://purl.org/dc/dcmitype/StillImage" />
        <dc:title />
      </cc:Work>
    </rdf:RDF>
  </metadata>
  <g
     inkscape:label="Layer 1"
     inkscape:groupmode="layer"
     id="layer1"
     transform="translate(0,-240.11457)">
    <g
       id="g854"
       transform="matrix(1.0197786,0,0,1.0197786,44.891233,-5.749348)"
       style="fill:#ffffff;fill-opacity:1">
      <path
         id="path845"
         style="fill:#ffffff;fill-opacity:1;stroke-width:4.05445;paint-order:markers fill stroke"
         d="M -60.960938,3.7070312 A 105.4145,105.4145 0 0 0 -166.37695,109.12109 105.4145,105.4145 0 0 0 -60.960938,214.53711 105.4145,105.4145 0 0 0 44.453125,109.12109 105.4145,105.4145 0 0 0 -60.960938,3.7070312 Z m 0,15.7578128 a 89.657499,89.657499 0 0 1 89.65625,89.656246 89.657499,89.657499 0 0 1 -89.65625,89.65821 89.657499,89.657499 0 0 1 -89.658202,-89.65821 89.657499,89.657499 0 0 1 89.658202,-89.656246 z"
         transform="matrix(0.26458333,0,0,0.26458333,0,240.11457)" />
      <circle
         style="fill:#ffffff;fill-opacity:1;stroke-width:0.18374;paint-order:markers fill stroke"
         id="circle849"
         cx="-16.129505"
         cy="268.98645"
         r="4.7771773" />
    </g>
  </g>
</svg>
