<?xml version="1.0" encoding="UTF-8" standalone="no"?>
<!-- Created with Inkscape (http://www.inkscape.org/) -->

<svg
   width="215"
   height="215"
   viewBox="0 0 56.885415 56.885416"
   version="1.1"
   id="svg5"
   xml:space="preserve"
   inkscape:version="1.2.1 (9c6d41e, 2022-07-14)"
   sodipodi:docname="clans_skryre.svg"
   xmlns:inkscape="http://www.inkscape.org/namespaces/inkscape"
   xmlns:sodipodi="http://sodipodi.sourceforge.net/DTD/sodipodi-0.dtd"
   xmlns="http://www.w3.org/2000/svg"
   xmlns:svg="http://www.w3.org/2000/svg"><sodipodi:namedview
     id="namedview7"
     pagecolor="#ffffff"
     bordercolor="#000000"
     borderopacity="0.25"
     inkscape:showpageshadow="2"
     inkscape:pageopacity="0.0"
     inkscape:pagecheckerboard="0"
     inkscape:deskcolor="#d1d1d1"
     inkscape:document-units="px"
     showgrid="false"
     inkscape:zoom="2.587745"
     inkscape:cx="214.66567"
     inkscape:cy="123.85301"
     inkscape:window-width="2560"
     inkscape:window-height="1387"
     inkscape:window-x="0"
     inkscape:window-y="25"
     inkscape:window-maximized="1"
     inkscape:current-layer="layer1" /><defs
     id="defs2" /><g
     inkscape:label="Layer 1"
     inkscape:groupmode="layer"
     id="layer1"
     transform="translate(0,-480.22914)"><path
       id="path2650"
       style="fill:#fff;fill-opacity:1;stroke:none;stroke-width:0.13147"
       d="m 23.828548,480.22914 c -1.625745,1.45641 -3.25148,2.91292 -4.877227,4.36933 3.895018,1.9983 6.469231,4.0475 9.24655,6.75709 l -10.669097,9.65277 12.157378,11.35342 c -0.197605,8.80469 -0.261984,17.69623 -1.806942,24.75281 2.167086,-1.68663 3.953292,-3.24627 5.891755,-4.52647 -0.410315,-3.93706 -0.335481,-12.05935 -0.291185,-19.96315 L 47.148035,501.31339 36.123302,491.30472 c 3.573257,-3.01439 5.774867,-4.35221 9.195709,-5.53766 -2.353945,-1.54108 -3.691681,-2.82828 -5.080339,-4.7758 -2.692644,2.30316 -5.334508,4.30166 -8.077957,6.90962 -3.082143,-2.55715 -5.453238,-4.65732 -8.332167,-7.67174 z m 8.433594,14.73363 7.468368,7.01105 -6.231472,4.91934 c -3.85e-4,-1.23069 -0.0046,-2.43048 -0.01566,-3.57203 -1.375298,0.83678 -2.394837,1.35978 -3.592314,2.32358 -0.009,0.20805 -0.01707,0.41707 -0.02542,0.62576 l -4.512861,-4.34749 z m -13.723206,10.68194 -8.8015553,7.04134 2.4429793,3.19714 z m 3.879905,4.05964 c -2.575856,5.07069 -5.144424,10.1448 -7.687912,15.23178 1.073183,1.26315 1.992189,2.8478 2.802211,4.56242 1.973519,-6.51806 3.495121,-13.12589 4.885701,-19.7942 z" /></g></svg>
