<?xml version="1.0" encoding="UTF-8" standalone="no"?>
<!-- Created with Inkscape (http://www.inkscape.org/) -->

<svg
   width="215"
   height="215"
   viewBox="0 0 56.885415 56.885416"
   version="1.1"
   id="svg5"
   xml:space="preserve"
   inkscape:version="1.2.1 (9c6d41e, 2022-07-14)"
   sodipodi:docname="clans_verminus.svg"
   xmlns:inkscape="http://www.inkscape.org/namespaces/inkscape"
   xmlns:sodipodi="http://sodipodi.sourceforge.net/DTD/sodipodi-0.dtd"
   xmlns="http://www.w3.org/2000/svg"
   xmlns:svg="http://www.w3.org/2000/svg"><sodipodi:namedview
     id="namedview7"
     pagecolor="#ffffff"
     bordercolor="#000000"
     borderopacity="0.25"
     inkscape:showpageshadow="2"
     inkscape:pageopacity="0.0"
     inkscape:pagecheckerboard="0"
     inkscape:deskcolor="#d1d1d1"
     inkscape:document-units="px"
     showgrid="false"
     inkscape:zoom="3.659624"
     inkscape:cx="201.38681"
     inkscape:cy="146.32651"
     inkscape:window-width="2560"
     inkscape:window-height="1387"
     inkscape:window-x="0"
     inkscape:window-y="25"
     inkscape:window-maximized="0"
     inkscape:current-layer="layer1" /><defs
     id="defs2"><inkscape:perspective
       sodipodi:type="inkscape:persp3d"
       inkscape:vp_x="0 : 28.442708 : 1"
       inkscape:vp_y="0 : 1000 : 0"
       inkscape:vp_z="56.885415 : 28.442708 : 1"
       inkscape:persp3d-origin="28.442708 : 18.961805 : 1"
       id="perspective31856" /></defs><g
     inkscape:label="Layer 1"
     inkscape:groupmode="layer"
     id="layer1"
     transform="translate(0,-480.22914)"><path
       id="path34889"
       style="fill:#ffffff;fill-opacity:1;stroke:none;stroke-width:0.263547"
       d="m 4.9677636,481.86746 c -1.37567,2.0902 -2.628217,4.10468 -4.6655291,5.63753 3.4622931,4.86481 6.8985701,9.63556 10.3815845,14.32385 -3.7111714,6.69655 -7.1484344,13.54234 -10.6838191,20.53388 1.6624447,0.89672 2.8040437,2.23383 4.0436907,3.61223 2.927898,-7.0753 6.3094764,-13.47193 10.0182084,-19.64456 3.474764,4.57177 7.020794,9.06234 10.710222,13.47689 -3.668213,3.91706 -7.609886,7.64197 -11.930972,11.14863 2.276512,1.41638 3.344182,2.5829 5.151885,4.52032 3.646227,-3.73096 7.112945,-7.51578 10.449674,-11.35777 3.336729,3.84199 6.803446,7.62681 10.449674,11.35777 1.807703,-1.93742 2.875373,-3.10394 5.151885,-4.52032 -4.321086,-3.50666 -8.262759,-7.23157 -11.930972,-11.14863 3.689428,-4.41455 7.235458,-8.90512 10.710222,-13.47689 3.708732,6.17263 7.091005,12.56926 10.018902,19.64456 1.239647,-1.3784 2.380553,-2.71551 4.042997,-3.61223 -3.535375,-6.99152 -6.971967,-13.83735 -10.683125,-20.53388 3.482928,-4.68818 6.919374,-9.45915 10.381585,-14.32385 -2.037313,-1.53285 -3.290554,-3.54733 -4.666225,-5.63753 -2.961752,4.9105 -5.908545,9.68608 -8.944059,14.30646 -2.699364,-4.57979 -5.580946,-9.08742 -8.769667,-13.52065 -1.539152,1.21852 -3.029788,2.4133 -4.854514,3.19813 3.575917,5.2122 7.021822,10.2269 10.265555,15.30834 -3.510895,5.07558 -7.184128,9.94166 -11.172258,14.56425 -3.988119,-4.62257 -7.661373,-9.48869 -11.172258,-14.56425 3.243732,-5.08144 6.689638,-10.09614 10.265555,-15.30834 -1.824726,-0.78483 -3.315363,-1.97961 -4.854514,-3.19813 -3.188721,4.43323 -6.070303,8.94086 -8.769667,13.52065 -3.035514,-4.62038 -5.9823084,-9.39596 -8.9440604,-14.30646 z" /></g></svg>
