<?xml version="1.0" encoding="UTF-8" standalone="no"?>
<!-- Created with Inkscape (http://www.inkscape.org/) -->

<svg
   width="215"
   height="215"
   viewBox="0 0 56.885415 56.885416"
   version="1.1"
   id="svg5"
   xml:space="preserve"
   inkscape:version="1.2.1 (9c6d41e, 2022-07-14)"
   sodipodi:docname="clans_eshin.svg"
   xmlns:inkscape="http://www.inkscape.org/namespaces/inkscape"
   xmlns:sodipodi="http://sodipodi.sourceforge.net/DTD/sodipodi-0.dtd"
   xmlns="http://www.w3.org/2000/svg"
   xmlns:svg="http://www.w3.org/2000/svg"><sodipodi:namedview
     id="namedview7"
     pagecolor="#ffffff"
     bordercolor="#000000"
     borderopacity="0.25"
     inkscape:showpageshadow="2"
     inkscape:pageopacity="0.0"
     inkscape:pagecheckerboard="0"
     inkscape:deskcolor="#d1d1d1"
     inkscape:document-units="px"
     showgrid="false"
     inkscape:zoom="1.829812"
     inkscape:cx="5.1917902"
     inkscape:cy="40.714565"
     inkscape:window-width="2560"
     inkscape:window-height="1387"
     inkscape:window-x="0"
     inkscape:window-y="25"
     inkscape:window-maximized="1"
     inkscape:current-layer="layer1" /><defs
     id="defs2" /><g
     inkscape:label="Layer 1"
     inkscape:groupmode="layer"
     id="layer1"
     transform="translate(0,-480.22914)"><path
       id="path356"
       style="fill:#fff;fill-opacity:1;stroke:none;stroke-width:0.36716"
       d="m 33.133042,480.22914 c -3.235553,6.70127 -6.192331,9.48927 -11.085879,15.09872 4.537211,-3.01869 11.085801,-8.72795 11.085801,-8.72795 0,0 -0.131789,-3.64127 7.8e-5,-6.37077 z m 2.056593,6.37077 c -3.325362,8.19677 -6.365522,15.69876 -13.142472,21.67034 v 8.92946 c 3.925296,-11.59603 7.629874,-13.27148 10.536219,-21.32303 -2.520898,10.73682 -2.778376,12.44536 -6.172606,16.95869 0.21476,7.28541 0.734432,10.22084 -4.714996,24.27919 8.772895,-12.58923 12.11061,-43.55293 13.493855,-50.51465 z m -2.056671,1.15383 c -3.946205,4.59834 -7.410977,9.11623 -11.085801,10.63475 v 7.17324 c 2.765948,-5.6515 6.834109,-9.11575 11.085801,-17.80799 z"
       sodipodi:nodetypes="ccccccccccccccc" /></g></svg>
