<?xml version="1.0" encoding="UTF-8" standalone="no"?>
<!-- Created with Inkscape (http://www.inkscape.org/) -->

<svg
   width="215"
   height="215"
   viewBox="0 0 56.885415 56.885416"
   version="1.1"
   id="svg5"
   xml:space="preserve"
   inkscape:version="1.2.1 (9c6d41e, 2022-07-14)"
   sodipodi:docname="alaithi.svg"
   xmlns:inkscape="http://www.inkscape.org/namespaces/inkscape"
   xmlns:sodipodi="http://sodipodi.sourceforge.net/DTD/sodipodi-0.dtd"
   xmlns="http://www.w3.org/2000/svg"
   xmlns:svg="http://www.w3.org/2000/svg"><sodipodi:namedview
     id="namedview7"
     pagecolor="#ffffff"
     bordercolor="#000000"
     borderopacity="0.25"
     inkscape:showpageshadow="2"
     inkscape:pageopacity="0.0"
     inkscape:pagecheckerboard="0"
     inkscape:deskcolor="#d1d1d1"
     inkscape:document-units="px"
     showgrid="false"
     inkscape:zoom="2.8284272"
     inkscape:cx="-44.370949"
     inkscape:cy="102.00015"
     inkscape:window-width="2560"
     inkscape:window-height="1387"
     inkscape:window-x="0"
     inkscape:window-y="25"
     inkscape:window-maximized="0"
     inkscape:current-layer="layer1" /><defs
     id="defs2"><inkscape:perspective
       sodipodi:type="inkscape:persp3d"
       inkscape:vp_x="0 : 28.442708 : 1"
       inkscape:vp_y="0 : 1000 : 0"
       inkscape:vp_z="56.885415 : 28.442708 : 1"
       inkscape:persp3d-origin="28.442708 : 18.961805 : 1"
       id="perspective31856" /></defs><g
     inkscape:label="Layer 1"
     inkscape:groupmode="layer"
     id="layer1"
     transform="translate(0,-480.22914)"><g
       id="g1758"
       style="fill:#fff;fill-opacity:1"
       transform="matrix(3.0018277,0,0,3.0018277,-31.727464,-1020.6053)"><path
         id="path36541"
         style="fill:#fff;fill-opacity:1;stroke:none;stroke-width:0.2826"
         d="m 15.238863,504.09332 -0.151929,4.21421 c 0.07784,-0.0157 0.139245,-0.0508 0.229443,-0.0961 0.08769,-0.044 0.480681,-0.73413 0.72192,-0.73949 0.482479,-0.0107 2.637978,2.42156 3.330546,2.96364 0.05094,0.0398 0.09701,0.0751 0.14056,0.10852 h 5.17e-4 v -5.1e-4 l 1.081071,-0.008 c 0.0403,-0.0311 0.08272,-0.0639 0.129191,-0.10026 0.69257,-0.54208 2.848068,-2.9738 3.330546,-2.96312 0.241237,0.005 0.634225,0.69481 0.72192,0.73897 0.0902,0.0454 0.151606,0.0805 0.229443,0.0961 l -0.151412,-4.21421 c 0,0 -0.09585,0.013 -0.3545,0.16226 -0.258646,0.14933 0.696532,1.27724 -4.451408,4.96352 -5.147941,-3.68628 -4.192764,-4.81419 -4.451408,-4.96352 -0.25865,-0.14929 -0.3545,-0.16226 -0.3545,-0.16226 z m 5.352128,6.4425 -1.081071,0.008 v 5.50251 l -1.168404,1.16841 1.708939,1.70893 1.70894,-1.70893 -1.168404,-1.16841 z" /><path
         id="path1025"
         style="fill:#fff;fill-opacity:1;stroke-width:0.264583"
         d="m 20.04477,499.97367 -4.957837,13.19609 -0.733288,0.39688 2.711979,1.88516 -0.396875,-0.99219 3.376021,-11.07943 3.375504,11.07943 -0.396875,0.99219 2.71198,-1.88516 -0.733289,-0.39688 z" /></g></g></svg>
