<?xml version="1.0" encoding="UTF-8" standalone="no"?>
<!-- Created with Inkscape (http://www.inkscape.org/) -->

<svg
   width="215"
   height="215"
   viewBox="0 0 56.885415 56.885416"
   version="1.1"
   id="svg5"
   xml:space="preserve"
   inkscape:version="1.2.1 (9c6d41e, 2022-07-14)"
   sodipodi:docname="senlui.svg"
   xmlns:inkscape="http://www.inkscape.org/namespaces/inkscape"
   xmlns:sodipodi="http://sodipodi.sourceforge.net/DTD/sodipodi-0.dtd"
   xmlns="http://www.w3.org/2000/svg"
   xmlns:svg="http://www.w3.org/2000/svg"><sodipodi:namedview
     id="namedview7"
     pagecolor="#ffffff"
     bordercolor="#000000"
     borderopacity="0.25"
     inkscape:showpageshadow="2"
     inkscape:pageopacity="0.0"
     inkscape:pagecheckerboard="0"
     inkscape:deskcolor="#d1d1d1"
     inkscape:document-units="px"
     showgrid="false"
     inkscape:zoom="5.6568543"
     inkscape:cx="123.83207"
     inkscape:cy="173.50633"
     inkscape:window-width="2560"
     inkscape:window-height="1387"
     inkscape:window-x="0"
     inkscape:window-y="25"
     inkscape:window-maximized="0"
     inkscape:current-layer="layer1" /><defs
     id="defs2"><inkscape:perspective
       sodipodi:type="inkscape:persp3d"
       inkscape:vp_x="0 : 28.442708 : 1"
       inkscape:vp_y="0 : 1000 : 0"
       inkscape:vp_z="56.885415 : 28.442708 : 1"
       inkscape:persp3d-origin="28.442708 : 18.961805 : 1"
       id="perspective31856" /></defs><g
     inkscape:label="Layer 1"
     inkscape:groupmode="layer"
     id="layer1"
     transform="translate(0,-480.22914)"><path
       id="path36623"
       style="fill:#fff;fill-opacity:1;stroke:none;stroke-width:1.26193"
       d="m 51.307163,480.22914 c 0,0 -14.987846,2.73054 -22.386924,3.24112 -7.399075,0.51057 -21.7806071,-0.11833 -21.7806071,-0.11833 0,0 14.6313441,24.75302 12.9372431,35.77275 -1.490917,9.69801 -5.118492,11.29823 -8.700413,11.29823 -7.9198081,0 -6.2184561,-12.87316 -6.2184561,-12.87316 0,0 -3.149891,3.51574 -3.149891,9.75038 0,3.71071 3.338453,9.81443 9.1465231,9.81443 5.80807,0 9.172158,-3.15717 11.152797,-18.51486 1.980634,-15.35773 -8.421902,-31.50634 -8.421902,-31.50634 0,0 13.106035,-1.33374 14.315012,-0.17008 1.208977,1.16375 0.900553,16.76473 0.786242,25.12767 -0.114325,8.36298 -0.499314,19.62543 -2.664346,24.39569 2.724933,-0.82956 6.248028,-0.89223 6.248028,-0.89223 0,0 -0.63152,-15.16529 -0.72216,-23.42458 -0.09062,-8.25929 -0.469156,-24.52671 0.591533,-25.78328 1.060693,-1.25657 12.846045,-0.76159 12.846045,-0.76159 0,0 -6.694142,14.2028 -6.694142,20.52362 0,6.32078 3.39396,8.56731 8.034943,8.56731 7.401449,0 9.945375,-11.81887 7.135326,-15.26149 -0.759419,6.8894 -3.209166,10.24827 -6.427957,10.24827 -3.218786,0 -6.063176,-1.38039 -6.063176,-5.11672 0,-3.73633 10.036282,-24.31681 10.036282,-24.31681 z m -4.485765,43.17917 c -0.893866,4.94258 -1.866614,9.01755 -3.391432,13.40801 2.234657,-1.44597 4.311587,-2.10296 6.940611,-2.20837 -1.814021,-3.18111 -2.681603,-6.67773 -3.549179,-11.19964 z" /></g></svg>
