<?xml version="1.0" encoding="UTF-8" standalone="no"?>
<!-- Created with Inkscape (http://www.inkscape.org/) -->

<svg
   width="215"
   height="215"
   viewBox="0 0 56.885415 56.885416"
   version="1.1"
   id="svg5"
   xml:space="preserve"
   inkscape:version="1.2.1 (9c6d41e, 2022-07-14)"
   sodipodi:docname="thalari
.svg"
   xmlns:inkscape="http://www.inkscape.org/namespaces/inkscape"
   xmlns:sodipodi="http://sodipodi.sourceforge.net/DTD/sodipodi-0.dtd"
   xmlns="http://www.w3.org/2000/svg"
   xmlns:svg="http://www.w3.org/2000/svg"><sodipodi:namedview
     id="namedview7"
     pagecolor="#ffffff"
     bordercolor="#000000"
     borderopacity="0.25"
     inkscape:showpageshadow="2"
     inkscape:pageopacity="0.0"
     inkscape:pagecheckerboard="0"
     inkscape:deskcolor="#d1d1d1"
     inkscape:document-units="px"
     showgrid="false"
     inkscape:zoom="4.0000001"
     inkscape:cx="35.374999"
     inkscape:cy="127.625"
     inkscape:window-width="2560"
     inkscape:window-height="1387"
     inkscape:window-x="0"
     inkscape:window-y="25"
     inkscape:window-maximized="1"
     inkscape:current-layer="layer1" /><defs
     id="defs2"><inkscape:perspective
       sodipodi:type="inkscape:persp3d"
       inkscape:vp_x="0 : 28.442708 : 1"
       inkscape:vp_y="0 : 1000 : 0"
       inkscape:vp_z="56.885415 : 28.442708 : 1"
       inkscape:persp3d-origin="28.442708 : 18.961805 : 1"
       id="perspective31856" /></defs><g
     inkscape:label="Layer 1"
     inkscape:groupmode="layer"
     id="layer1"
     transform="translate(0,-480.22914)"><path
       id="rect1009"
       style="fill:#fff;fill-opacity:0.942761;stroke-width:0.967457"
       d="m 28.441763,480.22914 c -6.565541,0 -13.436468,1.11006 -18.7010447,6.24694 l 4.7465927,4.94119 c 0,0 -1.374626,-1.8915 -0.629224,-3.48812 0.745402,-1.59662 2.238621,-2.45889 6.103298,-3.48439 3.864677,-1.0255 13.097967,-1.0255 16.962645,0 3.864678,1.0255 5.357899,1.88777 6.103301,3.48439 0.745402,1.59662 -0.629226,3.48812 -0.629226,3.48812 l 4.746593,-4.94119 c -5.264574,-5.13688 -12.13739,-6.24694 -18.702935,-6.24694 z m 0,12.8585 c -8.196371,0 -16.773349,1.38737 -23.3456013,7.80016 l 5.9256823,6.16755 c 0,0 -1.716335,-2.3605 -0.78606,-4.35358 0.930275,-1.99308 4.933727,-3.63728 7.618735,-4.34978 2.685008,-0.7125 7.894611,-0.52917 7.894611,-0.52917 v 30.13303 l -3.233048,3.23304 5.925681,5.92567 5.925683,-5.92567 -3.23116,-3.23117 v -30.1349 c 0,0 5.209603,-0.18333 7.894611,0.52917 2.685008,0.7125 6.688459,2.3567 7.618734,4.34978 0.930275,1.99308 -0.78606,4.35358 -0.78606,4.35358 l 5.925683,-6.16755 c -6.572247,-6.41279 -15.151123,-7.80016 -23.347491,-7.80016 z"
       sodipodi:nodetypes="scczzzzccsscczzccccccczzccs" /></g></svg>
