<?xml version="1.0" encoding="UTF-8" standalone="no"?>
<!-- Generated by IcoMoon.io -->

<svg
   version="1.1"
   width="215"
   height="215"
   viewBox="0 0 215 215"
   id="svg7"
   sodipodi:docname="bladeborn-blackpowders.svg"
   inkscape:version="1.2.1 (9c6d41e, 2022-07-14)"
   xmlns:inkscape="http://www.inkscape.org/namespaces/inkscape"
   xmlns:sodipodi="http://sodipodi.sourceforge.net/DTD/sodipodi-0.dtd"
   xmlns="http://www.w3.org/2000/svg"
   xmlns:svg="http://www.w3.org/2000/svg">
  <defs
     id="defs11" />
  <sodipodi:namedview
     id="namedview9"
     pagecolor="#ffffff"
     bordercolor="#000000"
     borderopacity="0.25"
     inkscape:showpageshadow="2"
     inkscape:pageopacity="0.0"
     inkscape:pagecheckerboard="0"
     inkscape:deskcolor="#d1d1d1"
     showgrid="false"
     inkscape:zoom="1.0029297"
     inkscape:cx="301.61636"
     inkscape:cy="512.99708"
     inkscape:window-width="2560"
     inkscape:window-height="1387"
     inkscape:window-x="0"
     inkscape:window-y="25"
     inkscape:window-maximized="1"
     inkscape:current-layer="svg7" />
  <title
     id="title2" />
  <g
     id="icomoon-ignore"
     transform="matrix(0.28348953,0,0,0.28348953,95.150414,-1022.1163)" />
  <path
     fill="#ffffff"
     d="m 138.17338,17.247643 c -0.67329,0.12842 -2.56728,0.89639 -4.21152,1.7066 -11.32201,5.58333 -39.709231,6.16306 -49.629101,1.01376 -7.13543,-3.70464 -17.8485,-2.42979 -29.8625,3.55269 -11.33561,5.64655 -16.68052,11.95561 -14.92629,17.61916 1.18924,3.83731 1.00412,6.63819 -0.69654,10.5838 -0.48675,1.12857 -1.51638,3.50563 -2.28917,5.27772 -0.77195,1.77266 -1.70463,4.28041 -2.0726,5.57114 -1.94162,6.79921 -10.24276,15.39433 -19.97694,20.68595 -5.3658899,2.91682 -6.5936799,5.27545 -8.1270699,15.63048 -1.21759,8.225157 -2.19166,11.224197 -4.83804,14.921467 -3.0081,4.20103 -1.42509999,10.04857 3.06197,11.30499 5.4877899,1.5351 25.8003899,-11.36793 27.3037299,-17.34587 0.84395,-3.35227 1.81547,-3.78544 9.24771,-4.11542 7.41014,-0.32913 7.35684,-0.19391 1.57139,-4.085367 -8.79328,-5.91727 -8.97925,-6.35923 -5.63436,-13.28772 5.8413,-12.09961 6.85563,-12.66546 16.10986,-9.00759 7.69731,3.04184 7.6528,3.20003 1.87217,-6.70141 l -3.52208,-6.03294 3.83732,-3.76049 c 7.55896,-7.40702 9.0263,-7.53827 15.93097,-1.43248 7.60603,6.72891 9.1587,6.07547 5.40473,-2.27472 -3.92718,-8.73346 -1.14473,-15.33791 6.88653,-16.34033 4.90125,-0.61262 8.58321,2.04679 12.30571,8.88966 l 2.1721,3.99494 0.59249,-7.93573 c 0.32488,-4.36602 0.60072,-8.14975 0.61121,-8.41113 0.0227,-0.53183 8.557701,-0.67669 13.287721,-0.22481 3.83816,0.36769 4.40231,1.31908 4.92109,8.28669 0.50773,6.84513 2.30506,8.09164 4.23732,2.9395 3.17849,-8.47407 9.1998,-9.15388 17.10009,-1.93113 3.72987,3.40811 3.94391,4.80713 1.53481,10.02135 -4.2067,9.1071 -3.61024,9.86912 3.09939,3.96999 4.49615,-3.95128 6.10864,-4.68211 9.849,-4.45901 8.7207,0.51539 12.37517,9.59981 7.00842,17.41703 -4.83548,7.0433 -4.57523,7.54763 2.14659,4.15568 5.98333,-3.01832 7.70808,-3.223 10.4344,-1.24963 3.14134,2.27472 7.2097,10.84575 7.22756,15.22056 0.017,4.55596 -1.99917,6.72805 -9.17485,9.891797 -2.64666,1.16656 -2.10123,1.47046 4.16871,2.32008 8.40376,1.13906 9.40051,1.73779 10.0755,6.04172 0.72602,4.62712 3.66524,7.25592 12.75023,11.40762 15.87484,7.25167 20.37949,3.3174 14.67001,-12.81089 -2.01674,-5.69729 -2.8536,-9.202347 -3.39252,-14.200557 -0.69681,-6.49106 -2.07032,-8.12736 -10.80038,-12.88119 -11.00506,-5.99241 -21.73202,-24.98337 -21.6963,-38.41255 0.009,-3.20343 -0.0734,-3.9045 -0.64749,-5.53088 -4.09671,-11.59189 -24.78663,-22.49915 -37.92353,-19.9948 z m 39.13346,108.178747 c -4.17041,5.58815 -5.04895,5.96802 -9.2823,4.01846 -4.60188,-2.12021 -4.92705,-0.57888 -1.10901,5.25278 5.36589,8.19597 0.24352,12.49395 -9.31235,7.81212 -5.96377,-2.92221 -6.28071,-2.50349 -3.47586,4.60444 2.77905,7.04018 -0.0292,13.57235 -5.84527,13.59729 -3.29982,0.0136 -5.27262,-2.36288 -9.29392,-11.19415 l -2.30959,-5.07163 -0.16414,5.35058 c -0.30787,10.01399 -2.91683,15.26989 -7.57909,15.26989 -4.07885,0 -5.96746,-3.16602 -8.33913,-13.97264 l -0.23275,-1.0645 -0.78555,2.28776 c -1.96515,5.72224 -3.73214,7.5241 -8.2623,8.41425 -6.12649,1.20597 -10.85538,-1.09852 -11.984801,-5.83903 -1.24566,-5.2301 -3.60939,-4.8403 -4.11854,0.68236 -0.56414,6.12224 -2.17295,8.41028 -5.67461,8.07321 -4.39579,-0.42353 -7.66726,-4.87857 -9.92922,-13.52868 -0.68463,-2.6152 -1.31964,-5.00076 -1.41008,-5.29871 -0.10035,-0.32828 -0.5854,1.43276 -1.22552,4.44115 -2.53752,11.95078 -5.59382,13.80282 -12.38963,7.51276 -3.80414,-3.52293 -4.10067,-4.68864 -2.49045,-9.81498 1.78825,-5.69247 1.1657,-6.33769 -3.88098,-4.0247 -4.16644,1.90874 -5.38857,1.86961 -7.74011,-0.25372 -2.44028,-2.20357 -2.47997,-4.1914 -0.2095,-10.26147 1.76557,-4.71925 1.71795,-4.97836 -0.8173,-4.42981 -3.82371,0.82694 -5.49686,0.39462 -7.86655,-2.0329 -3.08465,-3.15666 -6.74989,-2.89557 -15.05103,1.07187 -15.57463,7.44755 -17.8646599,24.3475 -3.49939,25.82703 8.75217,0.90036 25.84262,17.52873 35.13853,34.18941 5.47106,9.80363 11.49578,12.77687 17.11227,8.4443 2.56558,-1.97904 5.2817,-2.82611 10.39868,-3.24511 3.99267,-0.32573 7.73615,-1.28562 11.62109,-2.98117 6.110901,-2.66594 8.495901,-2.8074 16.690451,-0.99675 16.79222,3.71031 24.98733,6.15654 27.38395,8.17414 5.31798,4.47516 12.22237,-0.15763 18.0872,-12.13761 5.48467,-11.20152 24.09803,-29.40013 32.56246,-31.83956 5.81437,-1.67486 12.68049,-12.75986 10.31221,-16.64509 -0.57321,-0.9409 -2.64325,-2.58741 -5.7313,-4.55908 -1.93851,-1.23828 -16.56657,-8.60277 -17.03461,-8.57584 -0.12218,0.006 -1.13849,1.24027 -2.25969,2.74361 z"
     id="path5"
     style="stroke-width:0.28349" />
</svg>
