<?xml version="1.0" encoding="UTF-8" standalone="no"?>
<!-- Generated by IcoMoon.io -->

<svg
   version="1.1"
   width="215"
   height="215"
   viewBox="0 0 215 215"
   id="svg251"
   sodipodi:docname="bladeborn-briarqueen.svg"
   inkscape:version="1.2.1 (9c6d41e, 2022-07-14)"
   xmlns:inkscape="http://www.inkscape.org/namespaces/inkscape"
   xmlns:sodipodi="http://sodipodi.sourceforge.net/DTD/sodipodi-0.dtd"
   xmlns="http://www.w3.org/2000/svg"
   xmlns:svg="http://www.w3.org/2000/svg">
  <defs
     id="defs255" />
  <sodipodi:namedview
     id="namedview253"
     pagecolor="#ffffff"
     bordercolor="#000000"
     borderopacity="0.25"
     inkscape:showpageshadow="2"
     inkscape:pageopacity="0.0"
     inkscape:pagecheckerboard="0"
     inkscape:deskcolor="#d1d1d1"
     showgrid="false"
     inkscape:zoom="1.0029297"
     inkscape:cx="301.61636"
     inkscape:cy="512.99708"
     inkscape:window-width="2560"
     inkscape:window-height="1387"
     inkscape:window-x="0"
     inkscape:window-y="25"
     inkscape:window-maximized="1"
     inkscape:current-layer="svg251" />
  <title
     id="title246" />
  <g
     id="icomoon-ignore"
     transform="matrix(0.31232055,0,0,0.31232055,151.75164,-1029.2048)" />
  <path
     fill="#ffffff"
     d="m 139.63856,137.43109 c 0,8.68438 0,17.48152 0,26.1659 0,3.21003 -0.92634,6.93008 3.96491,8.10129 0.5881,0 1.11249,3.26874 0.75457,4.78318 -2.45546,10.0764 -5.0774,20.03974 -7.69933,30.0721 -0.53906,2.42111 -1.40169,4.56769 -2.56321,6.51345 l 0.0637,-0.10775 c -1.86736,2.97985 -5.83196,2.62193 -6.40569,-0.5881 -1.93108,-14.20778 -10.02737,-27.97456 -3.73442,-42.9369 0.29421,-0.9557 0.46067,-2.0535 0.46067,-3.18067 0,-0.3726 -0.0147,-0.75457 -0.0637,-1.12716 v 0.044 q 0,-27.61663 0,-55.23326 c 0,-3.44052 -1.04877,-5.35193 -4.95497,-5.24386 -7.28269,0 -14.50166,0 -21.784672,0 -4.07266,0 -4.95496,2.20529 -4.66076,5.47935 1.22024,13.28643 -2.85242,26.98449 2.62194,40.03575 0.2155,0.63213 0.35292,1.35765 0.35292,2.1269 0,0.76924 -0.12243,1.49476 -0.3726,2.17594 l 0.0147,-0.044 q -5.83196,20.39765 -11.64956,40.79531 c 0,0.69585 -1.1712,1.1712 -1.80365,1.69559 -0.48035,-0.69585 -0.91166,-1.48009 -1.24959,-2.31336 l -0.0294,-0.0784 q -4.4893,-18.53029 -8.68439,-37.11961 c -0.27952,-0.86263 -0.43131,-1.86737 -0.43131,-2.91614 0,-1.04877 0.15179,-2.03883 0.44599,-2.97985 l -0.0147,0.0784 c 5.35193,-12.59058 1.80365,-25.74958 2.62193,-38.57034 0.46068,-7.74336 1.04878,-8.56195 -9.02762,-8.33146 -4.36687,0 -8.73342,0 -13.05125,0 -3.0876,0 -8.39518,-1.97511 -8.62567,2.32804 -0.23049,4.30315 -5.24386,6.88104 -2.09755,12.00248 5.83197,9.67444 3.08761,19.64309 -0.2942,29.65546 -2.62193,7.97885 -4.4893,16.26128 -6.75831,24.36256 -0.56842,1.35766 -1.23491,2.52886 -2.01915,3.61199 l 0.0294,-0.044 c -0.76956,-1.06345 -1.43605,-2.26901 -1.94576,-3.56295 l -0.0294,-0.10775 c -2.91613,-10.83097 -6.29263,-21.67692 -8.26774,-32.69403 -1.01942,-3.48456 -1.60252,-7.48382 -1.60252,-11.63488 0,-6.11148 1.27926,-11.92877 3.57763,-17.2023 l -0.10775,0.27953 c 0.64682,-1.22024 -0.98506,-4.43058 -2.45546,-5.83196 -7.05251,-6.881049 -7.45447,-10.551749 -1.45073,-19.515349 0,-0.40196 0.98506,-0.69585 0.98506,-0.98506 0,-12.69833 4.02862,-25.70523 -2.39175,-37.9382 -3.84248,-7.28269 -3.73442,-9.44427 2.16125,-17.01585 0.6615,-1.06345 1.27927,-2.31336 1.80365,-3.61199 l 0.0637,-0.17146 c 4.2588,-8.68439 4.48929,-8.85585 11.64955,-10.02737 7.16026,-1.17151 8.50324,0 8.39518,5.83196 0,8.33147 0,8.45421 6.88105,8.68439 5.83196,0 11.64955,0 17.48151,0 0.12243,0.0147 0.27953,0.0147 0.43132,0.0147 3.73442,0 6.7583,-3.02389 6.7583,-6.75831 0,-0.2155 -0.0147,-0.41663 -0.0293,-0.61745 v 0.0294 c 0,-6.29263 0,-12.59057 0,-18.8832099 0,-3.96491 0.69585,-5.41564 5.83196,-4.78319 11.64955,1.4017 11.64955,0.75457 12.17394,12.4041299 0,5.83196 0.40196,11.64955 0.64682,17.48151 l 18.407862,1.4017 c 1.29394,0.17146 2.80838,0.26485 4.3375,0.26485 1.52913,0 3.03857,-0.0931 4.51866,-0.27953 l -0.17147,0.0147 c 1.60252,-0.56842 2.83775,-1.81833 3.36213,-3.39649 l 0.0147,-0.0294 c 0.18615,-1.07813 0.27953,-2.34771 0.27953,-3.61198 0,-1.26428 -0.10775,-2.52886 -0.29421,-3.7491 l 0.0147,0.13711 c -0.75456,-11.6495599 2.72968,-9.08634 9.73316,-9.44426 4.71948,0 5.41564,2.62193 5.47935,6.40569 0.0637,3.78377 -0.92634,10.6595 1.27927,12.23266 2.85242,1.2496 6.1702,1.97512 9.65976,1.97512 1.45073,0 2.8721,-0.12243 4.24412,-0.3726 l -0.15178,0.0147 c 9.61072,-0.35292 19.22645,-1.1712 28.78814,-1.80365 0.46068,0 0.81859,-0.5881 1.27927,-0.69585 0.89698,-0.27953 1.93108,-0.43132 2.99453,-0.43132 3.96491,0 7.43479,2.17594 9.27248,5.38628 l 0.0294,0.044 c 0.61746,1.69559 0.97038,3.64134 0.97038,5.69485 0,3.36213 -0.97038,6.49377 -2.65129,9.1207 l 0.044,-0.0637 c -2.08287,2.0535 -3.37681,4.90593 -3.37681,8.06692 0,0.10775 0,0.23018 0,0.33825 v -0.0147 c 0,6.29263 0,12.59058 0,18.88321 0,4.4893 -0.5881,8.4542 4.19509,12.52686 1.66623,2.00448 2.67096,4.59705 2.67096,7.42012 0,3.16099 -1.26427,6.033089 -3.31809,8.130639 v 0 c -2.19062,1.5438 -3.61199,4.07266 -3.61199,6.93008 0,0.49503 0.044,0.98506 0.12243,1.45073 v -0.044 c -0.044,1.11249 -0.0637,2.40643 -0.0637,3.70506 0,7.25333 0.76956,14.31552 2.21997,21.13785 l -0.12243,-0.66149 c 1.63688,5.35192 -2.56321,12.52686 -4.55301,18.76078 -1.57315,4.95497 -3.90119,9.67444 -5.83196,14.56569 -0.98506,3.08761 -1.45073,6.35635 -2.16126,9.55202 -1.51444,-3.21003 -4.30284,-6.4057 -4.30284,-9.61073 0,-9.08634 -6.58684,-15.7369 -7.74336,-24.17611 -0.46067,-3.6707 -0.5881,-7.40543 -0.81859,-11.07614 0,-0.40195 0.69585,-0.81859 0.69585,-1.22023 l 0.69585,-27.09225 c -9.02763,-0.46067 -18.12865,-1.11248 -27.15596,-1.11248 -1.1712,0 -3.37681,3.0876 -3.44052,4.78318 0.35292,8.9786 0.52438,18.2364 0.52438,27.38646 z m 0,-70.785579 v 0 c 0,4.36687 0,8.68439 0,12.99254 0,0.0931 0,0.2155 0,0.32356 0,3.70506 2.99453,6.69459 6.69459,6.69459 0.23018,0 0.446,-0.0147 0.68118,-0.0294 h -0.0294 c 6.7583,0 13.45289,0 20.22619,0 1.1712,0 3.26875,-1.11248 3.37681,-1.86736 1.51444,-8.65503 2.52886,-18.85386 2.85242,-29.22415 v -0.32356 c -0.63213,-4.82723 -4.70479,-8.51792 -9.65976,-8.51792 -0.12243,0 -0.26485,0 -0.38728,0.0147 h 0.0147 c -1.74462,-0.15179 -3.77845,-0.24486 -5.83196,-0.24486 -2.05351,0 -4.08734,0.0931 -6.09681,0.26485 l 0.26485,-0.0147 c -10.78693,1.45073 -12.23266,3.31809 -12.29637,14.20777 0.12243,1.93108 0.12243,3.84248 0.12243,5.70954 z m -64.613812,1.6172 c 0,-1.93108 0,-3.84248 0,-5.83196 0,-11.2476 -3.90119,-15.26155 -15.02636,-15.90836 -2.85243,0 -5.83197,0 -8.62567,0 -0.20082,-0.0147 -0.43132,-0.0294 -0.6615,-0.0294 -3.96491,0 -7.17494,3.21003 -7.17494,7.17494 0,0.38728 0.0294,0.75456 0.0931,1.12716 v -0.044 c 0.26485,2.77871 0.41664,6.00373 0.41664,9.2578 0,5.32226 -0.40196,10.56643 -1.18588,15.67818 l 0.0784,-0.56842 c -1.45073,5.83196 0,6.81702 4.36687,7.45446 1.29394,0.0784 2.79339,0.13711 4.30284,0.13711 1.50944,0 3.02388,-0.044 4.51865,-0.13711 l -0.20082,0.0147 c 19.05467,0.29421 19.51535,1.63688 19.05467,-18.30011 z m 49.465022,-1.73994 c 0,-3.84248 0,-7.74336 0,-11.64956 0,-1.80365 -0.52439,-4.30284 -1.69559,-5.07739 -8.45421,-5.35193 -17.07987,-3.73442 -25.872012,-0.46067 -6.81702,2.4995 -2.62193,8.03756 -3.73442,12.1249 -0.10775,0.64682 -0.17146,1.38702 -0.17146,2.16126 0,0.77424 0.0637,1.51444 0.18614,2.23466 l -0.0147,-0.0784 c 0.35293,6.58684 0.75457,13.22272 1.17121,19.80956 l 21.382712,0.98506 h 1.45073 c 0.15179,0.0147 0.33824,0.0147 0.53906,0.0147 3.73442,0 6.75831,-3.02389 6.75831,-6.75831 0,-0.12243 0,-0.26485 -0.0147,-0.38728 v 0.0147 c 0.0637,-4.2588 -0.0637,-8.62567 -0.0637,-12.92851 z"
     id="path249"
     style="stroke-width:0.312321" />
</svg>
