<?xml version="1.0" encoding="UTF-8" standalone="no"?>
<!-- Generated by IcoMoon.io -->

<svg
   version="1.1"
   width="215"
   height="215"
   viewBox="0 0 215 215"
   id="svg7"
   sodipodi:docname="bladeborn-chosenaxes.svg"
   inkscape:version="1.2.1 (9c6d41e, 2022-07-14)"
   xmlns:inkscape="http://www.inkscape.org/namespaces/inkscape"
   xmlns:sodipodi="http://sodipodi.sourceforge.net/DTD/sodipodi-0.dtd"
   xmlns="http://www.w3.org/2000/svg"
   xmlns:svg="http://www.w3.org/2000/svg">
  <defs
     id="defs11" />
  <sodipodi:namedview
     id="namedview9"
     pagecolor="#ffffff"
     bordercolor="#000000"
     borderopacity="0.25"
     inkscape:showpageshadow="2"
     inkscape:pageopacity="0.0"
     inkscape:pagecheckerboard="0"
     inkscape:deskcolor="#d1d1d1"
     showgrid="false"
     inkscape:zoom="1.0029297"
     inkscape:cx="301.61636"
     inkscape:cy="512.99708"
     inkscape:window-width="2560"
     inkscape:window-height="1387"
     inkscape:window-x="0"
     inkscape:window-y="25"
     inkscape:window-maximized="1"
     inkscape:current-layer="svg7" />
  <title
     id="title2" />
  <g
     id="icomoon-ignore"
     transform="matrix(0.32348966,0,0,0.32348966,134.03265,-1044.9937)" />
  <path
     fill="#ffffff"
     d="m 185.99067,109.50939 c -1.65239,1.33957 -3.19576,2.72992 -5.16064,3.92004 -1.96487,1.19012 -5.62645,5.16063 -7.3196,4.32797 -2.66199,-0.62886 -4.61328,-2.97837 -4.61328,-5.77623 0,-1.15939 0.33999,-2.25408 0.9145,-3.16858 l -0.0136,0.0272 c 0.64245,-1.17297 1.00961,-2.58048 1.00961,-4.0695 0,-4.807385 -3.90646,-8.709965 -8.70996,-8.709965 -0.0408,0 -0.0951,0 -0.13587,0 h 0.0136 c -1.91053,0 -3.80747,-0.72429 -5.77623,-1.07754 0.8194,1.38033 1.70673,3.07347 2.48537,4.80738 l 0.13587,0.339995 c 1.18656,2.4307 1.97846,5.26964 2.21331,8.27486 v 0.0815 c 0,2.21332 -2.21331,4.32797 -3.39987,6.5002 -1.03679,-1.44826 -1.70674,-3.71237 -3.10065,-4.23254 -2.92014,-1.07754 -6.54129,-2.13179 -10.25365,-2.93405 l -0.57452,-0.10869 c 0,4.12385 -1.44827,9.80497 0.66962,11.96038 3.19576,3.30445 6.96247,5.40551 3.76671,10.308 -2.322,3.45422 -5.16063,7.01714 -10.30799,3.14141 -1.13222,-0.87375 -4.43666,0 -5.87134,1.03678 -12.37154,9.43426 -21.71069,20.62959 -20.8777,37.47854 0.46583,8.76431 -0.40792,17.12102 4.38231,25.77663 5.57211,10.308 0,17.06667 -11.90571,17.58684 h -5.160633 c -16.8082,0 -18.51493,-3.80747 -16.49215,-20.62958 0.65604,-5.20172 1.0232,-11.22251 1.0232,-17.32481 0,-9.08068 -0.8194,-17.954 -2.40353,-26.56886 l 0.13587,0.90092 c -2.47146,-13.76222 -8.35671,-15.46863 -21.54409,-9.80497 -1.3124,0.62886 -2.85221,0.99602 -4.49101,0.99602 -0.23129,0 -0.46582,-0.0136 -0.69712,-0.0272 h 0.0272 c -18.77339,-1.80184 -24.23681,14.69031 -18.35189,32.3315 0.40792,1.18656 0.8194,2.41711 1.33957,3.60367 1.13222,2.63483 2.37636,5.16063 3.60368,7.83622 -3.46781,-0.17663 -6.71791,-0.79223 -9.81856,-1.77467 l 0.27205,0.0815 c -15.73065,-6.96247 -21.2448598,-18.46058 -17.68194,-35.84006 0.39433,-1.89695 0.61528,-4.08309 0.61528,-6.30644 0,-7.65958 -2.63483,-14.69031 -7.0578998,-20.26242 l 0.0543,0.0679 c -4.90249,-6.70433 -1.07755,-7.57807 4.0287398,-7.11225 3.89287,0.84657 7.33318,2.18615 10.49821,3.96081 l -0.19022,-0.0951 c 8.50616,3.65802 12.68436,1.03679 12.99717,-8.19334 0.57452,-17.066675 0.61528,-16.957985 -16.34237,-14.853355 -3.9744,0.52017 -8.0982398,0.77864 -5.16063,-5.98003 0.61527,-2.26767 0.96885,-4.87532 0.96885,-7.56449 0,-1.36674 -0.0951,-2.71634 -0.27206,-4.02874 l 0.0136,0.14946 c 0,-8.41106 1.70673,-9.54295 9.69272,-6.44586 7.98599,3.09709 12.32722,1.33957 13.24529,-7.3196 0.91806,-8.65917 0.31281,-10.308 -8.50617,-9.95442 -6.79942,0.31281 -13.66679,-0.40792 -20.6295798,-0.7243 0.31282,-6.5002 0.66963,-13.03792 0.87375,-19.53812 0.25847,-7.98599 -1.74749,-16.60441 4.4909998,-23.19615 3.50857,-3.4949899 7.49655,-6.5273799 11.83779,-8.9855799 l 0.27205,-0.14945 c 1.50261,-0.92809 4.0695,0 6.12981,0 -0.0679,1.99205 -0.32641,3.87929 -0.76506,5.7083 l 0.0408,-0.19021 c -1.48902,3.4678099 -3.00554,7.8090399 -4.24612,12.2592899 l -0.19021,0.77864 c -0.33999,1.00961 -0.54735,2.18614 -0.54735,3.39987 0,6.0072 4.87531,10.88252 10.88252,10.88252 0.52017,0 1.02319,-0.0408 1.52978,-0.1087 l -0.0543,0.0136 c 0.62887,-0.0543 1.38033,-0.0815 2.11465,-0.0815 7.16659,0 13.69397,2.79786 18.51494,7.36036 l -0.0136,-0.0136 c 3.2501,3.0463 9.17578,6.18415 13.61244,1.18656 3.05989,-3.64444 5.48704,-7.93165 7.08507,-12.61642 l 0.0815,-0.27206 c 0.52017,-1.39392 -2.26766,-4.38231 -4.02874,-6.12981 -3.42705,-3.5765 -5.54493,-8.45181 -5.54493,-13.80298 0,-1.3939099 0.13586,-2.7435099 0.40792,-4.0559099 l -0.0272,0.12228 c 0.38075,-1.6388 0.9281,-3.08706 1.6388,-4.42307 l -0.0408,0.0951 c 1.6388,0.7243 3.03272,1.47544 4.34156,2.3356 l -0.10869,-0.0679 c 0.61527,0.46583 0.72429,1.54337 1.18656,2.26767 5.72188,9.0263299 5.77623,8.9719799 11.18174,-0.66963 4.49101,-7.98599 11.60681,-8.3567 16.604403,-0.72429 0.86016,1.29881 1.62521,2.79786 2.21332,4.38231 l 0.0543,0.1630399 c 1.95129,5.51421 4.69837,5.16063 8.15259,1.33957 2.67558,-3.0462999 5.45986,-5.9800299 8.19334,-8.9719799 0.0408,1.10472 0.0543,2.41711 0.0543,3.72595 0,3.59009 -0.14945,7.1394199 -0.45224,10.6651299 l 0.0272,-0.46582 c -0.52018,2.64841 -1.55696,4.99759 -3.03272,7.01714 l 0.0408,-0.0543 c -1.74749,2.78427 -6.18415,6.3336 -5.57211,7.72752 2.19973,4.0695 5.22889,7.42829 8.87332,9.94084 l 0.0951,0.0679 c 0.62886,0.19021 1.33957,0.29923 2.08748,0.29923 1.91053,0 3.65802,-0.7243 4.984,-1.89695 h -0.0136 c 2.26766,-2.87938 1.54336,-9.43425 8.04033,-4.58611 0.17663,0.0815 0.39433,0.13587 0.61528,0.13587 0.22094,0 0.43865,-0.0543 0.62886,-0.13587 h -0.0136 c 4.27329,-10.88251 8.81897,-1.74749 13.29995,-0.25847 9.23013,3.10065 18.92285,-6.75867 18.35189,-18.14421 0.0815,-4.15102 0.493,-8.1661699 1.20015,-12.0554899 l -0.0679,0.45224 c 3.25011,2.99196 8.50617,5.4598599 9.37991,9.0263299 1.21373,5.45986 1.91053,11.72909 1.91053,18.14422 0,1.86977 -0.0543,3.72595 -0.17662,5.55852 l 0.0136,-0.24488 c 0,4.90248 -3.30444,10.30799 5.83058,6.18415 4.53177,-2.11465 7.94523,-1.85619 4.58611,4.58611 0,0.35358 -0.52017,1.03679 -0.35357,1.18656 9.4886,10.82817 7.16659,26.2968 15.10179,37.73701 0.95526,1.20015 1.59804,2.70276 1.74749,4.35514 v 0.0272 c -0.25847,10.307995 -13.3543,27.320315 -23.35951,30.009485 -0.77864,0.1087 -1.66597,0.17663 -2.58048,0.17663 -0.9145,0 -1.80184,-0.0679 -2.67558,-0.17663 l 0.0951,0.0136 c 0.35358,-1.50261 0.66963,-3.0463 1.07755,-4.49101 0.72429,-2.37635 1.54337,-4.73944 2.32201,-7.05789 0.77864,-2.31845 2.83862,-4.23254 2.78427,-6.29285 0,-1.2409 -2.99195,-2.37635 -4.64046,-3.56291 l 1.07755,6.79943 c 1.28522,0.98243 1.33957,1.80183 1.44826,2.67558 z M 44.102917,90.025595 c 0,9.43426 -0.25846,18.868515 0,28.302765 0,2.32201 2.00564,6.29284 3.60368,6.59563 5.16063,0.98244 4.58611,-3.71237 4.58611,-6.90812 0,-12.42621 0,-24.902885 0,-37.329095 0,-0.0815 0,-0.19021 0,-0.28564 0,-2.662 0.80582,-5.13346 2.19973,-7.18018 l -0.0272,0.0408 c 1.97846,-1.7339 3.20934,-4.2733 3.20934,-7.08507 0,-3.23651 -1.62521,-6.08904 -4.11026,-7.78187 l -0.0272,-0.0272 c -1.58445,-1.5162 -3.73954,-2.4307 -6.10264,-2.4307 -0.17662,0 -0.33998,0 -0.52017,0.0136 h 0.0272 c -1.39392,0.31281 -2.93405,3.71236 -2.99196,5.77623 0,9.43425 0.14945,19.01795 0.14945,28.30275 z m 134.364023,8.91764 c -1.03678,1.186565 -2.21331,1.951295 -2.21331,2.784285 0,0.83298 1.07754,1.80184 1.65238,2.67558 1.07755,-0.83299 2.03313,-1.77466 2.8658,-2.79786 l 0.0272,-0.0272 c 0,0 -1.33957,-1.50261 -2.32201,-2.634835 z"
     id="path5"
     style="stroke-width:0.32349" />
</svg>
