<?xml version="1.0" encoding="UTF-8" standalone="no"?>
<!-- Generated by IcoMoon.io -->

<svg
   version="1.1"
   width="215"
   height="215"
   viewBox="0 0 215 215"
   id="svg7"
   sodipodi:docname="bladeborn-crimsoncourt.svg"
   inkscape:version="1.2.1 (9c6d41e, 2022-07-14)"
   xmlns:inkscape="http://www.inkscape.org/namespaces/inkscape"
   xmlns:sodipodi="http://sodipodi.sourceforge.net/DTD/sodipodi-0.dtd"
   xmlns="http://www.w3.org/2000/svg"
   xmlns:svg="http://www.w3.org/2000/svg">
  <defs
     id="defs11" />
  <sodipodi:namedview
     id="namedview9"
     pagecolor="#ffffff"
     bordercolor="#000000"
     borderopacity="0.25"
     inkscape:showpageshadow="2"
     inkscape:pageopacity="0.0"
     inkscape:pagecheckerboard="0"
     inkscape:deskcolor="#d1d1d1"
     showgrid="false"
     inkscape:zoom="1.0029297"
     inkscape:cx="301.61636"
     inkscape:cy="512.99708"
     inkscape:window-width="2560"
     inkscape:window-height="1387"
     inkscape:window-x="0"
     inkscape:window-y="25"
     inkscape:window-maximized="1"
     inkscape:current-layer="svg7" />
  <title
     id="title2" />
  <g
     id="icomoon-ignore"
     transform="matrix(0.31960728,0,0,0.31960728,118.556,-1092.3129)" />
  <path
     fill="#ffffff"
     d="m 156.23375,58.430305 c 0,0.49283 0,4.09832 -0.80573,7.65299 -0.74117,5.21727 0.62611,7.02689 5.77466,6.84727 0.80573,0 2.37117,-1.74506 2.23789,-2.05827 -3.17721,-6.64911 -0.74117,-12.44199 0.93933,-19.15566 0.57561,-3.78511 0.88883,-8.16405 0.88883,-12.60755 0,-3.17726 -0.16556,-6.31796 -0.49284,-9.43036 l 0.0323,0.396 c 0,-2.1228 -0.37777,-4.2274 -0.56155,-6.2208 2.63389,0.032 5.11596,0.5615 7.42288,1.4826 l -0.14734,-0.05 c 10.30094,5.908 18.99011,13.38136 26.04927,22.21786 l 0.13328,0.17962 c 6.22084,9.20022 13.49638,17.78838 15.97845,28.98199 0.83833,2.87806 1.31678,6.20262 1.31678,9.62849 0,0.31321 0,0.62611 -0.0182,0.93932 v -0.0505 c 0,1.86011 -2.23789,3.91838 -3.98295,5.16677 -1.91093,1.0221 -4.19516,2.00777 -6.56633,2.8135 l -0.34549,0.0968 c -5.03733,2.55111 -5.77467,5.101895 -2.68438,9.329345 1.33084,1.63 2.74894,3.07622 4.31022,4.37894 l 0.0505,0.0323 c 4.16288,3.60549 4.0475,7.3401 -0.42828,9.95544 -4.47578,2.61535 -9.32933,4.36073 -9.26477,10.94528 0,0.98566 -2.864,2.68438 -4.47578,2.864 -4.09833,0.37777 -8.27911,0 -12.44199,0 -8.63867,0.37777 -13.11445,4.0475 -13.38132,12.99938 0,6.71367 -2.17333,9.20022 -8.887,8.887 -4.09832,0 -6.22084,2.864 -6.89361,6.8936 -0.72295,4.82128 -2.09055,9.182 -4.03344,13.19723 l 0.11505,-0.26239 c -3.20949,4.90404 -6.54811,9.16792 -10.2041,13.13265 l 0.0646,-0.0646 c -4.65572,-4.65572 -0.93932,-10.517 -2.05827,-15.66555 0,-1.49672 0,-3.24178 0,-4.60906 0,-1.36728 -1.61178,-3.04394 -2.5511,-3.1085 -0.93933,-0.0646 -4.72444,0 -5.41511,1.43216 -1.74505,2.97906 -2.30245,6.64911 -3.80332,9.82633 -1.34907,2.20561 -2.81351,4.11239 -4.4435,5.87566 l 0.0182,-0.0182 c -0.88883,-1.77733 -1.62999,-3.84967 -2.14105,-6.023 l -0.0323,-0.19783 c -0.37777,-3.04394 0,-6.22084 0,-9.26478 -0.49283,-6.22084 -2.73072,-7.96621 -8.77194,-8.27911 -3.35683,0 -6.22083,0.31322 -6.22083,4.789 0.0505,0.46055 0.0646,0.98567 0.0646,1.529 0,0.54333 -0.0323,1.06845 -0.0828,1.59772 v -0.0646 c -0.626115,4.47578 -1.298575,8.887 -1.989565,13.3126 -6.64911,-0.49284 -6.22083,-6.84727 -8.70738,-10.7615 -0.79166,-1.34906 -1.91093,-2.43573 -3.25999,-3.14493 l -0.0505,-0.0182 c -1.11894,-0.44649 -2.41751,-0.70889 -3.78511,-0.70889 -0.72295,0 -1.45038,0.0828 -2.14105,0.2119 l 0.0646,-0.0182 c -0.87061,0 -1.92499,2.61567 -1.74505,3.80333 1.11894,6.22083 2.61566,12.81976 3.91838,19.22022 0.0323,0.56155 0.0505,1.234 0.0505,1.89239 0,0.6584 -0.0182,1.33085 -0.0505,1.98956 v -0.0968 c -1.61178,-0.80573 -3.91838,-1.11895 -4.65572,-2.37117 -5.39689,-8.03077 -10.48471,-17.23098 -14.77672,-26.89175 l -0.46055,-1.16945 c -1.86012,-5.03733 -3.29228,-6.77823 -8.08127,-6.22083 -5.84338,0.69067 -8.59233,-1.49672 -8.14583,-7.76806 0,-3.42139 0,-9.01644 -1.61178,-9.95544 -5.41511,-2.86401 -10.94527,-6.96233 -17.8571,-4.72444 -3.60549,1.11896 -6.89361,1.74506 -8.52361,-3.29227 -1.86011,-4.77077 -5.26776,-8.60639 -9.59621,-10.95934 l -0.11505,-0.0505 c -3.17722,-1.92499 -3.17722,-5.03733 -0.37778,-7.76805 1.5795,-1.38166 3.01166,-2.84578 4.29616,-4.41122 l 0.0505,-0.0646 c 4.96861,-6.220835 3.35683,-12.064215 -4.96862,-12.441985 -8.32544998,-0.37778 -8.39415998,-4.16289 -7.71754998,-9.82633 0.28093,-3.78511 1.03615998,-7.28928 2.20560998,-10.61416 l -0.0828,0.295 c 6.48355,-16.52178 16.63716,-30.39593 29.5071,-41.11105 l 0.16556,-0.1333 c 1.13716,-0.8566 2.45426,-1.5654 3.86788,-2.0723 l 0.0969,-0.032 c 4.09832,-1.8097 9.51343,-6.2209 12.12877,-4.789 5.77467,2.864 -0.37777,7.8326 -0.37777,11.94912 0,6.84727 -3.04394,14.43155 3.17721,20.52326 0.93933,0.93933 0.62611,3.35684 0.56155,5.03733 -0.44649,2.07234 -0.69067,4.46172 -0.69067,6.91183 0,0.2119 0,0.42827 0,0.64017 v -0.0323 c 0.62611,1.6805 2.02599,2.94678 3.75283,3.35684 h 0.0323 c 1.43216,0 4.22745,-1.80962 4.22745,-2.79944 -0.14734,-5.49789 -0.59384,-10.71516 -1.33085,-15.84933 l 0.0828,0.72295 c -0.56155,-2.15511 -0.97161,-4.65572 -1.11895,-7.23878 v -0.0968 c 0.295,-2.21967 2.17333,-3.90017 4.4435,-3.90017 1.28451,0 2.45427,0.54333 3.27406,1.41394 v 0 c 7.3401,6.22084 15.05766,12.44199 21.9551,19.02239 5.47967,5.28183 15.108165,3.35683 18.662835,11.50266 0,0 2.05827,0.37778 2.79944,0 8.27911,-4.92227 16.73815,-9.57799 24.88398,-14.99309 5.84338,-3.98295 11.0744,-8.95156 16.66944,-13.38132 1.86012,-1.43216 3.98295,-2.61567 6.22084,-3.91838 0.37777,2.48654 0.80573,4.96861 1.11894,7.47337 -0.37777,1.25222 -0.37777,2.79944 -0.37777,7.40466 z M 75.742885,138.67283 c 4.85356,-4.16289 9.82633,-8.21039 14.30211,-12.44199 0.74117,-0.74117 0,-4.22745 -1.18351,-5.53017 -4.393,-5.11595 -9.03465,-9.72533 -14.00327,-13.97099 l -0.17962,-0.14734 c -4.92227,-3.98295 -10.07082,-1.43216 -13.24772,4.29616 -4.29616,7.653 0.69067,13.93871 2.92856,20.09499 0.93933,3.1085 6.71367,4.78899 11.00983,7.71755 z m 64.986715,-0.87477 c 0,0 1.43216,0 1.98955,-0.69067 3.93245,-4.27794 7.62072,-8.95156 10.92706,-13.88821 l 0.2624,-0.42828 c 0.56155,-1.48266 0.87061,-3.20949 0.87061,-5.00089 0,-5.03733 -2.51883,-9.46262 -6.3685,-12.12878 l -0.0505,-0.0323 c -5.47966,-2.97906 -8.45904,1.29856 -11.70082,4.54034 -3.58727,2.96084 -6.73189,6.25344 -9.48083,9.87267 l -0.0968,0.14734 c -1.61178,2.68438 -2.61567,8.52361 -1.18351,9.75761 4.18111,2.97906 8.95156,5.61294 14.02149,7.66706 l 0.47878,0.16555 z M 121.21438,116.9015 c -0.16556,-4.57678 -3.91839,-8.21039 -8.50954,-8.21039 -0.72296,0 -1.43216,0.0968 -2.12284,0.2624 l 0.0646,-0.0182 c -1.34906,0.69067 -2.94677,1.10073 -4.64165,1.10073 -1.29857,0 -2.55111,-0.24834 -3.70233,-0.69068 l 0.0646,0.0182 c -0.74117,-0.37778 -1.61178,-0.59384 -2.532895,-0.59384 -3.12672,0 -5.65929,2.53289 -5.65929,5.6593 0,0.56155 0.0828,1.11894 0.23012,1.62999 l -0.0182,-0.0323 c 2.51883,6.56634 5.49789,12.22594 9.034665,17.47517 l -0.19783,-0.31321 c 0.93932,1.43216 6.22083,2.37116 6.64911,1.56543 3.80332,-5.53016 7.16016,-11.63594 11.00983,-17.8571 z"
     id="path5"
     style="stroke-width:0.319607" />
</svg>
