<?xml version="1.0" encoding="UTF-8" standalone="no"?>
<!-- Generated by IcoMoon.io -->

<svg
   version="1.1"
   width="215"
   height="215"
   viewBox="0 0 215 215"
   id="svg7"
   sodipodi:docname="bladeborn-dakunninkrew.svg"
   inkscape:version="1.2.1 (9c6d41e, 2022-07-14)"
   xmlns:inkscape="http://www.inkscape.org/namespaces/inkscape"
   xmlns:sodipodi="http://sodipodi.sourceforge.net/DTD/sodipodi-0.dtd"
   xmlns="http://www.w3.org/2000/svg"
   xmlns:svg="http://www.w3.org/2000/svg">
  <defs
     id="defs11" />
  <sodipodi:namedview
     id="namedview9"
     pagecolor="#ffffff"
     bordercolor="#000000"
     borderopacity="0.25"
     inkscape:showpageshadow="2"
     inkscape:pageopacity="0.0"
     inkscape:pagecheckerboard="0"
     inkscape:deskcolor="#d1d1d1"
     showgrid="false"
     inkscape:zoom="1.0029297"
     inkscape:cx="301.61636"
     inkscape:cy="512.99708"
     inkscape:window-width="2560"
     inkscape:window-height="1387"
     inkscape:window-x="0"
     inkscape:window-y="25"
     inkscape:window-maximized="1"
     inkscape:current-layer="svg7" />
  <title
     id="title2" />
  <g
     id="icomoon-ignore"
     transform="matrix(0.30416301,0,0,0.30416301,110.33997,-1019.9974)" />
  <path
     fill="#ffffff"
     d="M 101.31044,2.0087078 C 81.081769,5.1710878 65.004629,17.770738 48.173769,43.648018 c -4.62875,7.11468 -9.86766,13.33511 -11.23365,13.33511 -1.76019,0 -12.3034,-2.923 -21.59801,-5.98592 -3.27979,-1.08039 -6.0142202,-1.91289 -6.0771802,-1.84992 -0.79964,0.79964 5.1555702,7.52651 21.1247302,23.85489 6.71988,6.87287 12.21914,12.64984 12.21914,12.84237 0,0.19163 -0.8845,3.05167 -1.96489,6.35792 -3.89329,11.907382 -3.8501,12.342332 1.44356,14.257652 13.46134,4.87147 22.93571,12.52847 29.56677,23.89626 1.13848,1.95029 3.17303,5.43782 4.52199,7.74916 5.085,8.71214 6.875,9.41689 9.21067,3.62441 1.67441,-4.15396 3.89572,-7.54355 10.00848,-15.2699 0.63601,-0.8036 0.3139,-1.15795 4.39729,4.86022 7.588261,11.18985 9.182981,11.35988 14.434051,1.53876 5.07557,-9.49019 6.795,-8.83015 15.88309,6.08144 5.55037,9.10603 5.67751,9.03181 14.88087,-8.53908 8.18351,-15.62515 8.81313,-16.24108 21.51649,-21.10678 12.42963,-4.75985 12.77424,-5.27936 10.82577,-16.384962 -1.68141,-9.58022 -1.15308,-10.72691 11.00918,-23.90265 16.66236,-18.05298 19.50963,-21.63785 18.22058,-22.92781 -1.02381,-1.0235 -3.70865,-0.0511 -16.35423,5.9251 -10.12893,4.78813 -11.1202,5.18415 -11.63667,4.64883 -0.62749,-0.64817 -3.5362,-5.52756 -6.30621,-10.56754 -13.3336,-24.2792 -30.34026,-38.2104802 -52.80088,-43.2538002 -3.36404,-0.75585 -15.16404,-1.28996 -18.15336,-0.82368 z M 67.284329,77.047548 c 12.27845,4.19502 18.93415,9.58935 20.83578,16.88683 1.78908,6.863132 -2.10664,9.233172 -9.42662,5.73347 -10.67917,-5.10507 -21.40396,-12.91689 -22.41712,-16.33021 -2.19788,-7.39633 1.5342,-9.52851 11.00918,-6.29161 z m 92.341761,-0.5557 c 4.0986,3.0322 1.7383,8.23795 -6.62254,14.61381 -2.59268,1.97463 -16.11638,11.669822 -17.1265,12.277242 -0.39237,0.23542 -3.59217,-4.414322 -5.14492,-7.482112 -3.19797,-6.30864 -0.21292,-11.07336 9.66204,-15.41985 9.28488,-4.08795 16.95253,-5.6775 19.23192,-3.99031 z M 0.00407883,85.262988 c 0.004,0.37869 0.20957,2.20762 0.45807,4.06149 0.76466997,5.69546 1.89675997,15.222452 3.82606997,32.185932 3.34701,29.42138 5.31738,41.49696 7.9976602,48.95777 2.0093,5.59569 2.71435,8.97676 3.04498,14.61442 0.99948,16.94827 5.58443,17.91703 11.03929,2.33293 8.17407,-23.35241 19.46826,-17.86349 28.37932,13.79471 3.88416,13.79623 8.92658,16.14071 9.62889,4.47485 1.31489,-21.87662 17.68951,-24.84161 23.76365,-4.30421 3.17667,10.74486 6.70101,11.75468 7.31208,2.09659 0.32058,-5.03907 1.82467,-8.68446 5.248631,-12.7131 4.25007,-5.00014 4.35927,-6.56201 1.67107,-23.94645 -2.903541,-18.78785 -5.616061,-24.31388 -7.979711,-16.26116 -1.16373,3.96446 -3.10581,7.13901 -6.70315,10.95595 -2.39863,2.54493 -4.23395,5.22339 -5.87095,8.56249 -3.67794,7.50887 -6.41298,5.3189 -9.94218,-7.94808 -3.92948,-14.7735 -12.01687,-34.0252 -14.29475,-34.0252 -0.85196,0 -2.88164,6.58878 -4.53476,14.71328 -3.74455,18.40886 -7.33307,24.23936 -11.84046,19.23588 -6.64444,-7.37687 -21.20594,-34.43643 -32.9505902,-61.23045 -2.32806,-5.310992 -4.73399,-10.747302 -5.34323,-12.082572 -1.69297,-3.69163 -2.92847997,-5.16682 -2.9138799673,-3.47385 z M 213.2765,90.014018 c -0.63996,0.72087 -6.17269,14.106472 -7.12776,17.243312 -0.4459,1.46637 -4.12293,9.47528 -6.8461,14.9122 -2.69154,5.37638 -3.5508,6.98845 -8.64006,16.20063 -1.39671,2.52942 -4.26223,7.97728 -6.36856,12.10751 -4.34315,8.5187 -4.94508,9.48411 -7.12593,11.44505 -3.35431,3.01669 -6.10638,1.96793 -6.12737,-2.33141 -0.007,-1.71061 -1.2349,-5.1288 -2.55314,-7.11255 -2.57413,-3.87656 -3.67855,-7.25064 -4.01617,-12.27602 -0.47571,-7.07513 -1.51078,-9.24777 -4.00978,-8.42075 -4.77475,1.57648 -12.47981,18.88548 -16.71285,37.54619 -2.64773,11.67225 -5.79795,9.95921 -14.24547,-7.74673 -8.01074,-16.7898 -9.59421,-18.2948 -11.6753,-11.10743 -0.67007,2.31681 -1.1403,4.95087 -3.18976,17.93406 -0.53319,3.37287 -1.3812,8.13028 -1.88885,10.57484 -1.66955,8.06306 -1.56583,8.592 2.15652,11.18924 3.57178,2.48988 4.93778,4.91345 6.33784,11.23366 2.24959,10.14931 6.72626,8.73313 7.49093,-2.37095 0.29534,-4.27836 0.9575,-5.99323 3.04437,-7.87874 2.21248,-2.00109 6.73934,-3.89815 9.29309,-3.89815 5.63127,0 12.19754,11.38239 12.19754,21.1448 0,9.29705 5.09413,1.76567 11.37905,-16.8196 4.71696,-13.95014 6.64626,-16.41264 14.11316,-18.01892 6.77493,-1.45664 8.90468,1.92991 13.2752,21.11013 2.51086,11.0183 6.69706,5.97619 9.21218,-11.09678 0.94443,-6.4148 2.56927,-13.91364 4.02104,-18.54239 5.17107,-16.51392 9.69215,-47.84697 9.72926,-67.440542 0.0146,-7.54507 -0.34705,-9.13767 -1.71974,-7.58796 z M 100.60539,104.20535 c 2.3451,1.07066 3.8501,7.0207 2.38312,9.42815 -1.98771,3.25941 -10.493931,2.6085 -11.723051,-0.89911 -0.58765,-1.67837 4.94447,-7.96268 7.59282,-8.62698 0.9718,-0.24424 1.0083,-0.24181 1.749541,0.0979 z m 18.49311,0.16425 c 5.23708,2.48501 6.68185,9.06071 2.25294,10.25455 -3.82668,1.0302 -5.78914,-0.77287 -5.78914,-5.32619 0,-4.77597 0.97849,-6.14106 3.53377,-4.92805 z"
     id="path5"
     style="stroke-width:0.304163" />
</svg>
