<?xml version="1.0" encoding="UTF-8" standalone="no"?>
<svg
   xmlns:dc="http://purl.org/dc/elements/1.1/"
   xmlns:cc="http://creativecommons.org/ns#"
   xmlns:rdf="http://www.w3.org/1999/02/22-rdf-syntax-ns#"
   xmlns:svg="http://www.w3.org/2000/svg"
   xmlns="http://www.w3.org/2000/svg"
   xmlns:sodipodi="http://sodipodi.sourceforge.net/DTD/sodipodi-0.dtd"
   xmlns:inkscape="http://www.inkscape.org/namespaces/inkscape"
   id="Layer_1"
   data-name="Layer 1"
   viewBox="0 0 228.91001 228.91"
   version="1.1"
   sodipodi:docname="darkoath_savagers.svg"
   width="228.91"
   height="228.91"
   inkscape:version="1.0.2-2 (e86c870879, 2021-01-15)">
  <metadata
     id="metadata20">
    <rdf:RDF>
      <cc:Work
         rdf:about="">
        <dc:format>image/svg+xml</dc:format>
        <dc:type
           rdf:resource="http://purl.org/dc/dcmitype/StillImage" />
        <dc:title></dc:title>
      </cc:Work>
    </rdf:RDF>
  </metadata>
  <defs
     id="defs18" />
  <sodipodi:namedview
     pagecolor="#ffffff"
     bordercolor="#666666"
     borderopacity="1"
     objecttolerance="10"
     gridtolerance="10"
     guidetolerance="10"
     inkscape:pageopacity="0"
     inkscape:pageshadow="2"
     inkscape:window-width="1920"
     inkscape:window-height="1017"
     id="namedview16"
     showgrid="false"
     inkscape:zoom="3.7132497"
     inkscape:cx="80.264999"
     inkscape:cy="114.455"
     inkscape:window-x="-8"
     inkscape:window-y="-8"
     inkscape:window-maximized="1"
     inkscape:current-layer="Layer_1" />
  <g
     id="q864zg.tif"
     transform="translate(34.216744,-0.01999817)">
    <path
       fill="#ffffff"
       d="m 1947.42,1559 -5.06,6.15 c -2.15,-6.13 -4.46,-11.58 -2.8,-17.89 a 31.16,31.16 0 0 0 0.73,-8.41 4.27,4.27 0 0 0 -1.92,-2.92 c -3.16,-2 -6.53,-3.64 -9.73,-5.57 -5.68,-3.43 -12.42,-1.11 -14.6,5.13 -0.48,1.37 -0.84,2.78 -1.34,4.48 -10.85,-9.52 -15.71,-21.43 -16.34,-35.25 0,-0.9 1.22,-2.26 2.21,-2.75 4.5,-2.24 6.2,-5.73 6.6,-10.72 2.61,-32.64 19.17,-56 48,-70.88 12.87,-1.35 13,-11.68 14.79,-20.9 q 3.06,-16 6.2,-32.06 c 0.08,-0.39 0.57,-0.69 1.43,-1.68 2.89,13.2 5.64,25.79 8.38,38.39 0.1,0.48 0.08,1 0.14,1.48 0.9,7.84 4.81,12.05 12.62,15.28 28.56,11.82 44.46,34.28 50.17,64.29 0.64,3.39 0.6,6.93 1.39,10.27 0.39,1.64 1.65,3.84 3,4.34 7.91,2.84 5.3,9.21 4.44,14.18 -1.77,10.17 -7.39,18.54 -14.77,26.61 -0.81,-2.14 -1.4,-3.74 -2,-5.33 -2.48,-6.46 -8.54,-8.63 -14.41,-5.17 -3.43,2 -5.88,6 -10.76,5.35 -0.25,0 -1.55,2.83 -1.2,4 2.61,8.65 1.92,17 -1.67,25.74 l -5.93,-5.62 c -2.58,4.88 -5,9.43 -7.19,13.56 l -10.68,-13.95 -5.76,11.24 h -10 c -0.87,-1.77 -2.19,-4.21 -3.3,-6.73 -1.37,-3.1 -3.31,-3.08 -5.3,-0.89 -2.74,3 -5.22,6.27 -7.84,9.46 z m 29.35,-25 c 6.64,0.12 8.11,-1.79 5.92,-7.84 a 75.42,75.42 0 0 0 -3.36,-8.15 c -0.59,-1.17 -2,-2.87 -2.84,-2.77 a 5.8,5.8 0 0 0 -3.61,2.64 34.32,34.32 0 0 0 -2.81,6.79 c -2.42,7.27 -1.01,9.19 6.7,9.33 z m 22.87,-23.4 c 5,2.45 9.3,1.93 11.76,-0.52 3.17,-3.18 3.86,-8.56 1.14,-14 -4.34,4.92 -8.39,9.43 -12.9,14.52 z m -60.05,-13.87 -1.58,0.94 c 0,2.3 -0.17,4.6 0,6.88 0.39,4.38 5.44,8.81 9.56,8.56 3.15,-0.19 4.65,-2.34 2.92,-4.62 -3.18,-4.25 -7.21,-7.88 -10.9,-11.76 z"
       transform="translate(-1896.36,-1365.73)"
       id="path2" />
    <path
       fill="#ffffff"
       d="m 2006.11,1564 c 5.37,3.47 6.88,7 4.86,12.85 -1.94,5.61 -4.28,11.08 -6.91,17.83 -3.2,-11.6 -6.92,-21.6 2.05,-30.68 z"
       transform="translate(-1896.36,-1365.73)"
       id="path4" />
    <path
       fill="#ffffff"
       d="m 1987.78,1565.24 c 6.14,4.09 8,9.66 5.21,16.25 -1.47,3.56 -3.07,7.06 -4.73,10.87 -6.86,-8.91 -6.88,-17.72 -0.48,-27.12 z"
       transform="translate(-1896.36,-1365.73)"
       id="path6" />
    <path
       fill="#ffffff"
       d="m 1965.21,1564.94 c 6.65,9.19 4.81,18.25 0.23,27.29 -7.94,-13.62 -9.72,-20.79 -0.23,-27.29 z"
       transform="translate(-1896.36,-1365.73)"
       id="path8" />
    <path
       fill="#ffffff"
       d="m 1948.74,1591.89 c -2.66,-6.52 -6,-12.19 -7,-18.25 -0.57,-3.2 2.67,-7.09 4.39,-11.13 7.99,9.57 7.71,18.82 2.61,29.38 z"
       transform="translate(-1896.36,-1365.73)"
       id="path10" />
    <path
       fill="#ffffff"
       d="m 1975.94,1589 a 101.75,101.75 0 0 1 -2,-11 c -0.15,-1.87 0.92,-3.86 1.62,-5.72 0.07,-0.19 2,-0.09 2.13,0.22 0.7,2 1.75,4.21 1.54,6.21 -0.38,3.51 -1.59,6.93 -2.46,10.39 z"
       transform="translate(-1896.36,-1365.73)"
       id="path12" />
  </g>
</svg>
