<?xml version="1.0" encoding="UTF-8" standalone="no"?>
<!-- Generated by IcoMoon.io -->

<svg
   version="1.1"
   width="215"
   height="215"
   viewBox="0 0 215 215"
   id="svg7"
   sodipodi:docname="bladeborn-domitans.svg"
   inkscape:version="1.2.1 (9c6d41e, 2022-07-14)"
   xmlns:inkscape="http://www.inkscape.org/namespaces/inkscape"
   xmlns:sodipodi="http://sodipodi.sourceforge.net/DTD/sodipodi-0.dtd"
   xmlns="http://www.w3.org/2000/svg"
   xmlns:svg="http://www.w3.org/2000/svg">
  <defs
     id="defs11" />
  <sodipodi:namedview
     id="namedview9"
     pagecolor="#ffffff"
     bordercolor="#000000"
     borderopacity="0.25"
     inkscape:showpageshadow="2"
     inkscape:pageopacity="0.0"
     inkscape:pagecheckerboard="0"
     inkscape:deskcolor="#d1d1d1"
     showgrid="false"
     inkscape:zoom="1.0029297"
     inkscape:cx="344.49075"
     inkscape:cy="512.99708"
     inkscape:window-width="2560"
     inkscape:window-height="1387"
     inkscape:window-x="0"
     inkscape:window-y="25"
     inkscape:window-maximized="1"
     inkscape:current-layer="svg7" />
  <title
     id="title2" />
  <g
     id="icomoon-ignore"
     transform="matrix(0.29229209,0,0,0.29229209,102.06458,-1099.4952)" />
  <path
     fill="#ffffff"
     d="m 106.43685,4.9258418 c -0.53957,2.2051 -2.66658,9.1219002 -4.72461,15.3708002 -2.05891,6.2489 -5.05899,15.8738 -6.66689,21.3867 -3.72088,12.7653 -5.57577,15.5897 -10.99808,16.7387 -2.41491,0.5124 -7.20675,2.1249 -10.652,3.5847 l -6.2606,2.6554 -9.59946,-7.8135 c -12.7755,-10.3989 -14.57778,-11.6581 -15.43653,-10.7985 -0.7889,0.7889 5.26038,20.8843 7.60573,25.2664 1.23231,2.3035 0.273,3.8836 -7.03108,11.5806 -10.42869,10.9855 -8.8357,10.4339 -20.27134,7.0311 -27.18608,-8.0881 -25.97307,-8.6802 -15.51866,7.5662 l 7.89452,12.271908 0.7392,50.50194 c 0.40629,27.77535 0.71846,51.25371 0.69537,52.17297 -0.10231,3.94623 20.22749,0.50332 42.71819,-7.2316 19.31203,-6.64176 27.96417,-7.20149 38.46593,-2.48945 l 8.11959,3.644 8.805,-4.33557 c 11.26874,-5.54887 17.93972,-5.03444 42.65653,3.2842 17.64684,5.93791 37.42917,9.93384 41.4818,8.37913 1.95163,-0.74856 2.16881,-6.12205 2.16881,-53.21879 V 108.08801 L 207.98,96.135042 c 8.37387,-13.617 8.82897,-15.1849 3.62442,-12.4929 -2.04868,1.0593 -10.08642,3.5762 -17.85993,5.5892 l -14.13203,3.6625 -4.72548,-5.221 c -2.59906,-2.8712 -6.23664,-6.8469 -8.08188,-8.8342 l -3.35785,-3.6133 3.11087,-9.7541 c 1.71195,-5.3636 3.76209,-11.4467 4.55566,-13.5165 2.94747,-7.6721 1.25715,-7.4476 -8.91403,1.1862 -14.36265,12.1929 -14.42111,12.211 -24.58498,8.2537 -4.67288,-1.8189 -9.49014,-3.6493 -10.70169,-4.0655 -1.91627,-0.6579 -12.98274,-32.0367 -18.24371,-51.7369002 L 107.42041,0.91354178 106.43919,4.9235418 Z M 87.30253,87.189442 c 2.73468,0.7597 6.79404,2.9144 9.02306,4.7898 l 4.05175,3.4084 V 193.05995 L 96.033,191.92264 c -8.22247,-2.15185 -21.22946,-1.09931 -31.07649,2.51342 -30.73452,11.27692 -38.01814,13.5758 -39.02597,12.32245 -0.5913,-0.7354 -0.7734,-24.13514 -0.40628,-52.00256 l 0.66876,-50.66562 10.69205,-2.91123 c 5.88238,-1.601758 16.10617,-5.209258 22.72278,-8.017558 10.80254,-4.5858 17.50158,-6.849 21.38731,-7.2252 0.73541,-0.072 3.57385,0.4917 6.30854,1.2505 z m 55.97218,1.1414 c 3.97576,1.3945 11.566,4.4063 16.86818,6.6941 5.30305,2.2851 13.63396,4.992588 18.51173,6.015318 4.87865,1.02127 9.39047,2.37955 10.02767,3.01763 0.83712,0.83624 1.86219,80.15964 1.29894,100.36375 -0.0935,3.34265 -4.52234,2.20505 -34.55067,-8.88013 -16.22631,-5.98906 -25.9269,-7.3716 -34.98065,-4.97949 -4.031,1.06453 -7.75041,1.6763 -8.26572,1.35887 -2.63122,-1.62661 -1.2402,-94.909248 1.4673,-98.351348 6.10277,-7.7586 16.97048,-9.6792 29.62439,-5.237 z"
     id="path5"
     style="stroke-width:0.292292" />
</svg>
