<?xml version="1.0" encoding="UTF-8" standalone="no"?>
<!-- Generated by IcoMoon.io -->

<svg
   version="1.1"
   width="215"
   height="215"
   viewBox="0 0 215 215"
   id="svg7"
   sodipodi:docname="bladeborn-elathain.svg"
   inkscape:version="1.2.1 (9c6d41e, 2022-07-14)"
   xmlns:inkscape="http://www.inkscape.org/namespaces/inkscape"
   xmlns:sodipodi="http://sodipodi.sourceforge.net/DTD/sodipodi-0.dtd"
   xmlns="http://www.w3.org/2000/svg"
   xmlns:svg="http://www.w3.org/2000/svg">
  <defs
     id="defs11" />
  <sodipodi:namedview
     id="namedview9"
     pagecolor="#ffffff"
     bordercolor="#000000"
     borderopacity="0.25"
     inkscape:showpageshadow="2"
     inkscape:pageopacity="0.0"
     inkscape:pagecheckerboard="0"
     inkscape:deskcolor="#d1d1d1"
     showgrid="false"
     inkscape:zoom="1.0029297"
     inkscape:cx="301.61636"
     inkscape:cy="512.99708"
     inkscape:window-width="2560"
     inkscape:window-height="1387"
     inkscape:window-x="0"
     inkscape:window-y="25"
     inkscape:window-maximized="1"
     inkscape:current-layer="svg7" />
  <title
     id="title2" />
  <g
     id="icomoon-ignore"
     transform="matrix(0.31893271,0,0,0.31893271,160.39909,-1041.2509)" />
  <path
     fill="#ffffff"
     d="m 106.45064,213.45332 c -23.286865,5.39761 -44.743385,-4.2635 -65.280095,-14.61541 -7.95705,-5.13673 -14.32614,-12.09425 -18.62185,-20.29401 l -0.14447,-0.29916 c -3.9924,-6.52791 0.91534,-13.63979 5.39762,-18.76249 10.29164,-12.37906 23.4878,-22.01242 38.54684,-27.9098 l 0.64425,-0.22868 c 14.61541,-5.01043 29.85688,-6.74256 44.412005,-11.10874 16.75896,-5.01044 33.84961,-9.5447 48.13365,-20.966322 5.02446,-3.29203 8.30245,-8.88642 8.30245,-15.25551 0,-0.5138 -0.014,-1.01771 -0.0561,-1.51748 v 0.0702 c -0.28512,-7.47131 -5.42568,-13.66786 -12.33695,-15.54478 l -0.11641,-0.0281 c -18.4914,-5.65468 -37.72974,-10.77738 -56.977965,-8.84433 -15.14325,1.55958 -30.55758,3.88014 -43.71164,12.99555 -8.73174,6.04219 -9.10107,11.37952 0,16.175 7.11188,3.9503 15.38627,6.92945 24.16011,8.44278 l 0.4717,0.0702 c 5.13673,0.4296 11.12278,0.68634 17.16049,0.68634 4.379895,0 8.717705,-0.13044 13.023615,-0.3875 l -0.58811,0.0281 c 5.39761,0 9.75966,-1.40107 9.9743,-7.97108 0.0421,-0.33137 0.0561,-0.71473 0.0561,-1.10191 0,-5.30928 -4.09509,-9.64708 -9.30199,-10.04862 h -0.0281 c -6.51388,0.14448 -12.766545,0.94341 -18.794695,2.33459 l 0.61618,-0.11641 c -1.61572,-0.0561 -3.14755,-0.37347 -4.58083,-0.9013 l 0.0982,0.0281 c 0.58811,-1.55958 0.75682,-3.72162 1.89095,-4.58083 5.48213,-4.69309 12.668325,-7.54148 20.508645,-7.54148 10.43612,0 19.69601,5.05253 25.46295,12.8549 l 0.0561,0.0842 c 5.86932,7.97108 1.61571,23.389572 -7.44325,29.427282 -8.9888,5.88335 -19.98082,9.37631 -31.803965,9.37631 -4.04885,0 -7.98512,-0.41557 -11.80912,-1.18643 l 0.37347,0.0702 c -13.42484,-2.60568 -25.29041,-6.32699 -36.52513,-11.20698 l 1.11594,0.42961 C 38.056395,102.31754 29.398965,95.061178 23.902795,85.741008 l -0.11641,-0.21464 c -3.23589,-5.92577 -3.88013,-10.77738 1.28881,-15.10115 6.82675,-6.48581 14.61541,-12.06618 23.1003,-16.48818 l 0.57408,-0.27109 c 17.84715,-7.2283 15.68511,-6.14042 12.72445,-25.17783 0,-0.80307 -1.18643,-1.55958 -1.18643,-2.32055 0,-2.5352 0.33138,-5.06657 0.48574,-7.60176 1.34494,1.67631 2.59133,3.45053 3.9924,5.01043 3.8661,4.66503 7.80269,8.85835 11.96348,12.82269 l 0.0561,0.0561 c 2.32055,2.33459 5.52423,3.76373 9.05896,3.76373 6.12638,0 11.23504,-4.30974 12.48143,-10.04862 l 0.014,-0.0842 c 2.105595,-6.25267 3.292025,-12.78059 4.953985,-19.13596 0.80307,-3.42247 1.74647,-6.32699 2.89048,-9.14731 l -0.14447,0.40154 C 106.41317,1.232738 107.81424,0.70075803 108.78985,5.803323e-5 109.42007,0.91539803 109.97628,1.961178 110.4196,3.077448 l 0.0421,0.11641 c 1.03175,4.69309 2.04531,9.43243 2.80629,14.2279 2.04531,12.60805 8.35859,21.55475 15.68511,22.25513 7.32652,0.70038 18.22063,-7.75613 22.85727,-17.84716 0,-0.37347 0,-1.07384 0,-1.2888 1.18643,-1.18643 2.41878,-2.26028 3.66549,-3.33413 0.38751,1.37301 0.61618,2.96066 0.61618,4.59487 0,0.28512 0,0.56004 -0.014,0.84517 v -0.0421 c -1.01772,6.39747 -2.36266,11.9957 -4.10913,17.40352 l 0.22867,-0.81711 c -2.41878,6.68228 0,9.48857 6.19655,11.75299 11.51985,3.56312 21.29769,9.91817 28.89945,18.27676 l 0.0421,0.0561 c 8.40068,9.86204 8.03136,15.25551 0.91533,26.03703 -16.44608,24.473302 -41.77827,32.878142 -68.45986,38.000522 -20.966315,4.06703 -39.504275,9.96027 -57.052275,17.7065 l 1.69034,-0.67231 c -5.9819,3.32009 -10.89378,7.92899 -14.4569,13.48129 l -0.0982,0.15851 c -1.23267,2.27431 -1.96112,4.9964 -1.96112,7.87285 0,6.59808 3.81986,12.30889 9.36227,15.04502 l 0.0982,0.0421 c 14.79784,7.21426 32.2055,11.42162 50.594515,11.42162 18.86487,0 36.698,-4.43603 52.49952,-12.32292 l -0.68634,0.31319 c 9.10106,-4.20736 10.24954,-12.39309 1.67631,-16.66072 -8.28843,-4.19333 -17.92147,-7.35906 -28.05428,-8.97477 l -0.57408,-0.0702 c -9.27393,-1.40107 -19.1921,-5.39761 -28.40957,0 -3.67953,2.75016 -6.883205,5.82722 -9.675135,9.23183 l -0.0702,0.0982 c 3.33412,3.23589 6.411505,8.78819 10.076675,9.2178 6.89724,-0.0842 13.54156,-1.10192 19.82231,-2.93259 l -0.52784,0.13044 c 0.70038,-0.0561 1.51748,-0.0842 2.34862,-0.0842 0.83114,0 1.64378,0.0281 2.44685,0.0842 h -0.11641 c -0.56004,1.74648 -1.26074,3.26396 -2.14801,4.66503 l 0.0421,-0.0842 c -2.60568,4.10913 -7.12591,6.81272 -12.29485,6.81272 -0.48574,0 -0.98551,-0.0281 -1.46135,-0.0702 h 0.0561 c -2.00322,-0.14448 -4.35184,-0.22868 -6.71449,-0.22868 -2.36266,0 -4.70713,0.0842 -7.027675,0.24303 l 0.31319,-0.014 c -10.52032,-0.20061 -19.45298,-6.77062 -23.11433,-16.00245 l -0.0561,-0.17254 c -1.71841,-6.57002 4.69309,-19.23834 12.66832,-23.23074 18.103895,-8.9467 36.754125,-12.39309 56.379645,-4.5247 5.39762,2.26027 12.33696,2.41878 17.6743,5.39762 9.23182,4.422 17.18856,9.60497 24.37507,15.65704 l -0.17255,-0.14448 c 10.13281,9.10107 8.73174,20.32622 -2.53519,28.08235 -23.23074,15.25551 -48.34829,25.11754 -78.3219,20.69554 z"
     id="path5"
     style="stroke-width:0.318933" />
</svg>
