<?xml version="1.0" encoding="UTF-8" standalone="no"?>
<!-- Generated by IcoMoon.io -->

<svg
   version="1.1"
   width="215"
   height="215"
   viewBox="0 0 215 215"
   id="svg7"
   sodipodi:docname="bladeborn-garrek.svg"
   inkscape:version="1.2.1 (9c6d41e, 2022-07-14)"
   xmlns:inkscape="http://www.inkscape.org/namespaces/inkscape"
   xmlns:sodipodi="http://sodipodi.sourceforge.net/DTD/sodipodi-0.dtd"
   xmlns="http://www.w3.org/2000/svg"
   xmlns:svg="http://www.w3.org/2000/svg">
  <defs
     id="defs11" />
  <sodipodi:namedview
     id="namedview9"
     pagecolor="#ffffff"
     bordercolor="#000000"
     borderopacity="0.25"
     inkscape:showpageshadow="2"
     inkscape:pageopacity="0.0"
     inkscape:pagecheckerboard="0"
     inkscape:deskcolor="#d1d1d1"
     showgrid="false"
     inkscape:zoom="1.0029297"
     inkscape:cx="301.61636"
     inkscape:cy="512.99708"
     inkscape:window-width="2560"
     inkscape:window-height="1387"
     inkscape:window-x="0"
     inkscape:window-y="25"
     inkscape:window-maximized="1"
     inkscape:current-layer="svg7" />
  <title
     id="title2" />
  <g
     id="icomoon-ignore"
     transform="matrix(0.37047057,0,0,0.37047057,134.97174,-1129.364)" />
  <path
     fill="#ffffff"
     d="m 44.191185,12.286387 c 3.46946,0.2008 7.53834,0.2997 11.63722,0.2997 4.09889,0 8.15258,-0.1175 12.20219,-0.3338 l -0.56497,0.015 c 0.73168,-0.083 1.56228,-0.1327 2.42288,-0.1327 8.93353,0 16.70304,5.047 20.6052,12.4338 l 0.0682,0.1326 c 3.68581,5.214 7.63688,9.7945 11.971015,13.9616 l 0.0341,0.034 c 4.73239,4.8461 8.21704,4.5994 11.75466,-1.5623 5.36182,-8.1337 11.90285,-14.974 19.49046,-20.5026 l 0.23117,-0.1478 c 3.85252,-3.0716 8.8009,-4.9143 14.17791,-4.9143 1.59265,0 3.13974,0.1667 4.63347,0.4664 l -0.14781,-0.034 c 1.8768,0.049 4.08369,0.083 6.30985,0.083 7.50425,0 14.92478,-0.3149 22.28121,-0.948 l -0.96322,0.068 c 9.08171,0 18.22752,0.9973 27.24477,1.9909 1.87681,0.565 3.33683,1.9265 4.03443,3.6858 l 0.0152,0.049 c 3.35202,11.0723 0,22.2623 0,33.40276 0,4.16742 -11.75466,9.14617 -18.29569,8.58491 -3.28756,-0.16671 -6.35913,-0.81504 -9.22953,-1.8768 l 0.21598,0.0682 c -2.54069,-1.11104 -5.51334,-1.77455 -8.63419,-1.77455 -2.7074,0 -5.29736,0.48161 -7.68615,1.37667 l 0.14782,-0.0493 c -2.35842,0.78096 -5.08101,1.22848 -7.90214,1.22848 -3.17012,0 -6.19204,-0.56496 -9.01318,-1.59265 l 0.1819,0.0682 c -1.41075,-0.53089 -3.05638,-0.8306 -4.74758,-0.8306 -4.16742,0 -7.91732,1.82753 -10.4769,4.74758 l -0.0152,0.0152 c -6.22613,4.66423 -6.22613,8.08441 -0.74687,14.17791 8.08441,9.51369 16.35442,16.23699 30.66496,11.18969 6.22613,-2.30914 15.55791,2.85522 22.39494,0.81504 8.21704,-2.42288 14.99295,1.61155 22.46312,1.31184 1.1792,0 3.80325,3.30274 3.55281,3.73508 -3.42019,5.66116 0,10.825893 0.36417,16.236983 0.0834,0.49681 0.13263,1.06177 0.13263,1.66082 0,4.88021 -3.37091,8.96391 -7.90214,10.09384 l -0.0682,0.0152 c -4.43268,1.49411 -9.54777,2.35842 -14.86032,2.35842 v 0 c -4.41749,-0.43234 -9.69595,-4.91429 -11.88766,1.06177 -0.99731,2.67331 3.17012,8.01995 6.22613,11.25823 6.22613,6.84037 12.43374,13.06687 19.0922,19.589 6.65848,6.52213 12.06957,15.23968 7.47017,26.00074 0,0.43234 0,0.9973 0,1.4941 -0.86468,6.84037 -1.67601,13.68111 -2.55588,20.52148 l -22.89545,1.56227 c -5.22919,0 -7.47017,-2.35841 -7.40571,-7.47016 0,-7.76951 0,-15.55792 0,-23.32779 0,-3.35202 -0.61424,-6.22613 -4.91429,-6.22613 -4.30005,0 -6.22613,2.24097 -6.22613,6.5903 0,7.22343 0,14.49244 0,21.71624 0,7.22381 -2.98784,9.14618 -9.33177,8.89945 -6.34394,-0.24674 -12.43374,0 -18.65986,0 -5.22919,0 -7.51944,-2.35842 -7.40571,-7.51945 0.11374,-5.16102 0,-11.39085 0,-17.05202 0.0152,-0.46642 0.0152,-1.02768 0.0152,-1.57746 0,-2.7074 -0.16672,-5.38071 -0.48161,-8.00105 l 0.0341,0.3149 c 0,-1.11104 -2.17651,-2.92338 -2.92338,-2.73778 -0.74687,0.18561 -4.16742,1.80864 -4.23189,2.92338 -0.43233,8.26631 -0.6824,16.55152 -0.43233,24.88599 0,6.84037 -2.85522,8.96391 -9.26362,8.96391 -27.809745,0 -26.497545,1.17921 -26.183015,-24.43883 0,-3.60246 0,-7.22344 0,-10.82589 0,-3.60246 -2.49141,-2.80595 -4.66422,-3.23829 -3.10566,-0.61424 -3.42019,0.68241 -3.35202,3.05639 0,5.72932 0,11.44013 0,17.10129 0,0.20079 0,0.44753 0,0.69759 0,3.53763 -0.44753,6.95818 -1.31184,10.22684 l 0.0682,-0.28081 c -1.49411,4.48195 -3.98515,8.64937 -10.01048,7.65207 -0.44753,-0.0493 -0.97842,-0.0682 -1.5282,-0.0682 -0.54977,0 -1.06176,0.0341 -1.59265,0.0834 h 0.0682 c -24.07466,0 -20.83638,2.24097 -21.08645,-20.33958 0,-3.60245 0,-7.27271 0,-10.89035 0,-3.61765 -1.11104,-5.9116 -5.27846,-5.9116 -4.16742,0 -5.77897,1.56227 -5.77897,5.41109 0,7.76951 0,15.55791 0,23.25926 0,5.77897 -2.17652,8.39893 -8.15258,8.51674 -30.16816,0.3149 -27.17661,0.74687 -27.3774,-24.88599 -0.0682,-0.66351 -0.0985,-1.44483 -0.0985,-2.24097 0,-6.26021 2.22579,-11.98621 5.9116,-16.46816 l -0.0341,0.0493 c 6.52584,-7.65207 10.82589,-17.16575 20.15397,-22.58055 2.30914,-1.94164 4.16742,-4.34932 5.42999,-7.09081 l 0.0493,-0.13262 c 1.36111,-2.30915 2.35841,-4.78167 3.55281,-7.22344 -2.5066,-0.81503 -5.47926,-1.46002 -8.53564,-1.84272 l -0.23117,-0.0152 c -4.84613,0 -9.82859,1.06177 -14.61025,0.61424 -6.22613,-0.4968 -10.26093,-3.05638 -9.44552,-10.51099 0.36417,-3.30274 -1.67601,-6.7722 -1.67601,-10.19276 0,-11.440133 1.31184,-13.066863 12.43373,-13.813733 6.22613,-0.36418 12.99871,0 19.52454,0 1.1944,0.11744 2.57477,0.1819 3.96626,0.1819 4.53123,0 8.89945,-0.68241 13.0176,-1.94164 l -0.3149,0.0834 c 4.30005,-1.99091 5.77897,-2.42288 9.94602,0.4968 1.47892,1.08066 3.32164,1.74417 5.31255,1.74417 3.40499,0 6.37432,-1.89199 7.90214,-4.68311 l 0.0152,-0.0493 c 2.73778,-4.04961 7.97068,-6.22612 11.57276,-9.82858 1.79345,-1.21329 2.95377,-3.23828 2.95377,-5.52853 0,-2.72259 -1.62674,-5.04692 -3.96626,-6.0935 l -0.0493,-0.0152 c -6.62439,-4.55012 -14.79215,-7.25382 -23.62343,-7.25382 -3.28756,0 -6.49176,0.38307 -9.57815,1.09586 l 0.28082,-0.0493 c -4.04961,1.27776 -8.69865,2.00981 -13.52958,2.00981 -4.83094,0 -9.47961,-0.73168 -13.86301,-2.09316 l 0.33379,0.0833 c -2.09316,-0.48161 -4.50085,-0.76205 -6.95818,-0.76205 -0.79614,0 -1.57746,0.0341 -2.33952,0.0833 h 0.0986 C 1.744155,54.173717 0.382675,52.929677 -2.5e-5,41.489587 q 0,-6.9734 0,-13.996 c 0,-12.4338 4.79685,-16.237 17.05202,-15.3079 9.19915,0.6824 18.65986,1.0618 27.74158,1.5623 z m 51.01824,111.963583 v -0.74687 l 34.714575,0.43234 c 1.66082,-0.14782 3.18901,-0.41344 4.68312,-0.79614 l -0.2008,0.0493 c -0.81503,-1.47892 -1.59265,-2.72258 -2.44177,-3.91698 l 0.0834,0.11744 c -5.52854,-6.65847 -11.1897,-13.1806 -16.73379,-19.774613 -5.54409,-6.59401 -7.76951,-6.5903 -13.81374,0 -3.735075,4.167423 -7.902125,7.970673 -11.754655,12.433733 -3.85252,4.46306 -6.22612,7.58761 -9.76041,11.44013 z"
     id="path5"
     style="stroke-width:0.370471" />
</svg>
