<?xml version="1.0" encoding="UTF-8" standalone="no"?>
<!-- Generated by IcoMoon.io -->

<svg
   version="1.1"
   width="215"
   height="215"
   viewBox="0 0 215 215"
   id="svg7"
   sodipodi:docname="bladeborn-gorechhosen-of-dromm.svg"
   inkscape:version="1.2.1 (9c6d41e, 2022-07-14)"
   xmlns:inkscape="http://www.inkscape.org/namespaces/inkscape"
   xmlns:sodipodi="http://sodipodi.sourceforge.net/DTD/sodipodi-0.dtd"
   xmlns="http://www.w3.org/2000/svg"
   xmlns:svg="http://www.w3.org/2000/svg">
  <defs
     id="defs11" />
  <sodipodi:namedview
     id="namedview9"
     pagecolor="#ffffff"
     bordercolor="#000000"
     borderopacity="0.25"
     inkscape:showpageshadow="2"
     inkscape:pageopacity="0.0"
     inkscape:pagecheckerboard="0"
     inkscape:deskcolor="#d1d1d1"
     showgrid="false"
     inkscape:zoom="1.0029297"
     inkscape:cx="268.71276"
     inkscape:cy="512"
     inkscape:window-width="1390"
     inkscape:window-height="1205"
     inkscape:window-x="0"
     inkscape:window-y="25"
     inkscape:window-maximized="0"
     inkscape:current-layer="svg7" />
  <title
     id="title2" />
  <g
     id="icomoon-ignore"
     transform="matrix(0.22907222,0,0,0.22907222,32.931046,-927.58988)" />
  <path
     fill="#ffffff"
     d="m 70.221379,20.295813 c -4.16614,1.16323 -10.24617,6.20168 -14.806544,12.26957 -2.006444,2.67075 -7.600845,7.78594 -13.82657,12.64364 -0.830387,0.64851 -2.332185,1.45415 -3.336895,1.79158 -1.004711,0.33788 -2.171147,0.83748 -2.592182,1.11054 -3.136686,2.03553 -6.675164,2.77154 -14.580217,3.03131 -6.649967,0.21808 -7.901847,0.35369 -9.387151,1.01617 -4.7397333,2.11227 -4.4153673,8.31463 0.842528,16.10606 0.620556,0.91858 1.28372,2.08112 1.474537,2.58325 0.391027,1.02762 1.475226,2.835 4.153538,6.92233 1.008605,1.53845 2.559195,4.03122 3.445933,5.53805 0.887426,1.50753 1.869459,3.04346 2.181913,3.41364 0.312455,0.37018 0.981346,1.39092 1.485992,2.26827 0.504646,0.87735 2.068522,3.34194 3.475255,5.47781 1.406732,2.13586 3.743269,5.718547 5.19238,7.962087 1.44911,2.24399 3.389581,5.14817 4.312055,6.45457 5.922204,8.38679 7.128499,10.69057 7.386434,14.09962 1.218435,16.10996 -24.735677,21.98704 -38.6300523,8.74689 -2.576834,-2.45519 -3.59002,-3.11629 -4.774782,-3.11629 -4.546396,0 -1.79340603,10.70821 4.912225,19.10714 5.3870913,6.74755 22.3661543,17.58496 30.3706243,19.38478 1.406733,0.31635 3.50366,0.9014 4.660016,1.30021 12.134643,4.18904 16.892243,2.15717 21.550883,-9.2032 6.09195,-14.85465 7.59764,-32.45931 3.91576,-45.77505 -1.70658,-6.17006 -0.35002,-7.78593 3.48786,-4.15606 0.60292,0.56994 1.68551,1.28235 2.40571,1.58289 1.85801,0.77473 6.45388,5.20956 5.93595,5.7275 -0.27374,0.27374 -0.7974,0.2884 -1.67543,0.0456 -4.78234,-1.32037 -5.39717,1.57212 -3.36301,15.82271 0.28657,2.00965 0.6847,6.11989 0.88422,9.13425 0.20021,3.01436 0.6036,6.87812 0.89636,8.58655 2.03622,11.86571 0.72066,23.49891 -3.24504,28.69908 -1.54418,2.02339 -6.05278,5.19765 -8.05029,5.66656 -1.00471,0.23571 -2.82468,0.73853 -4.04495,1.11764 -1.47271,0.457 -3.31353,0.68836 -5.480326,0.68905 -13.182419,0.003 -1.977123,8.53707 11.800426,8.98834 17.61039,0.57634 32.861331,-7.36422 37.263181,-19.40196 3.47273,-9.49688 0.97882,-26.12454 -3.91828,-26.12454 -0.22312,0 -1.311671,0.85696 -2.419001,1.90496 l -2.01401,1.90428 -1.83074,-2.08685 c -1.00723,-1.14811 -2.05638,-2.08753 -2.3315,-2.08753 -1.07068,0 -2.3741,0.89567 -3.26657,2.24467 -0.51289,0.77473 -1.09038,1.40926 -1.28372,1.40926 -0.96554,0 -2.38556,-4.93834 -2.94152,-10.23083 -0.65675,-6.24794 -1.07572,-10.08124 -1.25829,-11.50881 -0.1237,-0.9731 -0.0836,-1.22027 0.12049,-0.73922 0.1686,0.39675 0.68012,0.81023 1.13666,0.91789 0.60223,0.14203 1.04525,0.75686 1.61083,2.23208 1.2615,3.29314 3.01116,5.70596 4.49257,6.1948 1.58999,0.52481 1.54807,0.56604 3.68806,-3.69379 1.89741,-3.77694 2.32531,-4.00578 5.30279,-2.83935 0.900721,0.35369 1.235621,0.24213 3.060641,-1.02051 4.21057,-2.9122 4.09123,-2.86226 5.56073,-2.34754 0.73028,0.25542 1.90359,0.99715 2.60661,1.64749 2.54522,2.3544 2.72069,2.40892 5.13855,1.59251 l 2.15144,-0.72707 0.91538,1.03586 c 0.50327,0.56924 1.44223,2.06715 2.0857,3.32865 1.69834,3.32865 3.3795,3.6033 4.96926,0.81206 3.24504,-5.69382 4.13384,-7.4815 4.49509,-9.03461 0.6682,-2.87669 0.7005,-2.93625 1.15177,-2.13197 0.67828,1.20835 0.52481,11.31754 -0.21372,14.08954 -0.34796,1.30663 -0.86269,4.13705 -1.14422,6.29032 -0.83039,6.36134 -2.58714,7.86634 -4.57824,3.92218 -0.89773,-1.77806 -1.26287,-2.17435 -2.00575,-2.17435 -0.49961,0 -1.03129,-0.0399 -1.18224,-0.0887 -0.15096,-0.0488 -0.70486,0.7099 -1.23173,1.68506 -1.54051,2.85195 -2.63845,3.13783 -4.38925,1.14422 -5.54423,-6.31461 -10.88391,12.89836 -7.14247,25.7019 1.45873,4.99331 7.50051,9.5278 19.61431,14.72041 5.58295,2.39243 19.88164,3.34766 26.80992,1.7902 5.84409,-1.31419 6.11303,-5.72612 0.41394,-6.79497 -4.01907,-0.75319 -11.59518,-5.59509 -13.80115,-8.82111 -2.62058,-3.83147 -5.25514,-12.92059 -4.86663,-16.78825 0.12415,-1.23745 0.39102,-5.01874 0.59261,-8.40397 0.43477,-7.31176 0.99783,-12.51422 2.52368,-23.31887 1.57785,-11.17551 1.6058,-12.97511 0.22495,-14.41597 -1.37947,-1.43972 -2.65678,-1.4892 -3.00039,-0.11545 -0.34864,1.39642 -2.25223,4.41399 -3.05673,4.84442 -0.63202,0.33788 -1.06954,1.35725 -1.64497,3.83329 l -0.25473,1.09611 -0.35369,-0.91354 c -0.9211,-2.37914 0.75319,-8.12748 2.62448,-9.00987 3.45624,-1.62916 4.31893,-2.1787 4.83617,-3.07896 0.32071,-0.55916 1.29564,-1.46377 2.1668,-2.01011 1.87587,-1.17788 5.78522,-5.08861 5.78522,-5.78773 0,-0.26939 0.39881,-0.75113 0.88559,-1.07 0.48747,-0.31956 0.99211,-0.91423 1.12085,-1.32106 0.12943,-0.40706 0.38851,-0.74036 0.57635,-0.74036 0.54588,0 0.3924,2.08822 -0.19769,2.67831 -0.29551,0.2955 -0.78045,1.58174 -1.0771,2.85768 -0.29665,1.27547 -0.95271,4.12811 -1.45873,6.33865 -0.50602,2.21055 -1.27616,5.51767 -1.71163,7.3491 -0.96164,4.04496 -0.86337,19.88736 0.14523,23.34223 0.29299,1.00471 0.7296,3.11126 0.97058,4.68155 0.52939,3.4567 3.96524,13.7567 5.79209,17.36505 2.93877,5.8024 12.47688,6.30246 25.17,1.31922 1.76615,-0.6934 3.4244,-1.26081 3.68371,-1.26081 0.74174,0 10.04253,-4.92184 12.01094,-6.35561 7.66728,-5.58547 12.492,-10.21433 15.82454,-15.18382 2.73604,-4.07863 5.44161,-11.93558 4.74294,-13.7732 -0.4799,-1.26081 -3.38133,-0.18646 -6.55604,2.42908 -5.73437,4.72347 -11.45682,6.38493 -21.16284,6.14395 -4.62955,-0.11476 -5.93091,-0.26687 -6.97136,-0.81343 -11.08411,-5.8276 -13.07406,-16.09599 -5.53278,-28.555 1.95307,-3.22603 9.70533,-14.458577 10.44959,-15.140067 0.5484,-0.50213 1.87198,-2.22888 2.94014,-3.8365 1.06817,-1.60763 3.03131,-4.32031 4.362,-6.02873 2.20665,-2.83293 6.35698,-8.89831 10.25052,-14.98018 7.7053,-12.03751 6.0908,-17.59274 -5.25583,-18.08204 -15.36502,-0.66316 -18.94977,-1.89489 -25.61692,-8.80256 -1.30663,-1.3529 -3.50504,-3.5442 -4.88634,-4.86916 -1.38131,-1.32495 -3.68302,-3.63744 -5.11518,-5.13923 -7.84733,-8.22896 -10.36461,-10.52312 -12.85416,-11.71109 l -2.47925,-1.18293 -5.14496,0.19975 c -10.4402,0.40637 -14.67162,2.7594 -22.33248,12.41984 -4.11803,5.19238 -7.32253,6.89897 -11.93169,6.35309 -2.86019,-0.33926 -4.70995,-1.71163 -11.407571,-8.46674 -8.67908,-8.75331 -10.97187,-9.99007 -19.02857,-10.26129 -3.20953,-0.10766 -4.92299,0.003 -6.39432,0.41393 z m 11.63251,48.70374 c 0.67073,0.33398 2.94839,2.62448 5.06181,5.08907 2.11296,2.46458 4.1288,4.68475 4.47859,4.93261 2.62952,1.86442 6.48939,7.72317 6.93196,10.52128 1.58357,10.01665 -18.1778,7.42446 -23.84757,-3.12843 -5.43771,-10.12133 -0.65423,-21.41711 7.37498,-17.41453 z m 56.064741,-0.17891 c 7.06574,2.96099 7.26411,15.56271 0.34361,21.81776 -3.84727,3.47708 -10.65002,5.97031 -14.5651,5.33692 -9.18419,-1.48462 -5.51629,-16.39768 6.15036,-25.00438 3.69952,-2.72894 5.52729,-3.21594 8.07113,-2.1503 z m -77.435571,16.45105 c 1.50752,2.1432 1.50936,2.1503 1.64245,6.04384 0.21372,6.24153 -0.73853,6.06675 -3.80535,-0.69912 -0.22816,-0.50282 -0.79488,-1.73569 -1.259669,-2.7404 -2.268273,-4.90077 0.385989,-6.9205 3.422569,-2.60409 z m 97.955861,-1.15109 c 1.3529,1.93154 0.94401,3.20702 -4.04702,12.6157 -1.61656,3.0478 -3.21915,1.95559 -2.38922,-1.62848 1.95238,-8.43558 2.69985,-10.42736 4.19408,-11.17162 1.53547,-0.76441 1.57969,-0.76075 2.24216,0.1844 z m -49.72768,15.83096 c 2.08364,0.524337 4.55533,6.589717 3.40218,8.349447 -1.91253,2.91975 -10.10484,1.30594 -10.10484,-1.99041 0,-2.59081 3.82185,-7.340847 5.42329,-6.740447 0.27008,0.10079 0.84573,0.2726 1.27937,0.38164 z"
     id="path5"
     style="stroke-width:0.229072" />
</svg>
