<?xml version="1.0" encoding="UTF-8" standalone="no"?>
<!-- Generated by IcoMoon.io -->

<svg
   version="1.1"
   width="215"
   height="215"
   viewBox="0 0 215 215"
   id="svg15"
   sodipodi:docname="bladeborn-hrothgorn.svg"
   inkscape:version="1.2.1 (9c6d41e, 2022-07-14)"
   xmlns:inkscape="http://www.inkscape.org/namespaces/inkscape"
   xmlns:sodipodi="http://sodipodi.sourceforge.net/DTD/sodipodi-0.dtd"
   xmlns="http://www.w3.org/2000/svg"
   xmlns:svg="http://www.w3.org/2000/svg">
  <defs
     id="defs19" />
  <sodipodi:namedview
     id="namedview17"
     pagecolor="#ffffff"
     bordercolor="#000000"
     borderopacity="0.25"
     inkscape:showpageshadow="2"
     inkscape:pageopacity="0.0"
     inkscape:pagecheckerboard="0"
     inkscape:deskcolor="#d1d1d1"
     showgrid="false"
     inkscape:lockguides="true"
     inkscape:zoom="1.0029297"
     inkscape:cx="301.61636"
     inkscape:cy="512.99708"
     inkscape:window-width="2560"
     inkscape:window-height="1387"
     inkscape:window-x="0"
     inkscape:window-y="25"
     inkscape:window-maximized="1"
     inkscape:current-layer="svg15" />
  <title
     id="title2" />
  <g
     id="g359"
     transform="matrix(0.348712,0,0,0.348712,-68.447992,-73.221627)">
    <g
       id="icomoon-ignore" />
    <path
       fill="#ffffff"
       d="m 497.312,473.739 c 14.104,4.777 26.004,7.835 37.407,12.569 21.768,9.014 43.351,18.698 64.621,28.749 21.27,10.051 47.091,22.805 70.025,35.516 27.54,15.326 54.398,31.948 81.256,48.442 7.976,5.09 12.256,11.716 2.389,19.563 -2.204,1.848 -4.096,3.924 -6.128,5.944 -29.928,31.451 -29.56,30.954 -66.286,2.573 -11.317,-8.56 -24.07,-16.536 -37.493,-23.346 l -1.394,-0.626 c -42.995,-22.081 -86.53,-43.351 -129.74,-65.303 -3.924,-3.199 -9.014,-5.133 -14.516,-5.133 -4.366,0 -8.474,1.222 -11.943,3.34 l 0.086,-0.043 c -47.944,26.858 -96.398,52.863 -145.693,77.375 -15.142,7.663 -11.716,13.791 -2.886,20.914 22.934,18.028 46.593,35.019 69.896,52.549 12.256,9.198 24.156,18.698 36.056,28.209 23.972,19.563 35.375,20.73 60.028,5.459 9.868,-6.982 21.411,-14.332 33.342,-21.043 l 2.032,-1.038 c 12.938,-6.312 8.517,-13.251 1.535,-18.698 -9.825,-7.479 -20.914,-14.829 -32.489,-21.454 l -1.535,-0.811 c -10.862,-6.312 -22.621,-10.862 -34.024,-16.99 -29.431,-16.99 -26.545,-16.99 -2.032,-40.465 24.513,-23.475 43.848,-8.517 60.698,0.854 37.407,20.914 71.744,47.275 107.432,71.247 3.383,2.389 6.441,5.631 10.052,7.663 6.441,3.924 16.99,5.944 19.066,11.403 5.459,12.754 -5.459,21.086 -14.104,27.712 -42.854,32.489 -87.556,62.417 -128.52,96.886 -6.214,6.625 -15.056,10.776 -24.826,10.776 -9.37,0 -17.844,-3.783 -23.972,-9.911 v 0 C 420.217,777.323 365.831,736.544 311.077,696.251 300.301,686.113 288.143,677.228 274.935,670.019 l -0.897,-0.454 c -27.712,-9.868 -22.934,-31.095 -23.616,-52.009 -0.682,-20.914 13.435,-31.635 30.782,-40.109 58.309,-28.89 116.317,-58.807 174.626,-87.74 10.678,-4.906 24.469,-10.279 38.617,-14.958 l 3.07,-0.854 z"
       id="path5" />
    <path
       fill="#ffffff"
       d="m 256.713,435.663 c 3.383,-13.478 6.896,-24.469 10.948,-35.191 l -0.724,2.204 q 16.99,-40.293 35.019,-79.905 c 3.383,-6.625 7.792,-12.256 13.024,-16.947 l 0.043,-0.043 c 11.219,-10.365 23.119,-20.233 34.024,-30.413 2.161,13.294 3.61,28.89 3.924,44.702 v 0.356 c -0.043,1.664 -0.086,3.61 -0.086,5.588 0,31.678 6.712,61.779 18.839,89.005 l -0.54,-1.394 c 2.616,6.484 4.151,14.018 4.151,21.854 0,12.17 -3.653,23.475 -9.911,32.943 l 0.141,-0.227 c -9.1,12.17 -17.531,25.906 -24.654,40.465 l -0.681,1.535 c -6.81,19.195 -19.066,17.844 -39.114,7.479 -32.63,-16.309 -39.255,-45.556 -44.389,-81.925 z"
       id="path7" />
    <path
       fill="#ffffff"
       d="m 506.639,237.42 c -12.754,23.119 -6.982,51.014 -8.333,76.521 -0.497,4.691 -0.811,10.095 -0.811,15.541 0,22.351 4.82,43.621 13.435,62.773 l -0.411,-0.952 c 3.285,4.55 5.275,10.224 5.275,16.407 0,11.262 -6.582,21 -16.137,25.507 l -0.184,0.086 c -5.318,4.28 -10.095,8.56 -14.602,13.067 v 0 c -9.327,7.123 -24.469,21.411 -28.08,19.066 -19.692,-14.061 -36.996,-29.118 -52.721,-45.611 l -0.141,-0.141 c -2.389,-2.389 0,-10.721 1.707,-15.824 10.365,-37.039 18.525,-74.986 32.317,-110.674 13.251,-28.976 27.54,-53.759 43.848,-77.019 l -0.995,1.535 c 2.702,-4.421 12.754,-9.198 15.64,-7.295 2.886,1.903 7.295,10.721 10.052,16.99 0.313,1.664 0.497,3.61 0.497,5.545 0,1.578 -0.141,3.113 -0.313,4.636 v -0.184 z"
       id="path9" />
    <path
       fill="#ffffff"
       d="m 609.522,423.081 c -3.924,16.99 -6.81,34.024 -12.072,51.014 -1.437,6.81 -7.393,11.802 -14.461,11.802 -4.961,0 -9.327,-2.432 -11.986,-6.128 l -0.043,-0.043 c -21.768,-26.189 -38.261,-53.716 -26.858,-90.81 4.464,-17.66 8.603,-39.839 11.446,-62.374 l 0.313,-2.886 c 1.891,-13.607 4.906,-25.82 9.057,-37.536 l -0.411,1.308 c 4.237,-10.721 12.938,-29.431 16.99,-28.749 18.2,2.702 9.684,20.233 9.327,30.782 0,0.952 0,2.032 0,3.156 0,37.039 5.674,72.739 16.18,106.308 l -0.681,-2.53 c 1.664,7.792 2.8,16.99 3.199,26.318 v 0.356 z"
       id="path11" />
    <path
       fill="#ffffff"
       d="m 702.665,466.076 c -2.389,8.658 -5.631,23.475 -10.052,37.904 -3.242,10.052 -8.83,8.83 -16.99,1.038 -30.954,-27.54 -35.191,-62.049 -35.872,-102.029 1.167,-37.904 12.397,-72.954 31.095,-102.882 l -0.497,0.854 c 1.707,-3.383 6.312,-5.09 9.684,-7.663 1.848,4.593 4.096,8.83 5.631,13.435 0.184,1.265 0.27,2.745 0.27,4.237 0,1.492 -0.086,2.972 -0.27,4.421 v -0.184 c -0.54,7.123 -0.897,15.455 -0.897,23.843 0,37.039 6.214,72.641 17.715,105.768 l -0.681,-2.248 c 0.724,4.691 1.124,10.138 1.124,15.683 0,2.745 -0.086,5.459 -0.313,8.16 v -0.356 z"
       id="path13" />
  </g>
</svg>
