<?xml version="1.0" encoding="UTF-8" standalone="no"?>
<!-- Generated by IcoMoon.io -->

<svg
   version="1.1"
   width="215"
   height="215"
   viewBox="0 0 215 215"
   id="svg7"
   sodipodi:docname="bladeborn-ironskull.svg"
   inkscape:version="1.2.1 (9c6d41e, 2022-07-14)"
   xmlns:inkscape="http://www.inkscape.org/namespaces/inkscape"
   xmlns:sodipodi="http://sodipodi.sourceforge.net/DTD/sodipodi-0.dtd"
   xmlns="http://www.w3.org/2000/svg"
   xmlns:svg="http://www.w3.org/2000/svg">
  <defs
     id="defs11" />
  <sodipodi:namedview
     id="namedview9"
     pagecolor="#ffffff"
     bordercolor="#000000"
     borderopacity="0.25"
     inkscape:showpageshadow="2"
     inkscape:pageopacity="0.0"
     inkscape:pagecheckerboard="0"
     inkscape:deskcolor="#d1d1d1"
     showgrid="false"
     inkscape:zoom="1.0029297"
     inkscape:cx="301.61636"
     inkscape:cy="512.99708"
     inkscape:window-width="2560"
     inkscape:window-height="1387"
     inkscape:window-x="0"
     inkscape:window-y="25"
     inkscape:window-maximized="1"
     inkscape:current-layer="svg7" />
  <title
     id="title2" />
  <g
     id="icomoon-ignore"
     transform="matrix(0.27763589,0,0,0.27763589,85.765513,-1030.46)" />
  <path
     fill="#ffffff"
     d="m 74.570267,123.77551 c -1.51701,0 -3.56568,-0.66993 -4.75507,0 -8.92739,7.21798 -18.61188,-0.4295 -27.77636,1.517 -0.56749,0 -2.51733,-2.23774 -2.37601,-3.22307 1.18967,-6.78848 -6.27207,-8.68723 -7.87598,-13.9587 0,-0.61857 -4.32223,-0.80792 -6.11881,0 -3.89274,1.65499 -5.46082,0 -5.03132,-3.37633 0.56749,-4.755068 -2.37601,-7.875968 -4.51492,-11.630718 -2.65531,-4.75507 -5.65016,-2.99791 -8.78606,-1.65499 -1.56809,0.66994 -3.56568,3.13617 -4.08541,2.80551 -2.94683006,-1.84739 -0.42951,-3.84498 0,-5.92947 0.4295,-2.08449 0.4295,-3.79389 -0.37842,-4.41274 -5.55105,-4.32224 -1.89542006,-7.02891 1.27657,-10.11372 3.98324,-3.7939 7.73799,-7.92706 11.81979,-11.63073 1.61917,-1.46591 4.03433,-3.37633 5.89032,-3.18726 7.21798,0.76017 11.87088,-3.84498 16.37386,-7.73799 4.71592,-4.53879 9.0537,-9.36882 13.0214,-14.50258 l 0.22849,-0.30346 c 1.27657,-1.46592 2.61617,-2.94683 3.98325,-4.32224 0.66993,-0.98505 1.78103,-1.61917 3.03372,-1.61917 1.2527,0 2.37601,0.63079 3.03373,1.60724 l 0.0119,0.0119 c 2.70639,3.27416 4.75507,6.97783 7.87597,10.06264 8.52176,9.57011 17.25674,18.35951 26.43649,26.65304 l 0.29152,0.26431 c 3.13617,2.65531 7.647483,5.36199 3.27416,10.63346 -0.32733,0.4295 0.48059,2.23774 1.138583,3.03373 6.73739,7.64748 13.34013,15.38547 20.36904,22.745038 4.13316,4.27448 5.36198,4.08541 9.92465,0.32733 4.56267,-3.75808 10.25531,-8.407648 15.19612,-12.820388 3.52625,-3.40021 6.39812,-7.47368 8.40765,-12.01247 l 0.10217,-0.24044 c 1.84739,-3.84498 8.11613,-5.46082 12.11131,-8.49454 1.67026,-1.55615 2.95876,-3.50238 3.7156,-5.68932 l 0.0239,-0.10217 c 4.98023,-13.00946 11.34253,-25.58942 11.15013,-40.01705 -0.0869,-0.21655 -0.13798,-0.46865 -0.13798,-0.72102 0,-1.04835 0.84706,-1.89542 1.89542,-1.89542 0.89815,0 1.65498,0.63079 1.84739,1.47786 v 0.0119 c 7.78907,7.59972 16.52405,14.57755 18.99029,26.01892 0.85901,3.75475 1.0875,7.68663 2.27689,11.30339 0.73296,4.28642 3.22308,7.87598 6.67437,10.07791 l 0.063,0.0391 c 2.84466,1.46592 2.18666,4.98024 -0.70908,6.65049 -1.13858,0.42951 -2.61616,0.88622 -4.12123,1.26463 l -0.30345,0.063 c -9.78639,3.84498 -12.11131,11.15013 -6.68964,20.227438 1.79631,2.73055 3.22308,5.89032 4.12123,9.26665 l 0.0511,0.22849 c 1.18967,6.08301 0,6.97783 -6.97782,5.89033 -1.06362,-0.24043 -2.27689,-0.37842 -3.52625,-0.37842 -4.9683,0 -9.43213,2.15085 -12.505,5.57493 l -0.0119,0.0119 c -3.60482,4.17231 -5.79148,3.13617 -9.16781,0 -2.56508,-2.12364 -5.53912,-3.90801 -8.75025,-5.19651 l -0.2285,-0.075 c -5.98055,-2.89574 -6.93007,-2.376 -8.49455,4.17232 -1.23742,5.13348 -1.18967,5.0824 -4.7398,2.27689 -1.80824,-1.37874 -2.94682,-5.22067 -6.27207,-1.46592 -3.32524,3.75475 -4.17231,4.51492 0,9.11673 6.22099,6.97782 12.76931,13.76963 18.9903,20.83768 4.12122,3.95576 7.61166,8.54564 10.30306,13.61638 l 0.13799,0.29152 c 1.09944,3.7156 3.56568,6.72545 6.81568,8.50981 l 0.075,0.0392 c 4.2234,2.18666 3.60483,6.30789 2.65531,10.3933 -1.12664,4.08541 -4.8031,7.02891 -9.16781,7.02891 -0.11411,0 -0.2285,0 -0.3426,0 h 0.0119 c -3.79389,0.37842 -8.78606,-1.65499 -8.82521,-5.70126 0,-5.32283 -3.27416,-7.11913 -6.35897,-10.06263 -3.08481,-3.30137 -5.81536,-6.97782 -8.10419,-10.96079 l -0.14992,-0.29152 c -6.18184,-9.32967 -13.08443,-17.4222 -20.84963,-24.60436 l -0.0869,-0.075 c -2.376,-2.27689 -4.03432,-1.80824 -4.98023,1.37874 0,0.76017 -0.89815,1.32766 -1.18967,2.03674 -1.27657,2.17472 -3.58955,3.60482 -6.24486,3.60482 -0.96118,0 -1.88348,-0.18907 -2.73055,-0.53167 l 0.0511,0.0119 c -0.26431,-0.0511 -0.56748,-0.075 -0.87094,-0.075 -1.06362,0 -2.04868,0.35454 -2.84466,0.94924 l 0.0119,-0.0119 c -3.12396,2.46624 -5.91753,4.94441 -8.54563,7.58445 v 0 c -6.169903,6.27208 -12.493063,12.44198 -18.040783,18.9903 -3.46323,4.2234 -9.49515,6.083 -10.35415,13.14772 -0.37842,3.75475 -9.92465,4.7398 -13.47812,1.84739 -3.55346,-2.89241 -5.0824,-9.49514 -1.75715,-12.11131 5.27175,-4.08541 7.54864,-10.54322 14.25021,-13.81738 6.70158,-3.27416 11.01188,-9.97573 16.37386,-15.19612 3.65258,-3.60483 7.35957,-7.17023 10.822803,-10.96079 1.13858,-1.27657 2.70639,-3.98324 2.18666,-4.7398 -0.83513,-1.26463 -1.33959,-2.80551 -1.33959,-4.47577 0,-3.32524 1.98565,-6.19378 4.84224,-7.45841 l 0.0511,-0.0239 c 4.46383,-2.84466 2.46624,-3.7939 0.37842,-6.30789 -4.75507,-5.70125 -9.065653,-11.63072 -13.580563,-17.473288 -10.54323,-1.75716 -16.04319,-10.54323 -23.7301,-16.56321 -3.51431,-2.84465 -7.35957,0 -9.49514,2.32493 -1.84739,1.9465 -2.98265,4.60181 -2.98265,7.50949 0,0.61858 0.0511,1.22549 0.14993,1.82018 l -0.0119,-0.063 c 3.02179,5.96862 6.35897,11.102378 10.15287,15.842178 l -0.13799,-0.17713 c 4.09735,5.05853 10.03876,8.48261 16.79142,9.24278 l 0.11411,0.0119 c 1.9465,0.42951 2.99791,1.23743 1.56808,2.94683 -1.88348,3.16005 -5.28368,5.25981 -9.17975,5.25981 -0.58276,0 -1.15052,-0.0511 -1.70607,-0.13798 l 0.063,0.0119 z m 102.787463,54.40525 c -1.85932,0.76017 -3.42741,1.52894 -4.91721,2.41516 l 0.1652,-0.0869 c -0.76017,0.51973 -1.65499,2.08449 -1.37874,2.61616 0.59469,1.42982 1.68219,2.5412 3.04566,3.16005 l 0.0392,0.0119 c 0.14992,0.0239 0.32733,0.0239 0.50447,0.0239 1.32765,0 2.50205,-0.5947 3.28609,-1.54421 v -0.0119 c 0.7449,-1.54421 1.21355,-3.33719 1.27657,-5.24788 v -0.0239 c -0.10217,-0.32734 -1.18967,-0.80792 -2.03673,-1.32766 z M 67.538027,188.77535 c 1.01226,-1.44177 1.93456,-3.07288 2.67918,-4.8031 l 0.063,-0.17713 c 0.29151,-1.56809 -4.17232,-5.60214 -5.13349,-4.7398 -0.73296,0.7721 -1.18967,1.80824 -1.18967,2.94682 0,0.21656 0.0119,0.42951 0.0511,0.63079 v -0.0239 c 1.0875,2.36407 2.28883,4.38887 3.67979,6.27208 l -0.063,-0.10217 z"
     id="path5"
     style="stroke-width:0.277636" />
</svg>
