<?xml version="1.0" encoding="UTF-8" standalone="no"?>
<!-- Generated by IcoMoon.io -->

<svg
   version="1.1"
   width="215"
   height="215"
   viewBox="0 0 215 215"
   id="svg7"
   sodipodi:docname="bladeborn-magore.svg"
   inkscape:version="1.2.1 (9c6d41e, 2022-07-14)"
   xmlns:inkscape="http://www.inkscape.org/namespaces/inkscape"
   xmlns:sodipodi="http://sodipodi.sourceforge.net/DTD/sodipodi-0.dtd"
   xmlns="http://www.w3.org/2000/svg"
   xmlns:svg="http://www.w3.org/2000/svg">
  <defs
     id="defs11" />
  <sodipodi:namedview
     id="namedview9"
     pagecolor="#ffffff"
     bordercolor="#000000"
     borderopacity="0.25"
     inkscape:showpageshadow="2"
     inkscape:pageopacity="0.0"
     inkscape:pagecheckerboard="0"
     inkscape:deskcolor="#d1d1d1"
     showgrid="false"
     inkscape:zoom="1.0029297"
     inkscape:cx="301.61636"
     inkscape:cy="512.99708"
     inkscape:window-width="2560"
     inkscape:window-height="1387"
     inkscape:window-x="0"
     inkscape:window-y="25"
     inkscape:window-maximized="1"
     inkscape:current-layer="svg7" />
  <title
     id="title2" />
  <g
     id="icomoon-ignore"
     transform="matrix(0.34663194,0,0,0.34663194,189.46628,-1082.2186)" />
  <path
     fill="#ffffff"
     d="m 131.94643,146.47446 c 0,-9.44607 0.45235,-18.87757 -0.28459,-28.26159 0,-3.55957 -3.49751,-6.89313 -5.37591,-10.34697 -2.43266,3.22784 -6.60854,6.21858 -6.95136,9.61003 -1.63749,16.66745 -2.14807,33.51723 -3.22783,50.24638 -0.0291,0.37575 -0.0437,0.82429 -0.0437,1.27664 0,4.4459 1.74356,8.46857 4.58074,11.45931 v 0 c 5.6456,6.50281 5.09133,9.48974 0.61631,16.0546 -4.47501,6.56486 -7.17736,11.92241 -11.3099,17.75068 -0.70748,0.45235 -1.56089,0.73659 -2.49471,0.73659 -0.56883,0 -1.11235,-0.10572 -1.60838,-0.28458 l 0.0291,0.0145 c -5.14956,-8.75696 -10.18301,-17.58637 -14.86566,-26.6241 -0.51058,-0.96295 0.84267,-3.33356 1.86384,-4.63898 3.21294,-4.43134 5.14957,-9.97121 5.14957,-15.96344 0,-0.90089 -0.0437,-1.80179 -0.13484,-2.68778 l 0.0146,0.10572 c 0,-10.79932 0.34663,-21.65687 0,-32.45203 -0.46692,-7.50943 -1.68117,-14.50828 -3.55957,-21.23363 l 0.16396,0.70747 c -1.23262,-2.29782 -3.55956,-3.87326 -6.24769,-4.07015 h -0.0291 c -2.61118,0.72204 -4.67191,2.59662 -5.63104,5.02928 l -0.0146,0.0582 c -0.40486,1.90751 -0.64542,4.09927 -0.64542,6.35342 0,1.23262 0.0766,2.44722 0.21144,3.63235 l -0.0146,-0.1494 c 0,16.44492 0,32.90439 0,49.34583 -0.226,1.47354 -0.64543,2.80842 -1.23262,4.04104 l 0.0291,-0.0912 c -1.57545,-0.67454 -3.72387,-0.96294 -4.63898,-2.14807 -5.19705,-6.89313 -9.83637,-12.60077 -7.40371,-23.51655 3.04897,-13.90653 0.84266,-28.99854 0.79517,-43.57961 0.0146,-0.16396 0.0146,-0.37575 0.0146,-0.56882 0,-1.74356 -0.58719,-3.34812 -1.56088,-4.63898 l 0.0146,0.0146 C 65.91478,99.930378 63.39476,98.350778 60.7361,97.030798 l -0.27003,-0.12028 c -1.24753,2.37443 -3.39561,4.686462 -3.45384,7.119132 -0.39031,10.79932 0,21.65687 0,32.45203 0,3.78591 0,7.52399 0,11.3099 0,3.78592 -1.80179,4.00811 -4.51869,2.04236 -0.7366,-0.56882 -1.35326,-1.30576 -2.08603,-1.92208 -5.02929,-4.12838 -12.04269,-7.34166 -14.47535,-12.72139 -2.43267,-5.37973 0.45235,-12.33108 0.28458,-18.65157 -0.34663,-10.22668 -1.41149,-20.467582 -1.69572,-30.694262 0.25546,-2.05691 1.47353,-3.78591 3.18381,-4.73048 l 0.0291,-0.0146 c 3.319,-1.21807 7.37459,-2.35606 11.54665,-3.18382 l 0.55427,-0.0912 c 6.90768,-1.90752 12.60076,-6.27681 16.15686,-12.09018 l 0.0766,-0.12028 c 1.69572,-2.65866 1.07941,-6.11251 -2.82297,-6.05046 -8.19889,0 -16.95551,-2.76473 -24.25349,3.78592 -2.76474,2.49471 -5.19706,0.3903 -5.6456,-3.10721 0,-2.37443 0,-4.74505 0,-7.07164 0,-4.5187 -2.49471,-10.79932 -0.34663,-13.16994 4.2965,-4.92737 7.75034,2.20632 11.86417,3.55957 14.35507,4.58074 33.92556,-0.67455 40.98299,-11.30991 3.6178,-5.14956 3.33356,-8.58884 -1.92208,-11.30991 -3.81503,-2.02779 -8.27549,-3.42472 -13.00563,-3.94987 l -0.16395,-0.0146 c -2.94326,-0.17851 -6.3971,-0.27002 -9.8655,-0.27002 -3.46839,0 -6.92223,0.10572 -10.3324,0.29914 l 0.46691,-0.0146 c -0.73659,-0.13484 -1.59,-0.21144 -2.46178,-0.21144 -3.96443,0 -7.55311,1.62293 -10.14973,4.2199 v 0 c -3.04897,3.3956 -7.11912,1.1269 -7.68829,-3.55957 -0.12028,-1.48809 -0.19689,-3.19837 -0.19689,-4.94191 0,-1.7436 0.0766,-3.4684005 0.21145,-5.1641005 l -0.0146,0.226 c 0,-6.5028 0,-6.2769 7.17736,-4.1905 2.7169,0.7221 5.84283,1.1415 9.07032,1.1415 0.21144,0 0.41942,0 0.63087,0 h -0.0291 c 8.93548,0 17.87096,0 26.79187,0 2.82298,0 6.66678,0.7366 8.19889,-0.7366 7.34166,-7.0134 11.86417,-2.7169 17.36037,2.5966 7.52399,7.2980005 8.36284,7.2397705 15.54401,-0.3903 5.09133,-5.64559997 9.61003,-8.1989 16.95551,-3.6178 2.46178,1.3349 5.37591,2.119 8.48312,2.119 0.3137,0 0.63087,-0.015 0.94457,-0.029 h -0.0437 c 12.65934,0 25.31834,0 37.99224,-0.7952 3.04898,0 4.35474,0 4.58074,3.049 0.0582,0.8426 0.0912,1.8309 0.0912,2.8229 0,0.9921005 -0.0291,1.9842005 -0.0912,2.9578005 v -0.1348 c 0,3.67986 -0.73659,7.34168 -1.1269,11.02152 -2.7318,-1.48809 -5.93018,-2.86664 -9.26755,-3.94987 l -0.40486,-0.12028 c -14.19112,-3.55956 -28.2616,-4.97105 -42.28841,1.57544 -5.64559,2.59662 -5.99222,6.50282 -2.37443,11.30991 4.60986,7.2252 12.5824,11.93697 21.65687,11.93697 0.33208,0 0.67455,0 1.00662,-0.0146 h -0.0437 c 9.26755,-0.45236 18.77185,1.24752 27.24041,-4.5187 2.04236,-1.35325 4.5187,-1.30576 3.96443,2.65867 -0.51058,3.24239 -0.90089,7.14824 -1.06485,11.09811 v 0.21145 c -0.39031,9.83637 0,9.32579 -10.22668,7.07164 -3.45384,-0.68911 -7.43283,-1.09779 -11.51754,-1.09779 -2.3415,0 -4.63898,0.13484 -6.90768,0.39031 l 0.28458,-0.0291 c -5.14956,0.3903 -5.64559,4.63897 -2.43266,8.99371 5.31768,6.7874 13.11135,8.75696 20.57365,11.3099 9.55179,3.22784 8.58884,2.94326 8.07825,12.14876 -0.16395,3.04898 -0.27002,6.6231 -0.27002,10.212122 0,8.68036 0.56882,17.22553 1.68116,25.60293 l -0.10572,-0.99206 c 0.90089,6.66677 0.28458,10.73727 -6.05046,13.45417 -2.53839,1.51721 -4.74505,3.09265 -6.7874,4.85077 l 0.0582,-0.0582 c -2.82297,1.92207 -5.64559,3.72386 -8.65089,5.64559 -0.72204,-3.22783 -1.18514,-6.98429 -1.29121,-10.82843 v -0.0766 c 0.56883,-8.75696 2.04236,-17.52432 2.49471,-26.33952 0,0 0,-0.0146 0,-0.0146 0,-3.85871 -0.82429,-7.52399 -2.32694,-10.82843 l 0.0582,0.16395 c -1.41149,-2.43266 -3.09265,-4.504132 -5.01473,-6.320482 l -0.0145,-0.0146 c -2.88502,2.20631 -5.41959,4.595302 -7.6883,7.225192 l -0.0582,0.0582 c -1.18514,1.63749 -0.56883,4.51869 -0.56883,6.89312 0,11.30991 -0.34663,22.616 0,33.92556 0.13484,4.2965 1.30576,8.29005 3.28989,11.77301 l -0.0582,-0.12028 c 0.93002,1.07941 1.48809,2.49471 1.48809,4.04103 0,1.86384 -0.80973,3.53045 -2.10059,4.65354 v 0 c -4.41678,4.63897 -8.65089,9.38402 -13.00563,14.13287 -0.73659,-6.66677 -1.63749,-13.29021 -2.14808,-19.95698 -0.28458,-4.19044 0,-8.42489 0,-12.65935 z"
     id="path5"
     style="stroke-width:0.346632" />
</svg>
