<?xml version="1.0" encoding="UTF-8" standalone="no"?>
<!-- Generated by IcoMoon.io -->

<svg
   version="1.1"
   width="215"
   height="215"
   viewBox="0 0 215 215"
   id="svg7"
   sodipodi:docname="bladeborn-morgwaeth.svg"
   inkscape:version="1.2.1 (9c6d41e, 2022-07-14)"
   xmlns:inkscape="http://www.inkscape.org/namespaces/inkscape"
   xmlns:sodipodi="http://sodipodi.sourceforge.net/DTD/sodipodi-0.dtd"
   xmlns="http://www.w3.org/2000/svg"
   xmlns:svg="http://www.w3.org/2000/svg">
  <defs
     id="defs11" />
  <sodipodi:namedview
     id="namedview9"
     pagecolor="#ffffff"
     bordercolor="#000000"
     borderopacity="0.25"
     inkscape:showpageshadow="2"
     inkscape:pageopacity="0.0"
     inkscape:pagecheckerboard="0"
     inkscape:deskcolor="#d1d1d1"
     showgrid="false"
     inkscape:zoom="1.0029297"
     inkscape:cx="301.61636"
     inkscape:cy="512.99708"
     inkscape:window-width="2560"
     inkscape:window-height="1387"
     inkscape:window-x="0"
     inkscape:window-y="25"
     inkscape:window-maximized="1"
     inkscape:current-layer="svg7" />
  <title
     id="title2" />
  <g
     id="icomoon-ignore"
     transform="matrix(0.3079966,0,0,0.3079966,216.44042,-1015.7342)" />
  <path
     fill="#ffffff"
     d="m 128.1662,159.87656 c 1.42233,6.34565 3.54689,14.21496 4.85372,22.2506 0,0.15677 0,0.33725 0,0.52174 0,3.12647 -0.54947,6.13745 -1.54707,8.92235 l 0.0554,-0.18449 c 0,0.68807 -1.16854,1.26556 -1.80116,1.84275 l -22.19512,21.77043 c -8.192709,-7.82342 -16.593319,-15.48022 -24.458319,-23.5716 -1.74572,-1.84274 -3.37595,-6.8674 -2.47537,-7.82342 7.40301,-7.55546 3.85612,-16.69033 4.39173,-25.09094 0.5356,-8.40061 0,-15.84519 0,-23.72837 0,-4.54449 0.32339,-8.76558 -6.34566,-9.09329 -1.47776,0 -3.22349,-4.00888 -4.06863,-6.44698 -0.63263,-4.13794 -1.69029,-7.85114 -3.12648,-11.37 l 0.11088,0.32339 c -1.84274,-2.6463 -6.77038,-5.92524 -8.76558,-5.27844 -8.03563,3.22349 -7.82342,-1.16854 -9.87837,-6.867398 -4.00889,-11.47164 -1.321,-22.29218 0.48016,-33.3391 1.21012,-7.65679 3.7591,-8.88077 9.72592,-3.33437 2.16614,2.39221 5.27844,3.8977 8.75172,3.8977 2.99712,0 5.72658,-1.11279 7.7957,-2.95553 l -0.0139,0.0139 c 3.50531,-2.50309 5.76816,-6.57173 5.76816,-11.16211 0,-1.8566 -0.36497,-3.63005 -1.03918,-5.25073 l 0.0277,0.0832 c -1.77344,-4.09635 -4.71512,-7.403 -8.41446,-9.56914 l -0.097,-0.0554 c -5.27845,-2.95554 -3.49145,-3.33437 0,-6.55787 6.8674,-6.23446 12.31247,-14.09946 18.97166,-20.6573304 9.402519,-9.40252 14.367429,-9.30119 23.363389,-1.16854 8.99597,8.1326504 15.8452,15.8452004 23.67293,23.9365804 0.36498,0.36497 -0.68806,3.16805 -1.53321,3.4357 -5.8698,1.74572 -10.57106,5.27844 -10.57106,11.35614 0,0.22607 -0.0139,0.48017 -0.0139,0.74812 0,5.45894 1.77345,10.49745 4.7567,14.5935 l -0.0416,-0.0693 c 2.16614,2.09684 5.12168,3.37595 8.38675,3.37595 2.71561,0 5.20484,-0.88672 7.23238,-2.39221 l -0.0277,0.0277 c 9.78135,-5.27845 10.57106,-5.27845 12.6217,5.27845 0.91444,3.98116 1.45005,8.57123 1.45005,13.2728 0,7.7264 -1.42233,15.11555 -4.02706,21.927198 l 0.1386,-0.42041 c -0.95602,2.43379 -1.84274,6.81196 -6.97828,2.53512 -5.13553,-4.276838 -11.14393,0.57718 -12.25672,5.27844 -1.47777,8.35903 -4.37787,15.81748 -8.45605,22.47667 l 0.15677,-0.28182 c -4.54449,6.97828 -3.12647,17.76155 -4.59993,28.79461 z m -5.96651,-66.257768 c 14.42287,0 23.51616,-4.70126 23.5716,-10.88029 0,-4.22109 -7.92475,-14.31198 -11.25913,-14.36742 -5.65728,0 -16.16859,12.10426 -15.53565,18.81489 0.6742,2.47537 1.7873,4.63196 3.25121,6.48857 l -0.0277,-0.0416 z m -35.874519,0 10.57106,-3.9673 c -1.43619,-4.00889 -2.91395,-7.33371 -4.59993,-10.53903 l 0.21221,0.45244 c -1.74572,-2.79876 -4.91378,-4.75669 -6.38723,-7.61521 -2.43379,-4.70126 -4.7567,-2.95554 -8.34517,-1.58865 -7.34757,2.68789 -7.34757,8.55738 -5.92524,13.94701 1.58865,6.65488 7.19049,9.14873 14.48262,9.14873 z m 3.43601,61.288548 h 0.26796 c 0,8.28973 0,16.59332 0,24.93848 0,1.321 2.01337,2.53512 3.06672,3.85612 1.08507,-1.02532 2.06881,-2.12456 2.9694,-3.32051 l 0.0416,-0.0693 c 0.98374,-1.29328 1.66256,-2.87237 1.89818,-4.59993 v -0.0554 q -0.9976,-22.77234 -2.53512,-45.38792 c -0.46631,-1.99951 -1.19626,-3.75909 -2.15228,-5.36191 l 0.0416,0.0832 c -1.21012,2.1107 -3.4357,4.17951 -3.58847,6.34565 -0.26796,7.71255 0,15.53566 0,23.5716 z m 15.845199,4.86789 v 0 c 0,9.19031 0,18.39448 0,27.58448 0.37883,2.50309 1.01146,4.77056 1.91204,6.89512 l -0.0693,-0.18449 c 1.321,-1.95794 3.80068,-3.91156 3.85612,-5.92524 0.26795,-19.70131 0,-39.36135 0,-59.08083 0,-1.58865 -1.95794,-3.12647 -3.01098,-4.64582 -0.90058,1.69028 -2.53512,3.4357 -2.59087,5.27844 -0.26795,9.78136 -0.11087,19.91383 -0.11087,29.9074 z m 18.97166,-4.11977 c 0,-9.19031 0,-18.43606 0,-27.64023 0,-1.26555 -1.74572,-2.43379 -2.68788,-3.58847 -0.95603,1.21012 -2.64631,2.43379 -2.68789,3.64391 0,17.59092 0,35.14026 0,52.84637 0,1.21012 1.74572,2.37835 2.68789,3.58846 0.95602,-1.21011 2.6463,-2.43378 2.68788,-3.69934 0.11088,-8.55738 0,-16.95829 0,-25.30315 z m -4.02705,-42.27961 c -3.98117,-5.92524 -8.09107,-11.10236 -12.59398,-15.932668 l 0.0693,0.0693 c -1.80116,-1.69028 -13.046419,9.245748 -12.524679,12.580118 0,1.74573 2.1107,4.43361 3.49145,4.59993 5.010799,0.57719 10.820539,0.90058 16.704199,0.90058 0.17063,0 0.32339,0 0.49402,0 h -0.0277 c 0.99761,0.21221 2.01338,-0.84514 4.39173,-2.16614 z"
     id="path5"
     style="stroke-width:0.307997" />
</svg>
