<?xml version="1.0" encoding="UTF-8" standalone="no"?>
<!-- Generated by IcoMoon.io -->

<svg
   version="1.1"
   width="215"
   height="215"
   viewBox="0 0 215 215"
   id="svg7"
   sodipodi:docname="bladeborn-myari.svg"
   inkscape:version="1.2.1 (9c6d41e, 2022-07-14)"
   xmlns:inkscape="http://www.inkscape.org/namespaces/inkscape"
   xmlns:sodipodi="http://sodipodi.sourceforge.net/DTD/sodipodi-0.dtd"
   xmlns="http://www.w3.org/2000/svg"
   xmlns:svg="http://www.w3.org/2000/svg">
  <defs
     id="defs11" />
  <sodipodi:namedview
     id="namedview9"
     pagecolor="#ffffff"
     bordercolor="#000000"
     borderopacity="0.25"
     inkscape:showpageshadow="2"
     inkscape:pageopacity="0.0"
     inkscape:pagecheckerboard="0"
     inkscape:deskcolor="#d1d1d1"
     showgrid="false"
     inkscape:zoom="1.0029297"
     inkscape:cx="301.61636"
     inkscape:cy="512.99708"
     inkscape:window-width="2560"
     inkscape:window-height="1387"
     inkscape:window-x="0"
     inkscape:window-y="25"
     inkscape:window-maximized="1"
     inkscape:current-layer="svg7" />
  <title
     id="title2" />
  <g
     id="icomoon-ignore"
     transform="matrix(0.33109019,0,0,0.33109019,157.73428,-1061.0826)" />
  <path
     fill="#ffffff"
     d="m 105.9675,201.74385 c 10.24989,-1.31576 20.48058,-2.46232 30.66756,-4.0052 3.47778,-0.542 6.58837,-1.64916 9.41786,-3.22118 l -0.13541,0.0772 c 10.41444,-5.7272 10.76275,-13.27308 0,-18.03283 -8.94871,-3.79264 -19.34858,-6.00267 -30.27588,-6.00267 -9.38873,0 -18.41027,1.63029 -26.76897,4.62434 l 0.56086,-0.16455 c -2.04117,0.95288 -3.50691,2.85863 -3.82608,5.10806 v 0.0291 c 0,1.48031 2.81063,3.84065 4.63891,4.12605 13.04561,2.11401 26.27068,5.7272 38.96799,-2.17659 1.722,-1.02571 4.92894,0 7.43496,0.45459 -0.60457,2.43318 -1.4803,4.56607 -2.58317,6.54466 l 0.0772,-0.13542 c -1.20914,1.40747 -2.8732,2.38948 -4.76008,2.73746 l -0.0437,0.0146 c -18.65196,3.65689 -37.42511,6.18178 -54.76165,-4.45979 -8.69211,-5.32095 -8.42128,-12.47018 1.02571,-17.17166 7.17837,-4.32437 15.59965,-7.40583 24.59206,-8.70668 l 0.36287,-0.0437 c 21.63145,-1.60116 43.72808,-2.75236 62.95548,10.53529 3.71947,2.14745 6.86383,4.80809 9.44699,7.95212 l 0.0437,0.0583 c 3.88435,5.7272 2.97948,10.18699 -3.42976,15.05335 -13.65019,10.18698 -30.32389,17.09452 -48.44413,19.2423 l -0.48372,0.0437 c -19.05854,2.68945 -37.48769,-2.17658 -55.9708,-6.06093 -2.05574,-0.45459 -3.61318,-3.03776 -5.72719,-4.0052 -10.02244,-4.68692 -21.79633,-10.12871 -20.99344,-22.08173 0.92374,-13.10389 11.73019,-21.97975 23.51833,-27.46526 7.88955,-3.71946 16.82368,-5.21434 25.12378,-8.23785 4.51806,-1.60115 10.69985,-3.20231 12.47019,-6.69465 3.14403,-5.72719 -2.2832,-10.29359 -7.09096,-13.74222 -1.89119,-1.31576 -3.94693,-2.5249 -5.7272,-3.77807 -4.97264,-3.14404 -12.18445,-10.02244 -14.41964,-8.70668 -5.88182,4.5952 -10.76275,10.14328 -14.49678,16.44624 l -0.14999,0.27116 c -0.51286,0.95288 -0.81746,2.08488 -0.81746,3.29435 0,1.20947 0.3046,2.34147 0.83203,3.32348 l -0.0146,-0.0291 c 8.69211,9.78073 1.08829,8.93413 -5.7272,8.93413 -7.43496,0 -14.87422,0.45459 -22.26548,0 -9.04042,-0.6337 -9.50957,-1.31575 -3.77807,-8.70667 7.21181,-9.32615 15.38708,-17.91198 22.88462,-26.9524 2.85863,-3.42976 5.09349,-7.43496 7.61839,-11.154425 -5.4418,-3.42976 -12.07817,-10.69984 -16.0208,-9.50957 -11.44446,3.55061 -9.26787,-3.26521 -8.97784,-8.93414 0.542,-5.66893 1.37403,-10.73361 2.51033,-15.69136 l -0.14998,0.81747 c 4.68691,2.63117 9.50957,5.03521 13.96505,7.95212 6.28839,4.06777 12.3639,11.89475 18.36656,11.44446 6.00267,-0.45028 10.64157,-8.81329 15.7354,-13.90678 5.04978,-4.70148 9.68869,-9.64499 13.98392,-14.90336 l 0.21256,-0.27116 c 1.45117,-1.89119 2.31234,-4.29093 2.31234,-6.90754 0,-1.02572 -0.13542,-2.0266 -0.39202,-2.96061 l 0.0146,0.0771 c -1.82861,-1.58659 -4.24722,-2.55403 -6.8784,-2.55403 -0.93831,0 -1.82861,0.12085 -2.68944,0.3483 l 0.0771,-0.0146 c -7.09096,2.17658 -13.74223,5.72719 -20.664,8.58583 -0.51286,0.10628 -1.10286,0.16455 -1.722,0.16455 -0.61914,0 -1.19457,-0.0583 -1.77034,-0.17912 l 0.0583,0.0146 c 0.45459,-0.8029 0.8029,-1.94946 1.54288,-2.40405 7.22638,-5.01635 15.52251,-9.93072 24.18548,-14.24052 l 1.16544,-0.52743 c 5.7272,-2.34147 10.18698,-4.3535 7.95212,-10.64157 -2.23486,-6.28806 -7.95212,-5.72719 -13.39392,-4.00519 -22.88462,6.40924 -45.78381,13.22506 -61.86718,32.90705 -1.64916,1.4366 -3.52148,2.64574 -5.57722,3.55061 l -0.13541,0.0583 c -0.51286,-1.82861 -0.93831,-4.01976 -1.18001,-6.27382 l -0.0146,-0.198 c -0.16455,-1.93489 -0.25659,-4.16975 -0.25659,-6.43838 0,-2.26863 0.0917,-4.50349 0.27116,-6.72808 l -0.0146,0.28573 c 0.14999,-2.3269 1.30119,-4.36807 3.02319,-5.71263 l 0.0146,-0.0146 c 12.93933,-6.46751 26.33326,-11.95732 39.02626,-18.87942 39.43715,-21.4626002 76.79968,-15.0534002 113.4262,7.14923 7.09096,4.29093 14.83052,7.49754 22.14431,11.44446 1.70743,1.20914 3.14403,2.68945 4.24722,4.39721 l 0.0437,0.0583 c 0.45459,0.63371 0,1.82861 0,2.81063 -0.3483,6.40924 -0.68171,12.81848 -1.08829,19.22773 -4.3535,-4.0052 -8.52325,-8.30043 -13.04561,-12.07817 -14.81165,-12.63473 -33.46362,-21.17686 -53.97764,-23.70209 l -0.49829,-0.0437 c -3.84064,-0.45459 -10.9273,-3.03775 -10.9273,4.68691 0,6.69465 6.34667,4.45979 9.95986,4.29093 0.37744,-0.0146 0.81746,-0.0146 1.25317,-0.0146 11.51731,0 21.82547,5.17064 28.75187,13.30221 l 0.0437,0.0583 c 8.17925,8.6441 7.33298,18.48741 -1.60115,26.72527 -3.94693,4.09691 -7.69553,8.45041 -11.18357,13.03104 l -0.27116,0.36288 c 8.23785,3.61318 11.44446,-4.80809 16.88196,-7.55581 5.43749,-2.74772 8.17925,-7.88955 12.53275,-11.44446 1.37403,-1.14657 3.94693,-0.8029 6.01724,-1.14657 1.08829,5.41266 1.94946,11.90931 2.37491,18.54569 l 0.0291,0.45458 c 0,1.4366 -4.45978,3.03775 -6.9221,4.45979 -5.7272,3.2023 -11.44446,6.12351 -16.6588,9.67412 -0.73999,0.51286 -0.39201,4.459785 0.68171,5.727195 5.7272,6.98468 11.44447,13.67932 17.17166,20.54315 4.51806,5.37922 8.93414,10.9273 13.4522,16.31083 2.97948,3.55061 1.4803,4.80809 -2.40405,4.86636 h -30.04842 c -3.88435,0 -6.53009,-0.45458 -3.77807,-5.7272 1.42203,-2.20572 2.26863,-4.88093 2.26863,-7.7687 0,-1.16543 -0.13542,-2.28319 -0.39201,-3.37149 l 0.0146,0.10628 c -4.09691,-6.06093 -8.50869,-11.36732 -13.37936,-16.18964 l -0.0146,-0.0146 c -0.28574,-0.34831 -1.77034,0 -2.34147,0.3483 -8.76529,6.06094 -16.35454,12.00103 -23.59548,18.33313 l 0.30461,-0.25659 c -2.46232,2.28319 -2.01204,7.78326 -2.68945,11.85104 -0.28573,1.89118 0.51286,4.12604 0,5.7272 -0.51286,1.60115 -2.91691,4.92894 -4.86636,5.32095 -7.33299,1.4803 -14.83053,2.28319 -22.26549,3.14403 -11.98646,2.29776 -22.22178,8.57126 -29.52099,17.36568 l -0.0583,0.0917 c -5.7272,6.06094 -3.88435,12.42648 4.6389,17.17166 10.83989,6.5738 23.92921,10.45815 37.9234,10.45815 1.6783,0 3.34236,-0.0583 5.00178,-0.16455 l -0.22713,0.0146 z M 130.98534,97.750075 109.00559,71.658845 c 0,0 -0.92374,0 -1.37403,0 -5.72719,0 -25.34694,26.78354 -21.97975,30.217605 5.96923,6.16722 12.9102,11.36732 20.55772,15.35795 l 0.44002,0.21256 c 5.03522,2.34147 23.46006,-11.73019 24.32122,-19.681985 z m -4.97264,-56.24195 c -3.20231,1.31575 -8.42128,2.01203 -9.09869,4.12604 -0.0437,0.44002 -0.0772,0.93831 -0.0772,1.45117 0,3.30891 1.132,6.34667 3.02319,8.76528 l -0.0291,-0.0291 c 2.59774,4.36808 6.06094,7.9667 10.17242,10.62701 l 0.12085,0.0771 c 1.85774,0.8466 4.01976,1.33032 6.28839,1.33032 2.26863,0 4.44522,-0.48372 6.39468,-1.37402 l -0.0917,0.0437 c 2.53946,-1.4803 4.21775,-4.18862 4.21775,-7.29954 0,-1.81405 -0.57543,-3.49234 -1.54288,-4.86637 l 0.0146,0.0291 c -4.41178,-7.21181 -9.32615,-13.33135 -19.39228,-12.87676 z"
     id="path5"
     style="stroke-width:0.33109" />
</svg>
