<?xml version="1.0" encoding="UTF-8" standalone="no"?>
<!-- Generated by IcoMoon.io -->

<svg
   version="1.1"
   width="215"
   height="215"
   viewBox="0 0 215 215"
   id="svg7"
   sodipodi:docname="bladeborn-rippa.svg"
   inkscape:version="1.2.1 (9c6d41e, 2022-07-14)"
   xmlns:inkscape="http://www.inkscape.org/namespaces/inkscape"
   xmlns:sodipodi="http://sodipodi.sourceforge.net/DTD/sodipodi-0.dtd"
   xmlns="http://www.w3.org/2000/svg"
   xmlns:svg="http://www.w3.org/2000/svg">
  <defs
     id="defs11" />
  <sodipodi:namedview
     id="namedview9"
     pagecolor="#ffffff"
     bordercolor="#000000"
     borderopacity="0.25"
     inkscape:showpageshadow="2"
     inkscape:pageopacity="0.0"
     inkscape:pagecheckerboard="0"
     inkscape:deskcolor="#d1d1d1"
     showgrid="false"
     inkscape:zoom="1.0029297"
     inkscape:cx="300.61928"
     inkscape:cy="512"
     inkscape:window-width="1390"
     inkscape:window-height="1205"
     inkscape:window-x="0"
     inkscape:window-y="25"
     inkscape:window-maximized="0"
     inkscape:current-layer="svg7" />
  <title
     id="title2" />
  <g
     id="icomoon-ignore"
     transform="matrix(0.28056695,0,0,0.28056695,85.033022,-970.04108)" />
  <path
     fill="#ffffff"
     d="m 90.896401,17.976408 c 0,5.97215 0.96038,9.13919 0,10.88628 -6.4017,9.31651 0.71993,15.65508 4.89786,22.23325 2.20918,3.52112 7.058499,8.4835 9.684889,7.95576 5.44131,-1.07401 2.68979,-7.41258 2.62386,-11.30012 -0.0469,-0.62314 -0.0968,-1.36075 -0.0968,-2.09752 0,-7.04167 2.89742,-13.4139 7.55567,-17.97536 v 0 c 5.61863,-5.44132 9.02977,-11.17358 4.96099,-19.4329096 -0.83441,-1.68031 0.96038,-5.61863 2.75432,-7.23582 0.60743,-0.19359002 1.29706,-0.30357002 2.01756,-0.30357002 1.71398,0 3.26383,0.63997002 4.45147,1.69715002 v 0 c 3.23466,4.96098 10.9337,5.1383 11.95721,11.9571996 1.0235,6.8189 -4.30502,9.44444 -7.52228,13.68802 -4.83501,5.45815 -7.79612,12.67714 -7.79612,20.58688 0,4.94583 1.15397,9.63607 3.21754,13.78313 l -0.08,-0.17676 c 0.4172,0.89726 0.78306,1.85764 1.13714,2.75433 1.13714,-0.78306 2.62386,-1.37758 3.23466,-2.38398 1.45754,-2.56073 2.91481,-5.63547 4.17792,-8.80391 l 0.19359,-0.52718 c 1.90393,-5.65231 6.65898,-9.85969 12.5015,-10.97999 l 0.0968,-0.0168 c 9.10973,-1.36075 16.45497,-7.68248 19.25615,-16.08827 l 0.0468,-0.17675 c 2.27428,-5.97215 4.54547,-3.28067 6.81862,-0.54318 2.27316,2.73749 3.04107,4.96098 4.72138,7.34861 1.2171,1.4236 1.95443,3.26383 1.95443,5.29823 0,3.28066 -1.92076,6.09868 -4.70567,7.41257 l -0.0469,0.0168 c -5.97215,3.4751 -10.09957,9.09289 -17.92935,9.44444 -5.68176,0.3538 -10.17925,4.93181 -10.40567,10.61329 v 0.0168 c 0,0.96038 0,1.96902 0,2.99478 -0.59396,3.65101 -2.93024,9.85968 -1.72885,10.57961 5.31506,3.34408 6.57817,-3.58424 10.09957,-5.50668 5.61863,-2.99478 10.88627,-6.57818 17.92935,-3.58425 2.36938,1.24825 5.18628,1.96902 8.1788,1.96902 6.75578,0 12.63085,-3.73098 15.68875,-9.23598 l 0.0469,-0.0968 c 2.57757,-3.93747 4.65825,-0.35379 5.20143,1.07401 4.17792,12.24759 0,25.99706 -15.54509,23.91497 -1.44043,0 -3.23466,0.48005 -4.41781,0 -14.9977,-7.58906 -20.74652,5.1383 -28.68544,12.968082 -0.48005,0.48005 0,1.79395 0,2.6898 0.33724,0.0334 0.73677,0.0469 1.13713,0.0469 0.40037,0 0.80046,-0.0168 1.18316,-0.0469 h -0.0469 c 1.04034,-0.23989 1.95443,-0.59396 2.80062,-1.04034 l -0.0631,0.0334 c 11.30012,-5.972142 20.98697,0 29.46935,5.97215 4.13163,2.62387 5.97215,3.58425 9.68489,1.13714 1.66348,-1.55434 3.65102,-2.7835 5.85824,-3.55478 l 0.11335,-0.0334 c 0.0968,0 0.19359,0 0.30357,0 2.36939,0 4.51517,0.99405 6.035,2.57757 v 0 c 0.73677,1.10319 1.18315,2.48077 1.18315,3.95459 0,0.84759 -0.14309,1.68032 -0.4172,2.43476 l 0.0168,-0.0469 c -1.90393,3.73097 -4.00145,6.94824 -6.41853,9.91046 l 0.08,-0.0968 c -2.00072,3.49081 -5.69859,5.79539 -9.93964,5.79539 -2.75433,0 -5.26625,-0.97722 -7.23583,-2.59441 l 0.0168,0.0168 c -2.03439,-1.44043 -3.4751,-3.65102 -5.44132,-5.07546 -3.60107,-2.67436 -8.13251,-4.27472 -13.04804,-4.27472 -6.4522,0 -12.26134,2.77004 -16.27934,7.18869 l -0.0168,0.0168 c -0.60743,0.70311 -1.18315,1.48841 -1.69715,2.32029 l -0.0469,0.08 c 0.99405,0.57685 2.16037,1.02351 3.37747,1.29707 l 0.08,0.0168 c 8.8993,0.30357 13.86309,5.97215 18.29577,12.67714 5.55551,8.1962 10.75638,16.6797 22.0593,17.92935 0.8344,0 2.44963,3.761 2.03439,4.30502 -2.94427,4.00144 -6.4522,7.39574 -10.43681,10.13323 l -0.14309,0.0968 c -1.55434,0.57684 -3.33061,0.92783 -5.20143,0.92783 -5.92137,0 -11.04649,-3.41085 -13.52838,-8.37296 l -0.0334,-0.08 c -1.2171,-3.95459 -2.38398,-7.12191 -3.7147,-10.2132 l 0.25671,0.65681 c -1.96901,-3.23465 -4.54546,-7.41258 -7.71615,-8.37296 -6.1158,-1.61719 -13.43074,-2.93024 -20.92412,-3.66448 l -0.59396,-0.0469 c -0.0631,0.33724 -0.0968,0.73677 -0.0968,1.13714 0,0.40037 0.0334,0.80046 0.0968,1.18315 v -0.0469 c 0,0 1.0078,0 1.31389,0.48005 7.71616,8.72366 13.38249,17.92935 10.81951,30.48023 -1.48841,7.23582 4.54546,10.34001 8.13251,14.88828 1.55434,1.96902 3.23466,5.61864 2.38398,7.29895 -1.68032,2.2235 -4.19504,3.73098 -7.0585,4.06486 h -0.0469 c -13.44757,1.90392 -18.88973,-3.17041 -19.12933,-17.09495 0,-2.03439 0,-4.00144 0,-5.97215 0,-0.23988 0.0168,-0.52718 0.0168,-0.8344 0,-11.54028 -7.42885,-21.33852 -17.75259,-24.87591 l -0.19359,-0.0469 c -0.89726,-0.3538 -4.24105,2.68979 -4.06486,3.1704 4.83501,11.95721 0.71994,22.1704 -4.89786,32.22368 -1.55434,1.88878 -2.48077,4.32101 -2.48077,6.97854 0,3.0579 1.24824,5.8414 3.26384,7.84269 v 0 c 4.30502,4.30502 0,6.33857 -2.6898,7.34861 -7.475709,2.51472 -11.957199,-2.57757 -16.311879,-7.52228 -1.87447,-2.49761 -2.99477,-5.6523 -2.99477,-9.05923 0,-2.75432 0.73677,-5.34648 2.01755,-7.5725 l -0.0334,0.08 c 0.71993,-1.24824 2.20918,-2.09752 2.93024,-3.41085 2.38398,-4.13163 6.93253,-8.72367 5.97215,-12.48804 -1.98389,-7.61851 -4.83501,-14.31116 -8.49894,-20.44379 l 0.19359,0.3538 c 0,0 -3.7147,0.78306 -3.761,1.37758 -0.96038,12.31072 -9.13918,18.64929 -18.64928,24.62171 -5.85824,2.81746 -9.8451,8.69253 -9.8451,15.51143 0,1.08804 0.0968,2.14353 0.28702,3.18387 l -0.0168,-0.11335 c 0.4172,2.38398 -1.13714,2.99477 -3.65102,2.20919 -6.80178,-2.09752 -11.70048,-8.21304 -11.9572,-15.51143 v -0.0334 c -0.96038,-5.97215 0,-11.95721 7.58906,-13.99104 1.72885,-0.48005 2.86346,-3.34407 4.54546,-3.65101 13.57439,-2.51473 13.86309,-13.09434 14.51738,-23.37039 -0.22277,-2.51472 -0.78307,-4.81818 -1.61719,-6.99538 l 0.0631,0.17676 c -1.68032,1.39442 -3.18388,2.8803 -4.56146,4.49833 l -0.0469,0.0469 c -2.97793,4.29183 -7.85896,7.0585 -13.39707,7.0585 -0.68739,0 -1.37758,-0.0469 -2.03439,-0.12682 h 0.08 c -9.55611,-0.6568 -18.76235,0 -23.91496,10.51649 -1.45755,1.66349 -3.57078,2.70383 -5.9382,2.70383 -0.49717,0 -0.99405,-0.0469 -1.45755,-0.12682 h 0.0469 c -1.96902,-0.89725 -3.17041,-4.61196 -3.761,-7.29895 -0.19359,-1.34363 -0.32041,-2.8803 -0.32041,-4.45147 0,-1.57118 0.11335,-3.12075 0.33724,-4.62543 l -0.0168,0.17676 c 0,-0.0469 0,-0.0968 0,-0.14309 0,-6.93253 5.61863,-12.55116 12.55116,-12.55116 0.25672,0 0.49716,0 0.7536,0.0168 h -0.0334 c 0.67393,-0.0968 1.45755,-0.15992 2.24033,-0.15992 0.78278,0 1.56865,0.0631 2.32029,0.15992 l -0.08,-0.0168 c 13.86309,3.41085 20.74652,-6.62784 28.33333,-14.9343 3.47511,-3.71471 1.61719,-8.1962 -3.1704,-8.13252 -10.45365,0 -20.50692,0 -29.05411,-7.8929 -2.27428,-2.097522 -7.58906,-0.96039 -11.54028,-1.20027 -3.95123,-0.23988 -6.93253,0 -10.40567,0 -3.47314003,0 -4.59513003,-2.449632 -2.99477003,-5.026082 C 4.206081,90.174168 7.676981,85.595878 11.441341,81.258028 l -0.14309,0.15992 c 1.24825,-1.52039 3.13786,-2.4976 5.2351,-2.4976 1.56865,0 3.0102,0.52718 4.16109,1.42359 l -0.0168,-0.0168 c 3.73098,2.19431 6.91541,4.37151 9.93964,6.72182 l -0.19359,-0.14309 c 6.75577,5.44132 13.33394,10.03644 22.53991,4.54547 3.2007,-1.3139 6.94824,-2.36939 10.8369,-2.96111 l 0.27355,-0.0334 c 1.92076,-0.59396 5.97215,-0.83441 0.48005,-3.10392 -3.04107,-1.24824 -5.44132,-4.13162 -8.4835,-5.61863 -7.02849,-3.3943 -12.32756,-9.45931 -14.6484,-16.83991 l -0.0469,-0.19359 c -1.92076,-7.29895 -8.293,-12.64796 -15.97464,-13.03121 h -0.0469 c -5.20144,-0.3538 -5.97215,-2.99477 -2.51473,-6.81862 3.17041,-3.71471 7.8758,-6.06726 13.11118,-6.06726 5.61863,0 10.61328,2.68979 13.75115,6.85257 l 0.0334,0.0469 c 2.06357,3.02395 3.81122,6.51533 5.05862,10.2132 l 0.0968,0.30357 c 4.06485,11.95721 15.12873,12.61401 24.68484,15.5451 0.65681,0 2.80062,-2.93025 3.4751,-4.78564 0.3538,-0.96038 -0.8344,-2.80061 -1.79394,-3.761 -7.95576,-7.76244 -12.55116,-15.71876 -7.29895,-27.54858 2.93024,-6.57818 -1.20027,-13.44758 -5.97215,-18.76236 -3.34408,-3.65101 -0.30357,-5.9721496 2.14353,-6.5153196 1.90393,-0.88042 4.13163,-1.40845 6.46763,-1.40845 3.93748,0 7.53856,1.45755 10.29316,3.8746296 l -0.0168,-0.0168 c 1.84024,1.96902 3.23465,4.38526 4.03511,7.04167 l 0.0334,0.12681 z"
     id="path5"
     style="stroke-width:0.280567" />
</svg>
