<?xml version="1.0" encoding="UTF-8" standalone="no"?>
<!-- Generated by IcoMoon.io -->

<svg
   version="1.1"
   width="215"
   height="215"
   viewBox="0 0 215 215"
   id="svg7"
   sodipodi:docname="bladeborn-skittershanks-clawpack.svg"
   inkscape:version="1.2.1 (9c6d41e, 2022-07-14)"
   xmlns:inkscape="http://www.inkscape.org/namespaces/inkscape"
   xmlns:sodipodi="http://sodipodi.sourceforge.net/DTD/sodipodi-0.dtd"
   xmlns="http://www.w3.org/2000/svg"
   xmlns:svg="http://www.w3.org/2000/svg">
  <defs
     id="defs11" />
  <sodipodi:namedview
     id="namedview9"
     pagecolor="#ffffff"
     bordercolor="#000000"
     borderopacity="0.25"
     inkscape:showpageshadow="2"
     inkscape:pageopacity="0.0"
     inkscape:pagecheckerboard="0"
     inkscape:deskcolor="#d1d1d1"
     showgrid="false"
     inkscape:zoom="1.0029297"
     inkscape:cx="268.71276"
     inkscape:cy="512"
     inkscape:window-width="1390"
     inkscape:window-height="1205"
     inkscape:window-x="0"
     inkscape:window-y="25"
     inkscape:window-maximized="0"
     inkscape:current-layer="svg7" />
  <title
     id="title2" />
  <g
     id="icomoon-ignore"
     transform="matrix(0.27134136,0,0,0.27134136,61.076105,-965.77096)" />
  <path
     fill="#ffffff"
     d="m 155.45854,3.8907958 c -3.98682,0.14083 -8.31607,0.44202 -9.61986,0.6694 -1.30326,0.22657 -4.63126,0.58013 -7.39406,0.7858 -2.76361,0.20487 -6.79873,0.52342 -8.96701,0.70766 -4.25979,0.36224 -14.7143,2.25946 -18.96161,3.4417 -1.44598,0.40185 -4.48717,1.1499402 -6.7583,1.6614202 -6.151037,1.3852 -10.774967,2.64856 -12.028017,3.28649 -0.61269,0.31123 -3.22625,1.28941 -5.80752,2.17208 -8.96892,3.06752 -19.89393,8.06563 -26.5863,12.16342 -1.71542,1.05009 -3.57438,2.16151 -4.13036,2.46948 -3.84599,2.12867 -10.61894,6.38765 -11.71272,7.36502 -0.72231,0.64634 -2.02095,1.53254 -2.88381,1.96994 -0.86368,0.4374 -1.67798,0.96869 -1.80931,1.18169 -0.13078,0.21219 -2.1729,1.83915 -4.53737,3.61481 -2.36447,1.77566 -4.59951,3.61155 -4.96744,4.0788 -0.3674,0.4678 -1.50541,1.5689 -2.52836,2.44723 -8.242,7.07767 -14.808186,13.75619 -14.8109,15.0646 -0.0041,1.53525 4.53466,3.64574 9.19684,4.27553 1.03219,0.13947 2.8575,0.49764 4.05547,0.79638 1.19797,0.29875 4.07067,0.87617 6.38304,1.28399 2.31291,0.40783 5.30336,1.06393 6.64542,1.459 3.30277,0.97086 10.44854,2.81246 13.89295,3.58035 1.54827,0.34488 3.40723,0.9383 4.13036,1.31845 0.72231,0.37988 1.98974,0.81348 2.8157,0.96218 0.82597,0.14924 2.43122,0.72692 3.56733,1.28399 1.13529,0.55652 3.07891,1.40961 4.31785,1.89531 1.23895,0.48516 2.86618,1.26283 3.61481,1.72818 0.74945,0.46453 1.97591,1.10083 2.7259,1.41477 7.45565,3.11527 16.25281,13.320694 21.47667,24.916474 0.86042,1.9097 1.72682,3.68345 1.92571,3.94259 1.58925,2.06653 5.542417,15.61976 6.529007,22.38593 2.90363,19.90859 0.70712,28.90789 -6.046567,24.77482 -0.72231,-0.44201 -2.41195,-1.18549 -3.75428,-1.65219 -7.09069,-2.46297 -17.72781,-7.72265 -24.0829,-11.90836 -2.34602,-1.54502 -5.11098,-3.2599 -6.14317,-3.81045 -2.20058,-1.17355 -3.46747,-2.04781 -10.51339,-7.25675 -12.50178,-9.24108 -20.59318,-15.83494 -23.27078,-18.96351 -0.72421,-0.84577 -1.97455,-1.97455 -2.77826,-2.50719 -1.80876,-1.19879 -5.66615,-4.85376 -7.98504,-7.56609 C 13.922004,103.78322 1.3276954,91.589416 0.72911541,91.964676 c -1.240301,0.77658 -0.903295,2.7438 1.05009199,6.12146 1.015088,1.75585 3.064258,5.428194 4.554464,8.161414 1.489664,2.73268 3.405335,5.89326 4.2578886,7.0234 2.636081,3.49515 2.976344,4.0343 4.865151,7.71342 1.009122,1.96532 2.568792,4.50237 3.466662,5.6382 0.89732,1.13611 2.01959,2.55956 2.49335,3.16357 0.47376,0.60455 1.28399,1.82124 1.80089,2.70473 1.13855,1.94877 5.88757,8.1283 9.7455,12.68141 1.55831,1.83834 3.897,4.67874 5.19809,6.31167 3.74369,4.69855 19.3176,19.82122 23.16712,22.49501 1.23895,0.86097 3.09791,2.36529 4.13036,3.34266 2.5905,2.45184 9.14149,7.25811 11.55616,8.4786 0.6656,0.33647 1.6039,0.9714 2.08498,1.41152 0.48109,0.44066 1.49482,1.05742 2.25268,1.37055 1.90916,0.7896 4.96365,2.508 7.90553,4.44891 1.36593,0.90085 3.32855,1.93629 4.36154,2.30097 1.03219,0.36469 4.55121,1.95068 7.818977,3.525 3.26857,1.57351 6.39443,2.96929 6.94688,3.10143 0.55245,0.13214 1.45791,0.46915 2.01172,0.74809 0.55435,0.27894 3.76486,1.36457 7.13438,2.41195 3.36952,1.04819 7.13981,2.30233 8.37875,2.78749 1.23895,0.4857 3.0979,0.99583 4.13036,1.1334 1.033,0.13811 2.84149,0.57171 4.01992,0.96407 9.90532,3.29897 11.69291,1.14316 6.86819,-8.28568 -0.68649,-1.34205 -1.52846,-3.52418 -1.87008,-4.8486 -0.34243,-1.32441 -1.01699,-3.43708 -1.49998,-4.69339 -2.28849,-5.95811 -5.59017,-19.13201 -6.17166,-24.62613 -0.20757,-1.96207 -0.5709,-5.39779 -0.80751,-7.63473 -0.46128,-4.37022 -0.2187,-15.80211 0.4488,-21.08946 0.60591,-4.80356 4.11516,-15.08821 6.66116,-19.52464 0.83003,-1.44598 1.923,-3.38879 2.42932,-4.31867 0.50632,-0.92908 1.57812,-2.44967 2.38156,-3.37902 0.80344,-0.92934 2.33462,-2.80322 3.40262,-4.164 4.91074,-6.25686 17.91288,-16.744484 25.4662,-20.540814 1.22511,-0.61514 3.25203,-1.6541 4.50509,-2.30776 1.38845,-0.72421 3.096,-1.27286 4.37402,-1.40501 l 2.09692,-0.21599 1.14588,1.58138 c 0.67591,0.93369 1.21914,2.22229 1.32632,3.1462 0.24909,2.155 0.86449,7.02395 1.62235,12.829024 0.74863,5.74213 0.85119,23.62841 0.16253,28.53643 -0.232,1.6522 -0.6827,5.52994 -1.00315,8.61808 -0.31991,3.08732 -0.7546,6.38249 -0.96679,7.32133 -0.21273,0.93965 -0.53726,2.89114 -0.72231,4.33631 -0.57172,4.47062 -4.68607,22.9107 -7.1219,31.91598 -0.61459,2.2714 -1.54963,5.90385 -2.07847,8.07213 -0.52939,2.16884 -1.39307,4.87248 -1.92028,6.00777 -2.81571,6.06584 0.34704,7.14496 4.37483,1.49292 0.92908,-1.30379 2.28063,-3.04173 3.00348,-3.862 0.72231,-0.81999 1.6522,-2.05459 2.06518,-2.7438 0.41298,-0.68867 1.70701,-2.64992 2.8754,-4.35883 1.86548,-2.72725 3.98764,-6.72275 7.83363,-14.74605 5.14653,-10.7367 7.92208,-18.56761 13.84329,-39.04982 1.88989,-6.53905 4.97559,-21.97159 6.79412,-33.981164 1.10083,-7.27114 1.85435,-32.73679 1.14262,-38.64607 -0.23797,-1.97726 -0.57769,-5.45396 -0.7546,-7.72536 -0.50741,-6.51463 -2.25159,-13.28677 -5.72938,-22.25324 -2.61111,-6.73063 -4.33169,-6.85761 -8.78115,-0.64824 -4.95686,6.91704 -14.28205,16.65249 -23.23116,24.25412 -0.82596,0.70115 -1.7222,1.57025 -1.99164,1.93087 -0.52206,0.69924 -9.76395,7.36827 -11.338,8.18121 -0.51609,0.267 -1.78353,1.10897 -2.81571,1.87225 -17.77123,13.1275 -52.0042,14.10243 -71.533997,2.03615 -0.72556,-0.44798 -2.24616,-1.28344 -3.37901,-1.8557 -1.13339,-0.57172 -3.04309,-1.85951 -4.24459,-2.86076 -1.2015,-1.00125 -2.66051,-2.10208 -3.24199,-2.44587 -3.24334,-1.91567 -2.61627,-7.03588 1.09703,-8.95643 0.62192,-0.32127 1.97862,-1.33744 3.01542,-2.25865 1.03679,-0.92066 2.43257,-1.9542 3.10143,-2.29636 0.6694,-0.34243 2.23043,-1.41803 3.46937,-2.39215 3.63326,-2.85424 14.569677,-9.44729 19.712947,-11.88312 1.96126,-0.92989 4.74956,-2.26543 6.19527,-2.96929 7.93402,-3.8601 23.76245,-10.08521 29.28723,-11.51708 0.82596,-0.21409 2.43122,-0.69111 3.56732,-1.06068 11.44193,-3.71927 24.73792,-7.7457102 27.22205,-8.2438902 2.59973,-0.52152 8.13699,-2.99968 7.95058,-3.55864 -0.42818,-1.28399 -8.40914,-1.55153 -26.83946,-0.89868 z M 124.4122,91.367726 c 3.71141,1.21262 4.15017,1.55831 5.61324,4.42178 1.37462,2.68899 -6.59576,15.178294 -10.49819,16.450884 -2.42987,0.79232 -5.09851,-1.00043 -6.81339,-4.57888 -0.49492,-1.033 -1.40093,-2.63798 -2.01281,-3.56733 -1.34666,-2.04456 -3.75238,-7.020684 -3.75238,-7.762804 0,-4.66626 9.82663,-7.45891 17.46326,-4.96365 z"
     id="path5"
     style="stroke-width:0.271341" />
</svg>
