<?xml version="1.0" encoding="UTF-8" standalone="no"?>
<!-- Generated by IcoMoon.io -->

<svg
   version="1.1"
   width="215"
   height="215"
   viewBox="0 0 215 215"
   id="svg7"
   sodipodi:docname="bladeborn-spiteclaw.svg"
   inkscape:version="1.2.1 (9c6d41e, 2022-07-14)"
   xmlns:inkscape="http://www.inkscape.org/namespaces/inkscape"
   xmlns:sodipodi="http://sodipodi.sourceforge.net/DTD/sodipodi-0.dtd"
   xmlns="http://www.w3.org/2000/svg"
   xmlns:svg="http://www.w3.org/2000/svg">
  <defs
     id="defs11" />
  <sodipodi:namedview
     id="namedview9"
     pagecolor="#ffffff"
     bordercolor="#000000"
     borderopacity="0.25"
     inkscape:showpageshadow="2"
     inkscape:pageopacity="0.0"
     inkscape:pagecheckerboard="0"
     inkscape:deskcolor="#d1d1d1"
     showgrid="false"
     inkscape:zoom="1.0029297"
     inkscape:cx="301.61636"
     inkscape:cy="512.99708"
     inkscape:window-width="2560"
     inkscape:window-height="1387"
     inkscape:window-x="0"
     inkscape:window-y="25"
     inkscape:window-maximized="1"
     inkscape:current-layer="svg7" />
  <title
     id="title2" />
  <g
     id="icomoon-ignore"
     transform="matrix(0.27396516,0,0,0.27396516,86.849105,-984.58833)" />
  <path
     fill="#ffffff"
     d="m 167.6628,9.0470752 c -2.91992,0.68683 -3.23909,1.0306498 -9.09263,9.8068498 -4.00537,6.00148 -6.06695,8.93346 -6.62119,9.41536 -1.55091,1.34956 -4.62261,7.25761 -4.00537,7.70856 2.36378,1.72735 27.16612,2.11693 29.87755,0.46821 1.3964,-0.8482 4.59001,-6.05272 6.04586,-9.84741 3.97414,-10.36245 1.7868,-14.25714 -9.48686,-16.8921398 -4.85384,-1.13476 -4.73768,-1.12326 -6.71626,-0.65916 z M 25.109695,11.200435 c -6.32942,1.38873 -8.63429,6.35271 -6.92118,14.91631 0.18465,0.92436 0.48766,2.46267 0.67121,3.41607 0.723,3.75853 2.27391,7.38199 4.78919,11.20189 2.07994,3.1621 7.99238,11.54736 9.67837,13.72867 0.87066,1.12955 2.3824,3.32785 3.35744,4.89247 4.19194,6.72009 5.08698,8.12608 7.92389,12.46486 1.64681,2.51582 3.70922,5.57026 4.58563,6.78311 2.45007,3.39579 9.79453,13.23553 10.01178,13.41114 0.28575,0.23287 2.62295,3.82044 3.08677,4.73384 0.21945,0.43424 1.18682,1.85475 2.14871,3.15526 0.96189,1.300515 2.72184,3.929765 3.91003,5.837925 1.18819,1.90817 2.86978,4.46481 3.73579,5.68094 0.86792,1.21586 2.39528,3.55881 3.39662,5.20671 2.16624,3.56621 4.32098,6.75626 6.21928,9.2014 0.76135,0.98134 2.05748,3.11169 2.8802,4.73384 4.43714,8.76086 8.61702,7.91951 12.00406,-2.41473 1.04271,-3.17799 1.84186,-5.01959 3.22785,-7.43706 1.534475,-2.67636 1.213115,-5.12534 -1.07997,-8.2332 -1.74653,-2.36733 -3.90674,-5.84313 -5.66587,-9.11071 -1.96324,-3.647575 -2.80705,-4.993015 -8.20444,-13.102665 -2.76924,-4.15632 -5.36314,-8.26854 -5.76313,-9.13728 -0.39999,-0.86875 -1.20544,-2.1057 -1.78899,-2.75335 -0.58355,-0.64766 -1.57722,-2.20816 -2.21062,-3.47196 -0.63423,-1.2638 -2.88595,-4.92261 -5.00699,-8.1343 -2.12159,-3.21115 -4.53632,-6.90393 -5.36506,-8.20362 -0.83094,-1.30215 -1.76434,-2.65006 -2.07721,-2.99772 -0.31286,-0.34766 -1.16654,-1.76817 -1.90159,-3.15526 -1.952,-3.69606 -7.87567,-12.59664 -11.23531,-16.88228 -0.20356,-0.26082 -1.48297,-1.8405 -2.84102,-3.51169 -1.35859,-1.67146 -3.97715,-4.93603 -5.81984,-7.25815 -9.67398,-12.19365 -12.17035,-14.34318 -15.74423,-13.55936 z m 83.628955,35.58013 c -1.47503,0.0619 -10.066025,0.25698 -19.092075,0.43588 -18.95565,0.37259 -19.41016,0.40328 -19.40276,1.36106 0.0112,1.67228 1.4942,4.64508 4.01496,8.04992 0.98134,1.32681 2.43829,3.47634 3.24018,4.77932 1.95502,3.17854 4.7585,6.93707 6.7379,9.02852 l 1.62325,1.7153 11.04517,-0.33013 c 19.706035,-0.58957 34.662075,-1.226 45.758755,-1.94378 3.47278,-0.22466 8.58497,-0.4126 11.36216,-0.41369 4.57878,-0.006 6.04805,0.13643 11.67639,1.13695 8.27759,1.47174 28.47896,1.58845 35.50342,0.2074 3.25772,-0.63999 10.96847,-6.43709 12.86322,-9.6696 1.5553,-2.65391 1.18435,-5.75327 -1.28545,-10.73862 -1.529,-3.08731 -1.22818,-2.99855 -11.09066,-3.27059 -8.93044,-0.24657 -88.29732,-0.54054 -92.95336,-0.34465 z m -99.5655052,0.78847 c -8.46005006,2.80815 -12.24488,14.39879 -6.24641,19.12332 2.33912,1.84433 8.5112802,4.11276 13.0303302,4.7922 1.30216,0.19533 3.15526,0.49313 4.12099,0.66025 3.00813,0.52465 11.66735,0.39588 12.30679,-0.18328 1.40105,-1.26736 -2.58596,-8.46004 -7.77322,-14.02181 -1.05531,-1.13011 -2.38843,-2.76623 -2.9654,-3.63524 -4.50398,-6.78475 -7.48308,-8.39457 -12.4730802,-6.73489 z M 142.97937,79.879115 c -14.26016,1.32463 -15.7341,2.2446 -20.45068,12.76952 -0.42657,0.95532 -1.14983,2.55116 -1.60297,3.54867 -0.45232,0.99751 -1.19422,2.63144 -1.6479,3.62867 -0.45068,0.998335 -1.23257,2.702125 -1.7342,3.786205 -0.50136,1.0849 -1.33914,2.89444 -1.85913,4.02372 -0.51999,1.12929 -1.36024,2.93883 -1.86543,4.02373 -1.50242,3.22786 -2.55198,5.98039 -2.55198,6.69626 0,0.3693 -0.12055,0.80765 -0.26767,0.97011 -0.14712,0.16246 -0.48766,0.86874 -0.75916,1.56133 -0.85285,2.19309 -2.37609,5.41875 -7.08035,14.99109 -5.172735,10.52301 -4.876575,9.87371 -5.777645,12.62185 -1.55229,4.73467 -4.67193,10.78218 -7.0683,13.70895 -0.62355,0.76135 -1.13915,1.5742 -1.14189,1.80734 -0.006,0.43506 -0.55725,1.4627 -3.52621,6.57298 -0.95668,1.6479 -2.54458,4.52398 -3.52456,6.38749 -2.66376,5.06041 -3.01197,5.65985 -3.99578,6.90694 -0.94929,1.20353 -1.25284,1.71447 -3.44949,5.79792 -0.74683,1.38873 -1.84626,3.1643 -2.44816,3.94373 -2.78348,3.62292 2.79335,12.6224 7.82061,12.6224 5.05603,-8.2e-4 14.97329,-6.21627 16.36011,-10.25671 0.50135,-1.4627 1.32325,-2.71116 5.154645,-7.84417 2.79718,-3.7462 7.89979,-11.22024 9.07866,-13.30018 0.34465,-0.6093 0.93203,-1.63749 1.30215,-2.28981 3.0054,-5.26122 7.72089,-14.29988 8.85374,-16.96611 0.29396,-0.69286 0.83312,-1.96022 1.19722,-2.81828 0.3641,-0.85806 1.14353,-2.98649 1.7342,-4.73384 1.1271,-3.33882 2.47391,-7.05433 3.61059,-9.96028 0.37478,-0.95614 2.07994,-4.57577 3.7925,-8.04773 3.75853,-7.62226 4.97685,-10.31314 6.47791,-14.33249 0.28739,-0.76682 1.12654,-2.40075 1.86543,-3.62949 0.73888,-1.22818 1.67365,-3.08731 2.07994,-4.12892 0.40328,-1.04272 1.41065,-3.17115 2.23638,-4.73385 0.82491,-1.56133 1.73694,-3.548675 2.02816,-4.417415 0.74354,-2.22268 1.3764,-3.52539 2.68267,-5.52369 0.62354,-0.95531 1.46051,-2.38541 1.85639,-3.17854 0.3967,-0.79478 1.28845,-2.19227 1.98104,-3.11005 2.0183,-2.66897 2.32733,-4.12893 1.24928,-5.89957 -0.62574,-1.02929 -0.55478,-1.006 -5.23548,-1.51777 -0.52108,-0.0556 -2.93361,0.0803 -5.36341,0.30602 z m -14.40975,82.469825 c -2.04542,2.29336 -6.65434,10.25506 -8.40416,14.52207 -2.65307,6.46667 0.94244,12.03912 14.60865,22.64103 9.26988,7.19021 11.76625,7.89677 15.54643,4.39796 5.70888,-5.28588 3.72209,-13.46073 -6.55572,-27.00146 -1.42188,-1.87118 -5.1352,-6.9557 -7.26281,-9.94164 -3.02567,-4.24619 -4.96699,-6.15326 -6.25928,-6.15326 -0.16658,0 -0.91971,0.69066 -1.67256,1.53667 z"
     id="path5"
     style="stroke-width:0.273965" />
</svg>
