<?xml version="1.0" encoding="UTF-8" standalone="no"?>
<!-- Generated by IcoMoon.io -->

<svg
   version="1.1"
   width="215"
   height="215"
   viewBox="0 0 215 215"
   id="svg7"
   sodipodi:docname="bladeborn-starblood.svg"
   inkscape:version="1.2.1 (9c6d41e, 2022-07-14)"
   xmlns:inkscape="http://www.inkscape.org/namespaces/inkscape"
   xmlns:sodipodi="http://sodipodi.sourceforge.net/DTD/sodipodi-0.dtd"
   xmlns="http://www.w3.org/2000/svg"
   xmlns:svg="http://www.w3.org/2000/svg">
  <defs
     id="defs11" />
  <sodipodi:namedview
     id="namedview9"
     pagecolor="#ffffff"
     bordercolor="#000000"
     borderopacity="0.25"
     inkscape:showpageshadow="2"
     inkscape:pageopacity="0.0"
     inkscape:pagecheckerboard="0"
     inkscape:deskcolor="#d1d1d1"
     showgrid="false"
     inkscape:zoom="1.0029297"
     inkscape:cx="300.61928"
     inkscape:cy="512"
     inkscape:window-width="1390"
     inkscape:window-height="1205"
     inkscape:window-x="0"
     inkscape:window-y="25"
     inkscape:window-maximized="0"
     inkscape:current-layer="svg7" />
  <title
     id="title2" />
  <g
     id="icomoon-ignore"
     transform="matrix(0.33992616,0,0,0.33992616,126.35055,-1109.0251)" />
  <path
     fill="#ffffff"
     d="m 107.25453,193.75803 c -7.559963,0 -15.061453,0 -22.635013,0 -12.08539,0 -15.32999,-3.2021 -15.59853,-15.71002 -0.32429,-13.79149 0,-27.52688 0,-41.26262 0,-13.73574 -0.36678,-14.8065 -14.96321,-14.84899 -9.32179,0 -18.63033,0 -27.95212,0 -5.75292,0 -6.54222,2.93356 -4.37112,7.77003 1.56502,3.28708 2.90433,7.12145 3.80786,11.12612 l 0.0717,0.38004 c 1.33931,6.13567 2.2136,13.27072 2.43931,20.58865 v 0.18322 c 0,3.35609 -1.91854,8.57497 -4.37111,9.59033 -1.63708,0.61901 -3.52639,0.97253 -5.50068,0.97253 -2.59636,0 -5.03567,-0.619 -7.20644,-1.70609 l 0.085,0.0425 c -2.1286098,-1.17206 -2.3968198,-6.81076 -2.3410698,-10.3793 0.1115,-6.03471 0.7628,-11.84609 1.9185498,-17.48784 l -0.0982,0.60574 c 1.28356,-6.2339 5.58566,-12.89068 4.25961,-18.20508 -1.11326,-4.46969 -9.1093398,-6.81076 -12.9889198,-11.07038 -3.87957,-4.25961 -1.11325999,-14.05968 4.4136,-17.190063 0.49426,-0.18322 1.07077,-0.29506 1.67958,-0.29506 0.60881,0 1.18532,0.1115 1.70609,0.31104 l -0.0292,-0.0133 c 0.8450598,0.35352 1.5357898,0.90352 2.0725298,1.57828 l 0.0133,0.0132 c 5.85149,6.233913 8.72931,-2.12862 12.98892,-2.49506 4.25961,-0.36644 6.60069,8.306783 11.93141,3.41184 4.1454,-3.83708 7.13471,-4.10291 10.97213,0 0.63499,0.746823 2.97606,0 4.52816,0 0,-1.55176 0,-3.62463 -0.84506,-4.62639 -3.99141,-4.25962 -7.3475,-10.37931 -15.01895,-5.33038 -1.49602,1.01502 -4.4136,0 -6.60069,-0.42253 -2.18708,-0.42253 -5.33038,-1.97429 -7.23601,-1.49602 -3.68038,0.84506 -5.64141,7.07897 -11.12612,2.01678 -5.4847098,-5.06218 -10.64784979,-8.84351 -8.8435198,-17.09182 0.21246,-0.80529 0.32429,-1.71935 0.32429,-2.66536 0,-0.94602 -0.11149,-1.8628 -0.33755,-2.73709 l 0.0133,0.0717 c -4.04716,-15.53973 5.96571,-24.11505 15.9782298,-32.47758 0.59249,-0.5367 3.30034,0.4225 4.1454,1.4376 8.63106,10.11106 16.5578,8.88325 22.40895,-3.5689 1.12924,-2.0593 2.25609,-3.7946 3.49716,-5.445 l -0.085,0.1275 c 1.22781,1.6504 3.14364,3.1437 3.56889,5.0064 1.91854,7.8258 7.07896,9.90107 14.63891,10.28111 7.55996,0.38004 8.57498,-5.96571 11.28283,-10.64781 0.63499,-1.1133 0.95928,-2.3969 1.55177,-3.5689 1.28356,-2.4526 2.66536,-4.895 3.99141,-7.3475 1.08674,2.6786 2.22958,4.9347 3.52639,7.0789 l -0.12747,-0.2124 c 3.41184,4.9507 6.98072,9.6886 10.64785,14.42645 0.81854,0.97253 1.69283,1.84682 2.622873,2.63612 l 0.0292,0.0292 c 13.14291,12.83221 13.25712,15.01896 1.55176,28.5419 -8.631063,9.90103 -8.631063,9.95677 1.3818,19.48864 0.84506,0.84506 1.59426,1.8628 2.39682,2.81935 7.34751,8.460763 7.34751,8.460763 0,17.248533 -1.59425,1.91855 -3.72287,3.41184 -5.33038,5.33039 -5.330383,7.50149 -4.950683,10.64784 2.28533,16.97999 10.16685,9.2103 10.1111,11.66286 0,24.80577 -1.48004,2.39682 -2.835333,5.17639 -3.935333,8.08072 l -0.1115,0.33755 c 3.159623,-2.00352 5.909963,-4.10291 8.460773,-6.43072 l -0.0425,0.0425 c 4.31536,-4.79364 11.07037,-9.95678 11.28282,-15.17329 0.21246,-5.2165 -6.38823,-10.64784 -11.02788,-14.63892 -4.63965,-3.99107 -2.93356,-7.459 -0.95927,-11.39432 0.70433,-1.18532 1.50927,-2.2136 2.39682,-3.14364 v 0 c 11.07037,-14.32822 11.33858,-14.58045 -0.80529,-27.471133 -5.33038,-5.33038 -5.69716,-9.26605 -0.32429,-14.42647 2.49506,-2.34107 3.68038,-6.06394 6.23391,-8.36252 6.06394,-5.33038 7.77003,-10.3793 0.59249,-16.28926 -4.4136,-3.56888 -3.2021,-7.94 1.70609,-8.57498 7.07896,-0.95927 7.71428,-5.75286 9.63283,-10.64786 2.08578,-4.0471 4.37111,-7.544 6.96746,-10.7753 l -0.0982,0.1275 c 1.55176,2.8778 3.03214,6.29 4.25961,9.816 l 0.15399,0.5075 c 0.7893,5.8675 5.75291,10.3501 11.7611,10.37933 v 0 c 7.50149,0.53674 13.15616,-0.80528 13.84995,-9.90103 0,-1.5942 2.34107,-3.0321 3.56889,-4.5281 1.04425,1.1853 2.04601,2.495 2.98931,3.8503 l 0.0982,0.1407 c 7.98248,13.25714 10.64784,13.73575 22.31071,4.4697 1.01502,-0.7336 2.28532,-1.1853 3.66712,-1.1853 0.59249,0 1.15575,0.085 1.70609,0.2393 l -0.0425,-0.013 c 15.97823,9.47577 20.8147,22.19648 17.19007,42.0118 -1.32605,7.19318 -12.2421,12.02965 -19.01037,10.64785 -4.79364,-0.84506 -13.10042,4.89493 -14.90746,3.03214 -5.33039,-5.33038 -8.84352,-3.35609 -13.31321,-0.59249 -1.14249,0.69073 -2.08579,1.60751 -2.80609,2.67861 l -0.0133,0.0292 c -0.81854,1.52253 -1.67957,3.39858 -2.42605,5.33038 l -0.12747,0.36678 c 2.45256,0.26854 5.75291,1.706093 7.13471,0.59249 3.83708,-2.97605 6.60068,-5.64141 10.16685,0.32429 0.47827,0.845063 5.00643,0.805293 5.90995,-0.32429 4.4136,-5.33038 7.98249,-3.89283 12.0854,0 0.95927,0.959273 4.37111,1.283563 4.89493,0.536753 5.69717,-7.291763 9.42004,-3.244603 11.9739,2.28532 0.73356,1.52253 1.15575,3.3136 1.15575,5.20291 0,4.92145 -2.90433,9.16781 -7.09222,11.11286 l -0.0717,0.0292 c -6.65644,2.72111 -12.56639,4.4136 -4.89494,12.77612 1.8628,2.01678 0.63498,6.86923 0.80529,10.37931 -0.085,1.3818 -0.12748,2.98931 -0.12748,4.61042 0,4.89493 0.40928,9.70183 1.21184,14.37071 l -0.0717,-0.50751 c 1.11325,4.25962 2.60961,8.25103 -1.80433,10.06862 -1.67958,0.73356 -3.62463,1.15575 -5.66793,1.15575 -2.0433,0 -4.00467,-0.42253 -5.76889,-1.19858 l 0.0982,0.0425 c -2.72111,-1.55177 -5.9657,-7.19318 -5.06218,-9.36429 4.52816,-10.64784 -1.3818,-23.11328 6.50245,-33.22404 2.55352,-3.30034 0,-6.65643 -4.95069,-6.54222 h -3.99141 l -34.34036,0.95927 c -0.63498,11.28283 -1.43755,22.63501 -1.86279,33.97358 -0.32429,7.07896 0,14.21673 0,21.2957 0.0292,0.31103 0.0425,0.67747 0.0425,1.04425 0,8.02498 -6.50245,14.54068 -14.54068,14.54068 -0.35353,0 -0.69073,-0.0133 -1.04426,-0.0425 h 0.0425 c -7.88424,1.01502 -16.34501,0.80528 -24.76328,0.80528 z M 61.984857,69.755347 c 0.0292,0 0.0717,0 0.0982,0 2.6521,0 5.21889,-0.35352 7.6582,-1.00176 l -0.21246,0.0425 c 3.93533,-1.97429 7.67146,-4.31536 11.49291,-6.54222 -4.46969,-2.28532 -8.84352,-4.68214 -13.36896,-6.81076 -0.57923,-0.1115 -1.25433,-0.18322 -1.94506,-0.18322 -0.69073,0 -1.35256,0.0717 -2.01678,0.18322 l 0.0717,-0.0133 c -5.06218,0 -9.36428,2.01679 -8.36252,7.23601 0.80529,3.03214 4.89494,5.42896 6.54222,7.07896 z m 91.735193,0.53674 c 2.24284,-1.91854 7.07896,-4.04716 7.71429,-7.07896 1.43754,-6.38823 -3.68038,-7.98248 -9.15184,-7.82578 -2.24283,0 -5.06218,-0.74682 -6.54221,0.36678 -2.87782,2.45257 -5.44494,5.10467 -7.74352,7.98249 l -0.085,0.11149 c 2.49505,1.3818 4.89493,2.87782 7.459,4.04717 2.1711,0.80528 4.97719,1.62076 7.82578,2.28532 l 0.53674,0.0982 z"
     id="path5"
     style="stroke-width:0.339926" />
</svg>
