<?xml version="1.0" encoding="UTF-8" standalone="no"?>
<!-- Generated by IcoMoon.io -->

<svg
   version="1.1"
   width="215"
   height="215"
   viewBox="0 0 215 215"
   id="svg7"
   sodipodi:docname="bladeborn-steelheart.svg"
   inkscape:version="1.2.1 (9c6d41e, 2022-07-14)"
   xmlns:inkscape="http://www.inkscape.org/namespaces/inkscape"
   xmlns:sodipodi="http://sodipodi.sourceforge.net/DTD/sodipodi-0.dtd"
   xmlns="http://www.w3.org/2000/svg"
   xmlns:svg="http://www.w3.org/2000/svg">
  <defs
     id="defs11" />
  <sodipodi:namedview
     id="namedview9"
     pagecolor="#ffffff"
     bordercolor="#000000"
     borderopacity="0.25"
     inkscape:showpageshadow="2"
     inkscape:pageopacity="0.0"
     inkscape:pagecheckerboard="0"
     inkscape:deskcolor="#d1d1d1"
     showgrid="false"
     inkscape:zoom="1.0029297"
     inkscape:cx="301.61636"
     inkscape:cy="512.99708"
     inkscape:window-width="2560"
     inkscape:window-height="1387"
     inkscape:window-x="0"
     inkscape:window-y="25"
     inkscape:window-maximized="1"
     inkscape:current-layer="svg7" />
  <title
     id="title2" />
  <g
     id="icomoon-ignore"
     transform="matrix(0.30140605,0,0,0.30140605,239.4985,-1011.3554)" />
  <path
     fill="#ffffff"
     d="m 111.1399,142.37517 c 0,14.84937 0,29.76234 0,44.61171 0,6.53087 1.55375,12.97644 2.16108,19.5073 0.37344,4.08496 0,8.45474 -5.45183,8.50538 -5.45184,0.0506 -6.02149,-4.32246 -5.49916,-8.42008 5.02776,-37.37194 1.12967,-74.88343 2.11045,-112.306002 -0.11062,-8.616 -1.01875,-16.94716 -2.63248,-25.03177 l 0.14859,0.87015 c -0.29749,-2.96794 -2.781373,-5.27792 -5.799963,-5.27792 -1.11701,0 -2.17374,0.32281 -3.05324,0.87016 l 0.0253,-0.0127 c -4.70495,2.53453 -8.89148,14.52657 -5.92323,19.23182 5.16399,8.18257 3.18948,14.76407 -2.25934,21.715702 -2.34796,3.6862 -4.71791,8.03398 -6.80304,12.5397 l -0.29749,0.70891 c -1.20562,1.737 -1.93653,3.88542 -1.93653,6.20806 0,2.52186 0.8575,4.84118 2.28466,6.69211 l -0.0253,-0.0253 c 0.74357,1.51577 1.18031,3.29075 1.18031,5.16399 0,1.87324 -0.43343,3.66419 -1.21829,5.23994 l 0.0253,-0.0759 c -4.70495,8.26787 -10.71378,15.89374 -16.36514,23.50334 -1.01875,0.98077 -2.19906,1.8003 -3.49028,2.40793 l -0.0853,0.038 c 0,-1.50311 -0.65827,-3.18948 0,-4.42042 2.86667,-6.2587 6.05947,-12.31817 9.07473,-18.52623 2.68342,-5.49915 4.28419,-10.62848 -2.63248,-14.81139 -0.98077,-1.25295 -1.57575,-2.85733 -1.57575,-4.59433 0,-0.87016 0.14859,-1.68969 0.42076,-2.47123 l -0.0127,0.0506 c 2.7434,-6.45822 5.89792,-12.00801 9.58411,-17.13403 l -0.17391,0.25952 c 4.42042,-5.92324 5.26526,-11.473332 0,-16.551722 -5.26526,-5.07839 -3.71151,-9.63504 -1.03171,-14.71344 4.70495,-8.7899 9.40085,-17.63074 14.1058,-26.23739 2.68342,-4.70495 1.83828,-6.44557 -3.34139,-6.44557 h -0.89547 c -5.36322,0 -13.68173,1.87655 -15.42235,-0.65827 -2.76871,-4.08496 -1.36687,-11.13786 -1.50311,-16.97248 0,-7.0529 0,-14.1058 0,-21.1083705 0,-1.6517 2.11045,-4.7049399869458 3.18948,-4.7049399869458 C 92.942147,0.33546751 117.84733,1.2182875 142.76818,1.3668775 c 6.20806,0 8.78991,0.84484 8.36914,7.80913 -0.65827,10.5305305 0,21.1083705 0,31.6859105 0,3.00593 -0.37344,5.68603 -4.70494,3.29076 -1.4142,-0.58202 -3.06591,-0.93014 -4.79387,-0.93014 -0.33546,0 -0.65827,0.0127 -0.98077,0.038 h 0.038 c -13.39719,-0.2375 -13.39719,0 -7.42634,11.84677 4.13559,8.23321 8.36914,16.40312 12.36549,24.68365 0.58201,1.12967 0.93013,2.45857 0.93013,3.87276 0,3.15482 -1.72434,5.91058 -4.28418,7.38837 l -0.038,0.0253 c -6.39493,4.70495 -4.98043,9.400852 -0.84484,14.615482 2.96795,3.84745 5.21463,8.3185 7.84711,12.50503 2.63248,4.18653 6.44557,9.02742 0,14.76408 -2.30998,1.97451 -1.83828,8.60333 -0.75623,12.60299 2.58184,7.72383 5.18931,14.06783 8.15725,20.21259 l -0.44608,-1.03171 c 0.39876,1.16764 0.69625,2.54386 0.84484,3.96168 l 0.0127,0.0853 c -1.34156,-0.80687 -2.49654,-1.72435 -3.52494,-2.76872 v 0 c -5.55009,-7.71117 -11.23582,-15.32077 -16.12764,-23.50334 -0.84484,-1.4778 -1.34156,-3.24012 -1.34156,-5.11637 0,-1.55375 0.33547,-3.02792 0.9428,-4.34447 l -0.0253,0.0633 c 4.70495,-5.92323 3.18948,-10.24238 -0.7942,-15.55828 -2.37327,-3.84745 -4.85384,-8.4674 -7.06556,-13.23564 l -0.36078,-0.8575 c -5.60073,-9.821622 -5.68603,-9.770982 1.83827,-19.605262 0.4714,-0.56001 1.737,-1.2656 1.68968,-1.36688 -3.81278,-6.71743 -7.7618,-13.34656 -11.65989,-20.02933 -2.96794,3.15481 -7.0529,5.07839 -7.18914,10.62848 -0.42076,18.28902 -1.45247,36.530412 -2.2084,54.768792 -0.28483,5.07839 -0.0979,9.78364 -0.0979,14.47593 z"
     id="path5"
     style="stroke-width:0.301406" />
</svg>
