<?xml version="1.0" encoding="UTF-8" standalone="no"?>
<!-- Generated by IcoMoon.io -->

<svg
   version="1.1"
   width="215"
   height="215"
   viewBox="0 0 215 215"
   id="svg7"
   sodipodi:docname="bladeborn-velmorn.svg"
   inkscape:version="1.2.1 (9c6d41e, 2022-07-14)"
   xmlns:inkscape="http://www.inkscape.org/namespaces/inkscape"
   xmlns:sodipodi="http://sodipodi.sourceforge.net/DTD/sodipodi-0.dtd"
   xmlns="http://www.w3.org/2000/svg"
   xmlns:svg="http://www.w3.org/2000/svg">
  <defs
     id="defs11" />
  <sodipodi:namedview
     id="namedview9"
     pagecolor="#ffffff"
     bordercolor="#000000"
     borderopacity="0.25"
     inkscape:showpageshadow="2"
     inkscape:pageopacity="0.0"
     inkscape:pagecheckerboard="0"
     inkscape:deskcolor="#d1d1d1"
     showgrid="false"
     inkscape:zoom="1.0029297"
     inkscape:cx="301.61636"
     inkscape:cy="512.99708"
     inkscape:window-width="2560"
     inkscape:window-height="1387"
     inkscape:window-x="0"
     inkscape:window-y="25"
     inkscape:window-maximized="1"
     inkscape:current-layer="svg7" />
  <title
     id="title2" />
  <g
     id="icomoon-ignore"
     transform="matrix(0.2742422,0,0,0.2742422,170.64812,-961.92156)" />
  <path
     fill="#ffffff"
     d="m 107.19913,2.8117407 c -0.96945,1.92792 -4.46275,7.6892003 -7.76188,12.8032703 l -5.99987,9.3023 1.47131,9.28584 c 2.02445,12.77228 2.22465,67.019299 0.2534,68.658719 -1.81823,1.51163 -4.78882,-0.80791 -4.78882,-3.737089 0,-1.15731 -1.01689,-4.7699 -2.26305,-8.02899 -1.24615,-3.2591 -3.04518,-9.03765 -4.00613,-12.84249 -0.96067,-3.80511 -3.98199,-12.07104 -6.71344,-18.36792 -5.46839,-12.59759 -5.32195,-10.31973 -2.12099,-32.94801 1.37834,-9.75369 0.10064,-9.89136 -8.28431,-0.88498 -11.01083,11.82807 -11.9246,13.96771 -12.01976,28.14082 l -0.0784,11.82916 5.58659,11.11367 c 5.07869,10.10006 6.72552,15.80512 7.6829,26.593539 0.16783,1.87664 -0.39628,2.91355 -1.72608,3.17956 -1.08326,0.21775 -1.97016,-0.17743 -1.97016,-0.87675 0,-2.13525 -4.52609,-11.359939 -9.95088,-20.278839 -5.36829,-8.82429 -7.88995,-19.94783 -8.04736,-35.50367 -0.0516,-5.0754 -2.01596,-13.06791 -3.6008,-14.65358 -0.97493,-0.97493 -6.36269,6.69425 -7.21559,10.27448 -0.42507,1.78861 -1.54124,4.13338 -2.47915,5.21335 -3.23167,3.71817 -1.22778,22.11598 3.09455,28.39613 1.94136,2.81893 4.22032,7.43032 5.06855,10.24596 0.84768,2.8151 2.85157,6.83768 4.45342,8.93756 3.50234,4.592999 3.60793,5.769499 0.65159,7.349959 -2.84773,1.52506 -2.02116,9.74492 1.24671,12.38725 1.40412,1.13536 1.87088,2.51864 1.42003,4.21537 -0.57674,2.18352 0.15439,2.90916 5.37569,5.34142 7.78327,3.62137 9.98681,3.64193 9.98681,0.0869 0,-3.43323 1.9696,-4.77894 3.73627,-2.55155 2.55978,3.23113 15.46671,4.51979 18.32788,1.83112 3.0685,-2.88229 10.42642,-2.65137 11.89882,0.37297 0.52874,1.08271 1.39343,2.85705 1.9282,3.94388 1.68439,3.42967 18.61775,2.87625 19.11468,-0.62473 0.67847,-4.79046 9.23977,-6.32567 12.54164,-2.2507 1.88323,2.32557 2.30446,2.38508 6.94053,1.01113 6.75129,-2.00471 7.75063,-3.06603 7.75063,-8.21273 0,-5.18017 3.34164,-5.84932 4.50333,-0.89979 0.80463,3.43324 4.58889,4.25761 7.26522,1.58045 1.26975,-1.26974 1.67809,-2.84197 1.21709,-4.67281 -0.38284,-1.51903 -0.20513,-3.35261 0.39464,-4.07085 1.46088,-1.76228 4.60507,-10.92361 4.62783,-13.48421 0.007,-1.128779 2.4254,-4.590819 5.36829,-7.694689 8.95374,-9.44024 15.65676,-31.1413 12.59951,-40.78804 -5.45632,-17.22269 -9.39005,-20.59203 -10.38528,-8.88847 -0.99303,11.68382 -4.34701,27.56491 -6.48089,30.69785 -1.05473,1.55002 -3.06383,5.09871 -4.46521,7.88446 -4.04781,8.05779 -11.6978,19.119899 -13.23794,19.136349 -2.38673,0.0236 -1.57882,-3.258539 2.53345,-10.275579 2.16953,-3.70145 3.94387,-7.00771 3.94387,-7.34722 0,-0.34253 1.20639,-3.02462 2.68072,-5.96038 3.87833,-7.72211 5.32057,-20.77193 3.63508,-32.92223 l -1.35366,-9.77454 -8.95702,-9.37634 c -12.26165,-12.83454 -12.53561,-12.43935 -9.56063,13.71513 2.47695,21.76029 1.32349,36.66206 -3.405,44.02794 -5.16535,8.04708 -8.94249,15.97213 -8.9455,18.774339 -0.005,2.15664 -0.608,2.53345 -4.05138,2.53345 h -4.04974 l 0.55754,-16.051119 c 0.30468,-8.82895 1.09669,-23.40136 1.76091,-32.38718 2.74818,-37.27939 3.4198,-32.76728 -7.28744,-49.1532503 -4.70682,-7.20407 -6.17511,-7.78903 -8.40799,-3.35261 z M 148.95168,130.79207 c -1.55002,1.2127 -4.5889,2.49012 -6.75897,2.83951 -2.16953,0.34883 -5.32826,0.85316 -7.02472,1.1211 -2.08945,0.32909 -3.75794,-0.24024 -5.18016,-1.76695 -2.54579,-2.73172 -5.35787,-1.91887 -6.2955,1.81521 -1.431,5.70644 -26.55871,4.96516 -26.55871,-0.78433 0,-3.09729 -2.73091,-3.72887 -7.64368,-1.76283 -4.17232,1.67041 -5.78487,1.5758 -16.07992,-0.93736 -1.93972,-0.47416 -3.36824,-0.12039 -4.36045,1.07613 -1.75186,2.10892 -9.14872,2.39523 -11.11559,0.42809 -3.45298,-3.45298 -4.06481,1.16224 -0.98699,7.44897 3.3186,6.77872 3.95704,14.25044 1.39507,16.37363 -3.98995,3.3123 -2.15198,14.13225 3.82814,22.52982 3.08605,4.33412 5.14314,4.35167 7.36395,0.0603 3.34055,-6.46169 9.55049,-1.30128 10.16534,8.44776 1.02786,16.29355 10.6757,36.14841 10.6757,21.96543 0,-3.66388 1.09011,-4.79376 3.3038,-3.42584 0.95875,0.59182 1.24972,1.95507 0.80051,3.74039 -1.51958,6.05362 4.07798,6.59717 7.42977,0.72181 2.17008,-3.80511 4.23567,-3.48699 4.23567,0.65242 0,5.11133 5.12422,4.78361 6.36269,-0.4067 0.99962,-4.18576 1.3778,-4.64786 3.24347,-3.93236 1.07502,0.41191 1.42057,1.52506 1.00043,3.20616 -0.77693,3.0973 0.97548,4.4622 3.79606,2.95222 1.98195,-1.06049 3.39293,-6.403 5.39517,-20.40718 1.55742,-10.90442 8.91726,-18.20859 12.66478,-12.5688 2.51068,3.78263 4.88974,2.84033 10.01998,-3.97075 6.53437,-8.67318 8.43213,-16.88427 4.92786,-21.33412 -2.74736,-3.49028 -2.61106,-5.16673 1.19926,-14.77508 3.86435,-9.75671 0.88745,-14.5362 -5.7983,-9.30558 z m -62.27327,22.42122 c 5.36225,4.57326 5.98451,6.57331 2.29102,7.37273 -8.15323,1.76721 -10.64307,1.08463 -13.88379,-3.8095 -6.29605,-9.51648 1.72169,-11.97945 11.59194,-3.5635 z m 50.05029,-2.78987 c 3.29448,7.22875 -5.36527,13.25934 -15.13625,10.5416 -8.35149,-2.32256 -8.00321,-4.18055 1.69345,-9.05493 9.73532,-4.89412 11.78748,-5.1212 13.4428,-1.48639 z M 106.83,164.78 c 0.45003,0.72702 1.20118,3.13569 1.66931,5.35157 0.46813,2.21587 1.18665,5.09953 1.59225,6.40876 1.02265,3.28186 -2.70759,4.73671 -4.89056,1.90571 -1.11233,-1.44443 -1.7195,-1.62461 -2.09439,-0.62472 -1.7535,4.67446 -4.90564,1.26946 -4.17232,-4.5069 1.13646,-8.93783 5.03838,-13.1554 7.89461,-8.53661 z"
     id="path5"
     style="stroke-width:0.274242" />
</svg>
