<?xml version="1.0" encoding="UTF-8" standalone="no"?>
<!-- Generated by IcoMoon.io -->

<svg
   version="1.1"
   width="215"
   height="215"
   viewBox="0 0 215 215"
   id="svg9"
   sodipodi:docname="bladeborn-ylthari.svg"
   inkscape:version="1.2.1 (9c6d41e, 2022-07-14)"
   xmlns:inkscape="http://www.inkscape.org/namespaces/inkscape"
   xmlns:sodipodi="http://sodipodi.sourceforge.net/DTD/sodipodi-0.dtd"
   xmlns="http://www.w3.org/2000/svg"
   xmlns:svg="http://www.w3.org/2000/svg">
  <defs
     id="defs13" />
  <sodipodi:namedview
     id="namedview11"
     pagecolor="#ffffff"
     bordercolor="#000000"
     borderopacity="0.25"
     inkscape:showpageshadow="2"
     inkscape:pageopacity="0.0"
     inkscape:pagecheckerboard="0"
     inkscape:deskcolor="#d1d1d1"
     showgrid="false"
     inkscape:zoom="1.0029297"
     inkscape:cx="301.61636"
     inkscape:cy="512.99708"
     inkscape:window-width="2560"
     inkscape:window-height="1387"
     inkscape:window-x="0"
     inkscape:window-y="25"
     inkscape:window-maximized="1"
     inkscape:current-layer="svg9" />
  <title
     id="title2" />
  <g
     id="icomoon-ignore"
     transform="matrix(0.27148693,0,0,0.27148693,227.519,-956.53417)" />
  <path
     fill="#ffffff"
     d="m 115.98625,196.19681 c -5.48023,3.97755 -11.29033,6.39216 -17.591272,2.27098 -2.42763,-1.60231 -5.8147,-4.20777 -5.86221,-6.35306 0.17782,-3.60426 1.84991,-6.80021 4.39021,-8.99301 l 0.013,-0.013 c 9.405672,-6.98264 32.850742,-4.45103 41.908902,3.24834 4.85038,4.06905 5.23698,12.30651 -2.7051,18.60745 -6.54392,6.08375 -15.29394,9.86583 -24.92141,10.03551 h -0.0391 c -11.537922,-0.48623 -23.214842,1.35906 -33.914422,-5.91434 -8.0466,-5.51933 -15.3591,-16.42306 -11.48579,-22.42862 4.65953,-5.77562 10.18727,-10.61297 16.43609,-14.38664 l 0.28234,-0.15176 c 3.11776,-2.01498 6.72202,-3.66942 10.56084,-4.7722 l 0.28235,-0.0782 c 4.60741,-1.5548 6.982652,-4.85038 5.42811,-9.16268 -1.51571,-3.59096 -4.1342,-6.47876 -7.43005,-8.28985 l -0.0912,-0.0391 c -3.72155,-1.51571 -8.02054,-2.51424 -12.52369,-2.79658 h -0.11729 c -13.1663,-2.16674 -23.08453,-13.46168 -23.08453,-27.07512 0,-0.70804 0.0261,-1.39816 0.0782,-2.08014 v 0.0912 c 0,-3.68245 0.72948,-5.51933 4.50315,-1.69353 2.51424,2.29705 5.74955,3.84724 9.31445,4.29899 l 0.0912,0.013 c 11.52489,0.47321 20.99137,8.71093 23.32751,19.60598 l 0.0261,0.16479 c 0.48624,1.88439 4.85039,4.85038 5.56684,4.22081 2.179772,-1.87136 3.990592,-4.10814 5.362962,-6.60935 l 0.0652,-0.13032 c 0.15176,-0.3475 0.23022,-0.74251 0.23022,-1.16821 0,-0.42569 -0.0912,-0.8207 -0.24325,-1.18123 l 0.013,0.0261 c -3.06563,-7.75123 -6.426642,-14.34754 -10.330622,-20.58333 l 0.30841,0.52533 c -2.93993,-2.86174 -6.91749,-4.68559 -11.30336,-4.85038 h -0.0261 c -16.27103,-0.6429 -29.22041,-13.98702 -29.22041,-30.36257 0,-1.02459 0.0521,-2.05407 0.15176,-3.0526 l -0.013,0.13031 c 0.43411,-2.01497 1.07699,-3.79973 1.89742,-5.4672 l -0.0652,0.13873 c 1.35906,1.06396 2.86174,2.04104 4.16868,3.19622 3.10472,2.86174 5.8147,7.80335 9.2539,8.38107 11.62453,1.98891 17.59127,9.30141 22.48075,18.90282 1.2073,2.37551 4.2599,3.82579 6.49179,5.72349 1.58929,-2.42764 2.926902,-5.22395 3.860272,-8.18533 l 0.0652,-0.24326 c 0.013,-0.20388 0.013,-0.4341 0.013,-0.66894 0,-8.18533 -4.733102,-15.26788 -11.611492,-18.65957 l -0.11729,-0.0521 c -7.66,-3.73458 -16.67065,-4.85039 -21.46918,-13.75679 -4.36415,-7.94235 -7.55575,-15.60235 -3.38707,-24.613 1.88439,-4.06905 2.47514,-3.87331 5.13273,0 3.61729,3.99058 7.36463,7.66 11.31639,11.0992 l 0.15176,0.13873 c 3.37404,3.55647 6.55695,7.37765 9.47082,11.40761 l 0.21719,0.32144 c 0.76858,1.11608 -0.24325,3.54344 0.53836,4.85038 1.97588,2.5794 4.00362,4.87672 6.18366,7.0174 l 0.013,0.013 c 2.041042,-2.37551 5.762582,-4.85039 5.862222,-7.0174 0,-5.8147 0.72948,-13.90882 -2.6185,-17.10476 -14.151792,-13.66557 -5.080602,-26.68852 -0.87283,-40.0245 1.20731,-3.19622 2.6185,-5.94041 4.27294,-8.50677 l -0.10425,0.17782 c 1.07698,-1.61535 2.16673,-3.02654 3.37404,-4.33809 l -0.0261,0.0261 c 0.99012,1.14215 1.88439,2.41461 2.65759,3.76064 l 0.0652,0.11728 c 2.42763,5.42811 4.85038,10.85622 6.93051,16.37555 4.12118,10.80409 6.73505,21.22593 -3.38707,30.80969 -6.35306,6.05769 -3.19621,14.5384 -2.37551,21.80339 0.60352,2.02801 2.46212,3.49132 4.6465,3.49132 1.47635,0 2.78356,-0.65591 3.68245,-1.69353 v -0.013 c 1.70657,-1.98892 2.93993,-4.4247 3.47829,-7.12165 l 0.013,-0.10425 c 1.22034,-6.89142 5.67109,-12.53672 11.68996,-15.3982 l 0.13031,-0.0521 c 4.05602,-2.36248 7.33856,-5.632 9.62285,-9.5577 l 0.0652,-0.13031 c 2.67062,-4.60741 3.29585,-1.11608 4.16868,0.43411 1.58929,2.46211 2.54031,5.4672 2.54031,8.69789 0,2.60546 -0.61655,5.06758 -1.7196,7.23893 l 0.0391,-0.0912 c -3.57792,8.53284 -10.34365,15.11612 -18.7592,18.38564 l -0.23022,0.0782 c -13.31806,5.56684 -18.90282,11.34245 -17.78674,23.64895 0.24325,2.67062 2.75749,5.13273 4.22081,7.75123 2.17977,-2.04104 5.37598,-3.63033 6.30094,-6.10982 3.68245,-10.22637 9.68801,-16.80965 21.12168,-18.25994 3.63032,-0.4341 6.68754,-5.37598 10.03552,-8.1332 1.25942,-1.06396 2.67061,-1.98892 4.01664,-2.95297 0.99853,1.51572 1.82385,3.27441 2.38855,5.14577 l 0.0391,0.13873 c 1.98891,14.53839 -10.90834,30.37097 -26.40618,32.3121 -12.44523,1.45028 -22.28989,10.98192 -24.20034,23.14969 l -0.0261,0.15176 c -0.11729,0.69501 -0.17783,1.47635 -0.17783,2.28402 0,2.13226 0.43411,4.15565 1.23337,6.00556 l -0.0391,-0.10425 c 0.72949,1.81082 2.47515,3.06563 4.50316,3.06563 2.028,0 3.77367,-1.25942 4.49012,-3.02653 l 0.013,-0.0391 c 1.97588,-2.78355 3.61729,-5.99253 4.7722,-9.43172 l 0.0782,-0.25629 c 1.74566,-7.6991 7.75122,-9.35354 13.90881,-11.43367 5.13274,-1.74566 10.12212,-3.97756 15.22038,-5.95344 l 3.8733,-1.5548 c 0.20389,0.99853 0.3866,2.23189 0.4732,3.47829 v 0.10425 c -0.24325,18.31206 -10.46962,29.65452 -28.09971,29.70664 -0.42569,-0.0521 -0.92496,-0.0782 -1.42422,-0.0782 -6.24881,0 -11.54634,4.04299 -13.42258,9.66195 l -0.0261,0.10425 c -3.24834,12.88396 -12.93635,17.73461 -23.353572,21.66004 -7.6991,2.86175 -15.11613,6.93052 -15.16825,14.87287 -0.0521,7.94235 8.48071,11.38155 15.79782,13.47471 13.075092,3.73458 25.047122,-0.92495 36.776172,-5.8147 4.01664,-1.64141 3.97755,-7.66001 0.57745,-10.99495 -4.85039,-4.85039 -19.37602,-5.51933 -24.95589,-1.50268 -3.92543,2.70509 -1.74567,5.32386 0.57745,6.43967 2.78355,0.93798 5.9795,1.51571 9.31444,1.60231 h 0.0391 z"
     id="path5"
     style="stroke-width:0.271487" />
  <path
     fill="#ffffff"
     d="m 107.11572,107.6933 0.76857,-0.3866 h -0.62957 z"
     id="path7"
     style="stroke-width:0.271487" />
</svg>
