<?xml version="1.0" encoding="UTF-8" standalone="no"?>
<!-- Generated by IcoMoon.io -->

<svg
   version="1.1"
   width="215"
   height="215"
   viewBox="0 0 215 215"
   id="svg7"
   sodipodi:docname="bladeborn-zarbag.svg"
   inkscape:version="1.2.1 (9c6d41e, 2022-07-14)"
   xmlns:inkscape="http://www.inkscape.org/namespaces/inkscape"
   xmlns:sodipodi="http://sodipodi.sourceforge.net/DTD/sodipodi-0.dtd"
   xmlns="http://www.w3.org/2000/svg"
   xmlns:svg="http://www.w3.org/2000/svg">
  <defs
     id="defs11" />
  <sodipodi:namedview
     id="namedview9"
     pagecolor="#ffffff"
     bordercolor="#000000"
     borderopacity="0.25"
     inkscape:showpageshadow="2"
     inkscape:pageopacity="0.0"
     inkscape:pagecheckerboard="0"
     inkscape:deskcolor="#d1d1d1"
     showgrid="false"
     inkscape:zoom="1.0029297"
     inkscape:cx="301.61636"
     inkscape:cy="512.99708"
     inkscape:window-width="2560"
     inkscape:window-height="1387"
     inkscape:window-x="0"
     inkscape:window-y="25"
     inkscape:window-maximized="1"
     inkscape:current-layer="svg7" />
  <title
     id="title2" />
  <g
     id="icomoon-ignore"
     transform="matrix(0.28589723,0,0,0.28589723,145.6447,-983.87031)" />
  <path
     fill="#ffffff"
     d="m 195.34741,107.63847 c -0.23529,3.14516 -0.38453,6.82351 -0.38453,10.51673 0,3.69322 0.13294,7.37158 0.41512,11.00819 l -0.0306,-0.4906 c 0.13294,1.22993 0.22185,2.66857 0.22185,4.1235 0,10.26599 -3.93051,19.62541 -10.36834,26.64304 l 0.0306,-0.0306 c -8.60637,10.31174 -16.6438,21.79223 -23.67687,33.92743 l -0.63841,1.18819 c -3.07053,5.17931 -8.263,8.81106 -14.3589,9.71793 l -0.10235,0.0154 c -18.79488,3.82673 -37.71242,7.25378 -56.283164,10.69627 -0.28189,0.0306 -0.62468,0.046 -0.94775,0.046 -1.52669,0 -2.95074,-0.36967 -4.21269,-1.03981 l 0.046,0.0306 c -4.86655,-2.33092 -8.82651,-4.52318 -12.66868,-6.91356 l 0.5635,0.32792 c -10.13277,-6.12706 -20.08599,-12.55089 -30.21905,-18.67738 -11.25978,-6.75175 -20.20378,-14.58448 -19.58396,-29.49116 -0.60925,-4.91142 -1.80858,-9.37457 -3.55999,-13.55982 l 0.11779,0.34279 c -0.2819,-1.06839 -0.44572,-2.98133 0,-3.26351 0.69644,-0.46115 1.55728,-0.72704 2.4793,-0.72704 0.50404,0 0.97834,0.0741 1.43949,0.22186 l -0.0306,-0.0154 c 3.93052,1.82402 7.33012,4.02114 10.35348,6.63139 l -0.0606,-0.046 c 5.03036,4.76362 11.83844,7.68434 19.31636,7.68434 1.32171,0 2.62711,-0.0875 3.90336,-0.26674 l -0.14838,0.0154 c 1.05496,-0.17897 2.2543,-0.26674 3.48709,-0.26674 1.23278,0 2.44871,0.10235 3.62146,0.29733 l -0.13295,-0.0154 c 11.25978,2.41783 17.84714,-4.61524 22.90409,-12.49028 5.05695,-7.87504 7.53539,-15.75551 13.959794,-22.17848 0.68101,-0.71188 1.11157,-1.69022 1.11157,-2.76119 0,-2.21056 -1.79401,-3.99055 -3.990564,-3.99055 -0.0875,0 -0.19441,0 -0.28189,0.0154 h 0.0154 c -4.22642,-0.28189 -8.44198,0 -12.66868,0 -1.73683,-0.35622 -3.27867,-0.94775 -4.70301,-1.73682 l 0.0875,0.046 c 0.46116,-1.94182 1.20277,-3.64834 2.18197,-5.19361 l -0.046,0.0741 c 6.1425,-6.69057 12.32903,-13.395717 18.856934,-19.759787 2.76119,-2.64055 2.53562,-4.05145 0,-6.52618 -7.597154,-7.03307 -14.747734,-14.62678 -22.519274,-21.43857 -2.26974,-2.38724 -5.46064,-3.8882 -9.00548,-3.8882 -1.72139,0 -3.36615,0.35622 -4.86654,0.99377 l 0.074,-0.0306 c -9.07781,3.16031 -20.61977,6.30604 -32.40102,8.7679 l -1.98756,0.35623 c -0.26674,0.0606 -0.5635,0.0875 -0.87599,0.0875 -1.05496,0 -2.00299,-0.39968 -2.7306,-1.05496 v 0 c -0.26674,-0.53263 -0.43028,-1.1576 -0.43028,-1.82402 0,-0.66643 0.16354,-1.29111 0.43028,-1.85462 l -0.0154,0.0306 c 7.65375,-13.67761 15.53222,-27.17739 23.1288,-40.85671 1.69022,-2.92273 2.98133,-5.6236 7.08968,-5.17932 12.32903,1.35058 23.3072,-4.7336 35.11618,-6.4083795 15.250334,-1.82403 28.912504,-4.62925 42.146694,-8.44198 l -1.85462,0.46116 c 11.25978,-3.54484 15.75551,-0.90687 21.11065,9.5695495 7.80185,16.62892 17.51978,30.93065 29.13808,43.43665 l -0.10236,-0.10235 c 12.55089,12.43253 12.83222,25.88742 12.49028,40.85671 -0.11779,4.05145 0,8.278437 0,12.432527 z M 146.8358,72.629503 v 0 c -1.45494,-0.13294 -3.16031,-0.20842 -4.86655,-0.20842 -1.70623,0 -3.41189,0.074 -5.08668,0.22186 l 0.22186,-0.0154 c -8.05573,1.4089 -18.41121,1.91494 -21.55637,9.34569 -2.53562,5.6236 5.11727,12.61122 8.78133,18.738567 0.5941,0.74304 1.21621,1.4089 1.90065,2.01814 l 0.0154,0.0154 c 1.75226,2.2543 3.38102,2.31548 5.6236,0 8.21697,-9.345687 16.54144,-18.513557 24.70123,-27.862397 0,-0.28189 -0.68101,-2.2543 -1.12672,-2.31548 -3.04252,-0.0606 -5.86032,0.0606 -8.60637,0.0606 z m 2.80722,78.802707 -1.12672,-7.59715 c -2.70001,2.4793 -5.6236,4.77706 -8.05573,7.49137 -2.43212,2.71431 -2.58165,4.89713 -4.39023,6.80807 -1.80859,1.91094 -1.47009,3.48709 0.28189,5.6236 1.58787,2.41783 4.28789,3.99055 7.35699,3.99055 1.30655,0 2.55106,-0.28189 3.67836,-0.79965 l -0.0606,0.0306 c 1.75226,-0.94775 1.69022,-5.6236 2.2543,-8.44198 0.10235,-1.17275 0.16353,-2.52047 0.16353,-3.90335 0,-1.09613 -0.046,-2.19712 -0.11779,-3.27867 l 0.0154,0.14838 z m -39.38892,-10.59249 -1.51182,-8.05573 c -2.19712,2.81781 -4.45142,5.6236 -6.69057,8.38079 -1.55728,1.65964 -2.966184,3.50053 -4.199264,5.47579 l -0.0875,0.14838 c -1.29112,2.53563 -1.79401,5.6236 1.794,6.75175 3.588014,1.12815 5.962674,1.69023 8.944014,2.53563 0.5635,-2.58166 1.22993,-5.11728 1.69023,-7.71494 0.11778,-1.4089 0.17897,-3.04252 0.17897,-4.68757 0,-0.97834 -0.0306,-1.95697 -0.074,-2.93617 v 0.13295 z m 14.78975,-6.40953 c -0.8454,0.78622 -2.31548,1.47008 -2.58165,2.41783 -0.14838,0.8454 -0.23529,1.82403 -0.23529,2.8178 0,0.99378 0.0875,1.97241 0.2513,2.90929 l -0.0154,-0.10235 c 0.39968,4.39024 1.0684,8.84166 1.57244,13.2319 7.20918,-0.34279 6.08046,-8.55976 10.69627,-11.25978 0.50404,0 0,-3.70923 -0.90687,-4.55377 -2.50617,-1.83918 -5.35485,-3.6349 -8.3379,-5.22048 l -0.38454,-0.17897 z"
     id="path5"
     style="stroke-width:0.285897" />
</svg>
