<?xml version="1.0" encoding="UTF-8" standalone="no"?>
<svg
   version="1.1"
   width="215"
   height="215"
   viewBox="0 0 215 215"
   id="svg6"
   sodipodi:docname="chaos_legionnaires.svg"
   inkscape:version="1.2.1 (9c6d41e, 2022-07-14)"
   xmlns:inkscape="http://www.inkscape.org/namespaces/inkscape"
   xmlns:sodipodi="http://sodipodi.sourceforge.net/DTD/sodipodi-0.dtd"
   xmlns="http://www.w3.org/2000/svg"
   xmlns:svg="http://www.w3.org/2000/svg"
   xmlns:rdf="http://www.w3.org/1999/02/22-rdf-syntax-ns#"
   xmlns:cc="http://creativecommons.org/ns#"
   xmlns:dc="http://purl.org/dc/elements/1.1/">
  <metadata
     id="metadata12">
    <rdf:RDF>
      <cc:Work
         rdf:about="">
        <dc:format>image/svg+xml</dc:format>
        <dc:type
           rdf:resource="http://purl.org/dc/dcmitype/StillImage" />
        <dc:title>factions-chaos-chaos-legionnaires</dc:title>
      </cc:Work>
    </rdf:RDF>
  </metadata>
  <defs
     id="defs10" />
  <sodipodi:namedview
     pagecolor="#ffffff"
     bordercolor="#666666"
     borderopacity="1"
     objecttolerance="10"
     gridtolerance="10"
     guidetolerance="10"
     inkscape:pageopacity="0"
     inkscape:pageshadow="2"
     inkscape:window-width="1728"
     inkscape:window-height="971"
     id="namedview8"
     showgrid="false"
     inkscape:zoom="3.3203125"
     inkscape:cx="97.731765"
     inkscape:cy="100.74353"
     inkscape:window-x="0"
     inkscape:window-y="38"
     inkscape:window-maximized="1"
     inkscape:current-layer="svg6"
     inkscape:showpageshadow="2"
     inkscape:pagecheckerboard="0"
     inkscape:deskcolor="#d1d1d1" />
  <title
     id="title2">factions-chaos-chaos-legionnaires</title>
  <path
     d="m 108.18193,206.25836 c -1.77386,-10.13251 -4.43465,-17.22795 -6.46384,-17.22795 -0.75927,0 -0.38299,-1.51853 0.88693,-3.2924 2.15685,-3.29239 2.15685,-3.42005 -1.39087,-6.08084 -1.901524,-1.39087 -5.193917,-4.17933 -7.350771,-6.08085 -2.029189,-2.02919 -4.179324,-3.54772 -4.689981,-3.54772 -0.631602,0 -3.164729,1.39086 -5.704575,3.16472 -2.533127,1.6462 -4.562316,2.40547 -4.562316,1.6462 0,-2.66079 2.916119,-11.1471 3.80305,-11.1471 1.014595,0 1.646196,-2.78846 4.051659,-16.22008 1.269923,-7.59938 1.142259,-8.11004 -2.029189,-12.92096 -3.043784,-4.56232 -3.80305,-5.06626 -8.613976,-5.06626 -9.500906,0 -21.28633,7.98238 -21.28633,14.56716 0,1.14226 -0.631602,1.6462 -1.390868,1.14226 -0.886931,-0.50393 -1.142259,-3.16473 -0.886931,-6.96778 0.886931,-8.74164 6.080849,-15.58175 15.205482,-20.27173 4.179323,-2.02919 7.727045,-4.56232 8.237702,-5.70458 0.382993,-1.01459 1.646197,-1.51853 2.788456,-1.14226 3.043784,0.88693 7.095443,-2.27779 6.080848,-4.81092 -0.382992,-1.14226 -2.660791,-2.53313 -4.93859,-3.16473 -3.043783,-0.75927 -4.938589,-2.40546 -6.71245,-5.825521 -2.405463,-4.434652 -2.405463,-4.810925 -0.255329,-5.953184 2.91612,-1.646197 2.788456,-7.095444 -0.255328,-8.741645 C 71.058516,81.85293 70.547859,80.45534 70.930852,78.80914 71.43479,77.16295 70.29925,74.75748 67.510794,71.7137 63.58008,67.15138 60.287687,60.31127 60.926008,58.03347 c 0.255328,-0.50394 -0.127664,-1.6462 -0.886931,-2.53313 -1.390868,-1.64619 -3.043784,-13.30395 -2.788455,-20.3994 0,-2.78845 1.142259,-8.8693 2.533127,-13.55928 C 62.44454,12.28936 62.189212,9.2523 58.265217,3.67539 L 55.73209,0 60.670679,2.53313 c 9.252297,4.68998 10.011564,6.46384 9.628571,21.28633 -0.255328,11.02616 0,14.19088 2.156854,18.88087 3.420057,7.8547 6.840115,7.2231 7.223107,-1.14226 0.127664,-2.02919 1.269923,-4.56232 2.533127,-5.44925 2.156854,-1.51853 2.660792,-1.39087 4.179324,0.75927 0.88693,1.51853 2.91612,2.66079 4.434652,2.66079 3.930715,0 10.387836,-4.43466 13.559286,-9.12464 l 2.66079,-4.17932 7.72705,7.35077 c 8.2377,7.59938 10.1325,8.36537 13.55928,5.32158 2.02919,-1.77386 2.40546,-1.51853 4.30699,3.80306 2.53313,6.46384 4.17932,6.96777 8.35865,2.53312 2.78845,-2.91612 3.04378,-4.68998 3.80305,-19.00181 0.6316,-15.45409 0.75927,-15.96475 4.43465,-19.51247 2.15686,-2.02919 5.82552,-3.93071 8.23771,-4.43465 l 4.43465,-0.75927 -3.42006,2.66079 c -5.06625,3.67539 -5.70457,9.37324 -2.2778,20.3994 3.93072,13.04863 4.93859,20.3994 3.54772,27.87112 -1.77386,9.50091 -6.46384,17.86627 -13.04862,23.31552 -7.22312,5.82552 -10.38785,11.274767 -8.11005,13.935558 0.75927,1.014595 2.53313,1.773861 3.80305,1.773861 1.39087,0 2.40547,0.255328 2.40547,0.631602 0,1.773861 -3.80305,9.500909 -4.68998,9.628569 -0.50394,0.12767 -2.2778,0.38299 -3.93072,0.50394 -5.06625,0.50394 -6.33618,3.04378 -2.91612,5.82552 1.6462,1.26992 3.93072,2.40546 5.06626,2.40546 1.26992,0 3.54772,1.39087 5.19391,3.16473 1.6462,1.77386 5.82553,4.93859 9.12464,7.09545 6.58479,4.30698 9.8839,9.88389 9.8839,16.85167 v 3.93072 l -3.29239,-4.17933 c -6.71245,-8.61397 -21.66261,-12.16169 -26.85653,-6.58478 -2.66079,2.91612 -5.70458,17.61094 -4.05166,19.64013 1.39087,1.77386 6.46384,16.85168 7.59938,22.54953 l 1.0146,4.81093 -3.80305,-3.54772 -3.67539,-3.54772 -4.56232,2.53312 c -6.33617,3.54773 -10.26017,8.86931 -8.48631,11.78543 1.0146,1.6462 1.0146,2.91612 -0.38299,4.93859 -1.0146,1.51853 -2.78846,7.72704 -4.05166,13.93556 L 109.7139,215 l -1.51853,-8.74164 z m 3.04378,-54.2237 c 1.26993,-4.68998 3.16473,-7.59938 3.16473,-5.06626 0,3.67539 2.66079,1.0146 4.05166,-4.05166 0.88693,-3.42005 2.02919,-5.32158 3.04379,-4.93859 1.39087,0.50394 1.51853,-1.14225 0.75926,-13.80789 -0.38299,-4.56232 -2.53312,-4.56232 -3.67538,-0.12766 l -0.75927,3.54772 -1.26992,-3.54772 c -1.51853,-4.56232 -2.91612,-4.30699 -4.05166,0.75926 l -1.0146,4.05166 -0.75926,-4.93859 c -1.14226,-7.09544 -3.93072,-7.47843 -3.93072,-0.50394 0,3.93072 -0.38299,4.93859 -1.26992,3.54773 -0.6316,-1.0146 -1.26992,-3.16473 -1.26992,-4.68998 0,-1.77386 -0.75927,-2.91612 -1.90153,-2.91612 -1.39087,0 -1.90152,1.39086 -2.02919,4.81092 0,4.30699 -0.12766,4.43465 -1.390866,1.77386 -1.901525,-3.93071 -4.05166,-2.78845 -4.562316,2.2778 -0.382993,3.04379 -0.759267,3.80305 -1.518533,2.53313 -2.029189,-3.29239 -2.788455,-0.25533 -1.142259,4.93859 1.646197,5.44924 3.164729,6.71245 3.930715,3.04378 0.255328,-1.26992 1.142259,1.0146 2.029189,5.06626 1.773861,7.47843 3.29239,8.74164 6.08085,5.06625 1.51853,-2.02919 1.6462,-2.02919 1.77386,1.14226 0,8.2377 3.54772,9.50091 5.70458,2.02919 z m -4.43465,-47.25592 c 1.26993,-1.51854 1.90153,-1.6462 2.66079,-0.50394 1.14226,2.02919 4.93859,0.50394 4.93859,-2.02919 0,-3.16473 -3.67538,-9.500907 -5.57691,-9.500907 -2.2778,0 -5.32158,3.80305 -6.33617,7.982377 -1.26993,5.57691 1.14225,7.85471 4.30698,4.05166 z M 93.359441,91.985437 c 3.547722,-1.390869 2.277799,-4.93859 -2.405463,-7.223108 -5.953184,-2.788459 -7.854709,-2.660789 -8.996968,0.631602 -1.518533,4.68998 5.576911,8.869304 11.402431,6.584786 z m 37.251079,-1.773861 c 3.29239,-3.043784 3.54772,-5.449247 0.88693,-7.599386 -1.39087,-1.14225 -2.91612,-0.88693 -7.09544,1.518537 -6.46384,3.547722 -7.47844,5.704575 -3.42006,7.223108 4.56232,1.901525 6.58479,1.646196 9.62857,-1.142259 z"
     id="path4"
     style="stroke-width:6.71917" />
</svg>
