<?xml version="1.0" encoding="UTF-8" standalone="no"?>
<!-- Generated by IcoMoon.io -->

<svg
   version="1.1"
   width="215"
   height="215"
   viewBox="0 0 215 215"
   id="svg7"
   sodipodi:docname="claws-of-karanak.svg"
   inkscape:version="1.2.1 (9c6d41e, 2022-07-14)"
   xmlns:inkscape="http://www.inkscape.org/namespaces/inkscape"
   xmlns:sodipodi="http://sodipodi.sourceforge.net/DTD/sodipodi-0.dtd"
   xmlns="http://www.w3.org/2000/svg"
   xmlns:svg="http://www.w3.org/2000/svg">
  <defs
     id="defs11" />
  <sodipodi:namedview
     id="namedview9"
     pagecolor="#ffffff"
     bordercolor="#000000"
     borderopacity="0.25"
     inkscape:showpageshadow="2"
     inkscape:pageopacity="0.0"
     inkscape:pagecheckerboard="0"
     inkscape:deskcolor="#d1d1d1"
     showgrid="false"
     inkscape:zoom="2.0058594"
     inkscape:cx="150.80818"
     inkscape:cy="136.84907"
     inkscape:window-width="2560"
     inkscape:window-height="1387"
     inkscape:window-x="0"
     inkscape:window-y="25"
     inkscape:window-maximized="1"
     inkscape:current-layer="svg7" />
  <title
     id="title2" />
  <g
     id="icomoon-ignore"
     transform="matrix(0.41991629,0,0,0.41991629,35.367125,-296.99415)" />
  <path
     fill="#000000"
     d="m 129.92625,0.3912232 c -0.6664,0.26581 -1.38404,0.63869 -1.594,0.82807 -0.2108,0.18981 -0.48332,0.34476 -0.60552,0.34476 -0.12303,8.4e-4 -0.64289,0.43251 -1.15477,0.96034 -0.51188,0.52826 -1.16652,1.03384 -1.45417,1.1237 -0.28764,0.0899 -0.57738,0.23053 -0.64415,0.31242 -0.82387,1.01788 -4.87523,3.40048 -6.40372,3.76581 -0.38968,0.0932 -1.05189,0.54463 -1.47097,1.00276 -0.41992,0.45813 -0.83983,0.83311 -0.93305,0.83311 -0.0932,0 -0.57613,0.25867 -1.07373,0.5748698 -3.6856,2.34397 -16.793706,1.45627 -20.146736,-1.3659898 -0.37793,-0.3183 -1.00486,-0.7105 -1.39454,-0.87133 -0.66305,-0.27462 -2.74962,-3.06161 -2.74962,-3.67216 0,-0.13858 -0.24901,-0.34644 -0.55387,-0.46233 -0.30486,-0.1159 -0.76802,-0.62988 -1.03005,-1.14176 -1.74937,-3.41769 -6.68843,-3.47942 -9.51572,-0.11757 -2.05255,2.44139 -3.19977,3.90732 -3.19977,4.0904 0,0.10582 -0.3817,0.55261 -0.84907,0.9931 -0.46694,0.4405 -0.91499,1.06407 -0.99562,1.38657 -0.0815,0.32249 -0.23263,0.58578 -0.33677,0.58578 -0.67397,0 -3.5378,5.1120598 -3.98795,7.1200998 -0.43965,1.95681 -2.84745,3.81116 -5.391721,4.15045 -5.381227,0.71848 -6.788787,1.29167 -9.217162,3.75322 l -1.317698,1.33617 0.160408,5.21074 c 0.130174,4.2189 0.269167,5.67181 0.730655,7.63408 1.277385,5.43246 1.376905,10.19347 0.270846,13.02748 -0.325016,0.8327 -0.726456,1.95051 -0.893162,2.48339 -0.794062,2.54637 -1.095562,3.20438 -1.785484,3.89346 -3.580207,3.57139 -4.451113,6.55783 -3.282486,11.25376 1.725016,6.93366 1.523036,12.93468 -0.597961,17.81369 -0.289322,0.6664 -0.783984,1.97528 -1.097241,2.90834 -0.314097,0.93305 -0.825975,2.07648 -1.137973,2.54049 -0.311998,0.46401 -0.566887,0.98218 -0.566887,1.15141 0,0.16923 -0.09574,0.30738 -0.212898,0.30738 -0.117576,0 -0.35063,0.33173 -0.519016,0.73695 -0.168387,0.40522 -0.492562,0.86881 -0.721836,1.03006 -0.228855,0.16082 -0.487943,0.51943 -0.575286,0.79532 -0.08734,0.27714 -0.34811,0.71302 -0.580324,0.96959 -0.231794,0.25698 -0.723096,0.93053 -1.091362,1.49742 -0.368267,0.56688 -0.791123,1.030047 -0.940193,1.030047 -0.14823,0 -0.95279,0.68195 -1.788004,1.51464 -1.514218,1.51044 -3.142233,2.36287 -4.51368,2.36287 -1.220276,0 -4.427597,1.44451 -4.844574,2.18146 -0.50348,0.89149 -2.153751,4.58549 -2.490523,5.57439 -0.20408,0.59964 -0.489623,2.45399 -0.634914,4.12022 -0.144871,1.66623 -0.474925,4.74002 -0.734013,6.83078 -0.526995,4.26761 -0.60426,7.48081 -0.197361,8.27193 0.579904,1.12873 1.466348,1.85729 1.946312,1.6003 0.428314,-0.22885 2.146612,-0.37163 11.354116,-0.93767 3.968629,-0.24439 5.154473,-0.44091 6.786267,-1.12538 1.245892,-0.52195 3.21488,-1.57384 3.654112,-1.95093 0.210798,-0.18056 0.6009,-0.32837 0.867547,-0.32837 0.909959,0 3.06161,-1.73552 3.305161,-2.66605 0.414457,-1.58099 0.06761,-5.74866 -0.645411,-7.75544 -1.524296,-4.29112 -1.65741,-5.32705 -0.757109,-5.9162 0.333833,-0.21877 0.945231,-0.99646 1.358429,-1.72795 0.529934,-0.93977 1.140912,-1.58981 2.079845,-2.21254 0.730655,-0.48542 1.589803,-1.27403 1.90852,-1.75357 1.732574,-2.60432 8.798081,-4.15465 12.804931,-2.80924 0.9931,0.33341 2.01181,0.60552 2.26376,0.60552 1.07877,0 4.96593,3.64571 5.62058,5.27121 0.17469,0.43335 0.39011,0.78776 0.47913,0.78776 0.873,0 2.11806,5.36191 1.84679,7.95237 -0.50138,4.77949 -0.63743,5.37913 -1.86779,8.21063 -0.24229,0.55849 -0.56101,1.59484 -0.70714,2.3024 -0.14655,0.70756 -0.43671,1.421 -0.64541,1.58476 -0.2087,0.16377 -0.67942,0.56437 -1.04559,0.89149 -0.36659,0.32669 -1.02459,0.77936 -1.46131,1.00527 -1.40714,0.72772 -1.63347,1.19635 -1.26479,2.61734 0.17553,0.67733 0.31914,1.47391 0.31914,1.76995 0,0.29604 0.33761,1.38992 0.74955,2.43174 0.41278,1.04139 0.94481,2.38428 1.18249,2.98392 0.23809,0.59964 0.78986,1.84007 1.22573,2.75633 0.52112,1.09304 0.90408,2.40738 1.11488,3.82292 0.18518,1.25051 0.62903,2.86047 1.05441,3.82922 0.72519,1.65237 0.73737,1.75357 1.0775,8.6931 0.44638,9.10169 0.32544,10.08387 -1.70234,13.89503 -0.18728,0.35231 -0.40774,1.17073 -0.48962,1.81782 -0.1982,1.56923 -1.99628,5.36653 -3.23965,6.84086 -1.37901,1.63515 -2.01518,4.52375 -1.35465,6.14799 1.40714,3.45843 2.73155,5.66299 4.47211,7.4447 1.6805,1.71956 3.90858,5.21788 3.90858,6.13708 0,1.04685 3.23335,4.77948 4.13995,4.77948 0.41068,0 3.99382,-3.81074 4.38645,-4.66485 0.22885,-0.4997 0.48584,-1.59064 0.57024,-2.42375 0.25741,-2.54092 1.00906,-4.52796 2.17643,-5.75664 0.56941,-0.59964 1.1153,-1.36347 1.2123,-1.69646 0.0974,-0.33341 0.25741,-0.71512 0.35651,-0.84865 0.0978,-0.13312 0.0374,-0.89652 -0.13564,-1.69646 -0.17258,-0.79952 -0.32081,-1.73342 -0.32963,-2.07523 -0.009,-0.34181 -0.45981,-1.35717 -1.00234,-2.25705 -1.18375,-1.96227 -1.41302,-3.03641 -1.66497,-7.78567 -0.20786,-3.91026 -0.16713,-4.17103 1.68806,-10.90606 0.68531,-2.48801 1.39958,-6.28447 1.57385,-8.36138 0.31704,-3.791 0.77139,-5.22543 2.08237,-6.57169 0.65213,-0.66892 1.185,-1.24379 1.185,-1.2778 0,-0.034 0.21458,-1.06575 0.47702,-2.29358 0.506,-2.36581 0.5123,-2.17139 -0.26664,-8.51927 -0.23894,-1.94799 -0.41278,-2.50816 -1.13168,-3.63563 -0.46778,-0.73318 -0.93767,-1.66035 -1.04517,-2.06011 -0.1075,-0.39976 -0.37708,-1.32694 -0.59922,-2.06011 -1.29838,-4.27349 -0.57403,-12.75916 1.43779,-16.8441 0.59083,-1.19928 1.24464,-2.58249 1.45207,-3.07253 0.26497,-0.624 0.7273,-1.08884 1.541936,-1.54949 1.2694,-0.71764 3.99886,-2.52874 4.19286,-2.78195 0.93641,-1.22279 6.45537,-1.34163 8.60744,-0.18476 0.77727,0.41698 2.8252,2.83738 3.63186,4.29113 0.26665,0.48038 0.73108,1.25555 1.03341,1.72207 0.30234,0.46653 0.66305,1.28453 0.80288,1.81782 0.36785,1.40126 2.06305,5.99095 3.02718,8.19551 0.45561,1.04139 0.93893,2.5892 1.07499,3.43827 0.13563,0.84991 0.61685,2.2877 1.06868,3.19598 1.22742,2.46491 1.93708,10.36102 1.16485,12.9645 -0.13143,0.44217 -0.42495,1.89466 -0.65213,3.2279 -0.22633,1.33281 -0.62777,2.9688 -0.89064,3.63563 -1.59778,4.04673 -2.16425,6.27229 -2.0937,8.22994 l 0.0697,1.93413 2.06011,1.56881 c 1.13336,0.86293 2.27217,1.84805 2.53168,2.18861 0.25951,0.34139 0.93095,1.05692 1.49238,1.5898 0.56899,0.54043 1.497,1.88458 2.0958,3.03641 1.00444,1.93204 3.21572,4.55819 4.13534,4.91092 0.4111,0.15831 1.13671,3.76203 1.13587,5.64704 -8.4e-4,0.67858 0.1222,2.14913 0.27337,3.26737 0.47198,3.50924 -0.10708,8.18962 -1.15981,9.37085 -0.44721,0.5018 -1.14049,1.36683 -1.54025,1.92322 l -0.72772,1.01157 0.6072,0.47829 c 0.33425,0.26245 0.60762,0.57738 0.60762,0.69958 0,0.1222 0.43041,0.54211 0.95573,0.93432 0.8961,0.66808 1.99754,2.57702 2.92345,5.06629 0.30192,0.80959 1.44158,2.16088 4.17901,4.95291 1.03342,1.05399 1.87829,1.98032 1.87829,2.05927 0,0.85873 3.48362,4.2802 4.86137,4.77529 1.48776,0.53455 3.35723,-0.62778 3.37319,-2.09665 0.01,-0.86922 0.98428,-3.43407 1.4739,-3.87708 0.25867,-0.2339 0.47115,-0.57823 0.47115,-0.76425 0,-0.18602 0.15621,-0.63995 0.34727,-1.00948 0.19106,-0.36869 0.67144,-2.39856 1.06827,-4.5099 0.50306,-2.67781 0.83605,-3.90354 1.10228,-4.05261 2.11763,-1.18501 2.25411,-6.59815 0.20911,-8.30469 -0.43335,-0.36155 -0.78776,-0.76425 -0.78776,-0.89442 0,-0.32922 -1.10522,-1.81152 -2.32046,-3.11326 -0.56016,-0.59964 -1.13125,-1.47223 -1.26898,-1.93917 -0.13816,-0.46653 -0.43672,-1.50289 -0.66431,-2.30241 -0.2276,-0.79952 -0.73192,-1.91817 -1.1216,-2.48548 -0.44763,-0.65129 -0.80288,-1.5877 -0.96455,-2.54469 -0.14151,-0.8327 -0.57192,-2.42166 -0.9574,-3.53276 -0.44638,-1.28704 -0.70084,-2.50732 -0.70084,-3.36563 0,-0.74073 -0.1285,-2.31374 -0.28639,-3.49496 -0.22003,-1.64985 -0.22003,-2.72358 0,-4.6321 0.89358,-7.76887 0.65003,-12.3216 -0.71344,-13.32982 -0.62231,-0.46023 -3.12081,-4.50696 -3.12081,-5.05369 0,-0.11002 -0.31116,-0.55849 -0.69119,-0.99646 -0.9784,-1.12664 -1.13671,-1.5201 -1.4907,-3.70451 -0.33803,-2.08614 -1.04559,-3.74943 -2.13527,-5.01967 -1.87661,-2.18861 -1.76869,-1.42562 -1.81824,-12.84776 -0.0504,-11.64386 -0.089,-11.37008 1.80144,-12.64368 1.07499,-0.72352 2.63792,-2.39395 2.63792,-2.81806 0,-0.25573 2.49934,-1.44787 3.05363,-1.45669 0.25321,-0.004 1.22363,-0.21878 2.15711,-0.47745 4.42927,-1.22867 10.78513,0.16293 10.78513,2.36203 0,0.24188 3.34295,4.00558 3.67846,4.14122 0.11002,0.0449 0.19904,0.22717 0.19904,0.40564 0,0.17846 0.48249,0.74199 1.07247,1.25261 l 1.07247,0.92759 0.28344,6.90721 0.2826,6.9072 0.88645,0.78482 c 0.48752,0.4321 1.15099,0.85747 1.47516,0.94607 0.32418,0.0886 1.32988,0.58117 2.2348,1.09347 0.90492,0.51229 1.74307,0.93179 1.86358,0.93179 0.12052,0 0.71428,0.2192 1.32022,0.48752 1.47979,0.65423 3.06665,0.936 6.9429,1.23162 3.06371,0.23389 6.37055,1.02753 6.78752,1.62927 0.43798,0.63114 1.66203,0.7991 2.99569,0.41194 l 1.35003,-0.39262 -0.31872,-0.9024 c -0.17468,-0.4955 -0.39262,-1.93498 -0.48332,-3.19892 -0.0907,-1.26269 -0.42202,-3.27829 -0.7357,-4.47757 -0.31325,-1.19928 -0.68026,-2.78111 -0.81589,-3.51386 -0.13522,-0.73317 -0.4279,-2.15123 -0.65003,-3.15063 -0.2994,-1.34541 -0.4174,-3.21446 -0.45435,-7.19443 -0.0647,-7.0189 -0.0403,-6.97439 -4.19791,-7.32712 -2.56988,-0.21751 -2.68284,-0.28512 -4.1135,-2.49262 -0.57948,-0.89316 -1.1619,-1.690997 -1.29418,-1.772887 -0.13269,-0.0819 -0.61475,-0.73401 -1.07246,-1.44787 -0.45645,-0.71428 -1.15603,-1.53983 -1.55411,-1.83335 -0.77643,-0.57403 -2.28015,-2.62616 -2.65597,-3.62598 -0.1264,-0.33509 -0.66137,-1.15561 -1.18921,-1.82244 -0.52699,-0.66724 -1.1027,-1.48314 -1.27906,-1.81362 -0.46947,-0.88098 -2.25789,-2.90372 -2.56611,-2.90372 -1.79094,-4.2e-4 -2.28057,-12.77847 -0.68782,-17.93462 0.88812,-2.87643 1.04895,-3.97997 0.62525,-4.30582 -0.46149,-0.35399 -2.21086,-1.9186 -3.39964,-3.04062 -0.45099,-0.42495 -1.09724,-1.19004 -1.43737,-1.69898 -0.34014,-0.50894 -0.97967,-1.32063 -1.42268,-1.80438 -0.44217,-0.48332 -0.80456,-1.02081 -0.80456,-1.19466 0,-0.17385 -0.10414,-0.3162 -0.23221,-0.3162 -0.12808,0 -0.52196,-0.49466 -0.87553,-1.09766 l -0.64415,-1.09892 -0.0563,-10.35262 c -0.0626,-11.50654 -0.10414,-11.1282 1.66539,-15.17913 l 0.83731,-1.9165 -0.818,-0.8709 c -1.38992,-1.47853 -1.81571,-2.02358 -1.81571,-2.32382 0,-0.83143 -1.27193,-1.28704 -6.42262,-2.30114 -1.7435,-0.34349 -3.08933,-1.15855 -3.48363,-2.10882 -0.15873,-0.38296 -0.69454,-0.94775 -1.19004,-1.25513 -0.4955,-0.30654 -1.43737,-1.26269 -2.09328,-2.12478 -0.65549,-0.86209 -1.5075,-1.7922 -1.89383,-2.06683 -0.38548,-0.27462 -0.96034,-1.08506 -1.27738,-1.80186 -0.31704,-0.71637 -0.83899,-1.6582498 -1.16065,-2.0932798 -0.32082,-0.43503 -0.65213,-0.98134 -0.73401,-1.21482 -0.0823,-0.23305 -0.3036,-0.42411 -0.49173,-0.42411 -0.84067,0 -1.53815,-1.5054 -1.72291,-3.72088 -0.25111,-3.0108 -0.8096,-3.52016 -4.25082,-3.88045 -0.74661,-0.0781 -1.47264,0.0382 -2.3024,0.36869 z m -0.91163,31.4227598 c 0.40689,0.77642 0.92633,2.11343 1.15393,2.9709 0.22801,0.85663 0.51733,1.90516 0.64373,2.32844 l 0.23011,0.77013 1.01662,-0.46149 c 0.56017,-0.25405 1.35003,-0.46443 1.75651,-0.46695 0.78104,-0.006 2.77481,-2.77733 2.77481,-3.85777 0,-0.9003 1.46088,-2.01518 2.09664,-1.59946 0.3036,0.19946 0.69244,0.36197 0.86419,0.36197 0.44091,4.2e-4 2.24697,1.56628 4.2802,3.71038 l 1.06071,1.11823 0.16041,5.76503 c 0.0878,3.17037 0.23977,5.89437 0.33677,6.05184 0.0974,0.15789 0.2826,1.41176 0.41194,2.78698 0.12933,1.37523 0.3922,3.3186 0.58452,4.31842 0.44721,2.32256 1.05987,6.07367 1.24631,7.63408 0.12388,1.03215 0.46149,2.50648 0.98597,4.30162 0.0747,0.25741 -0.007,0.42412 -0.20828,0.42412 -0.18266,0 -1.28033,0.92717 -2.43887,2.05969 -1.15897,1.13293 -2.18357,2.05969 -2.27679,2.05969 -0.0932,0 -0.56017,0.27 -1.03593,0.60048 -1.32316,0.91709 -4.41584,1.34961 -5.11668,0.71511 -0.76131,-0.68908 -1.09221,-1.4655 -1.52766,-3.57894 -0.39136,-1.90558 -0.87427,-2.83192 -2.14997,-4.1261 -0.37667,-0.38254 -0.88728,-1.09136 -1.13503,-1.57511 -0.24818,-0.485 -0.87091,-1.2778 -1.38447,-1.76322 -0.51314,-0.48543 -1.23329,-1.41218 -1.59904,-2.05969 -1.52934,-2.70594 -1.56965,-2.73576 -3.73264,-2.74542 l -1.73215,-0.008 -0.26707,1.5348 c -0.14739,0.84403 -0.26706,3.83132 -0.26706,6.63846 0,9.35363 -0.87175,11.39064 -4.66485,10.90102 -2.23144,-0.28764 -4.54518,-1.83167 -4.54518,-3.03221 0,-0.66515 -0.66599,-0.73486 -2.2877,-0.23978 l -1.66329,0.50726 -1.04811,-0.57276 c -0.57613,-0.31452 -1.10144,-0.7126 -1.16779,-0.88309 -0.0655,-0.17174 -0.25027,-0.31157 -0.41068,-0.31157 -0.61853,0 -1.17534,-0.85159 -1.68974,-2.58375 -0.95909,-3.23083 -2.47457,-4.15591 -4.94115,-3.0171 -1.510016,0.69706 -3.029276,3.23126 -3.029276,5.05202 0,1.379 -2.17181,4.42675 -3.15399,4.42675 -0.23264,0 -0.80414,0.15957 -1.27109,0.35441 -0.76803,0.32082 -0.88224,0.31578 -1.20978,-0.0605 -0.93137,-1.06868 -1.01829,-1.58476 -1.15183,-6.83749 -0.14151,-5.54668 -0.63869,-7.51314 -1.90054,-7.51314 -1.65111,0 -6.17949,4.70684 -7.46149,7.75585 -0.67145,1.59526 -1.21062,2.42376 -1.57763,2.42376 -0.11169,0 -0.42495,0.19022 -0.69706,0.42369 -1.54067,1.31896 -7.00336,1.36557 -8.17997,0.0693 -0.60972,-0.67145 -1.75273,-2.82856 -1.75273,-3.30642 0,-0.16503 -0.25783,-0.60762 -0.57444,-0.98471 -0.32964,-0.39388 -0.7378,-1.40882 -0.95993,-2.38722 l -0.38549,-1.70234 0.85663,-3.62934 c 0.47073,-1.99628 0.96581,-4.12064 1.09976,-4.7207 0.24062,-1.07666 0.61686,-10.30222 0.66515,-16.29107 l 0.0248,-3.08135 0.83437,-0.83437 c 1.89886,-1.89928 5.62604,-1.26185 6.64392,1.13545 0.18056,0.42538 0.74157,1.22196 1.24757,1.77037 0.50516,0.54883 1.22951,1.47601 1.60786,2.06011 0.3796,0.58452 0.75753,1.1174 0.84025,1.18375 0.0836,0.0668 0.22843,0.36784 0.3225,0.66892 0.23515,0.75375 1.21985,1.2039 2.80252,1.28159 2.57408,0.12597 2.81722,0.0634 3.24175,-0.83018 0.21416,-0.45015 0.64961,-0.98932 0.96833,-1.19844 l 0.5799,-0.3796 0.27505,1.39916 c 0.29982,1.52429 0.89484,2.48548 2.20624,3.56383 0.46694,0.38422 0.90534,0.77516 0.97504,0.86922 0.18561,0.25153 1.8321,1.3471 2.69377,1.79263 0.72561,0.3754 0.76718,0.367 1.46802,-0.30024 1.01788,-0.96833 1.10942,-1.20306 1.40588,-3.58693 0.24901,-2.00174 1.07373,-4.95081 1.459626,-5.2183 0.45309,-0.31452 1.69226,-2.68872 2.04961,-3.92999 0.65129,-2.25999 0.87973,-2.4225 3.03516,-2.15795 2.64127,0.32417 5.29136,0.0433 6.18872,-0.65633 0.84782,-0.66053 2.29107,-2.41788 2.30115,-2.80253 0.0403,-1.4844 0.99646,2.26125 1.5709,6.15346 0.43084,2.9222 1.14511,5.66299 1.65111,6.33486 0.76215,1.01367 5.49545,-0.59335 5.49545,-1.86527 0,-0.30318 0.6916,-1.99628 1.48062,-3.62094 0.25825,-0.53287 0.84571,-1.43737 1.30594,-2.00972 0.46023,-0.57193 0.96371,-1.4991 1.11824,-2.06011 0.96917,-3.50126 1.37271,-3.72508 2.57619,-1.42897 z M 41.816483,112.19603 c 1.782965,0.92214 2.297782,4.2084 0.922136,5.88891 -0.434193,0.53077 -0.90282,1.15687 -1.040972,1.39118 -0.194001,0.32837 -0.666827,0.45141 -2.060109,0.53497 l -1.80858,0.10876 -0.909538,-1.24463 c -1.726276,-2.36413 -1.747692,-2.45819 -1.041393,-4.44439 0.341392,-0.95909 0.850331,-1.93498 1.130415,-2.16803 0.663048,-0.55093 3.787645,-0.5946 4.807621,-0.0668 z m 134.941777,0.1877 c 1.1871,1.51338 1.13545,4.63336 -0.11758,7.07811 l -0.36659,0.71554 -0.57318,-0.71554 c -0.31494,-0.39388 -0.57319,-0.79532 -0.57361,-0.89316 -8.4e-4,-0.097 -0.49172,-0.62903 -1.0922,-1.18206 -1.3072,-1.20516 -1.32022,-1.3324 -0.26707,-2.71224 0.45309,-0.59376 0.96035,-1.33786 1.12664,-1.65447 0.50348,-0.95489 1.379,-1.25387 1.86317,-0.63618 z M 87.539064,136.227 c 2.03912,0.49382 3.02634,3.87415 1.539,5.26995 -0.97505,0.91458 -3.0045,1.59568 -3.44458,1.15603 -0.15285,-0.15285 -0.42369,-0.27757 -0.60258,-0.27757 -0.33089,0 -1.45795,-0.71847 -2.40444,-1.53143 -0.95069,-0.818 0.67397,-4.05051 2.34146,-4.66023 0.83017,-0.3036 1.16316,-0.29814 2.57114,0.0433 z M 138.637,153.82065 c 0.68698,0.98093 -0.24229,1.59946 -1.61458,1.07541 -0.57949,-0.22088 -1.25891,-0.40228 -1.51002,-0.40228 -0.66515,0 -0.36953,-0.194 1.10438,-0.72394 1.63935,-0.58998 1.56965,-0.59166 2.02022,0.0512 z m -53.939926,34.84298 c 1.12958,0.003 2.16845,0.82597 3.21782,2.54679 0.62777,1.02963 0.57025,1.24505 -0.52826,1.97235 -2.19112,1.44997 -6.10054,0.51397 -5.7012,-1.36515 0.0705,-0.33342 0.2003,-1.15099 0.28848,-1.81782 0.17385,-1.32232 0.43462,-1.64565 1.17619,-1.46089 0.26665,0.0668 0.96245,0.12304 1.54697,0.12472 z m 61.182216,6.75855 0.68447,0.45141 -0.66809,0.52489 c -0.54883,0.4321 -0.86335,0.49886 -1.77457,0.37541 -2.92849,-0.39388 -3.54913,-1.11824 -1.28998,-1.50498 2.05843,-0.35231 2.2982,-0.34055 3.04775,0.15327 z"
     id="path5"
     style="stroke-width:0.419916" />
</svg>
