<?xml version="1.0" encoding="UTF-8" standalone="no"?>
<!-- Generated by IcoMoon.io -->

<svg
   version="1.1"
   width="215"
   height="215"
   viewBox="0 0 215 215"
   id="svg7"
   sodipodi:docname="bladeborn-ephilims.svg"
   inkscape:version="1.2.1 (9c6d41e, 2022-07-14)"
   xmlns:inkscape="http://www.inkscape.org/namespaces/inkscape"
   xmlns:sodipodi="http://sodipodi.sourceforge.net/DTD/sodipodi-0.dtd"
   xmlns="http://www.w3.org/2000/svg"
   xmlns:svg="http://www.w3.org/2000/svg">
  <defs
     id="defs11" />
  <sodipodi:namedview
     id="namedview9"
     pagecolor="#ffffff"
     bordercolor="#000000"
     borderopacity="0.25"
     inkscape:showpageshadow="2"
     inkscape:pageopacity="0.0"
     inkscape:pagecheckerboard="0"
     inkscape:deskcolor="#d1d1d1"
     showgrid="false"
     inkscape:zoom="1.0029297"
     inkscape:cx="268.71276"
     inkscape:cy="512"
     inkscape:window-width="1390"
     inkscape:window-height="1205"
     inkscape:window-x="0"
     inkscape:window-y="25"
     inkscape:window-maximized="0"
     inkscape:current-layer="svg7" />
  <title
     id="title2" />
  <g
     id="icomoon-ignore"
     transform="matrix(0.20996071,0,0,0.20996071,131.61205,-808.99994)" />
  <path
     fill="#000000"
     d="m 114.04854,3.4033288 c -1.5619,7.8084402 -4.33065,10.2870302 -11.49094,10.2870302 -4.996012,0 -8.956922,1.20454 -17.091642,5.19674 -14.86039,7.29361 -18.26259,12.08407 -6.4733,9.11502 27.315682,-6.87789 53.079752,37.60354 33.571672,57.96238 -11.11994,11.60537 -26.481512,11.63225 -32.001582,0.0573 -1.10524,-2.31817 -2.59764,-4.21517 -3.31591,-4.21517 -0.71828,0 -1.3322,-1.30113 -1.36412,-2.89179 -0.0319,-1.59066 -0.77727,-4.57756 -1.65701,-6.63791 -1.69732,-3.97707 0.53561,-13.58361 5.02877,-21.63687 1.53754,-2.7551 1.60179,-3.52713 0.29311,-3.50235 -3.30016,0.0626 -13.87085,9.03251 -16.33348,13.85972 -1.37944,2.70366 -3.41753,5.67082 -4.52948,6.5936 -1.11195,0.92278 -2.02171,3.56052 -2.02171,5.86147 0,5.57761 -2.83993,7.94408 -7.16701,5.97255 -5.59755,-2.55019 -5.78379,-1.23814 -1.15835,8.16495 6.71181,13.644301 1.01369,24.351661 -9.86207,18.531551 -1.42794,-0.76426 -2.93441,-1.05148 -3.34803,-0.63786 -1.20118,1.2014 5.03444,7.1943 10.28997,9.88957 3.6193,1.85605 4.81943,3.26909 4.81943,5.67545 0,1.76262 0.72311,4.39343 1.60662,5.84677 1.41304,2.32427 1.15983,3.00286 -2.09855,5.62926 -3.81709,3.07655 -2.34065,5.70862 3.29911,5.8831 4.18514,0.12933 10.72815,7.84014 13.25797,15.62506 3.29407,10.13607 4.96914,10.55431 6.94298,1.7347 1.72524,-7.71039 5.87995,-12.27115 11.1781,-12.27115 5.03653,0 6.84261,7.59511 3.72071,15.64333 -1.30029,3.35223 1.51927,7.22832 7.43975,10.22634 2.98018,1.5092 7.542212,4.83666 10.136482,7.39398 2.5949,2.55753 5.84468,5.58664 7.22223,6.73113 1.79789,1.49408 2.76518,4.51353 3.42782,10.6988 1.13357,10.5875 -0.18834,12.4933 -10.22215,14.7386 -8.263632,1.8491 -10.409852,3.9689 -4.01928,3.9689 2.46977,0 6.05023,0.5933 7.95646,1.3181 5.15349,1.9592 7.96255,0.4581 12.9044,-6.8953 2.4515,-3.6479 5.88121,-8.5973 7.62199,-10.999 4.63908,-6.40215 3.74738,-16.92307 -1.58163,-18.6626 -3.25817,-1.06324 -7.53423,-8.1702 -8.48661,-14.10453 -0.44155,-2.75216 -1.98266,-6.25956 -3.42425,-7.79437 -3.27035,-3.48094 -3.3726,-8.61469 -0.2276,-11.46049 7.83384,-7.09017 20.35002,-3.0795 18.55276,5.94461 -1.51823,7.62221 7.44289,-1.04119 11.80189,-11.4101 2.2871,-5.44008 3.41669,-5.90515 10.04095,-4.13308 8.66298,2.31692 20.78023,-5.91879 12.55082,-8.53028 -6.21421,-1.97258 -4.84043,-13.81836 2.43827,-21.024 6.63308,-6.567361 10.95008,-20.936441 4.74176,-15.784421 -8.55695,7.10192 -16.36917,-14.02895 -10.49741,-28.39446 3.00181,-7.344 2.49035,-8.06459 -3.84627,-5.4174 -9.46251,3.95356 -22.9529,-11.04163 -19.8627,-22.07842 1.90476,-6.80378 0.98597,-8.62666 -3.35181,-6.6503 -4.34493,1.97972 -19.82072,-12.57455 -19.82072,-18.6409402 0,-7.68351003 -4.2771,-11.33935 -5.58936,-4.77787 z"
     id="path5"
     style="stroke-width:0.209961" />
</svg>
