<?xml version="1.0" encoding="UTF-8" standalone="no"?>
<!-- Generated by IcoMoon.io -->

<svg
   version="1.1"
   width="215"
   height="215"
   viewBox="0 0 215 215"
   id="svg7"
   sodipodi:docname="bladeborn-gnarlspirit.svg"
   inkscape:version="1.2.1 (9c6d41e, 2022-07-14)"
   xmlns:inkscape="http://www.inkscape.org/namespaces/inkscape"
   xmlns:sodipodi="http://sodipodi.sourceforge.net/DTD/sodipodi-0.dtd"
   xmlns="http://www.w3.org/2000/svg"
   xmlns:svg="http://www.w3.org/2000/svg">
  <defs
     id="defs11" />
  <sodipodi:namedview
     id="namedview9"
     pagecolor="#ffffff"
     bordercolor="#000000"
     borderopacity="0.25"
     inkscape:showpageshadow="2"
     inkscape:pageopacity="0.0"
     inkscape:pagecheckerboard="0"
     inkscape:deskcolor="#d1d1d1"
     showgrid="false"
     inkscape:zoom="1.0029297"
     inkscape:cx="301.61636"
     inkscape:cy="512.99708"
     inkscape:window-width="2560"
     inkscape:window-height="1387"
     inkscape:window-x="0"
     inkscape:window-y="25"
     inkscape:window-maximized="1"
     inkscape:current-layer="svg7" />
  <title
     id="title2" />
  <g
     id="icomoon-ignore"
     transform="translate(0,-1618)" />
  <path
     fill="#000000"
     d="m 197.02012,3.3385218 c -8.193,6.48368 -19.37364,18.8998402 -22.79402,25.3096102 -5.10906,9.57484 -7.2663,9.13314 -15.98561,-3.27382 -5.28499,-7.51862 -11.03009,-13.48445 -16.06822,-16.6791402 -6.73949,-4.27467 -6.79748,-3.27854 -0.26925,4.7094102 15.23259,18.63731 17.81138,44.32367 5.72619,57.03223 -2.51957,2.6512 -3.63116,2.71068 -8.68472,0.47654 -13.38542,-5.9198 -32.67321,-5.99495 -46.689946,-0.17917 -15.64493,6.49139 -19.58765,1.63268 -19.55828,-24.08902 0.0202,-16.49649 0.88962,-20.21673 7.10181,-30.38905 5.01175,-8.2069402 4.89903,-7.9242502 2.51259,-6.3617502 -2.95653,1.9377602 -11.58725,12.1528902 -17.2358,20.4016302 -8.54636,12.47663 -12.75982,11.95256 -20.46284,-2.55142 -6.07508,-11.43994 -17.9714,-20.1985702 -27.51862,-20.2615202 -4.55661,-0.0311 -5.20287,1.39627 -0.96079,2.11991 10.22706,1.7461602 20.55367,13.4677902 18.05202,20.4857402 -1.29997,3.64783 -2.69401,3.79216 -9.86201,1.02798 -9.96379,-3.84193 -9.41558,-0.69702 0.70573,4.0649 22.19207,10.44157 36.48776,28.71058 26.34481,33.66983 -4.30852,2.10723 -14.92229,-0.54099 -18.25409,-4.55413 -1.28852,-1.55255 -4.04748,-1.65706 -4.04748,-0.15204 0,3.24694 12.17678,10.75661 22.71863,14.00853 6.32317,1.95169 9.47929,3.72895 12.82601,7.22722 l 2.35558,2.46208 -2.9548,3.02697 c -3.51395,3.59855 -3.62867,4.15896 -0.85055,4.15896 6.5424,0 13.6686,11.231148 10.67474,16.826448 -0.45017,0.83986 -1.15689,5.09736 -1.57296,9.46112 -0.41532,4.36376 -1.36118,9.20406 -2.10125,10.75611 l -1.34452,2.81893 4.77237,7.46089 c 4.36973,6.83231 5.19142,7.67142 9.74032,9.95956 6.55808,3.29795 7.91828,4.63948 9.25134,9.12716 0.61415,2.07065 1.71331,4.9172 2.44267,6.32616 0.72937,1.40897 1.4983,5.14315 1.71007,8.29951 0.82766,12.34972 0.72962,12.07698 6.073076,16.54352 6.13157,5.12348 5.83867,5.63859 6.99979,-12.40522 1.18923,-18.46635 1.65159,-21.49729 3.33528,-21.82128 1.90964,-0.36904 2.27793,3.47289 2.28938,23.78319 l 0.008,17.95696 3.23176,-3.15487 c 6.32243,-6.17337 9.28743,-11.88587 11.05523,-21.30095 2.27121,-12.09018 6.93981,-19.14296 15.75069,-23.80235 4.85474,-2.56585 5.65054,-4.15896 7.53854,-15.06239 l 1.48486,-8.5807 -2.00893,-2.94708 c -5.65054,-8.28732 -2.72337,-22.76989 6.14226,-30.406228 3.11182,-2.68081 3.73368,-3.61996 3.13695,-4.73678 -2.49866,-4.66959 0.78635,-10.63567 6.34233,-11.51733 13.2829,-2.10548 22.30455,-7.11151 26.86465,-14.89964 l 1.56226,-2.66763 -2.36105,1.50328 c -1.29823,0.82667 -3.08221,2.1336 -3.96088,2.90428 -8.02951,7.02989 -21.19345,4.8408 -21.19345,-3.5259 0,-8.06932 14.11528,-25.278 20.73109,-25.278 0.43996,0 2.8473,-0.7657 5.34894,-1.70012 5.00678,-1.87455 4.73703,-2.54718 -1.37089,-3.42959 -5.10532,-0.73584 -7.11525,-2.80375 -7.11525,-7.32328 0,-5.77796 2.78359,-10.34229 13.4974,-22.1363302 2.79976,-3.08221 1.99375,-2.74800995 -3.09888,1.2833 z M 139.37922,130.72443 c 3.38455,4.30404 0.40164,8.1191 -7.69232,9.83613 -11.88537,2.52131 -12.48932,-4.57179 -0.86797,-10.20591 4.59618,-2.22866 6.58396,-2.14331 8.56029,0.36954 z m -42.541426,2.0159 c 6.618046,4.06739 8.294516,10.87432 2.4469,9.93791 -7.11948,-1.13772 -13.43071,-4.95925 -13.43071,-8.13104 0,-4.52824 5.17201,-5.38079 10.9843,-1.80736 z m 42.774096,31.45735 c -5.43305,6.17237 -6.41922,14.01699 -4.203,33.38615 0.94735,8.27114 0.91898,8.7213 -0.78511,12.23749 -2.27122,4.69124 -1.6715,5.19963 1.85365,1.57047 7.31955,-7.53779 12.10834,-21.57966 12.13571,-35.59093 0.0289,-14.80707 -2.88213,-18.55817 -9.0015,-11.60343 z m -62.359506,3.4057 c -5.77149,12.32882 -1.91786,35.25474 7.59178,45.18319 2.41679,2.52255 4.75196,3.02347 3.74812,0.80253 -1.31938,-2.91697 -1.33805,-16.7742 -0.0301,-20.7642 2.38519,-7.27152 3.19145,-21.93849 1.62745,-29.62061 -0.33072,-1.62745 -0.82891,-1.79965 -5.20212,-1.79965 h -4.83483 l -2.90054,6.19874 z"
     id="path5"
     style="stroke-width:0.248846" />
</svg>
