<?xml version="1.0" encoding="UTF-8" standalone="no"?>
<!-- Generated by IcoMoon.io -->

<svg
   version="1.1"
   width="215"
   height="215"
   viewBox="0 0 215 215"
   id="svg7"
   sodipodi:docname="bladeborn-godsworn.svg"
   inkscape:version="1.2.1 (9c6d41e, 2022-07-14)"
   xmlns:inkscape="http://www.inkscape.org/namespaces/inkscape"
   xmlns:sodipodi="http://sodipodi.sourceforge.net/DTD/sodipodi-0.dtd"
   xmlns="http://www.w3.org/2000/svg"
   xmlns:svg="http://www.w3.org/2000/svg">
  <defs
     id="defs11" />
  <sodipodi:namedview
     id="namedview9"
     pagecolor="#ffffff"
     bordercolor="#000000"
     borderopacity="0.25"
     inkscape:showpageshadow="2"
     inkscape:pageopacity="0.0"
     inkscape:pagecheckerboard="0"
     inkscape:deskcolor="#d1d1d1"
     showgrid="false"
     inkscape:zoom="1.0029297"
     inkscape:cx="301.61636"
     inkscape:cy="512.99708"
     inkscape:window-width="2560"
     inkscape:window-height="1387"
     inkscape:window-x="0"
     inkscape:window-y="25"
     inkscape:window-maximized="1"
     inkscape:current-layer="svg7" />
  <title
     id="title2" />
  <g
     id="icomoon-ignore"
     transform="matrix(0.29197953,0,0,0.29197953,211.75142,-983.16052)" />
  <path
     fill="#000000"
     d="M 111.26119,0.01925951 C 126.40763,2.1451595 139.07399,11.18193 146.12763,23.78552 l 0.11971,0.23942 c 3.19893,5.60717 7.06795,10.93726 9.75913,16.81276 2.00619,4.27167 3.29002,9.24232 3.52419,14.49562 v 0.0911 c 0.11971,8.24638 2.30839,15.96544 6.07201,22.66491 l -0.11972,-0.23942 c 6.78561,11.99568 1.11566,33.64538 -10.88003,40.48792 -15.47725,9.13692 -20.68208,23.83809 -22.42549,40.08587 -1.07273,8.74887 0,17.72287 -0.33986,26.51466 -0.33986,8.7918 -1.80064,17.44052 -3.14141,26.13188 0,1.518 -2.29408,4.03194 -3.30433,3.92654 -2.1116,-0.37374 -3.89793,-1.54662 -5.09037,-3.17002 l -0.0143,-0.0286 c -3.00739,-5.41593 -8.67734,-9.01691 -15.19461,-9.01691 -3.88362,0 -7.470299,1.27858 -10.357979,3.43835 l 0.0429,-0.0286 c -1.46077,1.17288 -1.29288,4.20917 -2.30839,6.1777 -0.44526,0.84762 -2.1259,1.07273 -3.26141,1.56092 -3.19893,-8.85428 -8.69164,-16.81276 -6.84283,-27.36753 0.86192,-4.59693 1.35537,-9.89314 1.35537,-15.29476 0,-15.59697 -4.10874,-30.22135 -11.27713,-42.88742 l 0.22512,0.43096 c -2.49964,-3.84069 -5.84689,-6.93393 -9.77869,-9.07939 l -0.14832,-0.0768 c -12.78082,-7.73863 -20.07418,-25.68135 -13.91078,-38.68758 3.98902,-8.1982 6.47435,-17.78009 6.84283,-27.91821 v -0.11971 c 1.12996,-7.27905 3.58668,-13.79632 7.14503,-19.56642 l -0.13402,0.22511 c 3.21324,-5.76104 6.46005,-10.66922 10.02716,-15.32863 l -0.20555,0.29694 C 81.882201,7.4416895 95.701881,0.34512951 111.19344,9.5103602e-6 h 0.0572 z M 131.72341,114.90882 c 5.99521,0.72762 9.25662,-2.97352 12.61818,-7.17364 5.60718,-7.17365 1.23566,-14.2416 0,-21.24706 -1.23565,-7.00546 -5.04219,-7.67614 -9.31385,-2.97352 -5.40162,5.84689 -10.37228,12.29263 -14.74409,19.12116 l -0.32556,0.55067 c -3.81208,5.93799 -2.06867,9.13691 4.75985,11.2199 1.90604,0.32555 4.10874,0.50775 6.35464,0.50775 0.22512,0 0.45958,0 0.68469,0 h -0.0286 z m -45.195809,0 c 10.14717,0 12.68067,-3.98902 7.73863,-12.72359 -2.76797,-5.1476 -5.83259,-9.59649 -9.32816,-13.67661 l 0.0911,0.1054 c -3.1271,-2.99308 -6.56019,-5.71287 -10.20964,-8.12666 l -0.26833,-0.16264 c -1.47508,3.31864 -3.0217,7.49891 -4.32889,11.78488 l -0.22512,0.83331 c -0.49344,1.518 -0.77608,3.24185 -0.77608,5.06176 0,9.28524 7.52752,16.81276 16.81277,16.81276 0.17693,0 0.33986,0 0.52205,-0.0143 h -0.0286 z m 29.775779,53.45124 c -2.36562,-0.20556 -5.11898,-0.31126 -7.90126,-0.31126 -2.78227,0 -5.53564,0.11972 -8.26068,0.33987 l 0.35943,-0.0286 c -2.753659,0.50775 -6.502969,11.21989 -4.716929,13.62843 2.05437,3.43835 5.027879,6.15814 8.571639,7.85834 l 0.11971,0.0429 c 1.10135,0.40235 2.36562,0.62746 3.69238,0.62746 4.09442,0 7.66183,-2.18838 9.63036,-5.44454 l 0.0286,-0.0429 c 0.699,-1.93466 1.10135,-4.16596 1.10135,-6.48866 0,-3.94085 -1.15858,-7.61891 -3.17003,-10.69784 l 0.0429,0.0768 c -0.56498,-0.44527 -1.56093,-0.56498 0.50775,0.33987 z"
     id="path5"
     style="stroke-width:0.29198" />
</svg>
