<?xml version="1.0" encoding="UTF-8" standalone="no"?>
<!-- Generated by IcoMoon.io -->

<svg
   version="1.1"
   width="215"
   height="215"
   viewBox="0 0 215 215"
   id="svg7"
   sodipodi:docname="bladeborn-grashrak.svg"
   inkscape:version="1.2.1 (9c6d41e, 2022-07-14)"
   xmlns:inkscape="http://www.inkscape.org/namespaces/inkscape"
   xmlns:sodipodi="http://sodipodi.sourceforge.net/DTD/sodipodi-0.dtd"
   xmlns="http://www.w3.org/2000/svg"
   xmlns:svg="http://www.w3.org/2000/svg">
  <defs
     id="defs11" />
  <sodipodi:namedview
     id="namedview9"
     pagecolor="#ffffff"
     bordercolor="#000000"
     borderopacity="0.25"
     inkscape:showpageshadow="2"
     inkscape:pageopacity="0.0"
     inkscape:pagecheckerboard="0"
     inkscape:deskcolor="#d1d1d1"
     showgrid="false"
     inkscape:zoom="1.0029297"
     inkscape:cx="301.61636"
     inkscape:cy="512.99708"
     inkscape:window-width="2560"
     inkscape:window-height="1387"
     inkscape:window-x="0"
     inkscape:window-y="25"
     inkscape:window-maximized="1"
     inkscape:current-layer="svg7" />
  <title
     id="title2" />
  <g
     id="icomoon-ignore"
     transform="matrix(0.28162004,0,0,0.28162004,91.834821,-1006.8986)" />
  <path
     fill="#000000"
     d="m 2.181485,26.758395 c 0,-4.18797 0,-8.31258 0,-12.50055 0,-0.74235 1.06058,-1.44189 1.69113,-2.18424 0.63054,0.74235 1.75421,1.50498 1.80293,2.31604 0.82571,8.63954 5.11647,16.14105 11.43997,21.18881 l 0.0687,0.0487 c 5.346,5.66394 12.91059,9.18701 21.30625,9.18701 7.232,0 13.85908,-2.61428 18.97021,-6.96841 l -0.0487,0.0344 c 8.29258,-6.0109 17.76346,-11.88436 27.64973,-17.06955 l 1.28982,-0.61055 c 2.74608,-1.4419 10.55991,-6.80197 10.37939,3.93845 0,2.06681 0,5.31164 1.87165,0.3126 4.500275,-13.17982 15.676655,-8.74261 23.622285,-6.80197 9.99807,3.36226 18.6576,7.59896 26.63787,12.77851 l -0.46439,-0.28387 c 4.99904,2.68299 4.36849,7.88254 4.4372,12.50055 0,2.25296 0.56184,4.569 3.17613,2.12116 3.68921,-3.44534 6.75324,-2.74608 11.12736,-0.81107 3.44534,1.40754 7.45279,2.21861 11.64049,2.21861 10.26195,0 19.3856,-4.8816 25.18162,-12.45183 l 0.0487,-0.0831 9.05521,-12.11924 c 1.15802,4.7698 1.87164,10.24759 1.935,15.89154 v 0.0487 c -0.76235,20.95929 -17.08391,37.87705 -37.73089,39.54959 l -0.14616,0.0144 c -12.72978,1.04059 -22.67942,11.64049 -22.67942,24.536715 0,1.22673 0.0831,2.41912 0.2636,3.57741 l -0.0144,-0.1318 c 0.18052,0.71363 0.28387,1.53935 0.28387,2.38477 0,5.51215 -4.40285,9.99807 -9.90063,10.11578 h -0.0144 c -10.62863,2.12117 -10.42811,2.12117 -11.05866,12.50055 -0.56182,8.6939 -1.69112,17.36779 -2.43347,26.05605 0,2.00373 -0.56183,4.68672 0.43003,5.94219 6.93405,8.06334 0.99187,14.18604 -2.74607,20.49518 -2.5512,4.20796 -5.09648,7.81383 -7.89691,11.23945 l 0.1318,-0.18052 c -2.74608,3.31354 -6.24014,6.24014 -9.00621,9.36753 -0.49875,-3.49406 -1.25546,-7.00276 -1.5537,-10.49682 -0.0144,-5.96218 -3.24482,-11.1561 -8.04335,-13.95681 l -0.0831,-0.0487 c -2.63427,-1.65677 -4.749805,-3.92409 -6.205775,-6.58709 l -0.0487,-0.0974 c -2.00373,-3.93846 -0.43004,-15.18355 -8.24387,-3.06431 0,0 -4.81852,-1.93501 -4.86724,-3.06431 -0.0344,-1.17801 -0.0344,-2.56556 -0.0344,-3.95844 0,-5.67832 0.24923,-11.28819 0.71362,-16.83469 l -0.0487,0.72798 c 0,-4.05589 1.75421,-8.06334 1.87165,-12.11923 0,-8.12643 0,-8.12643 -8.9375,-8.37566 -10.37938,0 -14.25476,-2.56556 -12.50055,-12.50055 2.87788,-15.745375 -8.93749,-23.241255 -15.62794,-33.674995 -0.99186,-1.5537 -4.61772,-1.80293 -7.07148,-2.18425 -15.75974,-2.5312 -28.73904,-12.48055 -35.42921,-26.0904 l -0.13179,-0.28388 c -2.91224,-6.82196 -5.09648,-14.75351 -6.19142,-23.02609 l -0.0487,-0.4644 z M 82.097925,102.684 c 7.74512,-2.00373 13.62422,-3.313535 19.371235,-5.179555 1.20674,-0.89442 1.96937,-2.31604 1.96937,-3.92409 0,-0.20051 -0.0144,-0.41567 -0.0344,-0.61055 v 0.0144 c -0.99187,-2.74608 -2.43348,-6.24014 -4.749805,-7.4328 -3.82665,-1.30981 -8.2295,-2.06681 -12.81286,-2.06681 -0.0831,0 -0.16616,0 -0.24924,0 h 0.0144 c -4.36849,-0.31259 -11.19046,7.00277 -9.93499,11.55741 0.94314,3.12739 4.50028,5.429065 6.44093,7.613305 z m 53.553705,-3.626135 c 4.50029,1.754205 8.87441,0.943145 8.8057,-4.30541 -0.52748,-4.25668 -1.85165,-8.0977 -3.82665,-11.52304 l 0.0831,0.14616 c -0.7767,-0.96314 -1.96937,-1.5737 -3.29354,-1.5737 -0.11744,0 -0.22924,0 -0.3326,0.0144 h 0.0144 c -6.02526,2.64863 -11.10738,5.41471 -15.96026,8.52773 l 0.4644,-0.28387 c -1.20675,1.28982 -1.93502,3.04431 -1.93502,4.96468 0,0.59619 0.0687,1.15802 0.20052,1.70549 l -0.0144,-0.0487 c 0.99186,3.12739 3.62614,4.055885 7.36943,2.56556 1.44189,-0.3126 3.09866,-0.49875 4.78416,-0.49875 1.32418,0 2.63428,0.11744 3.90974,0.3126 l -0.1318,-0.0144 z M 121.8469,124.98211 c 0,-11.5574 -4.7498,-14.61608 -13.62421,-10.18451 l -1.30982,0.69363 c -2.61428,2.21861 -4.27105,5.51215 -4.27105,9.18701 0,1.63678 0.3326,3.21047 0.92879,4.63772 l -0.0344,-0.0831 c 2.74607,2.82916 5.79602,5.31164 9.10393,7.4328 l 0.20051,0.11744 z"
     id="path5"
     style="stroke-width:0.28162" />
</svg>
