<?xml version="1.0" encoding="UTF-8" standalone="no"?>
<!-- Generated by IcoMoon.io -->

<svg
   version="1.1"
   width="215"
   height="215"
   viewBox="0 0 215 215"
   id="svg7"
   sodipodi:docname="bladeborn-grinkrakslooncourt.svg"
   inkscape:version="1.2.1 (9c6d41e, 2022-07-14)"
   xmlns:inkscape="http://www.inkscape.org/namespaces/inkscape"
   xmlns:sodipodi="http://sodipodi.sourceforge.net/DTD/sodipodi-0.dtd"
   xmlns="http://www.w3.org/2000/svg"
   xmlns:svg="http://www.w3.org/2000/svg">
  <defs
     id="defs11" />
  <sodipodi:namedview
     id="namedview9"
     pagecolor="#ffffff"
     bordercolor="#000000"
     borderopacity="0.25"
     inkscape:showpageshadow="2"
     inkscape:pageopacity="0.0"
     inkscape:pagecheckerboard="0"
     inkscape:deskcolor="#d1d1d1"
     showgrid="false"
     inkscape:zoom="1.0029297"
     inkscape:cx="301.61636"
     inkscape:cy="512.99708"
     inkscape:window-width="2560"
     inkscape:window-height="1387"
     inkscape:window-x="0"
     inkscape:window-y="25"
     inkscape:window-maximized="1"
     inkscape:current-layer="svg7" />
  <title
     id="title2" />
  <g
     id="icomoon-ignore"
     transform="matrix(0.28214419,0,0,0.28214419,94.022599,-999.85797)" />
  <path
     fill="#000000"
     d="m 171.92513,9.5744464 c -1.38505,0.5095496 -2.64003,0.7538796 -8.12575,1.5878996 -3.13322,0.47485 -6.36292,1.03829 -8.36304,1.45305 -2.31894,0.4819 -11.1873,3.46444 -13.6538,4.58822 -1.09472,0.49912 -3.73644,1.59835 -5.86804,2.44253 -15.2719,6.03337 -27.18036,15.12405 -40.410945,30.85754 -9.91257,11.78742 -9.90382,11.78404 -17.46839,5.28033 -5.81697,-4.99931 -6.13353,-5.21938 -9.89198,-6.87501 -1.82829,-0.80608 -4.65397,-2.08532 -6.2794,-2.84175 -8.77271,-4.09589 -17.52228,-4.27815 -31.55924,-0.65853 -13.84679,3.57138 -22.7896304,10.36231 -20.7257504,15.74252 l 0.40262,1.05268 3.4122604,-0.21838 c 12.64655,-0.81229 13.4137,-0.75473 18.00051,1.36699 10.74321,4.96743 19.63978,16.83526 19.54526,26.07943 -0.0437,4.44434 -1.0555,6.34909 -4.81987,9.0794 -5.66997,4.115084 -5.34917,8.045354 0.78436,9.534784 3.76098,0.91472 18.10012,13.65183 22.28008,19.7975 2.39456,3.51495 2.68997,6.63659 0.85575,9.04216 -1.85031,2.42446 -4.15825,1.39915 -7.72822,-3.42862 -7.11341,-9.62394 -13.56069,-11.73805 -17.54513,-5.74474 -2.653,3.99319 -4.68444,5.4183 -8.62035,6.05087 -10.55615,1.7002 -24.94832,-5.27779 -30.5866904,-14.82866 -3.63487,-6.1561 -5.56021996419,-5.96452 -5.5593699641897,0.55752 C 8.5463581e-4,126.81777 2.9114546,134.78581 8.8700546,143.75856 c 1.1469104,1.72785 2.6202704,4.15401 3.2759704,5.3898 1.32354,2.4981 4.20424,4.27815 9.86743,6.09234 3.25143,1.04026 5.75067,2.25828 10.06437,4.89351 4.70701,2.87504 5.10286,3.06211 8.3114,3.9218 5.28287,1.4158 11.08291,0.62072 17.95538,-2.46538 17.2912,-7.76207 20.91027,-9.53337 23.74187,-11.62772 3.24973,-2.40669 4.66356,-2.62846 7.51152,-1.18811 3.4004,1.71854 5.69395,5.42309 5.69395,9.19705 0,2.91427 1.56534,6.03845 7.232765,14.43281 10.00653,14.82244 18.30044,21.77391 30.99298,25.98999 4.5002,1.49593 7.8089,2.95856 9.94981,4.40117 6.49411,4.38283 19.58786,4.24288 34.11377,-0.36312 12.34184,-3.91419 22.49846,-11.53011 19.11301,-14.33631 -0.92345,-0.76772 -6.60809,-0.2892 -10.35666,0.86787 -7.14897,2.20976 -11.28549,1.0967 -17.39983,-4.68641 -12.13785,-11.4875 -13.65183,-17.56009 -7.56034,-30.31442 3.62612,-7.59419 3.45739,-11.14639 -0.5705,-11.89887 -5.71652,-1.07299 -14.14586,5.78875 -23.57568,19.18665 -5.16437,7.33942 -8.90024,8.04986 -11.64127,2.21766 -1.55546,-3.30617 -0.67404,-5.89343 3.31152,-9.73877 2.45748,-2.37058 2.49303,-2.43322 2.94869,-5.17058 0.4678,-2.81044 1.00726,-3.88287 3.20714,-6.37081 2.22781,-2.52012 1.77468,-3.74631 -4.14188,-11.17235 -8.05804,-10.11628 -8.81165,-12.00298 -4.79504,-12.00298 4.35236,0 11.57863,4.64748 17.18004,11.04933 5.07831,5.80456 7.62664,6.29238 9.56046,1.83338 1.81023,-4.16784 1.43583,-5.64458 -1.87739,-7.40968 -3.61342,-1.92676 -4.73353,-3.17496 -4.73353,-5.27525 0,-5.4324 7.88198,-6.34626 9.20749,-1.06537 0.86703,3.44357 2.54889,3.95792 5.9524,1.81588 6.87839,-4.32866 9.76924,-4.21947 14.92712,0.56767 3.59649,3.33749 4.05836,3.42439 6.21168,1.16103 2.50685,-2.63636 0.88029,-8.10685 -5.01765,-16.85784 -2.26872,-3.36711 -4.42825,-5.200204 -8.35316,-7.085484 -1.94708,-0.93757 -4.56114,-2.19311 -5.80907,-2.789 -2.54804,-1.22084 -2.88605,-1.76707 -3.25763,-5.30121 -0.23813,-2.24333 -0.33858,-2.88803 -1.52274,-9.71676 -3.816,-21.99286 29.4742,-53.13537 49.15601,-45.98781 4.03749,1.46715 4.97336,1.62007 6.14369,1.01572 2.86094,-1.47985 0.0705,-7.15405 -6.87331,-13.98138 -5.53144,-5.43945 -13.8719,-9.03002 -25.30806,-10.89697 -1.52273,-0.2496996 -3.46557,-0.6060396 -4.31765,-0.7939496 -2.06219,-0.45284 -3.68085,-0.36764 -5.46964,0.28919 z M 138.53336,80.686346 c 4.72084,2.48118 9.14317,8.77581 8.10036,11.52136 -0.32616,0.85377 -2.39456,2.78843 -2.98424,2.78843 -1.81588,0 -6.91761,-3.23027 -9.31358,-5.89512 -5.11753,-5.69395 -2.10705,-11.73184 4.19746,-8.41467 z m -70.390175,4.96348 c 1.40028,0.82104 0.99061,3.884 -0.76715,5.69395 -3.63655,3.74857 -7.54284,3.15663 -7.54284,-1.1455 0,-4.41358 4.41669,-6.83156 8.30999,-4.54901 z"
     id="path5"
     style="stroke-width:0.282144" />
</svg>
