<?xml version="1.0" encoding="UTF-8" standalone="no"?>
<!-- Generated by IcoMoon.io -->

<svg
   version="1.1"
   width="215"
   height="215"
   viewBox="0 0 215 215"
   id="svg7"
   sodipodi:docname="bladeborn-grysellesarenai.svg"
   inkscape:version="1.2.1 (9c6d41e, 2022-07-14)"
   xmlns:inkscape="http://www.inkscape.org/namespaces/inkscape"
   xmlns:sodipodi="http://sodipodi.sourceforge.net/DTD/sodipodi-0.dtd"
   xmlns="http://www.w3.org/2000/svg"
   xmlns:svg="http://www.w3.org/2000/svg">
  <defs
     id="defs11" />
  <sodipodi:namedview
     id="namedview9"
     pagecolor="#ffffff"
     bordercolor="#000000"
     borderopacity="0.25"
     inkscape:showpageshadow="2"
     inkscape:pageopacity="0.0"
     inkscape:pagecheckerboard="0"
     inkscape:deskcolor="#d1d1d1"
     showgrid="false"
     inkscape:zoom="1.0029297"
     inkscape:cx="301.61636"
     inkscape:cy="512.99708"
     inkscape:window-width="2560"
     inkscape:window-height="1387"
     inkscape:window-x="0"
     inkscape:window-y="25"
     inkscape:window-maximized="1"
     inkscape:current-layer="svg7" />
  <title
     id="title2" />
  <g
     id="icomoon-ignore"
     transform="matrix(0.23377541,0,0,0.23377541,39.965219,-890.01434)" />
  <path
     fill="#000000"
     d="m 78.390125,6.8138914 c -0.51267,1.23808 -1.68131,2.74149 -2.59584,3.3411196 -0.91453,0.59964 -2.36534,2.47475 -3.2226,4.16705 -0.85725,1.6916 -2.69566,4.99975 -4.08522,7.35294 -1.38956,2.35318 -2.87544,5.6576 -3.30255,7.34452 -0.42711,1.68692 -1.24438,4.22502 -1.81713,5.6389 -5.58864,13.79438 -5.02244,43.35107 0.87408,45.59251 7.06166,2.68468 8.16578,7.28982 1.74747,7.28982 -5.3053,0 -18.13396,-10.54795 -22.431683,-18.44254 -2.246114,-4.12707 -1.869969,-13.29481 0.752991,-18.36703 1.43842,-2.78146 1.366885,-6.45057 -0.135823,-7.02753 -1.642507,-0.63002 -10.55496,8.58587 -10.56922,10.92924 -0.0063,0.93136 -0.607349,3.60201 -1.335326,5.93439 -0.993311,3.18215 -1.185942,5.19963 -0.770523,8.07951 0.304609,2.11029 0.778004,5.65549 1.051989,7.8773 0.280297,2.27323 1.241815,5.16409 2.200294,6.61093 3.296467,4.97731 3.667702,6.42158 2.101875,8.15946 -2.273232,2.52127 -12.897857,0.75486 -15.688668,-2.60823 -0.521787,-0.62932 -1.34491,-1.14456 -1.828825,-1.14456 -3.887451,0 -13.6545883,-13.43438 -15.0305903,-20.67393 -1.649052,-8.67541 -2.356923,-9.1301 -3.75209497,-2.40789 -2.96637603,14.28835 6.48001997,40.371849 17.03287627,47.033509 1.544554,0.97578 2.809045,2.05535 2.809045,2.40064 0,0.56503 2.465162,2.46002 7.993249,6.14385 3.412654,2.2744 11.103865,0.94235 11.103865,-1.92397 0,-1.7269 7.37351,-5.63165 9.644169,-5.10612 5.35159,1.23737 11.4052,3.38436 12.65286,4.48638 2.41116,2.13016 5.61365,7.68537 5.61365,9.73745 0,2.45417 2.61782,10.14398 3.97301,11.67123 1.18127,1.33206 2.62554,6.1864 2.63769,8.86524 0.004,1.00991 0.35207,3.07578 0.7731,4.59018 l 0.76468,2.75434 h 4.07751 c 4.90577,0 7.6711,2.35762 9.344,7.96496 0.56106,1.88096 1.71287,4.744 2.56054,6.36407 1.7629,3.37081 1.99107,4.78912 2.72045,16.8863 0.67958,11.28738 4.90764,18.01941 14.307745,22.78281 8.39137,4.25191 22.10253,-9.18433 21.03511,-20.61268 -0.57462,-6.15039 1.09641,-17.17033 3.09262,-20.39994 0.85211,-1.37974 1.5525,-3.29623 1.55507,-4.25775 0.0154,-6.68364 3.84093,-10.54912 8.20505,-8.29201 3.42294,1.76944 4.55348,-0.14869 6.31965,-10.7172 0.60548,-3.62212 1.60464,-7.44388 5.08883,-19.46415 3.51574,-12.1292 22.91419,-16.92627 28.86612,-7.13833 1.61936,2.66154 5.68401,3.46993 8.40235,1.67056 7.47216,-4.94715 14.61704,-12.14089 15.84156,-15.95026 0.49794,-1.5504 1.37904,-3.36239 1.9581,-4.027249 0.57906,-0.66416 1.67079,-3.14288 2.42706,-5.50868 0.75556,-2.36464 1.87838,-5.62277 2.49415,-7.23839 0.77356,-2.02847 1.13054,-5.70973 1.15228,-11.88701 0.0489,-13.56693 -1.95624,-16.86877 -3.26327,-5.37286 -1.2472,10.97365 -12.72954,22.02398 -24.23199,23.32003 -5.82312,0.65644 -6.93939,-4.5986 -2.36207,-11.11859 1.31919,-1.87886 1.49382,-3.30255 1.5317,-12.48618 0.0598,-14.56982 -2.52174,-20.51917 -11.93027,-27.49222 l -2.29777,-1.70259 -0.89022,1.95366 c -0.78969,1.73415 -0.70273,2.09603 0.77309,3.20904 2.35108,1.77342 4.74798,10.97108 4.13596,15.86844 -1.72433,13.79181 -12.11377,26.80866 -21.39606,26.80866 -7.59186,0 -7.35224,-7.52102 0.29245,-9.15581 3.10407,-0.66346 3.48489,-1.5324 4.51935,-10.30763 0.47596,-4.0394 1.00734,-8.25414 1.18127,-9.36457 0.17392,-1.11114 0.0143,-2.8156 -0.35488,-3.78693 -0.36983,-0.97134 -1.04941,-4.52519 -1.51042,-7.8953 -0.46054,-3.37081 -1.45759,-7.6157 -2.21525,-9.43354 -0.75697,-1.81784 -1.69628,-5.12295 -2.08645,-7.34452 -1.14456,-6.51415 -8.58003,-20.84903 -11.50572,-22.1824796 -0.91009,-0.41495 -1.99691,-1.4597 -2.4142,-2.32279 -1.02745,-2.12105 -1.18852,2.97713 -0.17837,5.6344496 0.83855,2.20754 3.33784,21.22003 3.25228,24.74676 -0.1578,6.49171 -1.70048,14.10929 -3.67168,18.12695 -1.87511,3.82106 -2.10047,5.05773 -2.12689,11.65838 -0.0334,8.57231 -1.25163,11.40333 -7.81674,18.17837 -5.97764,6.1677 -6.43491,7.18416 -5.26322,11.70093 2.69005,10.370749 -1.35987,15.633969 -9.94878,12.930589 -2.77164,-0.87292 -3.91247,-0.90238 -6.32036,-0.16294 -11.865725,3.64268 -18.653865,-2.96428 -14.127275,-13.752539 1.38372,-3.29858 0.83411,-6.45688 -1.43398,-8.24059 -1.81269,-1.42626 -6.37973,-7.8303 -8.73127,-12.24656 -0.95007,-1.7837 -1.50528,-4.85294 -1.81387,-10.02358 -0.39414,-6.61655 -0.65948,-7.70922 -2.36463,-9.73558 -4.13736,-4.91747 -4.18762,-30.25872 -0.0837,-42.60767 1.69978,-5.1178096 -0.065,-10.4294296 -1.95249,-5.8733796 z M 135.32612,135.97341 c 1.19997,3.78248 -5.53323,10.32469 -10.62509,10.32469 -1.46671,0 -1.61025,-0.26791 -1.21096,-2.26552 1.24953,-6.24882 10.42732,-12.49834 11.83605,-8.05894 z m -43.136935,1.40078 c 7.17574,7.58484 6.95786,12.0074 -0.34973,7.0862 -3.56484,-2.40041 -5.97436,-6.09359 -5.00232,-7.66667 0.76982,-1.24508 3.95173,-0.9005 5.35228,0.58047 z m 21.465255,14.02208 c 1.02744,2.47989 -0.20479,7.67625 -1.70446,7.18672 -1.36548,-0.44697 -2.18557,-5.05586 -1.30236,-7.32722 1.00944,-2.59794 1.88984,-2.55657 3.00682,0.1405 z m 0.36025,28.78921 c 0.19777,6.35121 -0.68847,18.11712 -1.41972,18.84908 -1.31476,1.31405 -1.9214,-2.129 -1.99177,-11.30141 -0.0433,-5.62089 -0.3357,-10.91754 -0.6506,-11.77106 -0.39297,-1.06274 -0.1945,-1.93052 0.62933,-2.75434 2.1346,-2.1353 3.21745,0.065 3.43322,6.97796 z m 7.21127,4.79941 c -0.60361,6.67148 -1.79259,8.57418 -3.14218,5.02617 -1.21026,-3.18402 -0.91733,-11.54897 0.4741,-13.53607 l 1.21236,-1.73157 1.01575,1.93823 c 0.78011,1.48939 0.8818,3.41172 0.43997,8.3023 z m -15.9311,-8.4615 c 0.83552,1.35075 0.97976,11.01105 0.21063,14.02699 -1.94664,7.62599 -3.3701,-1.39985 -2.20099,-13.95546 0.10754,-1.15181 1.29722,-1.19482 1.9906,-0.0715 z"
     id="path5"
     style="stroke-width:0.233775" />
</svg>
