<?xml version="1.0" encoding="UTF-8" standalone="no"?>
<!-- Generated by IcoMoon.io -->

<svg
   version="1.1"
   width="215"
   height="215"
   viewBox="0 0 215 215"
   id="svg7"
   sodipodi:docname="bladeborn-hexbaneshunters.svg"
   inkscape:version="1.2.1 (9c6d41e, 2022-07-14)"
   xmlns:inkscape="http://www.inkscape.org/namespaces/inkscape"
   xmlns:sodipodi="http://sodipodi.sourceforge.net/DTD/sodipodi-0.dtd"
   xmlns="http://www.w3.org/2000/svg"
   xmlns:svg="http://www.w3.org/2000/svg">
  <defs
     id="defs11" />
  <sodipodi:namedview
     id="namedview9"
     pagecolor="#ffffff"
     bordercolor="#000000"
     borderopacity="0.25"
     inkscape:showpageshadow="2"
     inkscape:pageopacity="0.0"
     inkscape:pagecheckerboard="0"
     inkscape:deskcolor="#d1d1d1"
     showgrid="false"
     inkscape:zoom="2.0058594"
     inkscape:cx="150.80818"
     inkscape:cy="256.49854"
     inkscape:window-width="2560"
     inkscape:window-height="1387"
     inkscape:window-x="0"
     inkscape:window-y="25"
     inkscape:window-maximized="1"
     inkscape:current-layer="svg7" />
  <title
     id="title2" />
  <g
     id="icomoon-ignore"
     transform="matrix(0.55989275,0,0,0.55989275,39.657138,-396.83168)" />
  <path
     fill="#000000"
     d="m 15.170485,0.19009447 c -0.984292,0.56941 -0.658434,1.89747003 1.025163,4.17959003 0.878472,1.1909 2.448971,3.85487 3.491492,5.9208695 1.04252,2.066 2.853773,5.30163 4.024509,7.18846 3.045818,4.9097 4.563128,7.70525 5.477428,10.09991 1.24128,3.25018 4.95393,9.47842 6.83517,11.46604 1.14834,1.21441 4.92314,8.43479 5.97854,11.43973 1.17297,3.33752 2.28828,5.48415 3.69977,7.12072 0.77377,0.89695 2.11023,2.44897 2.96967,3.4495 1.08283,1.26143 2.00386,2.89072 3.0027,5.3061 2.72052,6.58378 5.78314,8.26626 13.32825,7.32172 4.78876,-0.60021 5.44384,-0.84824 7.26629,-2.74404 5.70363,-5.9343 6.33407,-13.42231 1.47924,-17.57111 -0.70043,-0.59853 -2.39746,-2.04473 -3.76976,-3.21267 -4.13929,-3.52284 -11.90052,-11.46044 -13.41951,-13.72353 -2.02177,-3.01222 -4.84195,-6.35422 -6.09275,-7.22093 -0.58789,-0.40705 -1.66624,-1.2788 -2.39746,-1.93947 -0.73122,-0.66068 -2.15783,-1.72839 -3.169,-2.37563 -1.01116,-0.64723 -2.09176,-1.56378 -2.4025,-2.03633 -0.54253,-0.83032 -3.94892,-3.61298 -7.43257,-6.07539 -0.92215,-0.65284 -3.74401,-3.22555 -6.26856,-5.71819 C 24.699297,7.0213445 20.610963,3.2275045 17.96435,1.0159345 16.796973,0.04003447 15.893306,-0.22758553 15.171045,0.19065447 Z M 198.28229,1.2522045 c -0.85832,0.91431 -1.73567,3.52397 -1.37902,4.10178 0.3141,0.50838 1.893,-0.35889 2.76923,-1.52123 1.55651,-2.06377 0.30515,-4.38564003 -1.39021,-2.58055 z m -3.29889,5.34922 c -0.79784,0.40816 -1.90027,1.17017 -2.45065,1.69143 -0.55037,0.52126 -1.9641,1.66456 -3.1438,2.5374395 -1.18081,0.87343 -2.63485,2.14495 -3.23226,2.82578 -0.59684,0.68139 -2.05816,1.86836 -3.24681,2.63877 -1.18754,0.76985 -2.37003,1.65728 -2.62702,1.97026 -0.25811,0.31298 -1.0666,0.87344 -1.7967,1.24464 -5.87887,2.98759 -14.3898,10.93303 -17.60191,16.43174 -0.62931,1.07779 -2.09455,2.84313 -3.25409,3.92149 -3.62755,3.37055 -9.11618,8.17499 -11.87701,10.39832 -4.83243,3.89182 -6.64872,6.55971 -7.32507,10.7617 -1.17018,7.26517 1.21328,10.643 8.35528,11.84565 1.78941,0.30123 4.53121,0.96582 6.09275,1.47644 3.38119,1.10635 4.38004,0.96246 6.58602,-0.94678 4.02059,-3.47973 5.27811,-5.5043 5.76241,-9.28022 0.50055,-3.90413 1.98818,-6.71871 7.20582,-13.63507 0.88127,-1.16793 2.21494,-3.15275 2.96408,-4.41139 0.74913,-1.25864 1.62872,-2.58391 1.95626,-2.94504 0.32698,-0.36281 1.44844,-2.34763 2.4932,-4.41139 1.04364,-2.06433 2.57439,-4.70814 3.39967,-5.8772 6.46844,-9.14921 10.56014,-17.112 12.74988,-24.8105295 0.70434,-2.47808 0.79673,-2.34875 -1.00949,-1.42604 z M 83.084917,66.783734 c -0.36057,0.39808 -0.7245,1.79725 -1.02349,3.92877 -0.5123,3.64994 -0.68866,4.10961 -2.37674,6.19801 -2.01393,2.49208 -3.20651,2.82298 -9.77069,2.71156 -7.06081,-0.12094 -8.22874,0.37793 -8.25226,3.52396 -0.0106,1.40813 0.0857,1.55315 2.72668,4.08386 1.50555,1.44341 3.40807,3.65386 4.22887,4.91194 0.82024,1.25808 2.3941,3.39015 3.49653,4.73837 1.10355,1.34823 2.43833,3.03854 2.96687,3.757436 0.52798,0.71891 2.66509,2.85042 4.74845,4.73838 8.5658,7.75787 10.31323,12.06177 6.49868,16.01069 -0.60749,0.62932 -1.59402,1.83589 -2.18974,2.68133 -2.54976,3.61242 -5.00041,6.46732 -7.59887,8.84854 -3.49205,3.20147 -6.29263,6.80942 -8.89725,11.4638 -3.2317,5.77362 -6.25233,9.56241 -13.30306,16.68201 -3.57267,3.60851 -6.87156,7.14759 -7.33179,7.86593 -0.46023,0.71834 -1.39581,1.89972 -2.07888,2.6231 -0.68363,0.72394 -1.72167,2.06768 -2.30732,2.98591 -3.28097,5.14149 -7.51992,10.14469 -9.77461,11.53435 -8.20915,5.06087 -9.38492,6.70303 -7.48017,10.43696 1.08564,2.12815 6.97235,6.32735 10.63461,7.5871 1.50387,0.51679 3.28993,2.23622 5.3912,5.19189 5.48751,7.71476 8.63691,7.62406 11.45093,-0.32586 1.62313,-4.5872 3.12588,-6.87828 8.15428,-12.42794 2.66565,-2.94111 4.174,-4.93153 5.18853,-6.84525 0.78776,-1.48427 2.07776,-3.45285 2.86777,-4.37556 4.88618,-5.70922 6.32622,-7.27356 7.75507,-8.42414 0.87903,-0.70715 2.00386,-1.7967 2.49992,-2.42098 0.49607,-0.62428 1.72503,-1.81237 2.73228,-2.64045 1.00557,-0.82809 1.82917,-1.60802 1.82917,-1.73231 0,-0.12542 0.91878,-1.26592 2.04193,-2.5352 1.12314,-1.26927 2.92432,-3.44838 4.00267,-4.84251 1.07779,-1.39301 2.75243,-3.43326 3.71937,-4.53233 2.11471,-2.40138 4.93993,-6.35534 4.93993,-6.91188 0,-1.25472 4.101783,-6.36374 6.190183,-7.70972 3.46573,-2.23285 8.14699,0.52518 12.10208,7.13023 1.248,2.08449 3.66002,5.31339 5.71258,7.64646 0.72506,0.82472 2.23845,2.95679 3.36104,4.73837 2.26309,3.58668 4.36716,5.95838 9.7203,10.95542 5.98581,5.58829 8.82559,9.06243 12.5987,15.41609 0.61868,1.04196 1.49268,2.51392 1.94171,3.27145 2.83866,4.78709 5.92087,8.31945 9.24775,10.59765 0.85048,0.58285 1.67744,1.39134 1.83701,1.7967 0.15957,0.40536 0.67803,1.85324 1.1517,3.2177 2.4025,6.91524 7.62126,6.51715 13.42455,-1.02404 1.27487,-1.6556 6.15602,-5.21316 7.15486,-5.21316 0.47479,0 6.10284,-4.02619 6.71424,-4.80388 2.38346,-3.03182 1.43836,-6.33183 -2.51392,-8.77632 -2.5212,-1.56042 -6.69744,-5.50151 -9.93866,-9.381 -0.86783,-1.0386 -2.46184,-2.62366 -3.54524,-3.52509 -1.08227,-0.90143 -1.96746,-1.77542 -1.96746,-1.94507 0,-0.16964 -0.77153,-0.91542 -1.71495,-1.6584 -1.68584,-1.32862 -2.52792,-2.50104 -6.91468,-9.63239 -1.39133,-2.26141 -2.3969,-3.48534 -3.59451,-4.37556 -2.17518,-1.61753 -5.49423,-5.10735 -6.22992,-6.55075 -0.32082,-0.6282 -1.06324,-1.80341 -1.65057,-2.6119 -0.58845,-0.80792 -1.91763,-3.08781 -2.95679,-5.06423 -2.21942,-4.22551 -3.12476,-5.32458 -10.67436,-12.95648 -9.27686,-9.37708 -11.60097,-12.93688 -10.68387,-16.36958 0.45631,-1.71103 2.96183,-5.05919 4.71878,-6.30719 1.39021,-0.98653 4.77756,-3.97636 9.05178,-7.98799 1.43557,-1.348216 2.98815,-3.112446 3.4495,-3.921486 0.46135,-0.80905 1.16402,-1.83813 1.56042,-2.28716 0.39641,-0.44904 1.23513,-1.62537 1.86612,-2.61414 0.62988,-0.98877 1.86277,-2.47473 2.73956,-3.30393 1.91651,-1.81125 2.96463,-3.79775 3.44614,-6.53227 0.56269,-3.19699 0.4048,-3.24346 -7.74108,-2.26253 -6.91635,0.83313 -11.16146,-1.23008 -12.08528,-5.87271 -0.50783,-2.55479 -2.72612,-5.5547 -4.10906,-5.5547 -1.53354,0 -6.22656,5.86936 -8.58819,10.74099 -1.26816,2.61638 -2.57607,4.73333 -3.78208,6.1185 -0.64107,0.73738 -1.77206,2.06713 -2.51447,2.95512 -5.87776,7.04289 -12.57296,4.36492 -19.166813,-7.66661 -6.78982,-12.38819 -10.46608,-16.0818 -13.10765,-13.16364 z"
     id="path5"
     style="stroke-width:0.559893" />
</svg>
