<?xml version="1.0" encoding="UTF-8" standalone="no"?>
<svg
   version="1.1"
   width="215"
   height="215"
   viewBox="0 0 215 215"
   id="svg6"
   sodipodi:docname="horns_of_hashut.svg"
   inkscape:version="1.2.1 (9c6d41e, 2022-07-14)"
   xmlns:inkscape="http://www.inkscape.org/namespaces/inkscape"
   xmlns:sodipodi="http://sodipodi.sourceforge.net/DTD/sodipodi-0.dtd"
   xmlns="http://www.w3.org/2000/svg"
   xmlns:svg="http://www.w3.org/2000/svg"
   xmlns:rdf="http://www.w3.org/1999/02/22-rdf-syntax-ns#"
   xmlns:cc="http://creativecommons.org/ns#"
   xmlns:dc="http://purl.org/dc/elements/1.1/">
  <metadata
     id="metadata12">
    <rdf:RDF>
      <cc:Work
         rdf:about="">
        <dc:format>image/svg+xml</dc:format>
        <dc:type
           rdf:resource="http://purl.org/dc/dcmitype/StillImage" />
        <dc:title>factions-chaos-horns-of-hashut</dc:title>
      </cc:Work>
    </rdf:RDF>
  </metadata>
  <defs
     id="defs10" />
  <sodipodi:namedview
     pagecolor="#ffffff"
     bordercolor="#666666"
     borderopacity="1"
     objecttolerance="10"
     gridtolerance="10"
     guidetolerance="10"
     inkscape:pageopacity="0"
     inkscape:pageshadow="2"
     inkscape:window-width="1309"
     inkscape:window-height="456"
     id="namedview8"
     showgrid="false"
     fit-margin-top="0"
     fit-margin-left="0"
     fit-margin-right="0"
     fit-margin-bottom="0"
     inkscape:pagecheckerboard="true"
     inkscape:zoom="2.3478155"
     inkscape:cx="74.111445"
     inkscape:cy="66.870672"
     inkscape:window-x="0"
     inkscape:window-y="38"
     inkscape:window-maximized="0"
     inkscape:current-layer="svg6"
     inkscape:showpageshadow="2"
     inkscape:deskcolor="#d1d1d1" />
  <title
     id="title2">factions-chaos-horns-of-hashut</title>
  <path
     d="m 101.90559,202.02562 c -5.563325,-7.55214 -10.992271,-16.95201 -13.108754,-22.2533 -1.988822,-5.03252 -5.166905,-12.45029 -7.021347,-16.42122 -1.854442,-3.97092 -5.032526,-11.38869 -7.149008,-16.5556 -1.988822,-5.03252 -4.105305,-9.80301 -4.770485,-10.46147 -0.530801,-0.79284 -1.061601,-2.38524 -1.061601,-3.5745 0,-1.32364 -2.647283,-5.29457 -5.825367,-9.13783 -3.178083,-3.70888 -6.752588,-9.53425 -8.076229,-12.9811 -2.647283,-7.55214 -3.178084,-8.60702 -9.803011,-22.91176 -3.708884,-7.814189 -6.886967,-12.584669 -10.327091,-15.366339 -2.781663,-2.25086 -6.356168,-5.1669 -8.076229,-6.62492 -2.385243,-1.85445 -3.178084,-4.36735 -4.239685,-13.11548 -0.66518,-5.82536 -1.592401,-12.18825 -1.988822,-14.03597 -1.592401,-5.95975 19.471641,-34.1727999 25.431388,-34.1727999 0.792841,0 0.26204,2.38524 -1.189262,5.29457 -4.105305,8.0762199 -5.697706,20.7952799 -3.574504,27.0170699 2.519622,7.02134 6.221787,9.39987 22.380965,13.63955 13.639555,3.5745 14.566776,3.70888 47.550312,3.44012 18.94085,-0.13437 36.82009,-0.92722 41.05977,-1.85444 9.93067,-1.98882 16.81764,-5.95974 18.94084,-10.99227 2.51962,-5.82537 2.38524,-35.3620599 -0.13438,-38.4057599 -3.5745,-4.36735 -0.66518,-3.04370995 7.81419,3.31246 5.03253,3.84327 9.39987,8.3449899 10.46147,10.8578899 3.04371,7.02135 5.42895,17.0864 5.42895,22.78411 0,10.19943 -6.62493,29.14027 -13.63956,38.8089 -6.35616,8.87579 -16.81764,29.798729 -16.81764,33.776379 0,1.72006 -0.5308,3.5745 -1.18926,4.37406 -1.98882,2.11648 -8.07623,19.73368 -8.07623,23.30819 0,3.97092 -2.91604,10.99227 -13.90831,34.83126 -2.38524,5.1669 -5.16691,11.25431 -5.95975,13.63955 -0.92722,2.38524 -2.91604,5.42895 -4.50172,6.62493 -1.45803,1.32364 -3.70889,3.84326 -4.77049,5.82536 C 122.45228,206.39297 114.90684,215 113.18006,215 c -0.92722,0 -5.95975,-5.82537 -11.26103,-12.98109 z m 17.0864,-29.40231 c 2.78167,-2.91604 6.62493,-8.47937 8.47938,-12.18825 9.00345,-18.94084 14.04269,-30.06749 15.49399,-34.83126 1.0616,-2.91604 3.17809,-8.34499 4.89815,-12.18825 1.72006,-3.70889 3.0437,-7.41777 3.0437,-8.07623 0,-0.65846 0.92722,-3.0437 2.11648,-5.30129 2.51963,-5.03252 3.70889,-16.159172 1.72007,-16.159172 -0.66518,0 -1.0616,-0.530801 -0.5308,-1.189267 0.39642,-0.79284 -0.5308,-2.51962 -2.11649,-3.84326 -2.38524,-2.25086 -5.56332,-2.78166 -24.63182,-3.5745 -12.05388,-0.5308 -26.48628,-0.5308 -32.049606,0 -5.563326,0.66518 -12.315914,1.18926 -15.231956,1.45802 -2.781663,0.26204 -6.221788,1.45802 -7.679809,2.78166 -2.385243,2.11648 -2.519622,3.44013 -1.720062,12.315915 0.5308,6.752588 1.854442,11.388694 3.843264,14.566774 1.592401,2.51962 4.636105,8.87579 6.624926,13.90832 2.116483,5.1669 4.898146,10.19943 6.221788,11.25431 1.189261,1.0616 3.178083,6.35617 4.367345,11.65745 3.312463,14.83554 14.9632,34.7036 20.26448,34.7036 0.92722,0 3.97093,-2.38524 6.88697,-5.29457 z"
     id="path4"
     style="stroke-width:6.71899" />
</svg>
