<?xml version="1.0" encoding="UTF-8" standalone="no"?>
<!-- Generated by IcoMoon.io -->

<svg
   version="1.1"
   width="215"
   height="215"
   viewBox="0 0 215 215"
   id="svg11"
   sodipodi:docname="bladeborn-kainan.svg"
   inkscape:version="1.2.1 (9c6d41e, 2022-07-14)"
   xmlns:inkscape="http://www.inkscape.org/namespaces/inkscape"
   xmlns:sodipodi="http://sodipodi.sourceforge.net/DTD/sodipodi-0.dtd"
   xmlns="http://www.w3.org/2000/svg"
   xmlns:svg="http://www.w3.org/2000/svg">
  <defs
     id="defs15" />
  <sodipodi:namedview
     id="namedview13"
     pagecolor="#ffffff"
     bordercolor="#000000"
     borderopacity="0.25"
     inkscape:showpageshadow="2"
     inkscape:pageopacity="0.0"
     inkscape:pagecheckerboard="0"
     inkscape:deskcolor="#d1d1d1"
     showgrid="false"
     inkscape:zoom="1.0029297"
     inkscape:cx="301.61636"
     inkscape:cy="512.99708"
     inkscape:window-width="2560"
     inkscape:window-height="1387"
     inkscape:window-x="0"
     inkscape:window-y="25"
     inkscape:window-maximized="1"
     inkscape:current-layer="svg11" />
  <title
     id="title2" />
  <g
     id="icomoon-ignore"
     transform="matrix(0.31219146,0,0,0.31219146,111.85076,-1053.0004)" />
  <path
     fill="#000000"
     d="m 158.12073,20.17626 c -1.31402,7.58032 -2.70233,13.55348 -3.20996,19.52664 0,2.41355 0.74989,6.54135 2.29243,7.11921 1.05302,0.56382 2.30647,0.89943 3.62017,0.89943 2.72075,0 5.12025,-1.38863 6.52293,-3.49905 l 0.014,-0.0325 c 1.4957,-2.72075 2.99578,-5.02722 4.64509,-7.21225 l -0.10708,0.1536 c 1.69582,-2.80973 4.71971,-4.65915 8.19066,-4.65915 5.26947,0 9.53276,4.26298 9.53276,9.53277 0,2.97737 -1.37458,5.6516 -3.53151,7.39425 l -0.014,0.014 c -0.85727,1.08549 -2.41355,1.83569 -2.93522,3.10287 -0.52167,1.26719 -2.0639,4.93419 -1.31401,5.74464 2.29242,2.52063 3.91363,7.24034 8.78694,5.39529 4.93418,-1.46761 9.15064,-4.08128 12.5145,-7.51538 v 0 c 1.54223,-1.43515 3.62017,-2.32052 5.9126,-2.32052 0.54977,0 1.08549,0.0465 1.60279,0.15359 l -0.0606,-0.014 c 3.39196,0.91784 4.37037,4.37036 4.41689,8.03705 0,8.67986 -1.2675,10.28265 -10.16152,11.77836 -6.43427,1.03898 -12.63564,2.93523 -19.00934,4.30981 -2.30647,0.53572 -5.1343,0.9784 -8.00459,1.23908 l -0.26099,0.0141 c -4.99475,0.45674 -8.6193,0.39617 -9.70041,-6.72304 -1.08112,-7.11922 -7.58033,-10.39005 -13.49292,-13.03181 -5.91259,-2.64176 -9.93331,2.18503 -9.18311,8.90838 1.14605,10.16152 9.18311,17.23422 11.13993,27.33518 0.81076,4.14184 10.115,6.49483 14.69953,4.70566 5.74464,-2.18503 10.90735,-4.93419 16.36289,-7.34774 1.45357,-0.73147 3.16344,-1.40705 4.93419,-1.95682 l 0.22821,-0.0606 c 6.83044,-2.01738 11.82488,-0.45674 13.49292,4.08128 0.0746,0.47515 0.12113,1.02492 0.12113,1.57469 0,4.38442 -2.61367,8.17224 -6.35529,9.88679 l -0.0606,0.0325 c -5.74464,2.80972 -12.11834,4.37037 -17.69533,7.47324 -2.72074,1.52818 -5.97315,2.44602 -9.4441,2.44602 -3.47094,0 -6.72304,-0.89942 -9.55118,-2.49254 l 0.093,0.0465 c -2.29242,-1.03897 -7.05865,-2.41355 -8.2047,2.52063 -0.34966,0.87133 -0.56382,1.87783 -0.56382,2.94928 0,2.97737 1.62121,5.57698 4.01634,6.96561 l 0.0465,0.014 c 2.41355,1.2675 5.74463,1.08549 7.74796,2.80972 9.18312,8.55436 17.86298,8.38671 27.62427,0.5173 6.1408,-4.99475 11.48958,-3.27051 15.2774,3.04231 2.29242,3.68074 1.89625,5.74463 -1.2675,9.53277 -5.56294,6.79765 -13.94965,11.10746 -23.34693,11.10746 -6.85853,0 -13.1854,-2.29243 -18.24509,-6.15923 l 0.0746,0.0465 c -5.60945,-4.61263 -12.72867,-7.59437 -20.50504,-8.14414 h -0.12113 c -0.0606,0 -0.1536,0 -0.22822,0 -3.83464,0 -6.95156,3.11692 -6.95156,6.95157 0,0 0,0 0,0 v 0 c 3.45252,12.92472 5.74463,26.75293 20.27652,33.36889 2.70233,1.20662 4.59858,2.97737 7.64089,0.62438 1.37458,-0.73146 3.02388,-1.1601 4.76622,-1.1601 0.22822,0 0.44269,0 0.6709,0.014 h -0.0325 c 7.64089,-0.5173 10.67883,1.49571 11.48959,7.24034 1.08549,7.41268 -2.5812,15.15627 -8.67986,15.84559 -1.4211,0.28909 -3.05636,0.45674 -4.73813,0.45674 -3.7413,0 -7.28686,-0.82481 -10.46466,-2.29242 l 0.1536,0.0606 c -9.30424,-5.74463 -18.48767,-12.46799 -22.96512,-23.60792 -1.63526,-4.73812 -3.57365,-8.81503 -5.89854,-12.63563 l 0.16764,0.28909 c -1.51412,-3.07041 -4.61262,-5.1343 -8.2047,-5.1343 -2.36703,0 -4.53801,0.89942 -6.15922,2.38545 v 0 c -1.14606,0.85728 -2.01739,2.0639 -3.10287,2.97737 -5.74464,4.76623 -5.74464,4.76623 -11.48959,-1.43514 -5.744939,-6.20137 -12.635629,-5.34878 -16.195239,3.39196 -5.14835,11.56419 -12.16048,21.40416 -20.74731,29.59512 l -0.0325,0.0325 c -4.24892,4.10938 -10.05443,6.64843 -16.44218,6.64843 -1.60279,0 -3.16344,-0.1536 -4.6732,-0.45674 l 0.1536,0.0325 c -6.06619,-1.43514 -10.51117,-6.79765 -10.51117,-13.19945 0,-2.47412 0.65685,-4.78028 1.81726,-6.78361 l -0.0325,0.0606 c 1.86379,-1.92434 4.41689,-3.16343 7.25877,-3.33139 h 0.0325 c 0.3075,-0.014 0.65685,-0.0325 1.0065,-0.0325 3.0704,0 5.97316,0.6709 8.60088,1.86378 l -0.13955,-0.0465 c 1.23908,0.59628 2.68828,0.94594 4.2305,0.94594 3.45253,0 6.50888,-1.77075 8.26527,-4.47745 l 0.0325,-0.0325 c 5.01317,-8.31179 10.00792,-18.13801 14.33146,-28.32763 l 0.59629,-1.58874 c 0.15359,-0.5173 0.24226,-1.11359 0.24226,-1.72829 0,-3.3314 -2.67424,-6.03373 -5.99158,-6.08024 v 0 c -4.39847,0.0746 -8.57278,0.9784 -12.40743,2.5531 l 0.22822,-0.0746 c -7.33369,2.90276 -13.49292,5.92665 -19.39115,9.38354 l 0.65685,-0.34965 c -13.4464,7.70145 -29.12434,-2.74885 -35.6613197,-11.48958 -0.53572,-0.61034 -0.85728,-1.4211 -0.85728,-2.30647 0,-0.014 0,-0.0325 0,-0.0606 v 0 c 1.03898,-7.24034 11.4895797,-13.26002 15.9064697,-8.43323 12.6962,13.4464 23.54735,5.74464 34.91112,-1.31401 2.21313,-1.14606 4.10938,-2.5531 5.73059,-4.24893 v 0 c 1.20662,-1.60279 2.52063,-4.47745 1.83568,-5.74463 -0.68494,-1.26719 -3.5596,-2.47412 -5.74463,-3.62017 -0.20012,-0.0746 -0.44269,-0.13955 -0.68932,-0.13955 -0.24663,0 -0.4892,0.0465 -0.70337,0.13955 h 0.014 c -13.78169,7.05865 -25.4998,0.9784 -37.09646,-5.74464 -2.18503,-1.25313 -4.06286,-2.53468 -5.81956,-3.9742 l 0.0746,0.0606 c -2.15256,-1.31401 -3.57365,-3.63422 -3.57365,-6.30877 0,-1.36053 0.36807,-2.62771 1.0065,-3.7132 l -0.014,0.0325 c 1.40705,-2.53469 4.06286,-4.23051 7.11922,-4.23051 1.0065,0 1.98491,0.1817 2.87466,0.5173 l -0.0606,-0.014 c 4.9807,1.77075 9.21121,3.69916 13.23192,5.95911 l -0.42864,-0.21416 c 2.78163,1.70987 6.08025,3.43848 9.49062,4.95261 l 0.56382,0.21416 c 1.40705,0.65685 3.05636,1.05302 4.79901,1.05302 5.1624,0 9.51872,-3.40601 10.97228,-8.08357 l 0.014,-0.0746 c 3.91363,-7.97649 6.66248,-16.53085 11.07936,-24.12522 2.93523,-5.12025 -0.39617,-6.66247 -2.93522,-9.01546 -1.05302,-1.29997 -2.66019,-2.11041 -4.44498,-2.11041 -1.7848,0 -3.39196,0.82481 -4.44499,2.11041 l -0.014,0.014 c -2.8422,2.5531 -5.40935,5.2879 -7.70146,8.25122 l -0.10708,0.13955 c -7.58032,10.45061 -11.48958,12.0534 -23.48241,8.26527 -6.01968,-2.66019 -13.01776,-4.27703 -20.3976597,-4.41689 h -0.0606 c -3.72726,0 -8.78693996,-5.74463 -8.15818996,-9.36512 0.44269,-3.43847 1.55626996,-6.55539 3.22399996,-9.29019 l -0.0606,0.10708 c 0.96436,-1.37458 2.52063,-2.25964 4.3098,-2.25964 1.78917,0 3.3454397,0.88537 4.2957497,2.24559 l 0.0141,0.014 c 3.59208,4.21646 8.52626,7.16573 14.14977,8.19066 l 0.1536,0.014 c 0.45673,0.093 0.99245,0.15359 1.52817,0.15359 1.55628,0 3.02389,-0.45673 4.24893,-1.26749 l -0.0325,0.014 c 1.14606,-1.31401 1.84974,-3.0423 1.84974,-4.93418 0,-0.48921 -0.0465,-0.96436 -0.13955,-1.4211 l 0.014,0.0465 c -1.31401,-3.71321 -3.27051,-6.90505 -5.75868,-9.61175 l 0.014,0.014 c -3.8487,-4.08128 -1.89625,-6.66248 1.20662,-9.4722 6.49483,-5.74464 12.92473,-5.05532 17.23422,2.70233 3.20995,5.74463 8.32614,9.13659 12.1789,7.58032 3.85275,-1.55628 5.22733,-5.74464 2.87466,-13.61405 -0.81076,-2.64176 -1.66336,-5.2879 -2.47412,-7.97649 -1.2675,-4.18836 0.5173,-11.48958 3.39196,-12.01125 1.62121,-0.27504 3.46657,-0.44269 5.36282,-0.44269 1.13201,0 2.23155,0.0606 3.3314,0.16765 l -0.13955,-0.014 c 4.14184,0 3.27052,3.49904 4.3098,5.74463 1.72829,4.01634 2.52064,8.67986 9.41164,8.6193 5.79115,0.014 10.48308,4.71971 10.48308,10.51117 0,0.24226 -0.014,0.4892 -0.0325,0.71742 v -0.0325 c 0,0.16764 -0.014,0.34965 -0.014,0.53572 0,4.6451 2.49254,8.70795 6.219789,10.90734 l 0.0606,0.0325 c 2.18503,1.43515 4.84553,2.29242 7.72955,2.29242 7.09112,0 12.97125,-5.22733 13.98212,-12.03935 l 0.014,-0.0746 c 0.45674,-1.78917 0,-4.08128 0.58224,-5.74464 2.06389,-3.95577 3.33139,-9.07603 9.86837,-7.86941 4.37037,0.81076 6.60191,-0.45673 7.11921,-5.74463 0.24226,-5.10183 4.43094,-9.15065 9.57929,-9.15065 1.80321,0 3.49904,0.50326 4.93418,1.36053 l -0.0465,-0.0325 c 1.49571,1.14605 2.29243,5.34877 3.04231,6.95156 z m -61.100239,93.53787 c 1.54222,5.34877 -3.27052,7.17978 -5.74464,10.39004 -0.62438,0.85728 -1.31401,2.80972 -1.08549,2.97737 3.00984,1.98491 6.49483,3.89521 10.129059,5.54452 l 0.4892,0.20012 c 0.91784,0.39617 4.08128,-1.37458 4.08128,-2.2456 0.18169,-2.72075 0.27504,-5.88449 0.27504,-9.07603 0,-3.19153 -0.10708,-6.35528 -0.30751,-9.50467 l 0.014,0.42864 c 0,-0.85728 -3.10287,-1.43514 -4.70566,-2.12446 -0.517299,-1.83569 -1.281549,-3.43848 -2.278379,-4.87362 l 0.0325,0.0606 c -0.74988,-0.74988 -2.70233,0 -4.08128,-0.5173 -1.37895,-0.5173 -3.10287,-1.20662 -4.64509,-1.78917 l 3.49904,-2.06389 c 6.66248,-3.8487 6.66248,-3.8487 0.97841,-9.53277 l -5.05532,-4.99475 c -0.70337,-0.93189 -1.81727,-1.51413 -3.05635,-1.51413 -1.77075,0 -3.2521,1.19257 -3.71321,2.80972 v 0.0325 c -1.03897,3.72725 -9.01546,8.2047 0,12.0534 0.5173,0 0.58224,3.39196 0,3.49904 -9.07603,3.72726 -3.20995,9.36512 -1.37458,13.72113 1.83538,4.35601 4.82711,5.05532 9.70041,0.97841 2.29243,-1.14606 4.59858,-2.93523 6.83044,-4.47745 z m 29.227049,-28.24865 -0.97841,-1.03897 c 0.74989,-1.14605 2.47412,-2.74885 2.12447,-3.45253 -2.29243,-5.74463 -7.74797,-7.58032 -12.86417,-9.63984 -0.5173,0 -2.52063,1.54222 -2.58119,2.41355 0,6.14081 0,12.34655 0,18.54823 0,4.93419 2.12446,2.18503 3.91363,0.91784 0.94594,-0.61033 2.04548,-1.25313 3.19153,-1.81726 l 0.1817,-0.0746 c 0,1.2675 1.08549,3.04231 0.58223,3.78813 -2.24559,2.97737 0,3.16344 1.89625,4.47745 4.18836,2.47412 6.26631,5.34878 -1.26749,5.74464 -0.81076,0 -2.35299,3.33139 -2.01738,3.72725 3.51309,4.12343 7.05864,7.88346 10.7859,11.42902 l 0.0606,0.0606 c 0.70337,0.50326 1.58875,0.81077 2.53469,0.81077 0.44268,0 0.87132,-0.0606 1.28154,-0.20012 l -0.0325,0.014 c 3.45253,-1.08549 7.58032,-12.86416 5.10184,-15.44536 -1.60279,-1.66336 -4.76623,-2.24559 -1.54223,-4.53802 5.1624,-3.72725 1.14606,-7.24034 0.68932,-11.07936 -1.20662,-8.2047 -7.17978,-3.78813 -11.07936,-4.64509 z m -20.85439,-3.0423 v -4.24893 c 0,-8.09762 -0.68932,-8.32614 -7.412669,-4.59858 -10.22209,5.74464 -10.28265,6.03373 -2.12447,14.01022 0.89943,1.08549 1.87784,2.04548 2.94928,2.90275 l 0.0465,0.0325 c 1.299969,0.76425 2.842189,1.52818 4.444989,2.19908 l 0.26099,0.093 c 0.70336,-1.38863 1.29996,-2.99579 1.69582,-4.67319 l 0.0325,-0.1536 c 0.12113,-0.99246 0.18169,-2.15256 0.18169,-3.3314 0,-0.73146 -0.0325,-1.45356 -0.0746,-2.15256 v 0.093 z m 7.24035,29.29199 c -0.39618,0.76424 -0.70337,1.6493 -0.85728,2.58119 v 0.0465 c 0,4.24893 0,8.49379 0,12.74272 0,2.0639 0.91784,5.22733 2.24559,5.74463 0.44269,0.093 0.94594,0.1536 1.46761,0.1536 1.81727,0 3.46658,-0.6709 4.73813,-1.77075 h -0.014 c 2.18503,-1.95681 6.89101,-3.91363 4.37037,-7.64088 -3.29893,-4.12343 -6.84448,-7.79012 -10.69724,-11.10746 l -0.10708,-0.093 c -0.32156,-0.27504 -0.70337,-0.5173 -1.11359,-0.6709 l -0.0325,-0.014 z"
     id="path5"
     style="stroke-width:0.312191" />
  <path
     fill="#000000"
     d="m 108.31856,107.32081 -1.63713,1.01712 1.01712,-1.67585 z"
     id="path7"
     style="stroke-width:0.312191" />
  <path
     fill="#000000"
     d="m 108.33792,106.66208 -1.67585,1.67584 z"
     id="path9"
     style="stroke-width:0.312191" />
</svg>
