<?xml version="1.0" encoding="UTF-8" standalone="no"?>
<!-- Generated by IcoMoon.io -->

<svg
   version="1.1"
   width="215"
   height="215"
   viewBox="0 0 215 215"
   id="svg7"
   sodipodi:docname="bladeborn-khagra.svg"
   inkscape:version="1.2.1 (9c6d41e, 2022-07-14)"
   xmlns:inkscape="http://www.inkscape.org/namespaces/inkscape"
   xmlns:sodipodi="http://sodipodi.sourceforge.net/DTD/sodipodi-0.dtd"
   xmlns="http://www.w3.org/2000/svg"
   xmlns:svg="http://www.w3.org/2000/svg">
  <defs
     id="defs11" />
  <sodipodi:namedview
     id="namedview9"
     pagecolor="#ffffff"
     bordercolor="#000000"
     borderopacity="0.25"
     inkscape:showpageshadow="2"
     inkscape:pageopacity="0.0"
     inkscape:pagecheckerboard="0"
     inkscape:deskcolor="#d1d1d1"
     showgrid="false"
     inkscape:zoom="1.0029297"
     inkscape:cx="301.61636"
     inkscape:cy="512.99708"
     inkscape:window-width="2560"
     inkscape:window-height="1387"
     inkscape:window-x="0"
     inkscape:window-y="25"
     inkscape:window-maximized="1"
     inkscape:current-layer="svg7" />
  <title
     id="title2" />
  <g
     id="icomoon-ignore"
     transform="matrix(0.27426456,0,0,0.27426456,85.929084,-962.01499)" />
  <path
     fill="#000000"
     d="m 80.296114,149.86205 c -3.93433,2.29559 -8.35684,3.30626 -9.65027,5.61584 -5.61584,11.21769 -18.90341,13.18198 -26.421,21.98422 0,0.38836 -1.78739,0.28277 -2.24705,0 -0.44541,-0.50821 -0.7279,-1.19332 -0.7279,-1.9215 0,-0.19116 0.0143,-0.38835 0.057,-0.56525 v 0.0143 c 4.40826,-11.03476 11.2177,-20.30244 19.80849,-27.50874 l 0.10559,-0.0913 c 8.41389,-6.3868 8.41389,-6.73237 3.36331,-15.65447 -1.62447,-2.81231 -3.06628,-6.07551 -4.15401,-9.50162 l -0.1056,-0.35984 c -2.35264,-7.24058 -4.31692,-7.96848 -9.75586,-2.18973 -2.18973,2.2956 -2.79805,3.14335 -4.42252,0 -2.69794,-5.05058 -6.10403,-5.61584 -9.65027,-0.89657 -3.54624,4.71927 -5.94139,3.0235 -10.32112,0.50822 -5.28481,-2.51528 -12.07999,-5.24202 -19.01778,-7.62895 l -1.50462,-0.4454 c -3.97711,-1.78738 -4.09696,-5.61584 0,-7.24059 7.96848,-3.4689 16.26252,-6.329747 24.56231,-9.147817 0.38836,-0.0913 0.83377,-0.14837 1.29343,-0.14837 1.44757,0 2.76953,0.55099 3.75167,1.44756 v 0 c 3.97711,5.615847 7.74304,4.599417 10.70948,-0.34557 2.96645,-4.94499 3.14335,-2.02709 5.2135,0.34557 4.15401,4.705287 4.98777,4.422517 7.52307,-0.83376 1.51888,-3.30626 2.69794,-6.83796 4.37973,-10.09568 4.93073,-9.53014 4.48533,-10.42671 -4.37973,-17.6673 -7.56586,-6.56946 -13.4502,-14.84923 -17.08202,-24.26528 l -0.13411,-0.41688 c -0.0285,-0.14838 -0.0428,-0.32556 -0.0428,-0.52248 0,-0.7279 0.26851,-1.39902 0.7279,-1.90723 v 0 c 0.31129,-0.19117 0.69938,-0.31129 1.11626,-0.31129 0.41688,0 0.80524,0.11985 1.13052,0.31129 h -0.0143 c 8.69665,7.68599 21.31309,10.60389 26.68923,22.42963 2.06987,4.70528 6.78942,4.37973 11.21769,2.69794 4.42828,-1.68179 7.40323,-3.58875 11.2177,-5.33335 3.81447,-1.7446 8.639606,-4.15401 2.9179,-9.65027 -1.11626,-1.11626 -0.56526,-4.15402 -0.38836,-6.28697 0.1769,-2.13296 1.56166,-3.93433 1.01066,-5.61584 -5.61584,-13.23903 3.531706,-23.89146 6.104036,-35.6744195 0,-1.17906 1.78738,-3.14334 2.18972,-2.9807 1.56167,0.4454 3.58876,1.29343 4.15402,2.57808 3.65155,8.4766995 6.95781,16.8277795 10.26407,25.6928295 0.26851,0.56526 0.43115,1.23639 0.43115,1.93576 0,0.69938 -0.16264,1.3705 -0.43115,1.96429 l 0.0143,-0.0285 c -3.81447,4.66223 -7.12045,8.97915 0,13.74724 0.50822,0.34557 0,3.75166 -1.11625,4.76809 -4.66223,4.59941 -2.69794,7.05765 2.35264,8.80224 2.18973,0.7279 4.48532,1.17907 6.61224,2.02709 3.23495,1.83017 6.97208,3.30626 10.91491,4.25988 l 0.29703,0.0571 c 5.61584,0.38836 4.66222,-6.22416 7.29763,-8.63961 5.58732,-4.52811 11.82574,-8.95062 18.33239,-13.0048 l 0.79098,-0.45967 c 0.68511,-0.45967 1.47609,-0.93936 2.2956,-1.35624 l 0.11985,-0.057 7.01486,-3.14335 c -0.89657,2.24705 -1.68151,4.54237 -2.69794,6.73237 -4.11122,9.57869 -10.39819,17.54745 -18.26108,23.56015 l -0.13412,0.10559 c -2.63513,1.3705 -4.39399,4.06844 -4.39399,7.19204 0,1.81591 0.59378,3.48316 1.61021,4.8394 l -0.0143,-0.0143 c 1.49035,3.11482 3.00923,6.95782 4.2884,10.90064 l 0.19116,0.69938 c 1.96428,4.42251 4.09696,9.027687 9.4731,2.9179 0.59378,-0.68512 1.44757,-1.14478 2.39543,-1.23639 h 0.0143 c 4.31692,0 7.12045,9.027697 12.67376,2.57809 5.55331,-6.44961 9.4731,-0.67085 14.01574,0 5.49599,1.38476 10.26408,3.114817 14.79219,5.256277 l -0.49395,-0.21118 c 1.56166,0.60804 4.31692,2.06987 4.20283,2.63513 -0.32555,2.24705 -1.42755,4.20283 -3.02349,5.60158 l -0.0143,0.0143 c -2.69794,1.38476 -6.03272,2.83233 -9.48736,4.09697 l -0.67085,0.22544 c -3.72314,1.53314 -6.90927,3.27774 -9.87571,5.33335 l 0.1769,-0.11985 c -3.70888,2.86085 -6.16712,3.46889 -8.63961,-1.34198 -2.4725,-4.81088 -5.61584,-5.61584 -8.35684,-0.7279 -3.0235,5.61584 -5.05059,2.79805 -8.1314,0.38836 -6.16711,-4.88794 -7.74304,-4.20283 -9.81291,3.65156 -0.53674,2.69794 -1.11626,4.94499 -1.80164,7.13499 l 0.11985,-0.45967 c -0.8195,1.51888 -1.31345,3.33479 -1.31345,5.25628 0,4.33695 2.45823,8.1026 6.06124,9.96129 l 0.0571,0.0285 c 6.54094,4.45104 11.4659,10.85786 14.00121,18.36667 l 0.0771,0.25424 c 1.07348,3.14335 7.12046,4.93073 3.20067,8.9221 -0.79098,0.83377 -6.16711,-2.47249 -9.20487,-4.31692 -8.26551,-4.52811 -15.20906,-10.49802 -20.69079,-17.61875 l -0.11985,-0.14838 c -2.35264,-3.42611 -4.93073,-4.31693 -9.24765,-1.34198 -4.79662,2.86086 -10.48377,5.68743 -16.36811,8.1314 l -0.91084,0.32555 c -3.87151,1.96428 -4.76809,5.61584 -0.34557,6.89501 7.05765,2.29559 4.15401,4.70528 0.56526,6.78942 -3.58875,2.08414 -4.25988,5.61584 -1.62447,7.84863 4.25988,4.15401 2.9179,8.01127 1.29343,12.51085 -2.35264,6.50665 -4.03415,13.18198 -6.4496,19.63158 -0.7279,1.84443 -3.20067,3.08054 -4.82514,4.59942 -1.34198,-1.51888 -3.30626,-2.79805 -4.03416,-4.59942 -3.200656,-8.1942 -6.104026,-16.43091 -8.922096,-24.73921 -0.11985,-0.43114 -0.19116,-0.93935 -0.19116,-1.46183 0,-1.14478 0.34557,-2.21852 0.93936,-3.10056 l -0.0143,0.0143 c 4.15402,-4.54237 3.87152,-7.84863 -1.46183,-11.21769 -3.3633,-2.06988 -5.21349,-4.66223 0.83377,-6.06125 1.80164,-0.49395 3.32052,-1.47609 4.48532,-2.79805 l 0.0143,-0.0143 c 0.60805,-0.60804 0.50822,-3.14334 0,-3.3633 -6.32975,-2.4725 -12.17131,-4.98778 -18.39519,-7.84863 z m 9.42483,-18.61516 c 0,0.95362 0,1.90723 0,2.79805 -0.50821,4.66222 3.14334,4.48532 6.06124,5.61584 4.599416,2.18972 4.20283,-2.06988 5.615846,-3.75167 1.41301,-1.68179 0.56525,-2.69794 1.17906,-3.93432 1.11626,-2.12692 2.51528,-4.15401 3.75166,-6.28697 2.12693,1.63873 3.97711,3.48316 5.55304,5.53877 l 0.0428,0.0771 c 1.07347,1.90724 0.60805,4.59942 1.34198,6.73237 0.56526,1.26491 1.66725,2.20399 2.99497,2.57809 h 0.0285 c 0.1769,0.0143 0.40262,0.0143 0.60805,0.0143 5.19923,0 9.43031,-4.21709 9.43031,-9.43031 0,-0.7279 -0.0771,-1.42755 -0.23971,-2.0984 l 0.0143,0.0571 c -1.34197,-5.61584 0,-7.05765 5.15042,-5.10763 5.15041,1.95002 6.95782,-2.79805 8.41389,-6.3868 1.45607,-3.58875 -1.78739,-4.31692 -4.31693,-5.15041 -1.47609,-0.25425 -2.78378,-0.67085 -4.00563,-1.26491 l 0.0913,0.0428 c -2.741,-1.74459 -3.81447,-4.09696 -0.83377,-6.56946 1.34198,-0.87654 2.9179,-1.77312 4.55664,-2.57808 l 0.2685,-0.11986 c 2.51528,-1.51887 5.61584,-2.189717 3.70888,-6.837957 -1.90696,-4.64824 -1.78738,-8.7452 -7.74304,-6.56946 -4.31692,1.62447 -6.06124,0.38836 -6.56946,-3.81447 -0.0428,-2.9179 -0.52247,-5.70745 -1.34197,-8.34258 l 0.057,0.21118 c -0.83376,-2.12692 -2.86085,-3.61727 -5.24201,-3.61727 -2.18973,0 -4.08271,1.25065 -5.00204,3.08054 l -0.0143,0.0285 c -0.89657,1.51888 -0.67085,3.70888 -1.51888,5.27054 -1.34198,2.63514 -3.20067,4.98778 -4.82514,7.52308 -1.51887,-2.63513 -3.14334,-5.15041 -4.54237,-7.84863 -0.38835,-0.79098 0,-2.12692 -0.38835,-2.69794 -1.39903,-1.68151 -3.200666,-4.42251 -4.599416,-4.31692 -2.79805,0.38836 -5.2135,1.75886 -6.9378,3.7374 l -0.0143,0.0143 c -1.23638,1.51888 -0.83376,4.37973 -1.07347,6.67533 -0.34557,4.15401 -1.90724,5.61584 -6.32975,4.20283 -7.46027,-2.79805 -6.50665,3.70888 -8.1942,7.62894 -2.2956,5.615837 3.24921,4.202827 5.05058,6.061247 0.79098,0.83376 2.86085,0 3.97711,0.95361 1.49035,1.08774 2.78378,2.28134 3.96285,3.57449 l 0.0143,0.0143 c -1.11626,0.95361 -2.33838,1.87871 -3.61728,2.72673 l -0.13411,0.0913 c -1.32772,0.72789 -2.96645,1.49035 -4.64796,2.17546 l -0.34558,0.11986 c -5.61584,2.47249 -3.87152,6.67532 -2.29559,10.54656 1.57592,3.87125 3.20067,7.05765 8.13139,4.66223 4.93073,-2.39543 7.46027,-2.35264 4.76809,3.97711 z"
     id="path5"
     style="stroke-width:0.274265" />
</svg>
