<?xml version="1.0" encoding="UTF-8" standalone="no"?>
<!-- Generated by IcoMoon.io -->

<svg
   version="1.1"
   width="215"
   height="215"
   viewBox="0 0 215 215"
   id="svg11"
   sodipodi:docname="bladeborn-mollog.svg"
   inkscape:version="1.2.1 (9c6d41e, 2022-07-14)"
   xmlns:inkscape="http://www.inkscape.org/namespaces/inkscape"
   xmlns:sodipodi="http://sodipodi.sourceforge.net/DTD/sodipodi-0.dtd"
   xmlns="http://www.w3.org/2000/svg"
   xmlns:svg="http://www.w3.org/2000/svg">
  <defs
     id="defs15" />
  <sodipodi:namedview
     id="namedview13"
     pagecolor="#ffffff"
     bordercolor="#000000"
     borderopacity="0.25"
     inkscape:showpageshadow="2"
     inkscape:pageopacity="0.0"
     inkscape:pagecheckerboard="0"
     inkscape:deskcolor="#d1d1d1"
     showgrid="false"
     inkscape:zoom="1.0029297"
     inkscape:cx="301.61636"
     inkscape:cy="512.99708"
     inkscape:window-width="2560"
     inkscape:window-height="1387"
     inkscape:window-x="0"
     inkscape:window-y="25"
     inkscape:window-maximized="1"
     inkscape:current-layer="svg11" />
  <title
     id="title2" />
  <g
     id="g248"
     transform="matrix(0.34210648,0,0,0.34210648,-63.585227,-69.423324)">
    <g
       id="icomoon-ignore" />
    <path
       fill="#000000"
       d="M 496.369,413.254 H 274.483 c -3.894,0.655 -8.354,0.977 -12.89,0.977 -4.536,0 -8.997,-0.365 -13.357,-1.065 l 0.466,0.044 c -9.507,-2.552 -17.439,-8.121 -22.908,-15.587 l -0.088,-0.088 c -0.365,-1.619 -0.598,-3.528 -0.598,-5.425 0,-6.722 2.596,-12.846 6.867,-17.395 v 0 c 18.548,-18.97 38.772,-36.177 60.528,-51.386 l 1.386,-0.933 c 23.009,-14.611 49.577,-27.967 77.413,-38.684 l 3.106,-1.065 c 19.16,-6.124 35.068,-17.906 46.194,-33.392 l 0.189,-0.277 c 16.098,-27.136 44.896,-45.174 77.967,-46.005 h 0.145 c 0.977,-0.044 2.085,-0.044 3.251,-0.044 21.522,0 41.003,8.808 54.958,23.053 v 0 c 9.595,10.062 19.67,19.393 30.242,28.112 l 0.598,0.466 c 11.359,9.74 24.395,17.95 38.583,24.03 l 0.977,0.365 c 50.189,19.393 93.453,45.363 131.394,77.413 l -0.699,-0.554 c 2.274,1.896 3.995,4.36 6.256,6.124 6.533,5.57 10.616,13.779 10.616,22.952 0,4.316 -0.876,8.398 -2.508,12.059 l 0.088,-0.189 c -4.171,12.569 -15.486,15.354 -28.244,15.165 -36.265,0 -72.498,0 -108.763,0 z"
       id="path5" />
    <path
       fill="#000000"
       d="m 485.419,830.867 c -26.291,0 -46.515,0 -66.74,0 -7.233,-1.531 -13.269,-5.614 -17.395,-11.227 l -0.044,-0.088 c -1.21,-1.386 3.295,-10.106 7.145,-13.08 15.209,-12.059 24.905,-30.519 24.905,-51.253 0,-3.251 -0.233,-6.445 -0.699,-9.595 l 0.044,0.365 c -1.764,-56.489 0,-112.934 0,-169.247 0,-24.773 0,-25.094 23.185,-25.605 25.97,0 52.274,0 78.099,0 25.825,0 28.244,4.87 24.074,33.304 -1.109,10.761 -1.764,23.242 -1.764,35.899 0,5.746 0.145,11.505 0.422,17.206 l -0.044,-0.788 c 0,33.304 0,66.608 0,99.854 -0.189,1.997 -0.321,4.36 -0.321,6.722 0,20.224 8.165,38.583 21.377,51.852 v 0 c 6.445,6.634 17.439,12.015 11.183,24.905 -6.256,12.89 -17.439,2.596 -24.206,5.381 -28.055,10.994 -56.999,2.785 -79.12,5.381 z"
       id="path7" />
    <path
       fill="#000000"
       d="m 497.433,437.328 c 11.505,0 23.009,0 34.879,0 28.566,0 27.879,0 34.879,28.244 3.66,9.872 8.064,18.372 13.357,26.247 l -0.277,-0.466 c 8.531,17.439 0,37.474 -17.439,33.814 -48.469,-10.616 -98.134,9.929 -145.916,-7.655 -13.955,-5.235 -17.439,-13.59 -7.655,-23.695 10.018,-7.976 16.375,-20.18 16.375,-33.858 0,-1.342 -0.044,-2.64 -0.189,-3.938 v 0.189 c -1.896,-16.053 7.655,-19.336 21.289,-19.014 16.053,0.51 33.304,0.189 50.743,0.189 z"
       id="path9" />
  </g>
</svg>
