<?xml version="1.0" encoding="UTF-8" standalone="no"?>
<!-- Generated by IcoMoon.io -->

<svg
   version="1.1"
   width="215"
   height="215"
   viewBox="0 0 215 215"
   id="svg7"
   sodipodi:docname="bladeborn-morgok.svg"
   inkscape:version="1.2.1 (9c6d41e, 2022-07-14)"
   xmlns:inkscape="http://www.inkscape.org/namespaces/inkscape"
   xmlns:sodipodi="http://sodipodi.sourceforge.net/DTD/sodipodi-0.dtd"
   xmlns="http://www.w3.org/2000/svg"
   xmlns:svg="http://www.w3.org/2000/svg">
  <defs
     id="defs11" />
  <sodipodi:namedview
     id="namedview9"
     pagecolor="#ffffff"
     bordercolor="#000000"
     borderopacity="0.25"
     inkscape:showpageshadow="2"
     inkscape:pageopacity="0.0"
     inkscape:pagecheckerboard="0"
     inkscape:deskcolor="#d1d1d1"
     showgrid="false"
     inkscape:zoom="1.0029297"
     inkscape:cx="301.61636"
     inkscape:cy="512.99708"
     inkscape:window-width="2560"
     inkscape:window-height="1387"
     inkscape:window-x="0"
     inkscape:window-y="25"
     inkscape:window-maximized="1"
     inkscape:current-layer="svg7" />
  <title
     id="title2" />
  <g
     id="icomoon-ignore"
     transform="matrix(0.31696562,0,0,0.31696562,117.58573,-1072.4462)" />
  <path
     fill="#000000"
     d="m 214.86587,60.244132 c 0.0894,0.85961 0.13408,1.84949 0.13408,2.85681 0,11.6992 -6.6043,21.85826 -16.27492,26.95317 l -0.16133,0.0758 c -4.05653,2.39975 -6.17449,8.5156 -8.45728,13.297658 -2.28279,4.78206 -3.45175,5.5694 -5.95452,0 -2.54745,-5.063838 -5.05021,-9.285818 -7.79038,-13.342348 l 0.26847,0.42981 c -0.88687,-1.70147 -2.63683,-2.82956 -4.65178,-2.82956 -1.71923,0 -3.2283,0.82855 -4.19092,2.10402 l -0.0136,0.0136 c -4.78206,4.90251 -4.72374,9.4646 0,15.477748 4.72374,6.01315 4.84418,6.01284 -0.56388,12.12901 -2.6641,3.06664 -4.78206,6.62173 -7.34695,9.80501 -2.56489,3.18329 -5.89239,7.24013 -11.13532,6.45627 -7.28482,-1.05201 -8.90071,3.45176 -10.63356,9.52292 -3.89519,13.80322 1.45075,22.25701 15.6974,23.10267 4.11865,0 8.29214,0 12.46943,0 h 5.5694 c -0.60857,1.80861 -1.36136,3.376 -2.2793,4.81313 l 0.0583,-0.0894 c -2.11765,2.44444 -4.72374,4.45907 -6.7967,6.96183 -2.79849,3.81944 -7.25756,6.27751 -12.30777,6.27751 -0.77023,0 -1.50908,-0.0583 -2.25204,-0.16134 l 0.0894,0.0136 c -0.53282,-0.0447 -1.15502,-0.0583 -1.79117,-0.0583 -5.98178,0 -11.4618,2.13128 -15.72847,5.67273 l 0.0447,-0.0311 c -14.97219,10.29314 -31.23347,12.08432 -46.91725,0 -2.41338,-2.22098 -5.21187,-4.08759 -8.26488,-5.48002 l -0.1924,-0.0757 c -1.45075,-0.23709 -3.11133,-0.38512 -4.81312,-0.38512 -1.70179,0 -3.36237,0.13408 -4.99189,0.39875 l 0.17877,-0.0311 c -9.10706,-0.0583 -16.91107,-5.5694 -20.31813,-13.43173 l -0.0583,-0.14771 c -1.05201,-2.001 -1.05201,-3.51007 1.61589,-3.61309 1.65678,-0.11664 3.61309,-0.1924 5.5694,-0.1924 1.95631,0 3.89519,0.0758 5.82044,0.20603 l -0.25104,-0.0136 c 1.02095,0.20603 2.1934,0.32679 3.38963,0.32679 6.6043,0 12.3661,-3.58202 15.43306,-8.91434 l 0.0447,-0.0894 c 1.39243,-2.61941 3.95351,-4.9472 1.11033,-8.67725 -1.45075,-1.89419 -0.72522,-5.56941 -1.16865,-8.01004 -0.949,-6.17449 -2.61941,-7.46359 -9.12449,-6.96183 -1.2311,0 -3.16966,1.49544 -3.51008,1.11033 -5.68636,-6.01284 -11.15275,-12.42442 -16.27491,-19.13553 l -0.41618,-0.57752 c -3.38963,-4.72373 0.44343,-9.62624 2.22098,-14.24665 0.81492,-1.42349 1.46438,-3.080268 1.86693,-4.826748 l 0.0311,-0.11665 c 0,-1.00731 -1.33411,-2.44443 -2.50276,-3.00451 -0.14771,-0.0311 -0.32679,-0.0447 -0.50176,-0.0447 -0.99369,0 -1.89419,0.44343 -2.48913,1.15502 v 0 c -2.11765,3.51008 -3.73386,7.284818 -5.5694,10.857018 -0.6669,1.05201 -2.11765,1.67421 -3.2283,2.50276 -0.66689,-1.16865 -1.33411,-2.2793 -1.95631,-3.45175 -0.7566,-1.30305 -1.55377,-2.88788 -2.26567,-4.53103 L 33.2171,99.984302 c -3.2283,-8.18912 -3.2283,-8.18912 -11.13532,-4.72373 -7.18181,3.11133 -13.19465,0.66689 -13.41811,-7.06485 C 7.95208,80.982852 5.68641,74.423562 2.2074,68.675072 l 0.11664,0.20603 C 0.85966,65.859152 5e-5,62.321822 5e-5,58.574332 c 0,-3.42069 0.71159,-6.66262 2.001,-9.59518 l -0.0583,0.1477 c 4.96083,-14.18833 16.70472,-22.25701 27.15952,-31.56026 1.11033,-0.94902 3.45175,-0.50172 5.5694,-0.66692 0.0136,0.2821 0.0311,0.62222 0.0311,0.96265 0,1.62952 -0.19239,3.22829 -0.54644,4.73736 l 0.0311,-0.13407 c -1.67421,4.29393 -3.54114,7.95171 -5.73106,11.40347 l 0.16134,-0.26847 c -4.84419,7.46359 -2.56108,13.96487 2.2793,20.15648 2.16234,3.0939 5.71742,5.10853 9.74289,5.10853 3.25935,0 6.20555,-1.31667 8.35426,-3.43432 v 0 c 5.18461,-4.84419 9.80501,-9.74289 17.81505,-8.41258 1.39243,0 3.2283,-1.55377 4.56209,-2.6641 6.89971,-5.8515 13.7449,-11.68557 20.48327,-17.63629 10.63356,-9.46456 19.09084,-9.84966 30.22616,-1.23109 l 23.8282,18.32061 c 1.28942,1.0967 2.72654,2.16234 4.22199,3.16966 l 0.17877,0.11664 c 3.22829,1.89419 6.45627,-4.05652 9.90802,0 2.2793,2.6641 5.12217,4.84419 7.40527,7.46359 2.05933,2.72654 5.28762,4.4727 8.93178,4.4727 2.22097,0 4.29393,-0.65326 6.0439,-1.77754 l -0.0447,0.0311 c 3.49645,-3.25935 5.85151,-7.68736 6.44265,-12.64819 l 0.0136,-0.10302 c 1.55376,-8.45727 -3.00452,-15.85874 -5.95452,-23.48778 -0.2821,-1.00732 -0.4745,-2.1934 -0.54645,-3.40707 v -0.0447 c 1.27199,0 2.78486,-0.34047 3.79218,0 11.00505,6.05753 19.87469,14.81054 25.8739,25.38197 l 0.17877,0.3268 c 1.5712,5.08127 2.51639,10.92897 2.6194,16.98682 v 0.0447 z m -137.81538,23.5461 c -5.5694,0 -11.68557,8.29214 -9.40247,12.30778 3.55477,5.507278 7.52191,10.293138 11.99493,14.556008 l 0.0311,0.0311 c 4.23562,4.39695 9.18281,1.11033 13.80322,0 6.29494,-1.27198 6.68005,-2.11764 4.28031,-7.8487 -0.88687,-2.11765 -2.78486,-4.011828 -2.9462,-6.116168 -1.05201,-12.129 -11.24214,-10.73657 -17.75673,-12.91254 z m 49.43364,27.101198 c 0.93156,0.22346 2.001,0.35405 3.0939,0.35405 4.50377,0 8.48454,-2.1934 10.96004,-5.55197 l 0.0311,-0.0447 c 3.11134,-5.56941 6.84139,-10.691888 4.56209,-18.705728 -1.49545,-5.5694 -4.50377,-4.45907 -6.62173,-4.2803 -11.13532,0.88687 -17.19285,8.73937 -21.04335,18.423938 -2.88787,7.28482 -1.05201,9.62625 9.01736,9.78758 z m -31.35392,29.28065 c 0,0.82855 -0.949,1.83586 -0.72522,2.56108 2.04189,7.99641 4.325,14.73478 7.04741,21.26713 l -0.37148,-0.99369 c 0.88687,2.001 5.2293,2.94619 8.1308,3.28662 2.90151,0.34042 5.56941,-2.11765 6.57672,-5.56941 1.00732,-3.45175 2.05933,-5.95451 2.78486,-8.95903 0.82855,-3.83687 1.27199,-7.68737 1.95631,-11.52043 -2.72653,2.44444 -5.5694,4.72374 -8.1308,7.40526 -1.02094,1.45076 -2.68153,2.38612 -4.56208,2.38612 -1.88056,0 -3.54114,-0.93156 -4.54466,-2.36868 l -0.0136,-0.0136 c -1.79117,-1.96994 -3.59946,-3.77475 -5.49364,-5.50728 l -0.0583,-0.0583 c -0.75659,-0.6669 -1.59845,-1.28942 -2.47169,-1.83587 l -0.0894,-0.0447 z"
     id="path5"
     style="stroke-width:0.316966" />
</svg>
