<?xml version="1.0" encoding="UTF-8" standalone="no"?>
<!-- Generated by IcoMoon.io -->

<svg
   version="1.1"
   width="215"
   height="215"
   viewBox="0 0 215 215"
   id="svg7"
   sodipodi:docname="bladeborn-sepulchral.svg"
   inkscape:version="1.2.1 (9c6d41e, 2022-07-14)"
   xmlns:inkscape="http://www.inkscape.org/namespaces/inkscape"
   xmlns:sodipodi="http://sodipodi.sourceforge.net/DTD/sodipodi-0.dtd"
   xmlns="http://www.w3.org/2000/svg"
   xmlns:svg="http://www.w3.org/2000/svg">
  <defs
     id="defs11" />
  <sodipodi:namedview
     id="namedview9"
     pagecolor="#ffffff"
     bordercolor="#000000"
     borderopacity="0.25"
     inkscape:showpageshadow="2"
     inkscape:pageopacity="0.0"
     inkscape:pagecheckerboard="0"
     inkscape:deskcolor="#d1d1d1"
     showgrid="false"
     inkscape:zoom="1.0029297"
     inkscape:cx="300.61928"
     inkscape:cy="512"
     inkscape:window-width="1390"
     inkscape:window-height="1205"
     inkscape:window-x="0"
     inkscape:window-y="25"
     inkscape:window-maximized="0"
     inkscape:current-layer="svg7" />
  <title
     id="title2" />
  <g
     id="icomoon-ignore"
     transform="matrix(0.34496099,0,0,0.34496099,180.50452,-1077.7612)" />
  <path
     fill="#000000"
     d="m 189.16933,85.120832 c -2.10633,13.75049 -4.28855,26.862118 -6.04268,39.953728 -0.27183,1.54335 -0.43258,3.32335 -0.43258,5.14302 0,2.8104 0.38705,5.52524 1.09111,8.11418 l -0.05,-0.21078 c 0.80445,2.08667 1.25187,4.48415 1.25187,7.0034 0,5.12336 -1.91074,9.79862 -5.07783,13.35275 l 0.0152,-0.0152 c -4.77116,8.4512 -13.70496,14.05716 -23.93615,14.05716 -1.10629,0 -2.21707,-0.0652 -3.293,-0.1911 l 0.13039,0.0152 c -5.60596,-0.54779 -8.99899,3.43857 -9.59233,10.31606 -0.4826,5.49489 0.41741,11.10085 0,16.53053 -0.4174,3.02152 -2.84523,8.0338 -4.70595,8.20973 -11.27678,1.0304 -20.82357,9.95971 -32.95033,7.0034 -9.959725,-2.40852 -20.165045,-3.92117 -30.170295,-6.81229 -2.34746,-0.65853 -4.53003,-5.18856 -4.94709,-8.14453 -0.78892,-6.04268 0,-12.06605 0,-18.10424 0,-7.11862 -1.92591,-8.69233 -8.8034,-9.17493 -1.99111,0 -4.04743,0 -6.04268,0 -4.82118,0 -9.54231,0.84998 -14.05716,-3.26264 -6.57082,-6.44042 -11.90495,-14.10718 -15.63053,-22.65394 l -0.17593,-0.46742 c -0.0652,-0.27183 -0.0956,-0.59333 -0.0956,-0.91518 0,-1.22151 0.46742,-2.31262 1.23668,-3.13224 v 0 c 7.4208,-7.11862 4.53003,-15.50462 3.13225,-23.71469 -2.08667,-8.37083 -3.66487,-18.264998 -4.36893,-28.405468 l -0.0304,-0.56298 c 0,-17.73686 1.92592,-35.36333 13.46348,-50.20493 0.33703,-0.3522 0.60851,-0.76926 0.76927,-1.23668 l 0.0152,-0.0304 c 5.07783,-23.59947 25.771,-27.7617699 43.87525,-34.3329499 6.55564,-2.0563 14.10718,-3.2474000347086 21.929865,-3.2474000347086 1.01073,0 2.00629,0.015000004709 3.02151,0.065000004709 h -0.14557 c 7.4208,0.4477 14.36348,1.54330003 21.04538,3.24740003 l -0.76927,-0.1607 c 0.4826,0 1.20633,2.8452 0.84999,3.1322 -3.43857,2.78005 -6.57082,5.3644999 -5.31896,10.6834499 0,0.72373 -3.92117,2.34746 -6.04268,3.74524 -1.2867,0.90001 -2.40852,1.79966 -3.46927,2.7452 l 0.0304,-0.0303 c 1.57371,0.0804 3.06704,0.3522 4.46447,0.81962 l -0.11073,-0.0303 c 0.6889,0.6737 1.15632,1.57371 1.26705,2.56927 v 0.0152 c -1.14113,0.78893 -2.64966,1.26705 -3.85598,1.99112 -2.47372,1.57371 -4.88189,3.26264 -7.29489,4.94708 1.09111,1.33259 2.16704,2.71485 3.19744,4.09745 0,0 -0.60851,0.72373 -0.9652,1.09111 l -7.05342,6.70156 c 3.98672,1.68893 6.46009,-1.62373 9.59233,-2.84524 4.09745,-1.62373 8.386,-2.71484 12.06605,-4.53003 1.33258,-0.60851 1.99111,-2.64964 3.02151,-4.04742 -10.37712,-5.01229 0,-6.04269 1.50851,-9.10973 1.50852,-3.06705 1.38261,-5.67116 2.71485,-8.27527 1.33224,-2.60411 5.31895,-5.25376 4.82117,-6.57082 -1.68893,-4.0473899 0.5478,-5.1233899 2.84524,-3.8559899 6.37971,2.64966 11.85493,5.7015299 16.93276,9.3011999 l -0.27183,-0.17593 c 10.44231,8.48156 18.07388,20.08466 21.5128,33.35255 l 0.0956,0.43258 c 1.68893,6.5208 6.81229,11.64865 7.0034,18.94354 0.59333,6.34486 1.58889,12.0964 3.00634,17.68684 l -0.17593,-0.78893 z m -67.71584,39.284508 c 0.14558,4.6756 0.73891,9.14008 1.71929,13.4483 l -0.0956,-0.46742 c 0.90001,2.79522 2.60411,5.10818 4.85153,6.73191 l 0.0304,0.0304 c 3.98672,1.52817 8.57711,2.42818 13.38311,2.42818 5.80155,0 11.31161,-1.28671 16.22869,-3.59967 l -0.24113,0.0956 c 3.8408,-2.07149 6.39489,-6.05786 6.39489,-10.65308 0,-0.0956 0,-0.19111 0,-0.29149 v 0.0152 c 0,-0.19111 0,-0.43259 0,-0.65854 0,-6.46008 -1.01074,-12.69421 -2.89078,-18.52613 l 0.11074,0.43259 c -1.44781,-3.74525 -3.19745,-3.74525 -6.04269,-4.58005 -9.71824,-2.84524 -16.53053,4.70596 -24.87099,6.63636 -5.49489,1.20633 -10.31606,4.77115 -8.62713,8.999 z m -47.555285,23.05132 c 10.99011,0 13.63975,-2.53891 17.56092,-15.32868 0.96521,-2.16705 1.50852,-4.69078 1.50852,-7.36009 0,-0.19111 0,-0.38705 -0.0152,-0.57816 v 0.0304 c -0.91518,-3.92117 -3.87115,-6.98822 -7.64675,-8.06415 l -0.0804,-0.0152 c -5.56008,-1.99112 -10.74863,-4.94709 -16.3546,-6.46008 -1.71928,-0.59334 -3.69522,-0.95003 -5.76671,-0.95003 -2.07149,0 -4.04743,0.33703 -5.89711,0.98038 l 0.1304,-0.0303 c -8.20973,4.09744 -10.13565,20.45204 -4.28856,27.63137 5.31896,5.60596 12.57901,9.3512 20.69318,10.12047 l 0.13039,0.0152 z m 44.468575,22.20618 c -1.68893,-5.25376 -3.92117,-11.64865 -6.04268,-18.10425 -1.14113,-4.16264 -4.33857,-3.19744 -7.17967,-3.32335 -2.8411,-0.12591 -3.80596,1.62373 -4.53003,4.46449 -1.508525,5.60596 -4.288565,10.92491 -5.605965,16.53053 0.0303,2.95631 0.67371,5.75153 1.79966,8.27526 l -0.05,-0.13039 c 2.58445,-0.37187 4.901555,-0.98038 7.098955,-1.83002 l -0.22595,0.0804 c 2.29744,-1.09111 3.26264,-4.64525 7.17968,-1.57371 3.91703,3.07153 7.55119,1.14113 7.55119,-4.40378 z"
     id="path5"
     style="stroke-width:0.344961" />
</svg>
