<?xml version="1.0" encoding="UTF-8" standalone="no"?>
<!-- Generated by IcoMoon.io -->

<svg
   version="1.1"
   width="215"
   height="215"
   viewBox="0 0 215 215"
   id="svg7"
   sodipodi:docname="bladeborn-skabbiks.svg"
   inkscape:version="1.2.1 (9c6d41e, 2022-07-14)"
   xmlns:inkscape="http://www.inkscape.org/namespaces/inkscape"
   xmlns:sodipodi="http://sodipodi.sourceforge.net/DTD/sodipodi-0.dtd"
   xmlns="http://www.w3.org/2000/svg"
   xmlns:svg="http://www.w3.org/2000/svg">
  <defs
     id="defs11" />
  <sodipodi:namedview
     id="namedview9"
     pagecolor="#ffffff"
     bordercolor="#000000"
     borderopacity="0.25"
     inkscape:showpageshadow="2"
     inkscape:pageopacity="0.0"
     inkscape:pagecheckerboard="0"
     inkscape:deskcolor="#d1d1d1"
     showgrid="false"
     inkscape:zoom="1.0029297"
     inkscape:cx="268.71276"
     inkscape:cy="512"
     inkscape:window-width="1390"
     inkscape:window-height="1205"
     inkscape:window-x="0"
     inkscape:window-y="25"
     inkscape:window-maximized="0"
     inkscape:current-layer="svg7" />
  <title
     id="title2" />
  <g
     id="icomoon-ignore"
     transform="matrix(0.24402729,0,0,0.24402729,196.88173,-897.91755)" />
  <path
     fill="#000000"
     d="m 110.35232,1.7827649 c -12.766524,8.4865401 -11.861424,6.53627 -11.509294,24.8026901 0.28039,14.5389 0.11738,15.83688 -2.5269,20.09003 -2.02006,3.24923 -2.62647,5.54918 -2.12499,8.05754 1.01173,5.05771 0.0295,6.68269 -6.84424,11.32604 -11.42292,7.71565 -11.38948,7.67173 -13.2968,17.63951 -0.97611,5.10164 -2.61231,10.55443 -3.6365,12.11693 -2.24871,3.43225 -3.79584,11.589095 -5.27977,27.831555 -1.66451,18.22371 -6.28688,33.13476 -14.36125,46.32712 -6.63461,10.83969 -6.43012,12.5103 2.18429,17.82766 7.80643,4.81856 18.98361,7.91917 28.64221,7.94601 6.59631,0.0181 13.35903,4.41934 13.35903,8.69396 0,4.09258 9.201534,11.92732 12.158174,10.35188 6.16535,-3.28558 10.9068,-7.93113 13.03081,-12.7675 2.39171,-5.44547 5.65021,-7.436 12.25163,-7.48456 11.61082,-0.0859 35.75391,-10.16277 36.47257,-15.22292 0.37336,-2.6289 -5.29174,-14.03693 -9.34845,-18.82426 -4.82685,-5.69731 -9.41018,-25.36444 -10.58712,-45.43349 -1.64181,-27.998715 -6.0387,-37.508945 -23.78827,-51.452415 -10.71499,-8.41748 -10.76307,-8.50143 -7.94772,-13.94616 1.80507,-3.49057 1.76822,-4.00254 -0.63399,-8.81207 -3.74899,-7.50701 -4.47741,-18.87259 -1.85704,-28.97678 2.9642,-11.42804012 1.78042,-14.1704201 -4.35687,-10.0907701 z M 84.324866,100.66067 c 3.02716,5.13067 3.41052,5.23853 20.072704,5.64117 13.31022,0.32212 13.66797,0.26185 15.54332,-2.60352 5.37445,-8.213225 10.60859,-9.419695 12.30532,-2.83584 0.52954,2.05422 1.77139,4.40688 2.76043,5.22755 3.22043,2.67259 2.18136,7.03262 -2.30703,9.68056 -2.82071,1.66451 -4.35394,3.616 -4.90007,6.23685 -0.69694,3.34757 -3.31487,8.17174 -14.58844,26.8818 -3.30193,5.47988 -3.3544,7.50189 -0.32334,12.47321 2.87343,4.71315 3.02106,7.87037 0.53467,11.42048 -2.31411,3.30364 -6.01015,3.43103 -7.7037,0.26599 -1.51492,-2.82998 -5.08748,-3.11086 -7.600714,-0.59762 -5.59286,5.59237 -10.01903,-4.3781 -5.13726,-11.57178 4.19532,-6.18243 4.79026,-8.89357 2.77459,-12.64842 -0.96806,-1.80385 -3.59062,-6.77639 -5.8281,-11.05077 -2.237,-4.27414 -4.6658,-8.8477 -5.39667,-10.16276 -0.73086,-1.31507 -1.97759,-4.13968 -2.76971,-6.27712 -0.79211,-2.13695 -2.2819,-3.8854 -3.31047,-3.8854 -6.08799,0 -8.64784,-6.864 -4.90471,-13.15185 4.83736,-8.127325 7.35865,-8.839155 10.77893,-3.04205 z m 10.24817,16.97771 c -1.64548,1.64596 -0.72793,5.95597 2.17867,10.23377 1.64402,2.41904 2.98934,4.88176 2.98934,5.47255 0,1.16572 3.917854,5.03112 5.099674,5.03112 0.39947,0 3.25069,-3.76242 6.33617,-8.36087 6.90353,-10.28941 6.26857,-12.10034 -4.11186,-11.72795 -3.69945,0.13275 -7.841324,-0.14129 -9.203974,-0.6086 -1.36265,-0.4678 -2.84243,-0.48537 -3.28778,-0.04 z"
     id="path5"
     style="stroke-width:0.244027" />
</svg>
