<?xml version="1.0" encoding="UTF-8" standalone="no"?>
<!-- Generated by IcoMoon.io -->

<svg
   version="1.1"
   width="215"
   height="215"
   viewBox="0 0 215 215"
   id="svg7"
   sodipodi:docname="bladeborn-skaeth.svg"
   inkscape:version="1.2.1 (9c6d41e, 2022-07-14)"
   xmlns:inkscape="http://www.inkscape.org/namespaces/inkscape"
   xmlns:sodipodi="http://sodipodi.sourceforge.net/DTD/sodipodi-0.dtd"
   xmlns="http://www.w3.org/2000/svg"
   xmlns:svg="http://www.w3.org/2000/svg">
  <defs
     id="defs11" />
  <sodipodi:namedview
     id="namedview9"
     pagecolor="#ffffff"
     bordercolor="#000000"
     borderopacity="0.25"
     inkscape:showpageshadow="2"
     inkscape:pageopacity="0.0"
     inkscape:pagecheckerboard="0"
     inkscape:deskcolor="#d1d1d1"
     showgrid="false"
     inkscape:zoom="1.0029297"
     inkscape:cx="300.61928"
     inkscape:cy="512"
     inkscape:window-width="1390"
     inkscape:window-height="1205"
     inkscape:window-x="0"
     inkscape:window-y="25"
     inkscape:window-maximized="0"
     inkscape:current-layer="svg7" />
  <title
     id="title2" />
  <g
     id="icomoon-ignore"
     transform="matrix(0.34976328,0,0,0.34976328,127.3047,-1087.7313)" />
  <path
     fill="#000000"
     d="m 187.22057,48.804481 c -2.24478,-7.13202 -4.82639,-14.21717 -6.69097,-21.51044 -0.043,-0.58795 -0.0717,-1.26229 -0.0717,-1.93629 0,-2.14055 0.26547,-4.20975 0.77823,-6.19256 l -0.043,0.17559 c 2.08319,1.42353 5.10619,2.363 6.03096,4.28495 3.28813,6.69097 5.80887,13.77612 8.73115,20.68954 0.55577,1.29098 1.12938,2.37734 1.7607,3.40285 l -0.0717,-0.11822 c 1.2623,-1.20459 3.68266,-2.42036 3.62495,-3.62495 0.0143,-0.38019 0.0143,-0.83558 0.0143,-1.30531 0,-4.19541 -0.57361,-8.27575 -1.6278,-12.13399 l 0.0717,0.32283 c -2.46338,-8.12885 -5.80887,-15.9635 -8.39397,-24.0924 -0.0287,-0.3802 -0.043,-0.8212 -0.043,-1.2766 0,-1.922 0.32283,-3.7722 0.91079,-5.48610001 l -0.0287,0.1183 c 2.09753,0.6883 3.91909,1.65640001 5.53255,2.89010001 l -0.043,-0.029 c 2.48122,2.4955 4.51789,5.4143 6.01663,8.6416 l 0.0717,0.1899 c 8.89238,21.28831 18.60601,43.07856 2.96529,65.08742 -6.39682,8.94974 -13.92337,16.56584 -22.49292,22.85878 l -0.27981,0.18992 c -12.61806,8.949739 -26.77788,15.640709 -39.95207,23.812579 -17.06425,10.65309 -28.91877,38.41345 -24.8094,57.95578 1.1007,3.03699 2.74319,5.63328 4.84072,7.80601 v 0 c 7.6878,10.25506 7.6878,10.97593 -2.30214,17.8855 -0.3802,0 -0.88211,0.27981 -1.2623,0.49841 -4.54657,2.52424 -9.99343,7.95292 -13.50016,6.97043 -6.86655,-2.80405 -12.693259,-6.88089 -17.415759,-11.98708 l -0.0287,-0.0287 c -0.84993,-1.38052 -1.36618,-3.05134 -1.36618,-4.84073 0,-1.55609 0.38019,-3.02265 1.05768,-4.31363 l -0.0287,0.043 c 9.77099,-8.61292 5.80887,-19.75008 5.48604,-29.57843 -1.07202,-7.90989 -3.9191,-14.9954 -8.11451,-21.06974 l 0.10388,0.16124 c -9.87486,-16.46196 -26.89644,-24.47258 -43.29719,-32.92391 -8.5699,-4.20976 -15.94921,-8.94975 -22.72622,-14.393109 l 0.23294,0.17558 C 0.17133082,78.341981 -3.8338092,55.350641 3.1943408,30.272271 6.4681208,20.838451 10.164771,12.766981 14.550101,5.140081 l -0.38019,0.717 c 0.76388,-1.5418 3.62494,-2.0259 5.48603,-2.9653 0,1.9793 1.2623,4.1667 0.71702,5.8088 -2.48122,9.30129 -5.42868,17.2689 -8.99311,24.88464 l 0.38019,-0.91078 c -1.12939,2.4347 -1.7893902,5.28178 -1.7893902,8.29009 0,3.61061 0.9538002,6.98477 2.6102802,9.91789 l -0.0574,-0.10388 c 0.49841,1.31965 2.20176,2.20176 3.40285,3.2416 0.89644,-1.21927 1.71769,-2.61028 2.40602,-4.08033 l 0.0574,-0.14691 c 2.80405,-7.90989 5.48604,-15.96354 8.34745,-23.81258 0.65966,-1.64214 3.46371,-2.46338 5.48604,-3.68266 0.0717,1.01117 0.10388,2.18742 0.10388,3.37417 0,1.18675 -0.043,2.363 -0.11822,3.53541 l 0.0143,-0.16124 c -1.64214,10.97592 -6.90957,20.7469 -3.34549,32.92391 3.94778,13.39629 15.19967,18.32655 24.80941,25.35434 1.2623,0.93947 5.48604,-0.49841 7.13203,-2.08319 q 10.97592,-11.57821 21.40656,-24.03503 c 1.80373,-1.70335 2.93311,-4.12371 2.93311,-6.79485 0,-3.59627 -2.04017,-6.71965 -5.0163,-8.27575 l -0.0574,-0.0287 c -8.48036,-6.79485 -14.05594,-16.88867 -14.75862,-28.31614 v -0.11822 c -0.0895,-0.73519 -0.13256,-1.58479 -0.13256,-2.44899 0,-1.8181 0.20427,-3.5785 0.6023,-5.2818 l -0.0287,0.1612 c 0.65965,-1.5096 1.52741,-2.7862 2.5816,-3.9012 v 0 c 0.63097,0.8499 1.27663,1.8324 1.87893,2.847 l 0.0895,0.1613 c 3.72568,7.132 6.90957,14.6582 11.2984,21.34917 10.15468,15.58336 26.014339,18.26569 41.698079,9.21522 10.97592,-6.42551 19.36639,-13.83734 19.96868,-27.43789 0,-2.0832 2.9653,-4.0051 4.54658,-5.9844 0.82124,1.9219 1.48089,3.9012 2.46338,5.7658 4.32797,8.39397 0,15.42212 -3.78654,22.33169 -2.05451,2.94745 -4.37099,5.51821 -6.97043,7.74866 l -0.0574,0.043 c -4.38533,4.76902 -12.01577,9.49152 -12.17701,14.43613 -0.16124,4.9446 7.79168,9.21521 12.23787,13.83733 1.23361,1.39486 2.5099,2.67149 3.8439,3.85824 l 0.043,0.043 c 6.2069,5.10619 10.09382,14.70125 21.44958,9.16869 11.35576,-5.53255 21.95149,-12.67542 21.51044,-27.97931 0,-1.80373 0,-3.68266 0,-5.48604 z m -50.42922,42.41894 c -0.51276,-1.58477 -1.20459,-2.96529 -2.06885,-4.22409 l 0.043,0.0574 c -7.07117,-6.4255 -14.0416,-13.05911 -21.62901,-18.88232 -1.92195,-1.46655 -4.35665,-2.34866 -7.01346,-2.34866 -3.3885,0 -6.439839,1.45222 -8.569899,3.7722 l -0.0143,0.0143 c -6.31078,5.48604 -12.23786,11.79682 -18.54515,17.44444 -4.60778,4.10902 -3.84389,7.51222 0.49842,10.97593 5.86972,4.887239 11.51735,9.993429 17.56266,14.658229 6.045309,4.66479 12.133989,7.02814 18.706739,-0.54144 5.16356,-5.06282 10.66743,-9.86052 16.41894,-14.335749 l 0.42671,-0.32283 c 1.59912,-1.81807 2.99397,-3.87258 4.09468,-6.08868 l 0.0717,-0.16124 z"
     id="path5"
     style="stroke-width:0.349763" />
</svg>
