<?xml version="1.0" encoding="UTF-8" standalone="no"?>
<!-- Generated by IcoMoon.io -->

<svg
   version="1.1"
   width="215"
   height="215"
   viewBox="0 0 215 215"
   id="svg9"
   sodipodi:docname="bladeborn-stormsire.svg"
   inkscape:version="1.2.1 (9c6d41e, 2022-07-14)"
   xmlns:inkscape="http://www.inkscape.org/namespaces/inkscape"
   xmlns:sodipodi="http://sodipodi.sourceforge.net/DTD/sodipodi-0.dtd"
   xmlns="http://www.w3.org/2000/svg"
   xmlns:svg="http://www.w3.org/2000/svg">
  <defs
     id="defs13" />
  <sodipodi:namedview
     id="namedview11"
     pagecolor="#ffffff"
     bordercolor="#000000"
     borderopacity="0.25"
     inkscape:showpageshadow="2"
     inkscape:pageopacity="0.0"
     inkscape:pagecheckerboard="0"
     inkscape:deskcolor="#d1d1d1"
     showgrid="false"
     inkscape:zoom="1.0029297"
     inkscape:cx="301.61636"
     inkscape:cy="512.99708"
     inkscape:window-width="2560"
     inkscape:window-height="1387"
     inkscape:window-x="0"
     inkscape:window-y="25"
     inkscape:window-maximized="1"
     inkscape:current-layer="svg9" />
  <title
     id="title2" />
  <g
     id="g245"
     transform="translate(-169.97693,1014.0569)">
    <g
       id="icomoon-ignore"
       transform="matrix(0.31827205,0,0,0.31827205,115.87804,-1068.8375)" />
    <path
       fill="#000000"
       d="m 204.11355,-922.86803 h 25.13999 c 3.59966,0 6.18689,-0.53279 4.5984,5.66747 -4.07898,16.14117 -3.48572,15.87637 12.21973,12.80981 5.37275,-0.71738 11.57301,-1.12604 17.87066,-1.12604 0.80109,0 1.61523,0 2.41982,0.0134 h -0.12731 c -0.80109,7.35335 -1.87016,13.75158 -3.24764,20.02217 l 0.22438,-1.2368 c -3.59966,14.18729 -7.88965,28.26383 -11.52941,42.33686 -0.0134,0.25494 -0.0134,0.53279 -0.0134,0.83133 0,2.29251 0.40898,4.47109 1.16646,6.4953 l -0.0436,-0.12731 c 2.01084,-1.01211 3.7537,-2.19194 5.31546,-3.57293 l -0.0267,0.0267 c 12.06569,-13.76495 24.18485,-27.57318 35.88517,-41.65004 9.99788,-11.96511 19.37545,-24.55023 29.4704,-36.46188 2.29251,-2.34948 5.45646,-3.8374 8.97209,-3.96503 h 0.0267 c 15.87637,-0.36538 31.74923,0 47.62591,0 5.6105,0 5.28523,1.58849 4.44436,6.98798 -1.64579,11.93838 -5.69421,22.6667 -11.62998,32.08787 l 0.19764,-0.33864 c -3.41506,5.07771 -7.25628,9.46127 -11.573,13.32923 l -0.0703,0.057 c -1.47806,1.47806 -4.44435,1.47806 -6.77697,2.1251 0.84469,-1.43445 1.72949,-3.16394 2.5169,-4.96377 l 0.12731,-0.33864 c 1.37748,-3.59965 2.75496,-7.25628 3.86764,-10.95301 2.06781,-6.87754 -0.63336,-11.31807 -6.71968,-9.30723 -12.65545,4.23302 -26.13873,8.15445 -34.02837,20.37418 -9.51857,14.87763 -3.23429,33.81736 14.07653,43.71435 5.20152,2.57419 9.60227,5.18815 13.77832,8.11403 l -0.33865,-0.22438 c 2.01085,1.58849 2.54364,5.28522 3.75371,7.7757 -2.26228,0.94177 -4.88007,1.61523 -7.60798,1.8969 l -0.11394,0.0134 c -27.46274,-1.64578 -54.87838,-4.34346 -82.35448,-4.92017 -16.10107,0.6601 -31.22981,2.31925 -46.05047,4.9068 l 2.06781,-0.29504 c -1.17983,0.18428 -2.54363,0.28168 -3.93798,0.28168 -1.39434,0 -2.75496,-0.0971 -4.09234,-0.29504 l 0.15405,0.0134 c -1.74286,0 -4.55479,-1.58849 -4.70884,-2.75496 0,-0.0436 0,-0.0837 0,-0.12731 0,-2.05444 0.90167,-3.89437 2.31925,-5.16142 h 0.0134 c 6.05958,-3.29125 11.10706,-6.45519 15.96007,-9.87025 l -0.50606,0.33864 c 5.91891,-4.36032 10.79866,-9.77318 14.42505,-16.00017 l 0.14068,-0.25493 c 6.35461,-13.80856 8.30849,-23.34017 -10.58764,-34.82947 -6.7636,-3.89438 -14.58259,-7.29639 -22.80738,-9.78655 l -0.80109,-0.21101 c -2.64452,-0.90167 -6.30115,1.26704 -9.47814,2.06781 0.51942,3.22092 1.29378,6.08982 2.31925,8.83142 l -0.0971,-0.30841 c 1.91377,3.86764 4.55479,7.35336 6.6662,11.16403 0.47932,0.84469 0,2.22217 0,3.38832 -1.16646,0 -2.64452,0 -3.38832,-0.32527 -5.28523,-4.44435 -12.27671,-8.15445 -15.243,-13.86552 -4.77918,-9.67261 -9.3642,-21.27585 -13.04757,-33.26771 l -0.44908,-1.71612 c -1.53152,-4.55479 0.42235,-7.4673 5.97588,-7.29639 9.09621,0.057 18.36334,-0.11394 27.63047,-0.11394 z"
       id="path5"
       style="stroke-width:0.318272" />
    <path
       fill="#000000"
       d="m 244.17127,-921.01123 8.10066,-33.9714 c 2.64452,-11.31808 5.28523,-22.7068 7.94312,-34.02838 1.30714,-3.38832 2.56081,-6.10318 3.93798,-8.7477 l -0.22438,0.47931 c 1.43445,-3.6967 4.50132,-4.29 6.6662,-2.1251 13.02083,13.02083 27.25173,9.53193 41.91452,3.92111 1.82657,-0.46245 3.90775,-0.74412 6.07295,-0.74412 0,0 0.0134,0 0.0134,0 v 0 c -1.22344,1.74286 -2.43319,3.4453 -3.59966,5.28523 -7.67863,12.00872 -15.39704,24.03081 -23.01871,36.14997 -0.98537,1.87017 -1.92713,4.11908 -2.70149,6.43833 l -0.0971,0.33864 c 2.26228,0.67346 4.86638,1.05571 7.56437,1.05571 0.0134,0 0.0436,0 0.057,0 v 0 c 11.10706,-1.64579 22.23099,-3.65663 33.28107,-5.28523 1.32051,0 2.7015,0 4.02201,0 -0.12731,1.40772 -0.50606,2.7015 -1.08245,3.88101 l 0.0267,-0.0703 c -5.55353,7.73211 -11.16403,15.45402 -16.98586,22.96142 -10.89573,14.13001 -21.96268,28.10979 -32.97267,42.06888 -3.38832,4.34346 -6.83394,8.6204 -10.58764,12.80982 -1.28041,1.39085 -2.63115,2.67125 -4.0621,3.86764 l -0.0703,0.057 c 0.22438,-2.27915 0.58976,-4.36033 1.12605,-6.35462 l -0.057,0.28167 c 4.23302,-13.1179 8.73084,-26.13873 12.86679,-39.27382 2.27914,-7.14202 0.84469,-9.26712 -6.45519,-8.19805 -8.51951,1.22344 -16.88847,3.65663 -25.35133,5.28523 -5.76454,1.0121 -6.45519,0.63336 -6.30115,-6.08982 z"
       id="path7"
       style="stroke-width:0.318272" />
  </g>
</svg>
