<?xml version="1.0" encoding="UTF-8" standalone="no"?>
<!-- Generated by IcoMoon.io -->

<svg
   version="1.1"
   width="215"
   height="215"
   viewBox="0 0 215 215"
   id="svg7"
   sodipodi:docname="bladeborn-theheadsmen.svg"
   inkscape:version="1.2.1 (9c6d41e, 2022-07-14)"
   xmlns:inkscape="http://www.inkscape.org/namespaces/inkscape"
   xmlns:sodipodi="http://sodipodi.sourceforge.net/DTD/sodipodi-0.dtd"
   xmlns="http://www.w3.org/2000/svg"
   xmlns:svg="http://www.w3.org/2000/svg">
  <defs
     id="defs11" />
  <sodipodi:namedview
     id="namedview9"
     pagecolor="#ffffff"
     bordercolor="#000000"
     borderopacity="0.25"
     inkscape:showpageshadow="2"
     inkscape:pageopacity="0.0"
     inkscape:pagecheckerboard="0"
     inkscape:deskcolor="#d1d1d1"
     showgrid="false"
     inkscape:zoom="1.0029297"
     inkscape:cx="268.71276"
     inkscape:cy="512"
     inkscape:window-width="1390"
     inkscape:window-height="1205"
     inkscape:window-x="0"
     inkscape:window-y="25"
     inkscape:window-maximized="0"
     inkscape:current-layer="svg7" />
  <title
     id="title2" />
  <g
     id="icomoon-ignore"
     transform="matrix(0.30010712,0,0,0.30010712,107.65052,-1024.9107)" />
  <path
     fill="#000000"
     d="m 15.14641,12.876737 c -5.07632,3.23966 -10.5622701,6.68039 -12.1900501,7.64283 -2.81291005,1.6677 -2.95636004960224,2.81171 -2.95636004960224,23.78949 0,24.48844 0.54739999960224,26.00068 10.71262014960224,29.54585 8.74002,3.04909 17.95901,16.77389 22.03057,32.803813 l 2.50769,9.87022 -4.28733,11.02714 c -2.35884,6.06366 -6.20801,14.47416 -8.54855,18.68857 -2.34594,4.2147 -4.68167,8.52334 -5.19245,9.58032 -0.51079,1.05697 -0.17557,4.00703 0.74846,6.56094 2.25951,6.25363 0.0639,14.12784 -5.40342,19.36741 -2.30963,2.21359 -4.2015001,4.95057 -4.2015001,6.08287 0,1.13231 -1.99602,5.16635 -4.43799,8.9735 -6.92557,10.79306 -7.15215,10.73754 42.6674301,10.76875 23.03142,0.0159 68.83557,0.21577 101.78433,0.44656 68.54507,0.47807 70.8808,0.0567 62.03124,-11.1907 -1.51344,-1.92158 -3.15142,-5.63121 -3.6421,-8.24664 -0.60472,-3.22015 -2.19708,-5.52077 -4.95327,-7.15035 -6.35326,-3.75494 -8.18362,-11.7492 -4.25642,-18.57573 4.04635,-7.03391 3.89749,-8.58637 -1.64278,-17.0689 -17.02538,-26.0574 -15.09059,-55.776703 4.44158,-68.219143 15.1146,-9.62924 14.61672,-8.3802 14.44956,-36.424 C 214.58439,3.2808173 225.35674,6.9271173 113.82883,6.9646273 l -89.44363,0.0315 -9.23369,5.8925997 z m 113.01193,5.54268 c -0.006,0.95824 -5.02409,7.16986 -11.14448,13.80733 -14.25598,15.44771 -15.9825,25.79091 -1.99541,11.96887 11.95807,-11.82092 19.65732,-17.6445 25.05835,-18.96377 3.02958,-0.73586 7.52398,-2.15236 9.98276,-3.14242 8.83305,-3.55417 5.02289,5.37732 -5.37912,12.6123 -6.47481,4.50491 -11.63095,11.09616 -9.97136,12.75276 0.8463,0.8463 3.20364,-0.48948 6.47271,-3.66311 2.82581,-2.74778 8.73732,-6.66148 13.13239,-8.69921 4.39687,-2.03712 8.46092,-3.9314 9.03922,-4.209 3.37381,-1.63318 0.10414,5.0313 -5.30289,10.81316 -5.67142,6.06366 -6.49792,7.79978 -7.76527,16.31082 -0.77758,5.23957 -1.99541,10.61179 -2.70877,11.94336 -4.42207,8.28236 0.8193,8.19953 5.42864,-0.0816 6.26684,-11.25552 7.52789,-3.75915 2.40176,14.28539 -1.1023,3.88459 -3.40562,12.3227 -5.11593,18.751603 -3.02568,11.36655 -3.33359,11.85963 -11.2216,17.98422 -9.11095,7.07652 -8.3874,4.37106 -8.98821,33.71343 -0.47447,23.34353 -3.44193,29.4273 -17.68231,36.23613 l -8.60767,4.11507 -7.04532,-2.90503 c -10.50855,-4.33415 -13.1657,-10.14933 -13.1603,-28.80489 0.005,-10.41041 -0.60561,-15.52874 -2.21749,-18.64175 -1.60347,-3.09921 -1.9564,-6.04506 -1.27695,-10.57397 1.05577,-7.03902 -0.16986,-8.62088 -6.7119,-8.65539 -4.1958,-0.0225 -14.86551,-9.59023 -14.86551,-13.32926 0,-1.06298 -1.61187,-5.45655 -3.57907,-9.76339 -3.15503,-6.900063 -3.46774,-8.927883 -2.64185,-17.106103 1.26586,-12.52227 7.61732,-22.1395 7.61732,-11.54152 0,13.25873 6.51053,6.83764 7.18937,-7.09003 0.5759,-11.83292 6.18761,-20.60085 13.18791,-20.60085 3.72613,0 5.83858,-1.96901 11.14087,-10.38191 4.13578,-6.56094 4.67057,-6.89346 13.35357,-8.35768 3.26697,-0.5498 6.25093,-2.25831 8.1251,-4.64866 4.30203,-5.49136 15.29046,-8.46092 15.25594,-4.12828 z m -4.11777,79.41075 c -10.00137,10.152923 -7.96514,12.989533 5.5961,7.793783 9.58032,-3.66881 12.27258,-6.743113 8.87777,-10.133723 -3.6352,-3.6352 -9.529,-2.68356 -14.47417,2.34204 z m -51.62052,-0.61222 c -4.58564,3.711423 -2.65565,7.538393 5.6204,11.152883 14.35803,6.27044 19.45085,2.03142 8.91289,-7.41625 -7.61732,-6.825033 -9.97016,-7.428853 -14.53329,-3.735433 z m 32.36415,18.161883 c -4.92056,3.11721 -3.72073,11.35755 1.65389,11.35755 6.06486,0 7.83009,-2.92454 4.90015,-8.11879 -2.25831,-4.00343 -3.99443,-4.86234 -6.55044,-3.23966 z M 98.54677,147.503 c -5.18945,5.0547 -6.64077,10.88788 -5.21646,20.95798 1.92549,13.61886 5.22457,14.93783 12.39833,4.94576 5.09161,-7.09093 5.75575,-7.37423 8.18362,-3.48154 4.12017,6.59845 7.2905,2.57312 7.2905,-9.26191 0,-10.70002 -5.36922,-17.60008 -9.05453,-11.63665 -1.50354,2.43327 -3.40262,1.51044 -4.30504,-2.09025 -1.1161,-4.45179 -4.34675,-4.25642 -9.29522,0.56661 z"
     id="path5"
     style="stroke-width:0.300107" />
</svg>
