<?xml version="1.0" encoding="UTF-8" standalone="no"?>
<!-- Generated by IcoMoon.io -->

<svg
   version="1.1"
   width="215"
   height="215"
   viewBox="0 0 215 215"
   id="svg7"
   sodipodi:docname="bladeborn-theexileddead.svg"
   inkscape:version="1.2.1 (9c6d41e, 2022-07-14)"
   xmlns:inkscape="http://www.inkscape.org/namespaces/inkscape"
   xmlns:sodipodi="http://sodipodi.sourceforge.net/DTD/sodipodi-0.dtd"
   xmlns="http://www.w3.org/2000/svg"
   xmlns:svg="http://www.w3.org/2000/svg">
  <defs
     id="defs11" />
  <sodipodi:namedview
     id="namedview9"
     pagecolor="#ffffff"
     bordercolor="#000000"
     borderopacity="0.25"
     inkscape:showpageshadow="2"
     inkscape:pageopacity="0.0"
     inkscape:pagecheckerboard="0"
     inkscape:deskcolor="#d1d1d1"
     showgrid="false"
     inkscape:zoom="1.0029297"
     inkscape:cx="268.71276"
     inkscape:cy="512"
     inkscape:window-width="1390"
     inkscape:window-height="1205"
     inkscape:window-x="0"
     inkscape:window-y="25"
     inkscape:window-maximized="0"
     inkscape:current-layer="svg7" />
  <title
     id="title2" />
  <g
     id="icomoon-ignore"
     transform="matrix(0.26663751,0,0,0.26663751,161.01016,-946.84955)" />
  <path
     fill="#000000"
     d="m 125.20036,1.0919856 c -2.7077,2.88236 -2.24695,40.5131704 0.67886,55.4043504 2.46746,12.56155 0.46608,19.22136 -5.77857,19.22589 -5.89242,0.006 -9.36671,-4.04009 -18.89473,-22.00399 -8.134053,-15.33566 -15.243673,-28.27691 -16.897623,-30.75744 -6.55742,-9.83226 -13.29508,-9.61788 -13.18389,0.41969 0.0605,5.51966 1.66461,9.97464 8.66918,24.08217 11.53421,23.23079 14.06673,30.63958 11.96323,34.98524 -2.39921,4.95652 -6.67314,4.26833 -10.70123,-1.72355 -6.01641,-8.95129 -27.10371,-29.98578 -34.41251,-34.32691 -3.24311,-1.92619 -6.53955,-0.25837 -6.53955,3.30817 0,2.76237 0.36823,3.47482 5.49593,10.6359 10.02264,13.99554 30.93849,45.899254 34.78313,53.057944 4.65869,8.67265 4.71522,10.27461 0.58687,16.64991 -1.72941,2.66957 -3.85797,6.15906 -4.72801,7.75142 -3.32257,6.07827 -10.18742,7.40532 -26.09715,5.04584 -10.72923,-1.59155 -12.22959,-1.33052 -15.98412,2.7781 -7.19628,7.87487 -6.01321,11.78778 3.51029,11.60593 l 5.63751,-0.10719 5.12717,2.42907 c 5.58473,2.64665 8.92756,3.76306 11.29424,3.77239 2.79089,0.0115 7.03336,1.29106 11.35235,3.42469 5.1917,2.56319 9.95198,3.62467 19.47494,4.33899 l 6.65634,0.50021 0.51381,6.55182 c 0.83724,10.6671 0.30557,10.44099 9.456573,4.04356 11.74005,-8.20684 12.06481,-7.73435 12.65355,18.41612 0.32689,14.47095 0.20264,13.90754 3.14818,14.30297 7.85061,1.05348 10.25248,-6.30731 10.28101,-31.50162 0.007,-6.82219 0.16799,-11.48221 0.3829,-11.10919 2.19122,3.80145 5.08131,16.17477 6.23691,26.70588 1.80087,16.41287 3.60654,18.05536 14.20458,12.93432 6.3961,-3.0906 6.83259,-3.9777 5.23756,-10.65164 -1.53849,-6.44222 -2.33547,-14.49441 -1.77234,-17.9055 0.71166,-4.307 1.02629,-4.67229 4.02116,-4.67229 2.45894,0 2.49893,-0.0203 4.70429,-2.38028 2.54825,-2.72583 4.27393,-3.60227 7.09629,-3.60227 4.43658,0 4.5715,-1.25106 0.72739,-6.73846 -9.05208,-12.91832 -7.66663,-36.20111 5.23036,-87.908254 5.35701,-21.47686 6.52142,-31.39044 6.04627,-51.48877 -0.25277,-10.68497 -0.50688,-11.66833 -3.0698,-11.8819 -4.43658,-0.36956 -6.9563,5.19623 -8.66865,19.14537 -1.46677,11.94749 -1.95205,13.22789 -10.05037,26.50643 -3.3191,5.44181 -6.19265,10.30874 -6.3873,10.81509 -0.50768,1.32839 -1.71341,2.26828 -3.54814,2.76716 -5.59752,1.5209 -8.8969,-4.06329 -10.55725,-17.86978 -0.75378,-6.26385 -2.06724,-12.56076 -3.65107,-17.50368 -1.59235,-4.97146 -2.14909,-7.82741 -2.58505,-13.26095 -0.37969,-4.73815 -1.37318,-7.83835 -3.73159,-11.64193 -2.35467,-3.7961204 -3.29617,-6.4894204 -3.29617,-9.4288404 0,-3.85424001 -2.4232,-5.49593 -4.63576,-3.13992 z"
     id="path5"
     style="stroke-width:0.266638" />
</svg>
