<?xml version="1.0" encoding="UTF-8" standalone="no"?>
<!-- Generated by IcoMoon.io -->

<svg
   version="1.1"
   width="215"
   height="215"
   viewBox="0 0 215 215"
   id="svg7"
   sodipodi:docname="bladeborn-the-shadeborn.svg"
   inkscape:version="1.2.1 (9c6d41e, 2022-07-14)"
   xmlns:inkscape="http://www.inkscape.org/namespaces/inkscape"
   xmlns:sodipodi="http://sodipodi.sourceforge.net/DTD/sodipodi-0.dtd"
   xmlns="http://www.w3.org/2000/svg"
   xmlns:svg="http://www.w3.org/2000/svg">
  <defs
     id="defs11" />
  <sodipodi:namedview
     id="namedview9"
     pagecolor="#ffffff"
     bordercolor="#000000"
     borderopacity="0.25"
     inkscape:showpageshadow="2"
     inkscape:pageopacity="0.0"
     inkscape:pagecheckerboard="0"
     inkscape:deskcolor="#d1d1d1"
     showgrid="false"
     inkscape:zoom="1.0029297"
     inkscape:cx="268.71276"
     inkscape:cy="512"
     inkscape:window-width="1390"
     inkscape:window-height="1205"
     inkscape:window-x="0"
     inkscape:window-y="25"
     inkscape:window-maximized="0"
     inkscape:current-layer="svg7" />
  <title
     id="title2" />
  <g
     id="icomoon-ignore"
     transform="matrix(0.23730604,0,0,0.23730604,78.665089,-881.9993)" />
  <path
     fill="#000000"
     d="m 80.437991,0.85694723 c -1.05909,1.11009997 -1.30542,1.80729997 -1.92598,5.45069997 -0.28287,1.6609 -0.66374,3.4488 -0.8467,3.9726998 -1.00215,2.8752 0.71096,9.0196 2.81824,10.11 1.07192,0.5539 1.93191,1.9763 1.9687,3.2535 0.0681,2.4072 -1.43404,3.5885 -10.66003,8.3847 -3.58356,1.8626 -6.17756,3.3883 -8.56723,5.0375 -0.51401,0.355 -1.63528,1.1296 -2.49219,1.7219 -8.87549,6.1344 -11.12753,7.1038 -14.79628,6.3651 -2.85859,-0.575 -9.31972,-4.2312 -12.93081,-7.3167 -4.35528,-3.7214 -6.34011,-1.3951 -4.56838,5.3537 1.5273,5.8178 3.90463,8.215 9.07221,9.1488 3.73425,0.6744 4.24897,1.2739 4.00383,4.6621 -0.15805,2.1837 -1.6863,5.3496 -4.51285,9.348 -0.97201,1.3747 -2.57311,4.9832 -3.08166,6.9445 -0.2729,1.0541 -0.72046,2.3434 -0.99384,2.8653 -0.27337,0.5218 -0.74253,1.7895 -1.04248,2.8175 -0.30067,1.028 -0.77362,2.5703 -1.05198,3.4272 -0.27836,0.8569 -0.98601,3.0999 -1.57263,4.9848 -3.62509,11.6503 -3.95661,12.3058 -6.23095,12.3058 -3.08379,0 -4.25276,-2.893 -4.15903,-10.2929 0.0816,-6.4633 -0.14191,-7.1831 -1.99527,-6.4265 -0.97319,0.3977 -1.1768,0.7769 -3.53847,6.594 -0.41695,1.028 -0.90722,2.1355 -1.08924,2.4604 -2.7676999,4.9426 -2.4660799,6.5292 2.16614,11.403003 4.74232,4.9903 4.75087,7.0805 0.0489,11.8324 -3.80853,3.8486 -3.99813,4.3514 -3.28289,8.6934 0.91885,5.5748 5.0475,12.3186 7.15739,11.6914 1.62934,-0.4841 1.70196,-0.8064 1.42739,-6.3589 -0.47034,-9.5231 1.38587,-12.9984 5.04917,-9.4521 1.80661,1.7485 2.32916,3.1021 3.52969,9.1405 0.33223,1.6709 3.79429,12.6703 4.7065,14.9539 1.65971,4.1536 3.32181,7.6564 3.99054,8.4118 4.926,5.5565 5.36288,9.1415 1.21382,9.9612 -4.90322,0.9694 -5.59378,1.4556 -8.63415,6.0828 -1.12626,1.7136 -2.31682,3.4704 -2.6462,3.9047 -1.66755,2.1965 -1.76509,3.5951 -0.30565,4.3764 0.50119,0.2684 5.97513,-1.8672 7.27438,-2.8382 0.17134,-0.1275 1.38634,-0.5252 2.70055,-0.8823 1.31372,-0.3576 3.71265,-1.2772 5.33037,-2.0435 5.39468,-2.5548 6.67447,-2.2748 15.33472,3.356 1.19958,0.7798 3.65286,2.2426 5.45164,3.2506 3.40653,1.9082 6.87405,4.1197 7.9443,5.0653 0.34267,0.3028 1.83176,1.3 3.30828,2.2155 5.33536,3.3083 7.77297,5.0841 7.95332,5.795 0.32653,1.2889 -0.21405,2.9063 -1.41458,4.2317 -4.79288,5.2893 -5.97917,13.8269 -2.47653,17.8162 1.82156,2.07456 2.27078,1.64266 6.00503,-5.7722 1.51046,-2.9984 2.92788,-5.6619 3.15095,-5.9191 0.22283,-0.2568 1.11416,-1.5539 1.98032,-2.8814 1.99243,-3.0551 4.1474,-4.5677 6.83039,-4.7957 4.739709,-0.4032 4.359309,1.8384 4.441419,-26.1562 0.0726,-24.6193 0.12696,-23.5792 -1.253929,-24.06 -0.87613,-0.3056 -0.95776,-0.2551 -1.82108,1.1375 -1.27102,2.0474 -5.16046,9.0639 -5.6263,10.1481 -0.21357,0.4962 -0.67323,1.2677 -1.02207,1.7136 -0.34884,0.4464 -1.22878,1.8626 -1.95636,3.1476 -6.84462,12.0967 -9.19656,13.3001 -14.91706,7.6323 -0.89275,-0.8852 -2.76154,-2.5254 -4.15286,-3.6451 -5.11846,-4.1203 -12.31145,-12.0091 -15.99135,-17.539 -1.44615,-2.1728 -3.75419,-5.9941 -3.75419,-6.2153 0,-0.1009 -0.37708,-0.7769 -0.83745,-1.5017 -0.84172,-1.3249 -3.17634,-6.6512 -4.06031,-9.262 -0.26127,-0.7708 -0.73256,-1.9626 -1.04699,-2.6479 -2.71004,-5.9013 -3.71717,-21.9821 -1.97629,-31.558403 0.51899,-2.856 3.40606,-12.3103 4.06814,-13.3224 0.23114,-0.3533 0.6151,-1.2892 0.85288,-2.0807 0.23778,-0.7907 0.73043,-1.8555 1.09351,-2.3657 0.36308,-0.5102 0.65994,-1.0465 0.65994,-1.1917 0,-0.1453 0.49075,-0.9545 1.0909,-1.7983 0.59944,-0.8434 1.09018,-1.6669 1.09018,-1.8301 0,-0.4277 1.71407,-3.2523 2.96799,-4.89 0.58995,-0.7707 1.6443,-2.2131 2.34293,-3.2045 0.69863,-0.9915 1.90319,-2.5338 2.67681,-3.4272 11.15671,-12.8827 13.52195,-14.3359 17.20185,-10.5734 2.81991,2.8842 9.21935,11.5893 10.70109,14.5573 0.42762,0.8566 1.24443,2.4689 1.81491,3.5823 1.07405,2.0957 1.34648,5.5803 0.73874,9.4477 -0.20029,1.2727 -1.71905,2.5776 -2.49219,2.1417 -0.43926,-0.248 -3.70886,-3.9301 -6.09545,-6.8648 -4.49505,-5.5271 -7.39992,-5.7789 -11.72126,-1.0164 -12.13679,13.3767 -16.54024,33.253703 -11.25662,50.811503 1.49954,4.9825 5.76393,13.4133 8.4462,16.699 1.0814,1.3242 2.59637,3.1825 3.36785,4.1296 4.93312,6.0594 8.19774,5.7867 11.26445,-0.9428 0.28667,-0.6289 0.78572,-1.2848 1.10917,-1.458 0.32274,-0.173 1.41529,-1.8318 2.42669,-3.6856 2.3313,-4.2722 5.4972,-9.5974 6.52592,-10.9761 0.43641,-0.5845 0.79356,-1.2295 0.79356,-1.4336 0,-0.2036 0.39036,-0.9172 0.86782,-1.5854 0.73589,-1.0292 2.06409,-3.2274 5.06412,-8.3803 0.69032,-1.1856 2.22142,-5.0458 2.966319,-7.4768 0.71928,-2.3484 0.79735,-8.831603 0.17466,-14.486803 -0.42525,-3.8619 -0.40983,-9.6085 0.1514,-55.1426 0.15852,-12.8587 -0.0714,-13.5901 -4.859549,-15.4202 -3.04108,-1.1618 -3.39657,-1.6435 -8.48109,-11.4896 -0.80684,-1.5631998 -1.47296,-2.9850998 -1.4796,-3.1592998 -0.007,-0.1746 -0.34054,-0.8056 -0.74135,-1.4025 -0.40081,-0.5968 -0.96322,-1.7807 -1.24989,-2.6312 -0.45373,-1.347 -2.14003,-3.593999972592 -2.69675,-3.593999972592 -0.10536,0 -0.56004,0.385900002592 -1.00926,0.856700002592 z m 54.182219,0.012 c -0.87162,0.1108 -2.04842,1.91769997 -2.07239,3.18129997 -0.005,0.2568 -0.23399,0.8878 -0.50855,1.4018 -0.27504,0.514 -0.73209,1.5655 -1.01543,2.3363 -2.75062,7.4807998 -5.67969,10.7147998 -13.27918,14.6597998 -4.22168,2.1915 -3.84294,0.018 -3.90511,22.4136 -0.0764,27.7199 -0.10204,26.5875 0.62103,27.4591 l 0.61059,0.7355 0.97533,-1.0259 c 1.02255,-1.0752 5.59188,-8.0425 5.59188,-8.5267 0,-0.1542 0.58733,-1.2921 1.30495,-2.5292 0.71761,-1.2371 1.67205,-2.9502 2.12056,-3.8068 1.67871,-3.2058 6.57125,-10.2951 7.57885,-10.9816 1.50001,-1.0221 2.50714,-0.8861 4.84888,0.6542 1.13337,0.7454 2.49978,1.5817 3.03657,1.8589 1.10584,0.5695 12.00532,10.9101 13.19873,12.5214 0.98316,1.327 2.12935,2.7872 4.59116,5.8461 1.07192,1.3324 2.28906,3.0937 2.70458,3.9138 0.416,0.8206 0.98981,1.6859 1.27481,1.9227 0.28548,0.2368 1.14405,1.6298 1.9077,3.0959 0.76366,1.4656 1.59209,3.015 1.84103,3.4438 1.59256,2.7399 4.68798,10.8173 5.91485,15.4346 2.87521,10.826903 2.16376,24.389403 -1.88777,35.969903 -2.03632,5.8204 -2.2582,6.2863 -5.84936,12.3058 -7.5563,12.6624 -18.35302,23.5208 -23.38771,23.5208 -7.52901,0 -17.48353,-18.8233 -14.951,-28.2722 0.32226,-1.2022 2.32252,-0.9855 3.26628,0.3543 6.07552,8.6259 11.01481,11.2196 14.71916,7.7293 10.66003,-10.0432 17.57465,-31.8474 14.54663,-45.8693 -1.99243,-9.229403 -3.78978,-14.237903 -6.63295,-18.487403 -0.55909,-0.8363 -1.43736,-2.1903 -1.95137,-3.01 -2.51876,-4.0126 -7.55108,-9.482 -9.64412,-10.4797 -2.63362,-1.256 -5.89801,1.4486 -8.84274,7.3245 -0.40105,0.8002 -0.9777,1.7352 -1.28145,2.0779 -0.30376,0.3426 -1.21335,1.8144 -2.02067,3.2712 -2.20718,3.9827 -3.35835,5.8838 -4.79334,7.9177 -0.71524,1.0138 -1.30044,1.9787 -1.30044,2.1439 0,0.1651 -0.51567,1.018 -1.14619,1.8953 -1.39916,1.9471 -6.29455,11.736203 -7.26394,14.524103 -1.06574,3.0672 -1.20718,9.1344 -1.10348,47.354 0.10584,38.782 -0.18913,35.4497 3.2829,37.0945 0.77077,0.3655 1.82227,0.9803 2.33628,1.3669 0.514,0.3866 1.4955,1.0005 2.18108,1.3635 3.14929,1.6704 7.23452,7.8456 8.89827,13.4482 2.02066,6.8076 4.15452,8.40751 5.93147,4.4481 3.14312,-7.006 3.06433,-14.6179 -0.18249,-17.6884 -2.14715,-2.0306 -2.45114,-2.6436 -2.04677,-4.1291 0.40105,-1.4751 2.43002,-3.7093 3.6239,-3.991 0.50072,-0.1182 1.33082,-0.5973 1.84506,-1.0641 0.51401,-0.4675 3.10776,-2.1479 5.76393,-3.7338 7.77961,-4.6464 8.21103,-4.9132 9.16927,-5.673 0.50238,-0.3987 2.74326,-1.8066 4.97916,-3.1294 7.53234,-4.4563 10.5364,-4.2817 17.31671,1.006 0.59991,0.4675 1.83675,1.2261 2.74824,1.6863 0.91173,0.4596 2.32584,1.3154 3.14146,1.902 4.28551,3.0783 5.94855,2.7727 5.94855,-1.0931 0,-6.2235 -3.98721,-11.627 -9.52428,-12.9068 -6.48581,-1.4995 -6.93907,-3.0556 -2.8192,-9.6861 1.42123,-2.2874 2.83771,-4.7912 4.05367,-7.1652 3.29238,-6.4265 7.4386,-18.3554 8.26656,-23.7817 1.64524,-10.7775 9.21768,-8.2177 8.25707,2.791 -0.18914,2.1678 -0.14262,2.5009 0.47247,3.3643 2.40225,3.3737 8.51455,-5.7993 8.05916,-12.0946 -0.16422,-2.2703 -0.59445,-2.8154 -3.25561,-4.1258 -6.08381,-2.995 -6.04442,-9.8159 0.0776,-13.503703 3.28456,-1.9786 4.27104,-4.5418 3.07383,-7.987 -2.52588,-7.2734 -5.51594,-11.1994 -7.88901,-10.361 -0.92668,0.3272 -1.07404,2.2015 -0.528,6.7044 1.17277,9.6617 -6.06507,13.705603 -7.80737,4.3619 -0.97154,-5.2093 -2.53823,-10.5912 -4.63768,-15.932 -0.64001,-1.6282 -1.76888,-4.5017 -2.50809,-6.3867 -1.40414,-3.5778 -3.0527,-6.7803 -4.79121,-9.3073 -2.52328,-3.6678 -1.69199,-6.67 2.24871,-8.1202 6.27912,-2.3102 10.47636,-6.8636 10.58457,-11.4818 0.0726,-3.117 -1.22213,-3.4613 -5.39966,-1.4362 -14.52789,7.0433 -18.20898,7.6626 -22.52653,3.7919 -0.66161,-0.5928 -1.67372,-1.2748 -2.24919,-1.5156 -0.57618,-0.2407 -2.02398,-1.0698 -3.21858,-1.8422 -1.1946,-0.7725 -2.77554,-1.6887 -3.51403,-2.0357 -1.53395,-0.7209 -3.60278,-2.0296 -6.39161,-4.042 -2.04842,-1.4784 -7.51026,-4.9732 -10.36838,-6.6346 -3.02399,-1.758 -3.22357,-3.7326 -0.66279,-6.5603 3.61891,-3.996 4.61774,-6.7317 4.28053,-11.7224998 -0.35834,-5.2997 -1.99528,-8.73689997 -4.03658,-8.47729997 z"
     id="path5"
     style="stroke-width:0.237306" />
</svg>
