<?xml version="1.0" encoding="UTF-8" standalone="no"?>
<!-- Generated by IcoMoon.io -->

<svg
   version="1.1"
   width="215"
   height="215"
   viewBox="0 0 215 215"
   id="svg7"
   sodipodi:docname="bladeborn-thundrik.svg"
   inkscape:version="1.2.1 (9c6d41e, 2022-07-14)"
   xmlns:inkscape="http://www.inkscape.org/namespaces/inkscape"
   xmlns:sodipodi="http://sodipodi.sourceforge.net/DTD/sodipodi-0.dtd"
   xmlns="http://www.w3.org/2000/svg"
   xmlns:svg="http://www.w3.org/2000/svg">
  <defs
     id="defs11" />
  <sodipodi:namedview
     id="namedview9"
     pagecolor="#ffffff"
     bordercolor="#000000"
     borderopacity="0.25"
     inkscape:showpageshadow="2"
     inkscape:pageopacity="0.0"
     inkscape:pagecheckerboard="0"
     inkscape:deskcolor="#d1d1d1"
     showgrid="false"
     inkscape:zoom="1.0029297"
     inkscape:cx="301.61636"
     inkscape:cy="512.99708"
     inkscape:window-width="2560"
     inkscape:window-height="1387"
     inkscape:window-x="0"
     inkscape:window-y="25"
     inkscape:window-maximized="1"
     inkscape:current-layer="svg7" />
  <title
     id="title2" />
  <g
     id="icomoon-ignore"
     transform="matrix(0.27433003,0,0,0.27433003,148.1605,-962.09743)" />
  <path
     fill="#000000"
     d="M 104.74864,0.17737516 C 96.988386,1.8000352 94.014656,12.355165 97.199346,26.966525 c 0.90008,4.13141 -3.71031,9.60101 -8.09246,9.60101 -2.38118,0 -11.62171,5.14725 -11.62171,6.47309 0,0.17063 0.73136,0.96756 1.62266,1.76833 0.89349,0.80159 5.42734,5.01448 10.07751,9.36014 18.388624,17.18815 17.866844,17.17608 34.493714,0.83808 15.59649,-15.32545 15.57427,-15.6423 -1.40429,-19.77892 -3.42611,-0.83534 -3.19952,0.24497 -3.3386,-15.90319 -0.14704,-17.2523398 -0.007,-16.6556698 -4.23593,-18.0591498 -3.20143,-1.06275004 -7.71937,-1.55655004 -9.95242,-1.08964004 z M 85.924386,7.8583452 c -9.23861,1.10994 -22.93811,9.2921098 -28.25325,16.8743098 -1.34065,1.91428 -1.31706,1.96695 2.18147,4.79502 11.57646,9.36288 11.76684,9.43997 15.34136,6.07723 4.26803,-4.01592 9.25178,-6.82807 12.10042,-6.82807 2.07997,0 2.30877,-0.82985 2.30877,-8.39752 0,-8.59695 -0.76703,-13.1115998 -2.16392,-12.7357698 -0.11878,0.0332 -0.80022,0.12756 -1.51403,0.21452 z m 41.961254,1.42432 c -1.79467,0.7280698 -2.42508,3.6751998 -3.01599,14.1337598 l -0.24772,4.37611 1.20486,0.46746 c 0.66388,0.25787 2.17928,0.78623 3.3674,1.17276 3.66697,1.19361 6.09946,2.78719 9.33134,6.10741 3.67767,3.78054 2.9153,3.63515 6.17462,1.16234 11.41515,-8.66307 13.66273,-12.2055 10.43414,-16.43786 -2.48625,-3.25877 -11.40719,-8.40492 -17.50116,-10.09096 -1.07016,-0.2968198 -2.51121,-0.7110598 -3.20225,-0.9209198 -1.54448,-0.4702 -5.35849,-0.45265 -6.55073,0.0304 z M 47.789766,41.867585 c -18.35405,18.69834 -25.38101,34.61579 -24.69135,55.9337 0.26199,8.082595 0.88389,12.796405 2.44511,18.499725 0.24497,0.89349 0.61532,2.25554 0.82628,3.03025 3.71031,13.68248 6.08052,14.51233 17.79469,6.23415 16.90422,-11.94707 18.78996,-15.11257 14.09672,-23.67742 -6.27804,-11.457125 -8.48393,-18.617695 -8.4554,-27.455235 0.0135,-4.34703 0.30177,-6.21604 1.75901,-11.46891 1.62403,-5.84625 2.1299,-25.09901 0.65921,-25.09901 -0.27597,0 -2.27255,1.80153 -4.4329,4.0022 z m 113.049764,-3.65078 c -0.13085,0.21178 0.14375,1.43447 0.61176,2.71641 1.0548,2.88568 1.12009,7.50211 0.15637,11.25686 -0.82628,3.22777 -0.59448,5.68302 0.981,10.34115 2.20973,6.53673 2.42563,7.79152 2.43715,14.06407 0.007,4.55004 -0.18133,6.70381 -0.75715,8.65512 -0.42165,1.42843 -0.86442,3.13477 -0.98375,3.79179 -0.11933,0.65702 -0.3901,1.30142 -0.59968,1.43118 -0.20987,0.12948 -0.38297,0.51217 -0.38297,0.8474 0,0.63014 -1.04986,3.07936 -3.89027,9.076215 -6.17161,13.02766 -5.835,13.73763 12.11304,25.58704 11.92814,7.87574 12.30206,7.80222 15.90017,-3.08402 2.13264,-6.45636 3.1515,-10.13403 3.95584,-14.28025 0.23071,-1.18922 0.67403,-3.43022 0.98649,-4.97744 0.76648,-3.806615 0.77525,-20.019795 0.0143,-23.801705 -2.98827,-14.82397 -9.77575,-26.38918 -21.0562,-35.87963 -5.53132,-4.65346 -8.90009,-6.69365 -9.48441,-5.74584 z m -100.535924,3.65078 c -1.74062,1.9129 -1.86105,2.56718 -0.96399,5.28442 1.39085,4.217 1.04574,11.75257 -0.84192,18.40947 -1.46273,5.15466 -1.75352,7.09993 -1.76834,11.78659 -0.007,2.79322 0.2052,6.007 0.47377,7.1419 4.70202,19.845045 13.90716,27.463185 22.91644,18.966095 1.62403,-1.53159 4.37391,-3.751475 6.11015,-4.931365 3.78054,-2.56938 3.98217,-2.87224 4.6595,-7.00941 0.85673,-5.22955 3.20472,-8.35417 7.91085,-10.53208 2.546334,-1.17742 4.218374,-2.58281 4.218374,-3.54215 0,-1.80481 -20.477364,-21.92061 -30.262714,-29.72832 -8.06915,-6.43935 -10.75676,-7.69962 -12.44992,-5.84021 z m 89.532824,0.93053 c -6.13375,4.21343 -17.14892,13.52502 -25.11656,21.23177 -4.46801,4.32015 -10.05721,10.76224 -11.11915,12.81615 -1.09512,2.11646 -0.6935,3.00337 1.96476,4.36267 3.93032,2.00892 7.01023,6.12031 7.67959,10.24403 0.43673,2.69667 1.78534,4.63536 4.87018,7.00008 1.07071,0.82107 3.70071,3.177845 5.84159,5.233955 4.26638,4.09821 5.4759,4.64797 8.45402,3.8472 5.29375,-1.42569 12.01977,-11.969845 14.21332,-22.283005 0.25293,-1.1895 0.66058,-3.07799 0.90611,-4.19533 0.98759,-4.50587 0.46087,-11.77288 -1.29676,-17.87645 -1.19004,-4.13525 -1.74007,-9.80757 -1.29346,-13.36645 1.16645,-9.30418 0.18544,-10.65087 -5.10556,-7.01627 z m -76.706524,22.59711 c 9.64435,2.37104 19.60363,10.86951 18.34994,15.6615 -0.45073,1.72664 -2.08683,2.32989 -6.26927,2.30877 -9.49648,-0.0458 -15.9169,-5.04603 -17.72858,-13.80978 -0.99115,-4.80324 0.0162,-5.54393 5.64791,-4.16021 z m 74.189274,0.15582 c 1.40265,1.40731 -0.0222,7.58852 -2.62068,11.36467 -6.00755,8.7333 -25.32697,7.52378 -20.43182,-1.28057 3.4881,-6.27475 19.75807,-13.39142 23.05195,-10.08492 z m -43.59351,20.52592 c -3.62253,1.34477 -5.612254,4.44415 -6.135674,9.56068 -0.50943,4.984035 -2.32714,7.833225 -5.48056,8.595035 -2.17654,0.52617 -10.72933,8.55992 -10.72933,10.07889 0,0.56814 1.75901,1.48961 4.32756,2.26843 8.43126,2.55594 10.15625,3.51856 12.62467,7.04672 4.857564,6.94055 14.079714,6.28902 18.172724,-1.28332 0.94314,-1.74336 3.35862,-3.2316 7.50731,-4.6252 10.42619,-3.50045 10.95455,-8.52508 1.36397,-12.98486 -5.29183,-2.46212 -8.05405,-6.609445 -8.07353,-12.127315 -0.009,-2.60504 -1.12201,-4.64468 -2.87416,-5.27482 -4.8625,-1.74748 -8.29272,-2.14965 -10.70298,-1.25643 z M 68.913456,120.55779 c -1.73953,0.94534 -8.45814,5.24656 -14.93069,9.5593 -28.6823,19.11121 -30.75047,21.04194 -28.90917,27.01603 0.38927,1.26246 2.68404,8.88993 3.61978,12.02937 1.61745,5.42871 1.711,5.36919 22.39549,-13.9859 20.51494,-19.19597 25.80759,-23.33341 26.61303,-20.79504 0.99581,3.13779 -2.14965,6.88349 -20.34789,24.23459 -17.58675,16.7698 -22.67145,21.77961 -22.45555,22.12829 0.36952,0.59831 13.97931,9.62788 16.49464,10.94439 5.81854,3.04287 8.62137,0.84055 15.95695,-12.5281 0.26199,-0.47706 0.86963,-1.54722 1.35217,-2.38036 3.25082,-5.61005 5.7848,-10.02402 6.76855,-11.79153 0.62876,-1.13079 1.60703,-2.88238 2.17516,-3.89494 5.67425,-10.11509 6.68296,-13.3382 4.35938,-13.92252 -7.19183,-1.80564 -0.61148,-14.26928 8.0258,-15.2031 6.93863,-0.74809 5.28634,-4.13196 -3.46122,-7.08841 -5.40869,-1.82841 -8.24417,-3.23161 -9.7881,-4.8411 -1.73047,-1.80729 -3.84171,-1.66711 -7.87053,0.5215 z m 69.577234,0.17228 c -2.79186,1.93293 -7.99864,4.11852 -9.81032,4.11852 -0.89349,0 -1.79274,0.28941 -4.45786,1.4405 -4.12867,1.77986 -4.52315,5.43064 -0.59365,5.47042 3.55367,0.0357 8.6274,4.37392 11.80277,10.08821 1.89453,3.41075 0.3805,6.36994 -3.26068,6.36994 -2.62918,0 -1.95186,2.12935 4.00165,12.54951 2.44373,4.279 4.85784,8.53907 5.88602,10.38586 0.59722,1.07071 1.53077,2.72656 2.07723,3.67766 0.54647,0.95193 1.2076,2.12003 1.47014,2.59709 9.21721,16.80161 12.00166,18.14144 22.7019,10.9315 13.42681,-9.04987 13.92993,-7.24094 -8.00001,-28.67297 -19.19405,-18.75814 -24.8318,-25.05731 -23.56275,-26.32581 1.13627,-1.13628 4.46911,1.62403 24.47901,20.28396 10.86622,10.13403 21.05346,18.8067 22.08851,18.8067 0.44387,0 1.04136,-0.98759 1.96695,-3.24505 0.31575,-0.76977 3.20829,-9.57879 4.26555,-12.98267 1.5261,-4.92148 0.63233,-6.9293 -4.73576,-10.6281 -0.83259,-0.57335 -1.80728,-1.28276 -2.16391,-1.57355 -2.01468,-1.64214 -29.51517,-20.2195 -32.35833,-21.85972 -6.90625,-3.98409 -7.93197,-4.10754 -11.79454,-1.43173 z m -38.935944,17.81966 c -6.44401,0.22741 -12.98267,1.39332 -12.98267,2.31699 0,1.20705 39.375964,1.04986 40.587954,-0.16323 1.88246,-1.88245 -9.69427,-2.78582 -27.606384,-2.15376 z m -6.72904,11.04754 c -1.35492,0.43673 -2.25554,1.63967 -4.96455,6.62562 -0.77526,1.42844 -1.94171,3.56903 -2.5916,4.76072 -0.65043,1.1895 -2.4964,4.69598 -4.10507,7.78878 -4.32564,8.32455 -7.56685,14.47887 -8.71793,16.55253 -0.56128,1.012 -1.53488,2.7636 -2.16173,3.89439 -2.77704,5.0057 -4.19066,7.26645 -4.95851,7.93389 -1.8745,1.62596 0.23345,3.03025 10.20974,6.80311 8.39176,3.17318 9.09788,2.58419 11.04562,-9.21776 0.27543,-1.66655 0.66526,-3.80935 0.86579,-4.76155 0.20108,-0.95137 0.58487,-2.9965 0.85536,-4.54427 0.26994,-1.54722 0.66333,-3.59208 0.87319,-4.54428 0.20987,-0.95138 0.61149,-2.80173 0.89075,-4.11111 0.83534,-3.91414 1.96613,-6.92464 2.60038,-6.92464 2.31644,0 1.40347,37.30532 -1.03148,42.16508 -0.33523,0.66936 -0.18545,1.03971 0.74563,1.83911 1.41883,1.22131 27.702674,1.61388 28.888874,0.43124 0.6348,-0.63288 0.42302,-12.08122 -0.4831,-26.04434 -1.0548,-16.26777 -1.08497,-18.77844 -0.23071,-19.10572 1.54448,-0.59228 3.84995,4.08121 4.72616,9.58619 0.15198,0.95193 0.47514,2.89912 0.71874,4.32756 0.24279,1.42898 0.6167,4.05706 0.83068,5.84158 2.16912,18.08027 3.16247,19.30269 12.32016,15.14247 0.47651,-0.21672 2.34991,-1.0655 4.1657,-1.88712 5.02189,-2.27255 5.89755,-3.65819 4.54839,-7.19622 -0.3163,-0.83314 -0.81695,-2.1395 -1.10994,-2.90132 -0.81284,-2.11453 -7.05549,-14.2882 -11.27085,-21.98179 -0.65181,-1.18922 -2.26706,-4.20877 -3.58933,-6.70792 -1.3231,-2.49914 -3.3087,-6.19985 -4.41425,-8.22194 -1.10555,-2.02209 -2.11316,-3.99644 -2.23743,-4.38352 -0.49105,-1.52528 -2.04513,-1.67588 -16.72673,-1.63226 -8.12017,0.025 -14.942754,0.23016 -15.688384,0.47102 z"
     id="path5"
     style="stroke-width:0.27433" />
</svg>
