<?xml version="1.0" encoding="UTF-8" standalone="no"?>
<!-- Generated by IcoMoon.io -->

<svg
   version="1.1"
   width="215"
   height="215"
   viewBox="0 0 215 215"
   id="svg7"
   sodipodi:docname="bladeborn-xandires.svg"
   inkscape:version="1.2.1 (9c6d41e, 2022-07-14)"
   xmlns:inkscape="http://www.inkscape.org/namespaces/inkscape"
   xmlns:sodipodi="http://sodipodi.sourceforge.net/DTD/sodipodi-0.dtd"
   xmlns="http://www.w3.org/2000/svg"
   xmlns:svg="http://www.w3.org/2000/svg">
  <defs
     id="defs11" />
  <sodipodi:namedview
     id="namedview9"
     pagecolor="#ffffff"
     bordercolor="#000000"
     borderopacity="0.25"
     inkscape:showpageshadow="2"
     inkscape:pageopacity="0.0"
     inkscape:pagecheckerboard="0"
     inkscape:deskcolor="#d1d1d1"
     showgrid="false"
     inkscape:zoom="1.0029297"
     inkscape:cx="301.61636"
     inkscape:cy="512.99708"
     inkscape:window-width="2560"
     inkscape:window-height="1387"
     inkscape:window-x="0"
     inkscape:window-y="25"
     inkscape:window-maximized="1"
     inkscape:current-layer="svg7" />
  <title
     id="title2" />
  <g
     id="icomoon-ignore"
     transform="matrix(0.26147582,0,0,0.26147582,74.49622,-958.37977)" />
  <path
     fill="#000000"
     d="m 104.57183,8.8155865 c -0.75958,2.9539005 -1.05479,7.9420705 -1.37667,23.2023205 -0.59459,28.34294 -2.09389,34.91435 -9.95255,43.65261 -8.42867,9.3726 -6.81249,21.07181 3.6434,26.361213 16.73446,8.4658 33.61664,-6.660843 25.35479,-22.719903 -1.03361,-2.0097 -1.8672,-3.07365 -6.15828,-7.86075 -3.73518,-4.16766 -4.6778,-6.77745 -4.95627,-13.73663 -0.62101,-15.45322 -3.73022,-42.48695 -5.66749,-49.3012705 -0.25442,-0.89189 -0.59198,-0.73841 -0.88666,0.40398 z M 35.14896,40.115817 c -9.16316,0.47536 -10.77228,0.86548 -10.76967,2.609 0.007,3.72551 4.24794,16.89396 6.09919,18.94027 0.67199,0.74233 1.88602,0.57917 4.38965,-0.59198 7.85003,-3.67452 12.60052,3.5022 16.52972,24.97251 1.86014,10.16042 5.02452,10.5678 7.67798,0.98681 1.34633,-4.85901 3.64078,-9.51877 7.05226,-14.31999 1.30189,-1.83164 2.36662,-3.44442 2.36662,-3.583 0,-0.13858 -1.38896,-3.15131 -3.08489,-6.69535 -6.61037,-13.80174 -6.34027,-14.07786 7.69366,-7.84663 9.93504,4.41005 20.86316,3.84919 23.36443,-1.19991 0.68952,-1.38975 0.69448,-3.18243 0.0204,-6.08088 -0.28684,-1.23234 -0.60323,-2.93219 -0.70259,-3.77702 -0.20918,-1.77516 -0.34044,-1.85282 -3.8884,-2.34335 -8.52281,-1.17716 -42.37765,-1.8149 -56.75045,-1.06996 z m 79.98911,2.30935 c 0.42046,6.12115 1.031,8.65721 2.60509,10.82981 3.24282,4.47699 11.55461,4.92699 21.10554,1.14422 1.47603,-0.58414 4.19486,-1.66926 6.04506,-2.41159 7.51377,-3.01561 7.76662,-2.55201 3.49096,6.39465 -4.59491,9.61734 -4.71519,11.62861 -1.03309,17.36356 2.09861,3.26923 3.27002,5.88608 4.93719,11.01729 1.98852,6.12428 2.85532,7.50618 4.37031,6.97408 1.75058,-0.61656 2.83361,-3.69099 4.22675,-12.01246 2.74341,-16.38748 6.08219,-21.83925 13.05549,-21.32022 7.42774,0.55433 7.47742,0.51197 11.19326,-9.39692 2.62025,-6.98375 2.54756,-8.55444 -0.45026,-9.75121 -2.98318,-1.18972 -4.329,-1.23966 -37.87765,-1.35889 l -31.84802,-0.11322 0.18068,2.64064 z m -30.13875,23.58434 c -8.56072,4.61478 -16.24183,14.74985 -19.90615,26.26708 l -1.66874,5.24572 -4.92987,0.60009 c -12.92475,1.57278 -29.95519,3.168563 -48.5662501,4.551253 -5.50538,0.40842 -9.97243005,0.77998 -9.92798004873,0.82652 C 0.04532985,103.54437 5.0347899,103.94651 11.08638,104.39102 c 21.49567,1.58115 51.44877,4.40875 51.91054,4.90006 0.035,0.0376 0.75357,2.42676 1.59788,5.31005 5.17617,17.68518 9.67042,22.39462 30.27131,31.72355 l 6.06075,2.74419 0.61656,12.56209 c 1.61566,32.92399 2.72092,44.29818 4.40378,45.34906 1.06211,0.66362 1.16879,0.0251 1.8251,-10.86223 0.41052,-6.8206 1.6792,-22.30468 2.9633,-36.16394 0.58885,-6.35282 1.06944,-11.70863 1.06944,-11.90343 0,-0.1948 3.03286,-1.87007 6.73771,-3.72341 17.71708,-8.86377 23.78541,-14.19762 27.28683,-23.98466 3.98751,-11.14619 10.06238,-13.55543 36.18721,-14.34848 9.29703,-0.28135 14.23945,-0.55433 19.77176,-1.09009 3.37905,-0.32711 13.09784,-1.55474 13.21132,-1.66927 0.0424,-0.0424 -10.35862,-0.89869 -23.11184,-1.9038 -44.16379,-3.481813 -41.42431,-2.871533 -44.17216,-9.857903 -4.21787,-10.72313 -9.99727,-18.90052 -16.34041,-23.12179 -6.30261,-4.19407 -7.33126,-2.85479 -2.88565,3.75898 3.37853,5.02661 4.53582,8.26577 4.75572,13.31043 0.57917,13.28637 -8.86586,26.426843 -21.40676,29.774773 -23.88006,6.37531 -43.11344,-25.777853 -27.2484,-45.551443 3.71009,-4.62525 3.80552,-5.45961 0.40921,-3.62955 z M 150.2127,127.2644 c -0.25494,0.14826 -1.72809,2.17261 -3.27577,4.49739 -3.39029,5.09668 -6.30444,8.47181 -9.64113,11.16841 -5.17618,4.18153 -5.16624,4.14126 -3.27577,14.93393 2.65267,15.1473 2.11952,15.1154 -14.04805,-0.84482 -3.50875,-3.46377 -4.37031,-4.18963 -4.48954,-3.78094 -0.27089,0.93634 -1.22816,6.13683 -1.50454,8.17242 -0.76743,5.66409 -1.75999,23.13983 -1.32829,23.41909 0.34358,0.2246 16.84584,0.80194 22.55961,0.78939 8.30421,-0.018 9.19976,-0.49863 7.49573,-4.03196 -1.72758,-3.58431 -1.06526,-8.62347 3.94201,-30.01638 4.87024,-20.80955 5.55296,-25.4612 3.56731,-24.30653 z m -89.68438,2.29733 c -0.50569,2.01572 0.78051,8.83867 6.21241,32.92582 2.77243,12.29799 3.08777,16.33387 1.47655,18.92562 -1.6873,2.71281 -1.24567,2.83806 11.03637,3.13876 9.26435,0.22722 13.03954,0.50726 15.13266,1.12722 2.89113,0.85476 3.02475,0.21467 3.02475,-14.44733 0,-19.68442 -0.50465,-20.12422 -11.14332,-9.69761 -10.19233,9.98759 -10.08172,10.08748 -9.69029,-8.73016 0.16499,-7.91513 0.29599,-7.5726 -4.83443,-12.54953 -2.15953,-2.09442 -4.83259,-4.93117 -5.94177,-6.30444 -4.11851,-5.10139 -4.92699,-5.77417 -5.27554,-4.38835 z"
     id="path5"
     style="stroke-width:0.261476" />
</svg>
