<?xml version="1.0" encoding="UTF-8" standalone="no"?>
<svg
   width="215"
   height="215"
   viewBox="0 0 56.885415 56.885418"
   version="1.1"
   id="svg8"
   inkscape:version="1.2.1 (9c6d41e, 2022-07-14)"
   sodipodi:docname="gitmob.svg"
   inkscape:export-filename="C:\Users\Abed\Desktop\Gitmob Runemark.png"
   inkscape:export-xdpi="96"
   inkscape:export-ydpi="96"
   xmlns:inkscape="http://www.inkscape.org/namespaces/inkscape"
   xmlns:sodipodi="http://sodipodi.sourceforge.net/DTD/sodipodi-0.dtd"
   xmlns="http://www.w3.org/2000/svg"
   xmlns:svg="http://www.w3.org/2000/svg"
   xmlns:rdf="http://www.w3.org/1999/02/22-rdf-syntax-ns#"
   xmlns:cc="http://creativecommons.org/ns#"
   xmlns:dc="http://purl.org/dc/elements/1.1/">
  <defs
     id="defs2">
    <pattern
       id="EMFhbasepattern"
       patternUnits="userSpaceOnUse"
       width="6"
       height="6"
       x="0"
       y="0" />
  </defs>
  <sodipodi:namedview
     id="base"
     pagecolor="#ffffff"
     bordercolor="#666666"
     borderopacity="1.0"
     inkscape:pageopacity="0.0"
     inkscape:pageshadow="2"
     inkscape:zoom="0.98994949"
     inkscape:cx="238.396"
     inkscape:cy="105.05587"
     inkscape:document-units="px"
     inkscape:current-layer="layer1"
     inkscape:document-rotation="0"
     showgrid="false"
     units="px"
     inkscape:window-width="1309"
     inkscape:window-height="456"
     inkscape:window-x="0"
     inkscape:window-y="38"
     inkscape:window-maximized="0"
     inkscape:showpageshadow="2"
     inkscape:pagecheckerboard="0"
     inkscape:deskcolor="#d1d1d1" />
  <metadata
     id="metadata5">
    <rdf:RDF>
      <cc:Work
         rdf:about="">
        <dc:format>image/svg+xml</dc:format>
        <dc:type
           rdf:resource="http://purl.org/dc/dcmitype/StillImage" />
        <dc:title />
      </cc:Work>
    </rdf:RDF>
  </metadata>
  <g
     inkscape:label="Layer 1"
     inkscape:groupmode="layer"
     id="layer1"
     transform="translate(0,-240.11457)">
    <path
       style="fill:#000000;stroke-width:0.523001"
       d="m 10.401817,296.43939 c -0.31831,-0.38354 -0.8326699,-1.36526 -1.1430499,-2.18161 -0.48342,-1.2715 -0.77658,-1.44182 -2.04499,-1.18814 -1.21623,0.24324 -1.68753,0.0158 -2.63884,-1.27036 -1.39749,-1.89023 -0.99476,-3.76225 1.15461,-5.36697 1.3756,-1.02704 1.40609,-1.02742 2.50641,-0.0318 1.11226,1.00634 1.11716,1.00409 3.3215699,-1.53675 l 2.20768,-2.54459 1.52893,0.8257 c 3.05598,1.65036 3.03997,1.55858 0.77255,4.42708 -2.39649,3.03179 -2.41443,3.08981 -1.32711,4.29128 0.59982,0.66281 0.69037,1.37352 0.37174,2.9177 -0.38503,1.86577 -0.58088,2.05496 -2.27602,2.19862 -1.08389,0.0919 -2.09526,-0.13261 -2.43348,-0.54014 z m 33.42315,-1.99516 c -1.61678,-0.99323 -1.73721,-1.24309 -1.45057,-3.00942 0.17193,-1.05945 0.55348,-2.00657 0.8479,-2.10471 1.03398,-0.34464 0.51256,-1.38597 -1.94168,-3.87768 l -2.47702,-2.51483 1.56178,-1.27609 c 0.85897,-0.70184 1.80694,-1.28453 2.10663,-1.29488 0.29966,-0.01 1.58016,1.03611 2.84554,2.32544 2.16208,2.20297 2.35781,2.29255 3.24835,1.48664 0.81083,-0.73379 1.24939,-0.76717 3.03819,-0.23124 1.95702,0.58634 2.09058,0.75196 2.09058,2.59275 0,2.5277 -0.74224,3.22161 -3.4459,3.22161 -2.0809,0 -2.20758,0.0899 -2.52712,1.79319 -0.18499,0.98625 -0.74074,2.2835 -1.23495,2.88277 l -0.89856,1.08959 z m -17.32635,-5.75927 c 0,-0.9334 -0.21789,-1.46522 -0.523,-1.27664 -0.28765,0.17786 -0.52301,0.78006 -0.52301,1.33838 0,0.55832 -0.23536,1.01512 -0.52301,1.01512 -0.28764,0 -0.52298,-0.35302 -0.52298,-0.78449 0,-0.43148 -0.23536,-0.78451 -0.52301,-0.78451 -0.28765,0 -0.523,0.23536 -0.523,0.52301 0,1.39216 -0.98236,0.26482 -1.55665,-1.78641 -0.56818,-2.02931 -0.53107,-2.50499 0.30603,-3.92206 0.87726,-1.48509 0.88576,-1.67955 0.10731,-2.45804 -0.77848,-0.77848 -0.91626,-0.73713 -1.74166,0.52258 -0.70006,1.06844 -0.46287,1.69804 -1.97866,1.69804 -1.56538,0 -2.3672,0.67554 -3.16867,-0.46229 -0.40075,-0.56893 -2.00637,-2.00386 -2.45283,-3.14685 -0.44646,-1.14298 0.26625,-1.99401 0.54061,-2.71568 0.44101,-1.15992 0.33204,-1.79961 -0.58435,-3.43009 -0.34383,-0.61178 -1.33253,-1.6932 -1.47213,-2.30984 0.0178,-1.49669 0.60106,-2.79375 1.04028,-3.95322 0.2684,-0.62239 0.73211,-0.54524 1.20433,-1.1685 0.72306,-0.95433 1.56982,-3.11611 1.91587,-4.89124 l 0.62014,-3.18107 4.49654,-2.7027 c 2.47311,-1.48649 4.8626,-2.69864 5.30997,-2.6937 0.44737,0.004 2.89282,0.44636 5.43431,0.98097 4.172,0.87759 4.78165,1.16265 6.276,2.93463 1.13502,1.34588 2.6004,2.05843 3.18857,3.15823 0.12609,1.82611 0.29913,2.58689 0.30217,3.36904 0.002,0.7236 0.5856,2.56254 1.29507,4.0865 l 1.28996,2.77085 -1.03358,1.92841 c -1.15615,2.15716 -1.28348,3.57197 -0.50561,5.61792 0.46304,1.21791 0.32768,1.57568 -1.10131,2.91054 -1.88817,1.76382 -2.15981,1.81133 -3.88651,0.67996 -2.34719,-1.53792 -3.68816,0.0593 -2.14944,2.56015 0.76572,1.24449 0.5754,5.60387 -0.24464,5.60387 -0.25743,0 -0.46807,-1.07263 -0.46807,-1.41526 0,-0.34263 -0.34553,0.62629 -0.76787,1.18455 -0.58956,0.77949 -0.77559,0.83304 -0.80112,0.23071 -0.0138,-0.30415 0.006,-1.02789 -0.11423,-0.99538 -0.12056,0.0326 -0.38109,0.82129 -0.67362,1.20781 -0.73066,0.96542 -0.77062,0.95714 -1.26418,-0.2615 l -0.50964,-1.25844 -0.34921,1.17676 c -0.1921,0.64721 -0.5571,1.17674 -0.81121,1.17674 -0.25409,0 -0.48704,-0.52953 -0.51763,-1.17674 -0.0512,-1.08384 -0.10059,-1.06319 -0.62397,0.2615 -0.75163,1.90212 -1.4124,1.82651 -1.4124,-0.16166 z m 1.569,-9.67552 c 0,-0.44844 -0.23536,-0.6699 -0.52301,-0.49214 -0.28765,0.17787 -0.523,0.54471 -0.523,0.81538 0,0.27067 0.23535,0.49214 0.523,0.49214 0.28765,0 0.52301,-0.36692 0.52301,-0.81538 z m 2.092,-0.52301 c 0,-0.41448 -0.23536,-0.75362 -0.52301,-0.75362 -0.28765,0 -0.52298,0.48459 -0.52298,1.07687 0,0.59227 0.23533,0.9314 0.52298,0.75363 0.28765,-0.17786 0.52301,-0.66237 0.52301,-1.07688 z m -4.86033,-2.12413 c 0.14308,-0.42953 -1.50979,-1.2869 -6.3113,-3.27361 -1.28416,-0.53132 0.5701,1.22016 2.72206,2.57123 2.42894,1.52495 3.26078,1.68774 3.58924,0.70238 z m 8.52773,-0.98979 1.23473,-1.31431 -1.66657,0.58097 c -0.9166,0.31953 -1.66656,0.91097 -1.66656,1.31429 0,1.09056 0.71373,0.89295 2.0984,-0.58095 z m 4.51043,-19.41555 c -0.75834,-0.75836 -1.37882,-1.70903 -1.37882,-2.11263 0,-0.4036 0.82658,-1.96013 1.83684,-3.45894 1.61981,-2.40311 1.73957,-2.79655 1.01352,-3.32954 -0.58223,-0.42743 -0.77553,-1.26971 -0.6601,-2.87651 0.14467,-2.01366 0.38206,-2.38926 2.08712,-3.30222 1.88218,-1.00777 1.9474,-1.00886 3.00727,-0.0496 0.6845,0.61947 1.08336,1.62453 1.08336,2.72987 0,1.6785 0.081,1.74945 1.99712,1.74945 1.73253,0 2.10202,0.22151 2.7889,1.67187 0.75455,1.59326 0.7301,1.74107 -0.52028,3.14441 -1.09,1.22335 -1.5951,1.41945 -2.98455,1.1588 -1.56082,-0.29283 -1.83605,-0.10119 -4.12241,2.87009 -1.34745,1.75113 -2.52174,3.18386 -2.60953,3.18386 -0.0877,0 -0.78008,-0.62048 -1.53844,-1.37882 z m -26.0084,-1.86069 -2.6045699,-2.71651 -1.49988,0.88601 c -1.90418,1.1248 -2.80541,1.11787 -3.80223,-0.0293 -2.227889,-2.56388 -1.41225,-4.65624 2.27639,-5.83953 1.6555,-0.53108 1.98147,-0.91605 2.49179,-2.94263 0.54933,-2.18159 0.70028,-2.33161 2.3460299,-2.33161 1.94153,0 2.67467,0.61907 3.19681,2.69942 0.22729,0.90563 0.051,1.83913 -0.50858,2.69318 -0.82767,1.26317 -0.79838,1.37463 0.87091,3.3162 0.95006,1.10498 2.25693,2.43884 2.90412,2.9641 0.64722,0.52528 1.17676,1.15006 1.17676,1.38842 0,0.39763 -3.37957,2.62871 -3.98188,2.62871 -0.14368,0 -1.43315,-1.22244 -2.86567,-2.71651 z"
       id="path884"
       sodipodi:nodetypes="ssscssscsssssssssscscssssssscsccssssssssssssssccsscscssccscsssssssccssscssscccscsssssscscsscscsssssssssssssssssssscssssssssssss" />
  </g>
</svg>
