<?xml version="1.0" encoding="UTF-8" standalone="no"?>
<svg
   width="215"
   height="215"
   viewBox="0 0 56.885415 56.885415"
   version="1.1"
   id="svg8"
   inkscape:version="1.2.1 (9c6d41e, 2022-07-14)"
   sodipodi:docname="moonclan.svg"
   inkscape:export-filename="C:\Users\Abed\Desktop\Moonclan Runemark.png"
   inkscape:export-xdpi="96"
   inkscape:export-ydpi="96"
   xmlns:inkscape="http://www.inkscape.org/namespaces/inkscape"
   xmlns:sodipodi="http://sodipodi.sourceforge.net/DTD/sodipodi-0.dtd"
   xmlns="http://www.w3.org/2000/svg"
   xmlns:svg="http://www.w3.org/2000/svg"
   xmlns:rdf="http://www.w3.org/1999/02/22-rdf-syntax-ns#"
   xmlns:cc="http://creativecommons.org/ns#"
   xmlns:dc="http://purl.org/dc/elements/1.1/">
  <defs
     id="defs2" />
  <sodipodi:namedview
     id="base"
     pagecolor="#ffffff"
     bordercolor="#666666"
     borderopacity="1.0"
     inkscape:pageopacity="0.0"
     inkscape:pageshadow="2"
     inkscape:zoom="0.24748737"
     inkscape:cx="-24.243661"
     inkscape:cy="274.76149"
     inkscape:document-units="px"
     inkscape:current-layer="layer1"
     inkscape:document-rotation="0"
     showgrid="false"
     inkscape:window-width="1309"
     inkscape:window-height="456"
     inkscape:window-x="0"
     inkscape:window-y="38"
     inkscape:window-maximized="0"
     inkscape:snap-global="false"
     units="px"
     inkscape:showpageshadow="2"
     inkscape:pagecheckerboard="0"
     inkscape:deskcolor="#d1d1d1" />
  <metadata
     id="metadata5">
    <rdf:RDF>
      <cc:Work
         rdf:about="">
        <dc:format>image/svg+xml</dc:format>
        <dc:type
           rdf:resource="http://purl.org/dc/dcmitype/StillImage" />
        <dc:title />
      </cc:Work>
    </rdf:RDF>
  </metadata>
  <g
     inkscape:label="Layer 1"
     inkscape:groupmode="layer"
     id="layer1"
     transform="translate(0,-240.11459)">
    <path
       style="fill:#000000;fill-opacity:1;stroke:none;stroke-width:1.62358px;stroke-linecap:butt;stroke-linejoin:miter;stroke-opacity:1"
       d="m 40.639815,293.80424 c 4.97813,-3.13019 11.66251,-8.22199 14.40268,-15.32017 1.39592,-7.42645 3.23933,-16.7948 0.19199,-24.07456 -7.81779,-8.96353 -13.98635,-12.06617 -18.03656,-12.06617 -6.49964,0 -20.91634,4.36419 -28.0520697,7.03253 l 23.4284297,2.84522 0.19199,9.6298 1.53629,2.18861 3.07257,-1.09434 c 0,0 2.47271,-1.96974 4.60887,-1.96974 2.13616,0 6.14516,0.69603 6.14516,5.90924 0,3.13405 -5.24116,4.35934 -7.4894,4.59603 -2.24825,0.23648 -4.80092,-1.75088 -4.80092,-1.75088 v -2.62629 c -4.73411,-1.85655 -10.28659,-2.13975 -13.25047,-1.31314 -2.96388,0.8266 -4.22478,3.06402 -4.22478,3.06402 l 8.44962,0.87541 5.76107,3.28288 -5.56909,5.69038 c 3.84357,-0.88747 6.01554,-1.49547 9.21774,-1.09434 0,0 0.35523,2.0589 1.44823,2.96647 1.70086,-0.93881 3.72182,-1.08255 5.77159,-0.90927 -1.48071,0.94667 -1.04293,1.99516 -1.59251,3.08053 -0.77409,1.52801 -1.46334,3.16038 -2.36269,4.27326 -4.70486,4.5051 -5.19413,-2.97126 -4.92294,-6.68298 -2.86185,2.84797 -4.52069,4.51146 -6.59908,6.68298 0,0 -2.88749,-1.96713 -3.64871,-2.84515 -0.76122,-0.87803 -1.15221,-1.96974 -1.15221,-1.96974 0,0 -0.41213,-2.28984 3.98049,-6.78694 -1.58216,-1.01508 -5.98961,4.50602 -7.37122,6.3492 -3.64773,-1.11394 -5.68451,-1.70313 -8.70754,-2.62629 -2.5843297,-0.7892 -4.5766797,-3.44083 -11.05283667,-14.68184 -0.474792,20.75039 11.68696667,24.7062 17.58208667,27.15678 6.38864,2.47687 15.3503,4.39014 23.04422,2.1885 z"
       id="path847"
       sodipodi:nodetypes="cccsccccczczccccccccccsccczcccsccc" />
  </g>
</svg>
