<?xml version="1.0" encoding="UTF-8" standalone="no"?>
<svg
   xmlns:dc="http://purl.org/dc/elements/1.1/"
   xmlns:cc="http://creativecommons.org/ns#"
   xmlns:rdf="http://www.w3.org/1999/02/22-rdf-syntax-ns#"
   xmlns:svg="http://www.w3.org/2000/svg"
   xmlns="http://www.w3.org/2000/svg"
   xmlns:sodipodi="http://sodipodi.sourceforge.net/DTD/sodipodi-0.dtd"
   xmlns:inkscape="http://www.inkscape.org/namespaces/inkscape"
   width="215"
   height="215"
   viewBox="0 0 56.885415 56.885418"
   version="1.1"
   id="svg8"
   inkscape:version="1.0.2-2 (e86c870879, 2021-01-15)"
   sodipodi:docname="sons_of_behemat.svg">
  <defs
     id="defs2">
    <pattern
       id="EMFhbasepattern"
       patternUnits="userSpaceOnUse"
       width="6"
       height="6"
       x="0"
       y="0" />
  </defs>
  <sodipodi:namedview
     id="base"
     pagecolor="#ffffff"
     bordercolor="#666666"
     borderopacity="1.0"
     inkscape:pageopacity="0.0"
     inkscape:pageshadow="2"
     inkscape:zoom="0.49816499"
     inkscape:cx="461.12914"
     inkscape:cy="747.30306"
     inkscape:document-units="px"
     inkscape:current-layer="layer1"
     inkscape:document-rotation="0"
     showgrid="false"
     units="px"
     inkscape:window-width="1920"
     inkscape:window-height="1017"
     inkscape:window-x="-8"
     inkscape:window-y="-8"
     inkscape:window-maximized="1" />
  <metadata
     id="metadata5">
    <rdf:RDF>
      <cc:Work
         rdf:about="">
        <dc:format>image/svg+xml</dc:format>
        <dc:type
           rdf:resource="http://purl.org/dc/dcmitype/StillImage" />
        <dc:title></dc:title>
      </cc:Work>
    </rdf:RDF>
  </metadata>
  <g
     inkscape:label="Layer 1"
     inkscape:groupmode="layer"
     id="layer1"
     transform="translate(0,-240.11457)">
    <path
       style="fill:#000000;stroke-width:0.20718;fill-opacity:1"
       d="m 26.632327,296.77476 c -2.06021,-0.42433 -4.31076,-1.37167 -5.36654,-2.25897 -1.07835,-0.90627 -1.76787,-2.1752 -2.21499,-4.07625 -0.16849,-0.71644 -0.39621,-1.63975 -0.50602,-2.05178 -0.28567,-1.07184 -0.24109,-2.5523 0.12715,-4.22316 1.20413,-5.46367 1.61561,-9.50583 1.1006,-10.81169 -0.1265,-0.32078 -0.36085,-1.12939 -0.52076,-1.79693 -0.15992,-0.66754 -0.60119,-1.83293 -0.98062,-2.58976 -0.86606,-1.72756 -1.11082,-2.84731 -1.26268,-5.77669 -0.13721,-2.64659 -0.32412,-3.20741 -1.25124,-3.75443 -0.7946,-0.46882 -1.37819,-2.0833 -0.94273,-2.608 0.19999,-0.24098 0.18416,-0.39969 -0.0771,-0.77263 -0.47373,-0.67634 -0.41133,-0.92716 0.32159,-1.2928 0.60912,-0.30386 0.67249,-0.29889 0.99977,0.0785 0.21873,0.25219 0.50639,0.36186 0.76904,0.29317 0.5314,-0.13896 1.10291,0.41522 1.10291,1.06946 0,0.62727 0.71801,1.06741 1.15273,0.70663 0.39522,-0.32801 0.40025,-3.10392 0.008,-4.40731 -0.38311,-1.27299 -0.0974,-2.46959 0.7303,-3.05899 0.35452,-0.25244 0.59515,-0.6129 0.59515,-0.89151 0,-0.48624 0.77668,-1.36868 1.20464,-1.36868 0.13509,0 0.24562,-0.0932 0.24562,-0.20718 0,-0.11395 0.23308,-0.20718 0.51795,-0.20718 0.49374,0 0.51796,0.0569 0.51796,1.21771 0,0.80543 0.1007,1.3013 0.29744,1.46458 0.5293,0.43927 0.57507,1.33487 0.12641,2.47314 -0.54109,1.37273 -0.54614,2.33536 -0.0148,2.81623 0.35393,0.3203 0.49355,0.33521 1.0359,0.11056 0.34475,-0.1428 0.63753,-0.41148 0.65062,-0.59707 0.0877,-1.24305 -0.0552,-3.24844 -0.30896,-4.33615 -0.39259,-1.68288 -0.0969,-2.99982 0.7327,-3.26312 0.27186,-0.0863 0.38119,-0.32341 0.38119,-0.82683 0,-0.58138 0.11445,-0.76504 0.64903,-1.04148 0.51671,-0.26721 0.68244,-0.28157 0.81293,-0.0704 0.13257,0.21451 0.22705,0.21277 0.49434,-0.009 0.47037,-0.39038 1.1296,0.21789 0.99564,0.91867 -0.0582,0.30435 0.0903,0.80577 0.37519,1.26665 0.57375,0.92836 0.59493,2.29185 0.0562,3.62207 -0.52137,1.28744 -0.51298,3.5204 0.0154,4.10505 0.43416,0.48038 0.98933,0.54657 1.90553,0.22718 0.47608,-0.16596 0.74043,-0.52124 1.27178,-1.70924 0.81888,-1.83089 0.79604,-2.50659 -0.11728,-3.46794 -0.3789,-0.39882 -1.00399,-1.40342 -1.38909,-2.23245 l -0.70018,-1.50734 0.32958,-1.02046 c 0.317,-0.98152 0.31157,-1.06481 -0.14205,-2.18248 -0.3089,-0.76107 -0.40137,-1.23227 -0.26803,-1.36562 0.13335,-0.13335 0.29908,-0.0886 0.4803,0.1298 0.2456,0.29592 0.30167,0.25616 0.49881,-0.35379 0.12217,-0.37795 0.31535,-0.69523 0.4293,-0.70508 0.11394,-0.01 0.35967,-0.0857 0.54606,-0.16846 0.43489,-0.19322 1.54277,-0.19901 2.41804,-0.0126 0.53852,0.11467 0.75078,0.31001 0.99205,0.913 0.22903,0.5724 0.52605,0.86378 1.17021,1.14798 1.69371,0.74727 2.86806,2.54574 2.97677,4.55883 0.037,0.68466 0.13455,1.66439 0.21682,2.17716 0.0823,0.51277 0.16468,1.07216 0.18311,1.24309 0.0185,0.17092 0.41871,1.11773 0.8895,2.10404 0.47079,0.9863 0.88084,2.10507 0.91122,2.48616 0.0304,0.38109 0.17177,0.81609 0.3142,0.96666 0.163,0.69577 0.47378,1.23559 0.25939,2.21239 -0.0267,0.11396 -0.0676,0.62672 -0.0906,1.13949 -0.0471,1.04786 -0.82882,2.72423 -1.77023,3.79643 -0.70022,0.79751 -1.65647,2.72831 -1.65976,3.3513 -0.003,0.65735 -1.11066,2.81368 -1.96801,3.83284 -0.43136,0.51276 -1.16768,1.72477 -1.63626,2.69334 l -0.85196,1.76103 0.008,2.48616 c 0.007,2.34208 0.2605,4.60456 0.75365,6.73336 0.41459,1.78967 0.52781,3.42911 0.33624,4.86874 -0.37509,2.81873 -1.2669,4.67614 -3.06906,6.39198 -1.037,0.98734 -1.38774,1.18576 -2.61713,1.48051 -0.7808,0.18721 -1.51286,0.36663 -1.62681,0.39872 -0.11396,0.0321 -0.81319,-0.0665 -1.55386,-0.21901 z"
       id="path846"
       sodipodi:nodetypes="ssssssssssscssssssssssssssssssssssssssssssscssssssssssssssccccscssccsssscss" />
  </g>
</svg>
