<?xml version="1.0" encoding="UTF-8" standalone="no"?>
<!-- Created with Inkscape (http://www.inkscape.org/) -->

<svg
   width="215"
   height="215"
   viewBox="0 0 56.885415 56.885416"
   version="1.1"
   id="svg5"
   xml:space="preserve"
   inkscape:version="1.2.1 (9c6d41e, 2022-07-14)"
   sodipodi:docname="Spiderfang Runemark.svg"
   inkscape:export-filename="Spiderfang Runemark.png"
   inkscape:export-xdpi="96"
   inkscape:export-ydpi="96"
   xmlns:inkscape="http://www.inkscape.org/namespaces/inkscape"
   xmlns:sodipodi="http://sodipodi.sourceforge.net/DTD/sodipodi-0.dtd"
   xmlns="http://www.w3.org/2000/svg"
   xmlns:svg="http://www.w3.org/2000/svg"><sodipodi:namedview
     id="namedview7"
     pagecolor="#ffffff"
     bordercolor="#000000"
     borderopacity="0.25"
     inkscape:showpageshadow="2"
     inkscape:pageopacity="0.0"
     inkscape:pagecheckerboard="0"
     inkscape:deskcolor="#d1d1d1"
     inkscape:document-units="px"
     showgrid="false"
     inkscape:zoom="0.84096521"
     inkscape:cx="439.37608"
     inkscape:cy="101.66889"
     inkscape:window-width="1728"
     inkscape:window-height="969"
     inkscape:window-x="0"
     inkscape:window-y="38"
     inkscape:window-maximized="0"
     inkscape:current-layer="layer1" /><defs
     id="defs2" /><g
     inkscape:label="Layer 1"
     inkscape:groupmode="layer"
     id="layer1"><g
       id="g3949"
       style="fill:#000000;fill-opacity:1"
       transform="matrix(1.3361799,0,0,1.3361799,-147.61564,-189.9628)"><path
         id="path237"
         style="fill:#000000;fill-opacity:1;stroke:none;stroke-width:0.264583"
         d="m 139.04061,142.16858 c 3.12293,2.87148 5.45731,4.44591 7.30911,8.40724 0.92004,0.40009 2.05799,0.49105 3.00499,-0.0222 -1.83801,-5.14769 -5.01054,-7.05336 -10.3141,-8.38502 z m -14.42186,0.16692 c -5.88463,2.01414 -8.11833,3.60849 -9.51466,8.8501 0.8736,0.54171 1.92318,0.44554 2.77192,0.0233 1.70831,-4.18107 3.86183,-5.8426 6.74274,-8.87336 z m 9.64231,0.50126 c 3.18363,2.11234 5.1011,4.28973 6.85901,7.43727 1.09623,0.26759 2.15379,0.22422 3.28145,0.11007 -2.43906,-5.11126 -3.40443,-6.40723 -10.14046,-7.54734 z m -2.98639,0.0786 c -7.0239,0.75785 -7.76053,2.14655 -9.9105,7.74785 1.08117,0.12226 2.09503,0.16829 3.14606,-0.11834 1.27067,-3.70848 3.71207,-5.36688 6.76444,-7.62951 z m 9.07387,7.68067 c 0.0722,1.90645 0.0839,3.80767 -0.0584,5.71128 1.26043,0.31174 2.48231,0.27171 3.48093,0 0.70998,-1.88187 0.93993,-3.42901 1.18959,-5.39813 -1.79153,0.43289 -2.83063,0.11722 -4.61212,-0.31315 z m -15.0983,0.29352 c -1.70804,0.46099 -3.23243,0.6306 -4.95009,0.16691 0.23936,2.10922 0.68627,4.06168 1.66863,5.95106 0.95745,0.29106 2.12829,0.33393 3.33675,0 -0.1364,-2.03904 -0.12449,-4.07587 -0.0553,-6.11797 z m 25.0486,0.38137 c -1.61833,0.5755 -2.85923,0.6456 -4.39043,0.28474 -0.0811,2.23824 -0.99726,4.34374 -2.06189,6.24044 0.83595,1.18915 2.78027,0.92274 4.39508,0.65164 1.21362,-1.60394 1.81658,-4.85835 2.05724,-7.17682 z m -36.0655,0.67128 c 0.22201,2.44706 0.77799,5.88234 1.89756,7.57525 1.48966,0.28613 3.28336,0.56729 4.05453,-0.68782 -0.98213,-2.0019 -1.82741,-4.22376 -1.90221,-6.58616 -1.41253,0.38088 -2.55697,0.30615 -4.04988,-0.30127 z m 29.22767,4.93045 c -1.56719,0.26121 -2.50767,0.18641 -3.53932,0.006 -0.11526,0.99511 -0.41989,1.90191 -1.37097,2.85512 2.98732,-0.93104 4.17517,-1.62516 4.91029,-2.86132 z m -17.80201,0.74672 c -1.44159,0.23516 -2.83368,0.23142 -4.52479,0.0362 0.70485,1.32419 -0.15413,2.06732 5.83995,3.02256 -0.91226,-1.02123 -1.20463,-1.99262 -1.31516,-3.05873 z m 17.61701,0.95395 c -0.39229,0.92197 -3.27774,1.87259 -4.46019,2.51767 2.14797,0.33327 5.47315,0.10432 7.41143,-1.68827 -1.57703,-0.19307 -2.01279,-0.36454 -2.95124,-0.8294 z m -22.564,1.07693 c -0.86572,0.49065 -1.26801,0.67111 -2.72283,0.87489 1.78808,1.89201 4.85527,2.13407 6.83679,1.78232 -1.09082,-0.68087 -3.75207,-1.6841 -4.11396,-2.65721 z m 6.98769,1.18236 c -2.07788,1.46792 -5.98057,5.48705 -7.23263,8.46615 0.63617,2.00909 2.23579,2.03744 3.55947,1.9327 0.1913,-0.95196 1.22686,-1.96129 2.05775,-2.65565 -0.21608,-2.10722 0.45566,-3.69026 2.4474,-5.45032 l 0.30541,-1.00097 c -0.40898,-0.31854 -0.84204,-0.99107 -1.1374,-1.29191 z m 8.83822,0.55604 c -0.29536,0.30084 -0.70103,0.69538 -1.11001,0.87488 l 0.16691,1.13998 c 1.99174,1.76006 2.32965,2.95391 2.11357,5.78415 0.60842,0.19381 1.31029,0.31346 2.05776,0.93172 1.60176,-0.3402 2.64515,-0.70231 2.94762,-2.54455 -1.86386,-2.31168 -4.09797,-4.71826 -6.17585,-6.18618 z m 2.16938,1.0728 c 1.62655,1.47929 3.27976,2.65717 4.83743,4.48293 0.32078,-1.28194 0.78604,-1.98241 1.76991,-2.83135 -2.13125,-1.11127 -4.20443,-1.65658 -6.60734,-1.65158 z m -15.25024,1.16789 c -2.40291,-0.005 -5.01249,0.93667 -7.14375,2.04794 0.8659,0.495 1.58999,1.22852 1.69447,2.4908 1.89137,-1.3252 3.82273,-3.05945 5.44928,-4.53874 z m 22.26273,0.88057 c -0.88408,0.37373 -1.39289,1.4464 -1.53324,2.43861 1.45133,1.03572 2.257,1.81037 2.96519,3.2799 0.92325,-0.39079 2.24139,-0.42986 3.30523,-0.34985 l 0.75964,-0.60513 c 0.1495,-3.15441 -2.16054,-4.4271 -5.49682,-4.76353 z m -29.3362,2.03346 c -2.70845,0.29458 -4.71456,1.06362 -3.89795,3.99666 l 0.69453,0.35088 c 0.85814,-0.17205 3.07842,-0.39766 3.87987,-0.21807 0.007,-0.95962 0.0134,-1.7114 0.37465,-2.60811 0.0969,-0.83287 -0.28371,-1.34973 -1.0511,-1.52136 z m 26.83092,1.4764 c -0.28736,1.1865 -0.99214,2.12276 -2.61431,2.39158 0.22247,2.36374 0.13901,3.92106 -0.75086,6.25699 1.22852,0.21625 1.99801,0.90803 2.86443,1.80764 l 1.75183,0.0832 c 0.2688,-3.39265 0.37086,-6.70196 0.0279,-9.98337 z m 6.11643,2.35283 c -0.8632,0.0108 -1.86016,0.31284 -2.24483,0.58756 -0.17896,3.77509 -0.67613,6.1056 -1.80971,9.64024 4.15284,-3.90581 5.20071,-6.1706 4.96197,-10.08724 -0.25215,-0.10417 -0.56966,-0.14477 -0.90743,-0.14056 z m -28.97756,0.3948 -0.84646,0.50902 c 0.95294,2.21169 1.26867,4.32104 2.82877,6.43888 0.6185,-0.68539 1.66897,-1.27178 3.02823,-1.31568 -1.2033,-1.55215 -1.40148,-2.72786 -1.43918,-4.5992 -1.59989,0.26574 -2.84745,-0.34472 -3.57136,-1.03302 z m -4.36408,0.31936 c -0.7128,0.003 -1.52636,0.14653 -1.99006,0.50592 0.7114,4.05952 2.27389,6.10634 7.24504,9.04234 -1.95135,-3.32185 -2.99558,-5.57525 -4.07831,-9.38444 -0.24841,-0.10346 -0.68896,-0.16618 -1.17667,-0.16382 z m 8.56744,6.00946 c -0.45187,-0.002 -1,0.16501 -1.40612,0.60513 -0.25127,2.79134 1.58193,5.00695 5.24929,7.0404 0.29625,-0.45487 0.56443,-0.89392 0.79737,-1.56838 -2.25718,-2.5268 -3.54666,-4.34907 -4.22971,-6.02289 -0.12038,-0.0342 -0.26021,-0.0537 -0.41083,-0.0543 z m 15.58613,0.2899 c -1.59269,1.31791 -3.97653,2.45306 -7.84087,3.77031 -0.0366,0.8097 0.0786,1.40076 0.21963,2.02314 5.31394,-0.0452 8.52827,-1.27988 9.52861,-4.24005 -0.3716,-0.8903 -1.27039,-1.42747 -1.90737,-1.5534 z"
         sodipodi:nodetypes="cccccccccccccccccccccccccccccccccccccccccccccccccccccccccccccccccccccccccccccccccccccccccccccscccsccccccscccssccccsccccc" /><path
         id="path2866"
         style="fill:#000000;fill-opacity:1;stroke:none;stroke-width:0.264927"
         d="m 132.10046,162.89393 a 5.1518803,5.2444392 0 0 0 -5.15162,5.24407 5.1518803,5.2444392 0 0 0 5.15162,5.2446 5.1518803,5.2444392 0 0 0 5.15214,-5.2446 5.1518803,5.2444392 0 0 0 -5.15214,-5.24407 z m -3.10988,7.15031 c 0.71647,0.17949 1.3809,0.44833 2.21588,1.19068 -1.22448,0.0172 -1.68448,-0.35598 -2.21588,-1.19068 z m 6.21977,0 c -0.5314,0.8347 -0.99141,1.20784 -2.21588,1.19068 0.83498,-0.74235 1.49941,-1.01119 2.21588,-1.19068 z" /><path
         id="path3632"
         style="fill:#000000;fill-opacity:1;stroke:none;stroke-width:0.350361"
         d="m 132.88698,144.01653 a 6.5676641,9.2025957 0 0 0 -6.56756,9.20254 6.5676641,9.2025957 0 0 0 6.56756,9.20306 6.5676641,9.2025957 0 0 0 6.56756,-9.20306 6.5676641,9.2025957 0 0 0 -6.56756,-9.20254 z m -0.017,8.03672 c 0.006,0.009 0.011,0.0189 0.017,0.0279 0.006,-0.009 0.0111,-0.0189 0.0171,-0.0279 v 0.0558 c 0.54764,0.91265 0.59277,1.68976 0,2.64428 v 0.0532 c -0.006,-0.009 -0.0111,-0.0179 -0.0171,-0.0269 -0.006,0.009 -0.011,0.0179 -0.017,0.0269 v -0.0543 c -0.59213,-0.95407 -0.54745,-1.73091 0,-2.64325 z m 0,4.23333 c 0.006,0.009 0.011,0.0189 0.017,0.0279 0.006,-0.009 0.0111,-0.0189 0.0171,-0.0279 v 0.0558 c 0.54764,0.91263 0.59277,1.68975 0,2.64428 v 0.0532 c -0.006,-0.009 -0.0111,-0.0179 -0.0171,-0.0269 -0.006,0.009 -0.011,0.0179 -0.017,0.0269 v -0.0543 c -0.59213,-0.95405 -0.54745,-1.73092 0,-2.64324 z" /><path
         id="path3609"
         style="fill:#000000;fill-opacity:1;stroke:none;stroke-width:0.264583"
         d="m 127.11886,171.35698 c 0.23174,3.17018 0.15523,5.0996 3.33468,5.73919 -0.94549,-1.42751 -1.39358,-2.3377 -1.33222,-3.93206 -0.69522,-0.46348 -1.33505,-0.95433 -2.00246,-1.80713 z m 9.96373,0 c -0.66741,0.8528 -1.30724,1.34365 -2.00246,1.80713 -0.52837,1.90025 -1.39042,3.02206 -2.66961,4.36614 3.42973,-0.52836 4.30129,-1.91855 4.67207,-6.17327 z" /></g></g></svg>
