<?xml version="1.0" encoding="UTF-8" standalone="no"?>
<svg
   xmlns:dc="http://purl.org/dc/elements/1.1/"
   xmlns:cc="http://creativecommons.org/ns#"
   xmlns:rdf="http://www.w3.org/1999/02/22-rdf-syntax-ns#"
   xmlns:svg="http://www.w3.org/2000/svg"
   xmlns="http://www.w3.org/2000/svg"
   xmlns:sodipodi="http://sodipodi.sourceforge.net/DTD/sodipodi-0.dtd"
   xmlns:inkscape="http://www.inkscape.org/namespaces/inkscape"
   width="215.00002"
   height="170.38596"
   viewBox="0 0 56.885419 45.081285"
   version="1.1"
   id="svg8"
   inkscape:version="1.0.2-2 (e86c870879, 2021-01-15)"
   sodipodi:docname="fyreslayers 2.svg">
  <defs
     id="defs2">
    <pattern
       id="EMFhbasepattern"
       patternUnits="userSpaceOnUse"
       width="6"
       height="6"
       x="0"
       y="0" />
  </defs>
  <sodipodi:namedview
     id="base"
     pagecolor="#ffffff"
     bordercolor="#666666"
     borderopacity="1.0"
     inkscape:pageopacity="0.0"
     inkscape:pageshadow="2"
     inkscape:zoom="0.92475219"
     inkscape:cx="-39.177973"
     inkscape:cy="12.219598"
     inkscape:document-units="px"
     inkscape:current-layer="layer1"
     inkscape:document-rotation="0"
     showgrid="false"
     units="px"
     fit-margin-top="0"
     fit-margin-left="0"
     fit-margin-right="0"
     fit-margin-bottom="0"
     inkscape:window-width="1920"
     inkscape:window-height="1017"
     inkscape:window-x="-8"
     inkscape:window-y="-8"
     inkscape:window-maximized="1" />
  <metadata
     id="metadata5">
    <rdf:RDF>
      <cc:Work
         rdf:about="">
        <dc:format>image/svg+xml</dc:format>
        <dc:type
           rdf:resource="http://purl.org/dc/dcmitype/StillImage" />
        <dc:title></dc:title>
      </cc:Work>
    </rdf:RDF>
  </metadata>
  <g
     inkscape:label="Layer 1"
     inkscape:groupmode="layer"
     id="layer1"
     transform="translate(-78.406731,-61.618291)">
    <path
       style="fill:#000000;stroke-width:0.183797"
       d="m 109.97395,106.66359 c -0.40823,-0.058 -0.41387,-0.097 -0.43818,-3.03266 -0.0135,-1.63565 -0.005,-3.61666 0.019,-4.402227 0.037,-1.208403 -0.0342,-1.611636 -0.46244,-2.619108 l -0.50609,-1.19081 h -1.58366 -1.58367 l -0.59019,0.986737 -0.59019,0.986737 0.0181,4.113641 c 0.01,2.2625 0.008,4.34108 -0.004,4.61908 -0.022,0.50114 -0.0331,0.50544 -1.30872,0.50544 h -1.28659 v -0.53636 c 0,-0.79792 -0.16678,-1.09786 -0.80341,-1.44484 -0.47835,-0.26072 -1.228821,-0.32401 -4.462225,-0.37636 l -3.887158,-0.0629 -0.125288,-0.83549 c -0.299545,-1.99586 -1.018642,-2.44988 -4.095529,-2.58566 l -2.073648,-0.0915 0.03491,-0.57153 C 86.296202,99.287343 86.086674,98.809993 85.562645,98.571234 84.9738,98.302937 84.46696,98.302208 84.03968,98.569174 83.631867,98.82386 83.446541,98.7249 82.174106,97.573037 l -0.970487,-0.878524 0.330996,-0.614625 c 0.324731,-0.60299 0.3232,-0.627236 -0.0809,-1.28109 -0.402573,-0.651378 -0.619038,-0.756977 -1.417367,-0.691448 -0.334154,0.02741 -0.439608,-0.143101 -0.712951,-1.152919 -0.317173,-1.171725 -0.316377,-1.190712 0.07052,-1.682562 0.667939,-0.849151 0.371082,-1.940571 -0.546198,-2.008147 -0.433488,-0.03191 -0.440988,-0.06334 -0.440988,-1.847613 v -1.815125 l 1.892596,-0.04273 c 1.867865,-0.04218 1.894885,-0.0367 2.06772,0.417892 0.09632,0.253341 0.175125,0.699321 0.175125,0.991073 0,0.76614 0.466989,2.444665 1.010323,3.631465 0.909606,1.986843 2.789285,3.736481 4.052661,3.772291 0.342905,0.0097 0.688031,-0.04738 0.766947,-0.126923 0.162148,-0.163407 0.138782,-2.56015 -0.02923,-2.997979 -0.08161,-0.212674 -0.272504,-0.258897 -0.749534,-0.181491 l -0.640033,0.103864 v -1.642708 c 0,-1.5868 0.01422,-1.642617 0.418597,-1.642617 0.230228,0 0.581741,-0.11194 0.781138,-0.248756 0.199398,-0.136815 0.817441,-0.301839 1.373428,-0.366715 0.555986,-0.06487 1.238334,-0.169359 1.516328,-0.232168 0.415302,-0.09384 0.505442,-0.0514 0.505442,0.238058 0,0.53658 0.368843,0.793376 1.139543,0.793376 0.453367,0 0.827411,-0.128985 1.066023,-0.367598 0.333792,-0.333791 0.367597,-0.612654 0.367597,-3.032657 v -2.665083 l -1.332531,0.0028 c -1.462084,0.0028 -1.715326,0.09225 -1.819049,0.640472 -0.06567,0.347119 -0.235814,0.370414 -3.053918,0.418101 l -2.984369,0.05051 -0.0074,-0.877593 c -0.0041,-0.482671 -0.01789,-1.519246 -0.03064,-2.3035 -0.01997,-1.228312 0.032,-1.484657 0.375052,-1.849819 0.75846,-0.807347 0.312434,-2.146288 -0.714968,-2.146288 -0.53818,0 -0.54097,-0.0055 -0.54097,-1.09416 0,-1.066113 0.01621,-1.101854 0.632124,-1.394126 1.350425,-0.64082 0.952094,-2.707184 -0.481925,-2.50001 -0.383583,0.05543 -0.467804,-0.609637 -0.322598,-2.547399 0.137671,-1.837207 0.800484,-3.555766 1.737794,-4.505798 0.717581,-0.727327 2.785146,-2.048966 2.949021,-1.885095 0.04481,0.04482 -0.09666,0.570615 -0.31437,1.168465 -0.348532,0.957081 -0.398011,1.493363 -0.414019,4.487242 -0.01676,3.135113 0.01608,3.49938 0.421217,4.67157 0.523867,1.515722 1.555955,2.661905 2.706481,3.005672 0.416082,0.124322 1.473559,0.226043 2.349947,0.226043 h 1.593437 l 0.35948,-0.838635 c 0.197711,-0.461249 0.486974,-0.966127 0.642802,-1.121958 0.155828,-0.15583 0.439065,-0.584857 0.629414,-0.95339 0.627766,-1.215436 3.381363,-3.455585 5.112036,-4.158812 1.31687,-0.535096 5.21502,-1.100036 6.53587,-0.947209 0.88879,0.102831 1.23853,0.189317 3.00698,0.743518 0.96604,0.302741 4.0473,2.437887 4.35663,3.018908 0.0896,0.168263 0.48245,0.727119 0.87304,1.241895 0.39059,0.514784 0.71015,1.01328 0.71015,1.107778 0,0.265204 1.05203,1.35489 1.32218,1.369493 2.43148,0.131474 4.25223,-0.24777 5.16983,-1.076838 0.53036,-0.479176 1.14426,-1.838865 1.40875,-3.12013 0.30696,-1.487015 0.1375,-6.687175 -0.26452,-8.117063 -0.15425,-0.548623 -0.23901,-1.038946 -0.18835,-1.089602 0.0506,-0.05064 0.5667,0.134978 1.14679,0.412509 0.77675,0.371627 1.29418,0.804086 1.96347,1.641001 1.18115,1.476977 1.37089,2.055778 1.38061,4.211493 0.008,1.742951 -0.003,1.791373 -0.43789,1.900454 -1.4056,0.352785 -1.43961,2.343194 -0.0483,2.828197 0.38108,0.132848 0.50302,0.271162 0.42296,0.479771 -0.0619,0.161215 -0.11247,0.658545 -0.11247,1.10517 0,0.563643 -0.0768,0.812058 -0.25091,0.812058 -0.13801,0 -0.46883,0.171419 -0.73519,0.380937 -0.66359,0.521978 -0.67621,1.506599 -0.0247,1.933433 0.45224,0.296317 0.45949,0.339876 0.45949,2.761197 v 2.460122 h -2.76931 -2.7693 l -0.61535,-0.652468 c -0.59464,-0.630489 -0.65457,-0.650608 -1.77968,-0.597337 l -1.16433,0.05515 -0.0509,2.828945 c -0.0586,3.25492 0.0348,3.512063 1.27405,3.512063 0.67092,0 1.44189,-0.479918 1.44189,-0.897553 0,-0.332335 0.72827,-0.334679 1.68174,-0.0055 0.54083,0.186763 1.25212,0.342275 1.58067,0.345577 0.58902,0.0063 0.59736,0.01818 0.59893,0.879037 7e-4,0.480168 0.0554,1.321161 0.12117,1.868869 0.1048,0.872967 0.0826,0.981638 -0.18008,0.880847 -0.5548,-0.212897 -0.86395,0.364233 -0.84809,1.583242 0.0204,1.564081 0.1036,1.778865 0.68804,1.775278 1.99492,-0.01221 5.0248,-4.405361 5.3445,-7.749174 l 0.11109,-1.161972 2.15962,-0.05175 2.15962,-0.05175 v 1.756457 c 0,1.694424 -0.0159,1.762493 -0.44988,1.927501 -0.24743,0.09407 -0.59049,0.385634 -0.76235,0.647917 -0.3054,0.466105 -0.29963,0.49017 0.25534,1.065045 l 0.5678,0.588159 -0.5153,1.19468 c -0.28341,0.657074 -0.56618,1.341299 -0.62837,1.520495 -0.1057,0.304552 -0.13734,0.301547 -0.48484,-0.04592 -0.70072,-0.700715 -1.25489,-0.34854 -1.42292,0.904261 -0.0772,0.575117 -0.0326,0.764538 0.20032,0.853959 0.51482,0.197559 0.33475,0.566099 -0.74813,1.531261 -1.12214,1.000147 -1.352,1.088625 -1.70939,0.657989 -0.3123,-0.376295 -1.15793,-0.346895 -1.6575,0.05765 -0.29701,0.2405 -0.43658,0.592856 -0.50119,1.265254 l -0.0896,0.931926 -1.12739,0.12115 c -1.64212,0.17646 -2.23463,0.41544 -2.76987,1.11717 -0.62933,0.82511 -1.20639,2.19463 -1.20639,2.86312 0,0.29489 -0.0621,0.54449 -0.13785,0.55467 -0.0758,0.0102 -1.91608,0.0395 -4.08949,0.0652 -2.39286,0.0283 -4.15192,0.12826 -4.45935,0.25348 -0.27923,0.11373 -0.59822,0.4359 -0.70887,0.71592 -0.38783,0.98153 -0.41405,1.00018 -1.44972,1.03074 -0.55531,0.0164 -1.19575,0.003 -1.42319,-0.0289 z m -7.1138,-21.437202 c 0.50724,-0.507243 0.53935,-0.711358 0.24479,-1.556332 -0.4808,-1.379218 -2.35077,-0.911164 -2.36272,0.591391 -0.005,0.609748 0.72541,1.416076 1.28249,1.416076 0.21136,0 0.58731,-0.203012 0.83544,-0.451135 z m 9.55746,0 c 0.5276,-0.527597 0.60138,-1.458136 0.16503,-2.081127 -0.21222,-0.302976 -0.47064,-0.408491 -1.00046,-0.408491 -0.87763,0 -1.28659,0.490378 -1.28659,1.542749 0,1.345815 1.19144,1.877449 2.12202,0.946869 z"
       id="path846"
       sodipodi:nodetypes="cssscccccscscssscsscsscscssssssscsssssssscsssssssssccsscssssssssssssssscssssssssscssssssscssssssscccssccssccccsssscccsssscsscsssssscsssscsssccssssssssss" />
  </g>
</svg>
