<?xml version="1.0" encoding="UTF-8" standalone="no"?>
<svg
   width="215"
   height="215"
   viewBox="0 0 56.885415 56.885418"
   version="1.1"
   id="svg8"
   inkscape:version="1.2.1 (9c6d41e, 2022-07-14)"
   sodipodi:docname="soulblight.svg"
   xmlns:inkscape="http://www.inkscape.org/namespaces/inkscape"
   xmlns:sodipodi="http://sodipodi.sourceforge.net/DTD/sodipodi-0.dtd"
   xmlns="http://www.w3.org/2000/svg"
   xmlns:svg="http://www.w3.org/2000/svg"
   xmlns:rdf="http://www.w3.org/1999/02/22-rdf-syntax-ns#"
   xmlns:cc="http://creativecommons.org/ns#"
   xmlns:dc="http://purl.org/dc/elements/1.1/">
  <defs
     id="defs2" />
  <sodipodi:namedview
     id="base"
     pagecolor="#ffffff"
     bordercolor="#666666"
     borderopacity="1.0"
     inkscape:pageopacity="0.0"
     inkscape:pageshadow="2"
     inkscape:zoom="0.7"
     inkscape:cx="137.14286"
     inkscape:cy="138.57143"
     inkscape:document-units="px"
     inkscape:current-layer="layer1"
     inkscape:document-rotation="0"
     showgrid="false"
     units="px"
     inkscape:pagecheckerboard="true"
     inkscape:window-width="1309"
     inkscape:window-height="456"
     inkscape:window-x="0"
     inkscape:window-y="38"
     inkscape:window-maximized="0"
     inkscape:showpageshadow="2"
     inkscape:deskcolor="#d1d1d1" />
  <metadata
     id="metadata5">
    <rdf:RDF>
      <cc:Work
         rdf:about="">
        <dc:format>image/svg+xml</dc:format>
        <dc:type
           rdf:resource="http://purl.org/dc/dcmitype/StillImage" />
        <dc:title />
      </cc:Work>
    </rdf:RDF>
  </metadata>
  <g
     inkscape:label="Layer 1"
     inkscape:groupmode="layer"
     id="layer1"
     transform="translate(0,-240.11457)">
    <path
       id="path849"
       style="fill:#000000;stroke-width:0.141634;fill-opacity:1"
       d="m 54.984856,292.14577 c 0.09138,-3.17315 0.366544,-6.43305 -0.220696,-9.57108 -0.413303,-1.68695 -0.743329,-3.53919 -1.639814,-5.06121 -0.05857,-1.84575 -2.675996,-2.823 -2.516925,-0.13942 -0.51934,1.18672 1.502236,4.53571 0.492441,4.28001 -1.279746,-1.28425 -2.698772,-2.45418 -3.499896,-4.02591 -0.898605,-1.59951 -2.65069,-4.02693 -4.605848,-2.20649 -1.69481,1.50276 -1.853178,4.03083 -1.525364,6.16156 -0.670778,1.29473 -2.866526,-1.90338 -4.165814,-2.1598 -1.726049,-0.76048 -4.033683,0.18645 -4.288786,2.13616 -0.507415,1.68791 -0.264396,3.7745 -1.318151,5.12845 -0.760558,2.05561 -3.658842,4.93004 -5.018163,1.67116 -2.146458,-1.7718 -1.9688,-4.25617 -2.488442,-6.77597 -0.310828,-1.699 -2.195069,-2.70392 -3.832478,-2.69103 -1.912472,-0.0931 -3.306132,1.30727 -4.867378,2.08049 0.450408,-1.98539 0.302901,-4.08306 -0.972857,-5.68897 -0.656323,-1.00076 -1.984069,-1.28344 -3.074351,-0.64055 -1.782176,1.06958 -2.5560072,3.15825 -4.1852794,4.49174 -0.8175397,1.3021 -2.4931013,2.2715 -1.1536911,-0.0348 1.3854148,-2.0193 -1.1652131,-5.80812 -2.4509011,-2.5367 -0.6594567,1.25926 -1.315151,3.03293 -1.599583,4.611 -0.7687195,2.54391 -0.6643253,5.35142 -0.9312856,8.02653 -0.94993884,-0.93548 -0.69081354,-4.46953 -0.95340804,-6.34056 -0.081534,-3.50687 -0.2938256,-7.03113 -0.065697,-10.53107 0.6971738,-1.95428 0.6912158,-4.1938 1.56708654,-6.11355 0.3665613,-1.63871 1.2672778,-3.16663 1.7412165,-4.78236 0.535077,-1.13479 1.0513499,-2.49008 1.7996398,-3.50215 1.4859124,-1.89482 3.0863836,-3.725 4.4231458,-5.72802 0.9906056,-1.35574 2.7861306,-2.38074 3.3219536,-4.16382 1.849834,0.3581 2.806644,-1.68141 2.919058,-3.31625 0.823522,0.67664 1.576614,2.68127 2.720258,3.63588 1.280367,1.28888 3.819757,2.22836 2.639209,4.58401 -0.499413,1.33628 -1.810055,2.32632 -2.751631,3.10427 0.125335,-0.94896 1.183154,-4.07087 -1.054149,-4.77395 -2.017654,0.21546 -3.052111,2.05749 -3.121394,3.8024 -0.904663,2.64736 1.106346,5.05671 0.851829,7.43322 0.811792,1.53581 1.620348,3.43055 2.834189,4.62523 0.203685,-1.62119 -0.63839,-3.46648 -0.532295,-5.55581 -1.421992,-2.97814 2.045131,0.34814 2.621394,1.31492 1.185425,0.99043 1.860795,3.29484 3.115947,3.39325 0.872259,-0.84122 2.017495,-1.3195 2.971339,-2.35257 1.624948,-0.98171 3.712959,-0.65207 5.385076,0.21909 1.267261,0.8061 2.869534,4.65943 3.604115,1.40259 1.887752,-1.52948 1.659933,-2.89489 3.177705,-4.3426 2.678703,-2.71191 0.643066,2.54672 1.051769,3.86609 -0.161594,1.13998 -0.385566,3.23226 0.335959,0.97771 1.399576,-1.45952 0.696629,-3.7152 2.070597,-4.97482 0.923962,-1.68565 0.920048,-4.1612 0.382424,-6.08373 -0.291111,-1.51838 -1.342477,-3.19371 -3.00086,-3.40074 -1.933531,0.73395 -1.874974,3.05559 -1.257809,4.27291 -0.293717,0.43728 -3.112738,-1.97533 -2.681393,-3.1808 0.02321,-0.34477 -0.11678,-2.02293 0.439054,-2.40778 1.468097,-0.45559 2.750307,-1.74872 3.70778,-2.9898 0.935634,-0.80732 1.08005,-3.10011 1.693628,-0.53376 0.412591,1.62604 2.500903,1.4614 3.160653,2.88972 1.245289,1.56659 2.634768,2.69683 3.752343,4.34955 0.894507,1.4507 2.063281,2.62729 3.109528,3.93253 0.723276,1.1043 1.423643,2.32475 1.841245,3.54086 0.733919,1.46443 1.241552,3.07878 1.785671,4.57114 1.026638,2.30487 1.144683,4.76218 1.821083,7.13081 0.430674,4.70605 0.461973,9.47018 0.02028,14.17628 -0.613695,1.50231 -0.627924,4.12864 -1.521627,5.04214 l -0.03628,-0.14425 z M 29.227521,285.0634 c 0.291999,-1.30116 0.04425,-4.36898 1.19378,-1.92217 0.792241,1.04335 1.142169,-3.42169 0.579229,-2.59075 -1.474918,2.5744 -0.167116,-3.69588 -1.387409,-0.86564 -0.597807,0.98796 -0.75206,-2.91047 -1.05631,-0.19466 -0.526873,1.49212 -0.867919,-1.37276 -1.210606,0.51739 0.106967,2.06562 -0.367006,1.20935 -1.118161,0.49889 0.05137,2.27805 1.056101,2.7947 1.634065,1.67591 0.567699,0.58587 -0.03109,3.78897 1.365412,2.88103 z m -1.072366,-8.51828 c -0.648144,-1.32729 -0.890191,0.49286 0,0 z m 1.758605,-0.15178 c 0.169437,-0.86096 -0.981933,0.82861 0,0 z m -3.883117,-1.97096 c -0.045,-1.00981 -3.051122,-2.5995 -1.599583,-0.82906 0.02346,0.63104 1.253753,1.88469 1.599583,0.82906 z m 6.029567,0.16011 c 0.997485,-0.856 1.346994,-2.78752 -0.165013,-1.21048 -0.716263,0.38233 -1.12903,1.92514 0.165013,1.21048 z m 3.07073,-23.52138 c 0.09312,-1.07429 0.05765,1.21212 0,0 z"
       sodipodi:nodetypes="ccccccccccccccccccccccccccccccccccccccccccccccccccccccccccccccccccccccccccccccccccccc" />
  </g>
</svg>
