<?xml version="1.0" encoding="UTF-8" standalone="no"?>
<svg
   xmlns:dc="http://purl.org/dc/elements/1.1/"
   xmlns:cc="http://creativecommons.org/ns#"
   xmlns:rdf="http://www.w3.org/1999/02/22-rdf-syntax-ns#"
   xmlns:svg="http://www.w3.org/2000/svg"
   xmlns="http://www.w3.org/2000/svg"
   xmlns:sodipodi="http://sodipodi.sourceforge.net/DTD/sodipodi-0.dtd"
   xmlns:inkscape="http://www.inkscape.org/namespaces/inkscape"
   width="215"
   height="215"
   viewBox="0 0 56.885415 56.885418"
   version="1.1"
   id="svg8"
   inkscape:version="1.0.2-2 (e86c870879, 2021-01-15)"
   sodipodi:docname="soulblight_gravelords.svg">
  <defs
     id="defs2">
    <pattern
       id="EMFhbasepattern"
       patternUnits="userSpaceOnUse"
       width="6"
       height="6"
       x="0"
       y="0" />
    <clipPath
       clipPathUnits="userSpaceOnUse"
       id="clipPath1079">
      <path
         d="M 0,0 H 1218.898 V 793.701 H 0 Z"
         id="path1077" />
    </clipPath>
    <clipPath
       clipPathUnits="userSpaceOnUse"
       id="clipPath1087">
      <path
         d="m 759.534,678.539 h 11.071 v -13.81 h -11.071 z"
         id="path1085" />
    </clipPath>
    <clipPath
       clipPathUnits="userSpaceOnUse"
       id="clipPath1091">
      <path
         d="m 760.964,666.904 h 8.212 v 9.461 h -8.212 z"
         id="path1089" />
    </clipPath>
  </defs>
  <sodipodi:namedview
     id="base"
     pagecolor="#ffffff"
     bordercolor="#666666"
     borderopacity="1.0"
     inkscape:pageopacity="0.0"
     inkscape:pageshadow="2"
     inkscape:zoom="1.6282395"
     inkscape:cx="305.6543"
     inkscape:cy="55.053255"
     inkscape:document-units="px"
     inkscape:current-layer="layer1"
     inkscape:document-rotation="0"
     showgrid="false"
     inkscape:window-width="1920"
     inkscape:window-height="1017"
     inkscape:window-x="-8"
     inkscape:window-y="-8"
     inkscape:window-maximized="1"
     units="px" />
  <metadata
     id="metadata5">
    <rdf:RDF>
      <cc:Work
         rdf:about="">
        <dc:format>image/svg+xml</dc:format>
        <dc:type
           rdf:resource="http://purl.org/dc/dcmitype/StillImage" />
        <dc:title />
      </cc:Work>
    </rdf:RDF>
  </metadata>
  <g
     inkscape:label="Layer 1"
     inkscape:groupmode="layer"
     id="layer1"
     transform="translate(0,-240.11457)">
    <g
       id="g1073"
       transform="matrix(6.0956127,0,0,-6.0956127,-4634.2834,4362.8178)"
       style="fill:#000000;fill-opacity:1">
      <g
         id="g1075"
         clip-path="url(#clipPath1079)"
         style="fill:#000000;fill-opacity:1">
        <g
           id="g1081"
           style="fill:#000000;fill-opacity:1">
          <g
             id="g1083"
             style="fill:#000000;fill-opacity:1" />
          <g
             id="g1115"
             style="fill:#000000;fill-opacity:1">
            <g
               clip-path="url(#clipPath1087)"
               id="g1113"
               style="fill:#000000;fill-opacity:1">
              <g
                 id="g1111"
                 style="fill:#000000;fill-opacity:1">
                <g
                   clip-path="url(#clipPath1091)"
                   id="g1109"
                   style="fill:#000000;fill-opacity:1">
                  <g
                     transform="translate(762.0062,673.8453)"
                     id="g1095"
                     style="fill:#000000;fill-opacity:1">
                    <path
                       d="m 0,0 c -0.056,-0.035 -0.214,0.021 -0.22,0.045 -0.007,0.023 0.052,0.096 0.132,0.153 0.081,0.056 0.201,0.126 0.223,0.109 C 0.157,0.29 0.056,0.035 0,0 M 5.915,1 C 5.945,1.058 6.081,1.078 6.003,1.146 5.925,1.214 5.06,2.332 4.477,2.371 4.244,2.386 4.846,2.001 4.788,1.632 4.709,1.133 3.738,1.156 3.631,1.136 3.524,1.117 3.563,1.165 3.485,1.185 3.407,1.204 3.456,1.194 3.388,1.117 3.32,1.039 3.33,1.019 3.213,0.922 3.096,0.825 2.97,0.796 2.97,0.747 2.97,0.699 2.912,0.426 2.951,0.339 2.989,0.252 3.232,0.213 3.262,0.213 c 0.029,0 -0.059,0.165 -0.059,0.165 0,0 -0.097,0.185 0.078,0.243 C 3.456,0.679 3.466,0.358 3.388,-0.128 3.31,-0.614 2.853,-0.789 2.649,-0.847 2.445,-0.905 2.319,-0.711 2.289,-0.516 2.26,-0.322 2.416,0.261 2.406,0.397 2.396,0.533 2.319,0.669 2.153,0.786 2.059,0.853 1.863,0.859 1.701,0.849 1.637,0.741 1.538,0.652 1.432,0.582 1.326,0.511 1.209,0.455 1.088,0.41 1.147,0.465 1.197,0.508 1.226,0.531 1.299,0.588 1.502,0.752 1.501,0.86 1.5,0.968 1.466,1.532 1.436,1.541 1.406,1.551 1.332,1.278 1.026,0.951 0.88,0.796 0.85,0.812 0.822,0.844 0.793,0.877 0.995,1.103 1.066,1.411 1.183,1.919 1.03,2.306 0.991,2.308 0.953,2.31 0.786,1.367 0.586,1.125 0.443,0.952 0.707,1.49 0.577,1.965 0.49,2.286 0.204,2.519 0.149,2.492 0.093,2.464 0.316,2.114 0.301,1.728 0.3,1.704 0.28,1.144 0.061,0.85 -0.157,0.556 -0.338,0.26 -0.388,0.201 -0.437,0.143 -0.552,0.027 -0.511,-0.045 c 0.042,-0.072 0.051,-0.057 0.073,-0.066 0.023,-0.009 -0.316,-0.619 -0.36,-0.709 -0.044,-0.089 -0.059,-0.088 -0.09,-0.086 -0.031,0.002 -0.069,0.127 -0.101,0.106 -0.032,-0.021 -0.053,-0.235 -0.008,-0.492 0.046,-0.257 0.136,-0.524 0.151,-0.533 0.015,-0.008 0.069,-0.012 0.079,0.034 0.011,0.045 -0.002,0.331 0.043,0.428 0.044,0.097 0.058,0.066 0.058,0.066 0,0 0.034,-0.072 0.091,-0.137 0.058,-0.065 0.206,-0.159 0.238,-0.13 0.033,0.029 -0.131,0.247 -0.138,0.37 -0.008,0.124 0.305,0.451 0.442,0.542 0.136,0.091 0.376,0.115 0.376,0.115 0,0 -0.06,-0.343 -0.113,-0.462 -0.054,-0.12 -0.093,-0.133 -0.093,-0.133 0,0 -0.112,0.053 -0.124,0 -0.01,-0.053 0.053,-0.273 0.081,-0.313 0.028,-0.04 0.127,-0.177 0.177,-0.119 0.05,0.059 0.171,0.513 0.307,0.727 0.137,0.215 0.294,0.382 0.319,0.419 0.026,0.037 0.094,0.14 -0.04,0.226 -0.133,0.085 -0.209,0.09 -0.209,0.09 0,0 -0.029,0.025 0.136,0.207 0,0 0.001,0.001 0.002,0.002 0.385,0.065 0.99,0.026 0.483,-0.419 -0.193,-0.17 -0.824,-0.749 -0.778,-1.838 0.058,-1.37 0.632,-1.915 0.7,-1.983 0.068,-0.068 0.117,0.049 0.175,0.127 0.058,0.078 0.165,0.126 0.185,0.039 0.019,-0.088 0.175,-0.447 0.291,-0.438 0.117,0.01 0.739,0.778 0.739,0.778 0,0 -0.039,0.075 -0.087,0.126 -0.166,0.175 0.165,0.136 0.204,0.195 0.039,0.058 -0.107,0.107 -0.146,0.126 -0.039,0.019 -0.233,0.185 -0.243,0.331 -0.01,0.145 0.282,0.038 0.292,0.097 0.009,0.058 -0.107,0.165 -0.205,0.291 -0.026,0.035 -0.165,0.166 -0.039,0.389 0.162,0.287 0.438,-0.223 0.487,-0.184 0.048,0.038 -0.01,0.272 0.038,0.437 0.049,0.165 0.185,0.554 0.535,0.535 0.35,-0.02 0.175,-1.274 0.204,-1.274 0.029,0 0.477,0.632 0.758,0.331 0.165,-0.176 -0.456,-1.915 -0.408,-1.945 0.049,-0.029 0.156,0.117 0.156,0.117 0,0 0.36,0.52 0.661,0.438 0.32,-0.088 0.204,-0.691 0,-1.429 -0.191,-0.691 -0.72,-1.41 -0.72,-1.41 l 0.01,-0.155 c 0,0 -0.058,-0.098 0.457,0.398 0.515,0.496 1.9,1.468 2.275,3.713 C 7.169,-0.341 5.886,0.942 5.915,1"
                       style="fill:#000000;fill-opacity:1;fill-rule:nonzero;stroke:none"
                       id="path1093" />
                  </g>
                  <g
                     transform="translate(765.0782,670.505)"
                     id="g1099"
                     style="fill:#000000;fill-opacity:1">
                    <path
                       d="m 0,0 c -0.248,-0.554 -0.311,-0.588 -0.612,-0.94 -0.297,-0.348 -1.073,-0.894 -1.288,-1.242 -0.226,-0.366 -0.507,-1.13 0.525,-1.284 0.913,-0.136 1.489,0.17 1.71,0.817 0.125,0.366 0.088,1.06 -0.269,1.512 l -0.467,-0.605 c 0,0 0.629,-1.018 -0.43,-1.16 -0.729,-0.097 -0.772,0.468 -0.311,0.914 0.644,0.623 1.135,1.274 1.237,1.288 0.102,0.015 0.138,-0.146 0.211,-0.146 0.073,0 0.034,0.307 0.015,0.511 C 0.299,-0.109 0.211,0.102 0.284,0.044 0.357,-0.015 0.503,-0.219 0.561,-0.211 0.62,-0.204 0.372,0.824 0.109,1.188 0.067,1.248 0.248,0.554 0,0"
                       style="fill:#000000;fill-opacity:1;fill-rule:nonzero;stroke:none"
                       id="path1097" />
                  </g>
                  <g
                     transform="translate(761.554,671.9733)"
                     id="g1103"
                     style="fill:#000000;fill-opacity:1">
                    <path
                       d="m 0,0 c -0.043,0.012 -0.198,-1.006 -0.198,-1.006 0,0 -0.089,-0.326 0.242,-0.321 0.277,0.004 0.198,0.394 0.198,0.394 0,0 -0.199,0.921 -0.242,0.933"
                       style="fill:#000000;fill-opacity:1;fill-rule:nonzero;stroke:none"
                       id="path1101" />
                  </g>
                  <g
                     transform="translate(762.0219,671.04)"
                     id="g1107"
                     style="fill:#000000;fill-opacity:1">
                    <path
                       d="m 0,0 c -0.059,0.026 -0.151,-0.763 -0.151,-0.763 0,0 -0.079,-0.257 0.172,-0.268 0.251,-0.011 0.163,0.323 0.163,0.323 0,0 -0.125,0.682 -0.184,0.708"
                       style="fill:#000000;fill-opacity:1;fill-rule:nonzero;stroke:none"
                       id="path1105" />
                  </g>
                </g>
              </g>
            </g>
          </g>
        </g>
      </g>
    </g>
  </g>
</svg>
