<?xml version="1.0" encoding="UTF-8" standalone="no"?>
<!-- Generated by IcoMoon.io -->

<svg
   version="1.1"
   width="215"
   height="215"
   viewBox="0 0 1444.5312 1444.5312"
   id="svg26"
   sodipodi:docname="factions-order-hunters-of-huanchi.svg"
   inkscape:version="1.2.1 (9c6d41e, 2022-07-14)"
   xmlns:inkscape="http://www.inkscape.org/namespaces/inkscape"
   xmlns:sodipodi="http://sodipodi.sourceforge.net/DTD/sodipodi-0.dtd"
   xmlns="http://www.w3.org/2000/svg"
   xmlns:svg="http://www.w3.org/2000/svg"
   xmlns:rdf="http://www.w3.org/1999/02/22-rdf-syntax-ns#"
   xmlns:cc="http://creativecommons.org/ns#"
   xmlns:dc="http://purl.org/dc/elements/1.1/">
  <defs
     id="defs30" />
  <sodipodi:namedview
     id="namedview28"
     pagecolor="#ffffff"
     bordercolor="#000000"
     borderopacity="0.25"
     inkscape:showpageshadow="2"
     inkscape:pageopacity="0.0"
     inkscape:pagecheckerboard="0"
     inkscape:deskcolor="#d1d1d1"
     showgrid="false"
     inkscape:zoom="4.0117188"
     inkscape:cx="-48.73223"
     inkscape:cy="96.841285"
     inkscape:window-width="2560"
     inkscape:window-height="1387"
     inkscape:window-x="0"
     inkscape:window-y="25"
     inkscape:window-maximized="1"
     inkscape:current-layer="svg26" />
  <title
     id="title2">factions-order-hunters-of-huanchi</title>
  <g
     id="g272"
     transform="matrix(45.142103,0,0,45.142103,0.01452305,0.06974774)">
    <path
       d="m 13.812,29.635 c -1.006,-1.282 -1.835,-2.514 -1.835,-2.741 0,-0.754 0.981,-0.704 2.414,0.101 l 1.408,0.779 1.483,-0.905 c 1.232,-0.754 1.559,-0.855 1.986,-0.629 0.302,0.151 0.503,0.453 0.453,0.654 -0.075,0.402 -3.746,5.129 -3.973,5.104 -0.075,0 -0.955,-1.056 -1.936,-2.364 z"
       id="path4" />
    <path
       d="M 11.851,24.707 C 9.789,23.45 7.954,22.293 7.778,22.142 7.627,21.966 7.401,21.187 7.325,20.407 7.149,18.974 7.149,18.949 7.778,18.949 c 0.83,0 1.031,-0.603 0.83,-2.715 C 8.507,15.253 8.558,14.172 8.709,13.669 8.986,12.789 8.96,12.789 7.351,11.28 L 5.717,9.771 5.994,7.885 C 6.145,6.854 6.296,5.144 6.296,4.113 L 6.321,2.227 7.452,2.076 c 0.629,-0.101 2.137,-0.528 3.369,-0.955 4.274,-1.509 5.154,-1.509 9.982,0.075 1.835,0.603 2.892,0.805 3.57,0.729 l 0.955,-0.126 -0.025,1.584 c -0.025,0.88 0.101,2.741 0.277,4.098 l 0.327,2.489 -0.855,0.654 c -0.478,0.352 -1.257,1.031 -1.735,1.483 -0.729,0.704 -0.83,0.93 -0.654,1.634 0.075,0.427 0.302,1.785 0.478,2.992 0.176,1.207 0.427,2.338 0.578,2.514 0.126,0.176 0.226,0.83 0.226,1.458 l -0.025,1.131 -2.514,1.71 c -2.263,1.534 -5.431,3.445 -5.683,3.445 -0.05,0 -1.785,-1.031 -3.872,-2.288 z m 5.205,-0.98 c 0.553,-0.427 0.679,-0.779 0.83,-2.439 0.201,-2.263 0.729,-3.445 2.338,-5.154 l 1.131,-1.157 -0.302,-1.232 C 20.676,12.287 20.399,11.91 19.62,11.91 c -0.654,0 -0.805,0.377 -0.905,2.263 l -0.075,1.131 -0.729,-1.056 c -0.528,-0.779 -0.981,-1.157 -1.659,-1.333 -1.257,-0.352 -1.584,-0.176 -2.69,1.333 l -0.955,1.307 -0.075,-1.835 c -0.075,-1.735 -0.101,-1.81 -0.704,-1.81 -0.478,0 -0.704,0.201 -1.006,0.88 -0.629,1.509 -0.478,2.313 0.629,3.319 0.553,0.478 1.081,1.207 1.157,1.584 0.076,0.377 0.352,0.88 0.629,1.131 0.327,0.302 0.503,0.955 0.629,2.414 0.151,1.71 0.277,2.062 0.805,2.489 0.805,0.629 1.584,0.629 2.389,0 z m -0.025,-13.1 C 18.162,9.722 18.213,9.521 17.458,8.113 17.031,7.283 16.98,6.982 17.207,6.604 c 0.377,-0.603 0.377,-0.729 -0.05,-0.729 -0.729,0 -0.855,1.383 -0.251,2.565 0.402,0.754 0.377,0.779 -0.352,1.509 l -0.729,0.754 -0.679,-0.88 C 14.593,9.094 14.517,8.842 14.719,8.415 c 0.503,-0.93 0.277,-2.54 -0.377,-2.54 -0.427,0 -0.427,0.126 -0.05,0.754 0.302,0.478 0.277,0.654 -0.402,2.288 -0.201,0.453 1.282,2.464 1.835,2.464 0.176,0.025 0.779,-0.327 1.307,-0.754 z M 11.223,10.501 C 11.6,9.52 11.525,9.244 10.821,8.917 9.991,8.54 9.84,8.691 10.243,9.37 10.746,10.149 10.344,10.275 8.91,9.722 8.03,9.395 7.603,9.119 7.678,8.867 7.728,8.666 7.804,8.062 7.879,7.509 8.055,6.252 7.678,6.554 7.074,8.213 6.521,9.671 6.672,9.898 8.708,10.652 c 1.835,0.654 2.238,0.629 2.514,-0.151 z M 23.97,9.973 C 25.227,9.37 25.277,9.319 25.127,8.565 24.926,7.559 24.348,6.126 24.121,6.126 c -0.075,0 -0.075,0.629 0.025,1.383 L 24.297,8.917 23.14,9.42 c -1.358,0.578 -1.584,0.478 -1.006,-0.377 0.226,-0.352 0.402,-0.704 0.402,-0.779 0,-0.101 -1.433,0.528 -1.71,0.754 -0.05,0.05 0.101,0.478 0.302,1.006 0.453,1.031 0.528,1.031 2.841,-0.05 z M 13.083,7.735 C 13.234,7.308 12.832,7.006 11.424,6.528 10.041,6.075 9.463,6.201 9.463,7.006 c 0,0.779 2.062,1.71 2.917,1.333 0.327,-0.151 0.629,-0.427 0.704,-0.603 z m 8.725,0.126 C 23.141,7.283 23.291,6.956 22.587,6.302 22.16,5.925 22.034,5.95 20.576,6.629 c -0.855,0.402 -1.559,0.805 -1.559,0.905 0,0.251 0.83,0.83 1.207,0.855 0.176,0 0.905,-0.251 1.584,-0.528 z"
       id="path6" />
    <path
       d="m 14.994,23.098 c -0.176,-0.226 -0.377,-1.257 -0.453,-2.338 -0.075,-1.584 -0.226,-2.062 -0.679,-2.565 -0.503,-0.528 -0.578,-0.805 -0.453,-1.81 0.075,-0.679 0.226,-1.207 0.327,-1.207 0.101,0 0.377,0.453 0.603,1.006 0.327,0.855 0.503,1.006 1.131,1.006 1.131,0 1.509,-0.226 1.961,-1.232 l 0.402,-0.905 0.226,1.131 c 0.176,0.93 0.126,1.282 -0.277,2.011 -0.277,0.528 -0.553,1.685 -0.654,2.841 -0.151,1.509 -0.302,2.011 -0.654,2.188 -0.629,0.352 -1.131,0.302 -1.483,-0.126 z"
       id="path8" />
    <path
       d="m 23.292,26.241 c -2.791,-0.453 -3.596,-0.679 -3.394,-1.006 0.05,-0.101 1.106,-0.754 2.313,-1.458 1.559,-0.905 2.54,-1.282 3.344,-1.333 1.056,-0.075 1.131,-0.05 1.207,0.528 0.101,1.006 -0.302,3.596 -0.578,3.646 -0.126,0.025 -1.433,-0.126 -2.892,-0.377 z"
       id="path10" />
    <path
       d="M 5.641,26.342 C 5.515,26.241 5.44,25.336 5.44,24.305 V 22.47 h 0.729 c 0.402,0 1.257,0.352 1.936,0.83 2.967,1.986 3.118,2.213 1.81,2.69 -1.056,0.352 -4.048,0.629 -4.274,0.352 z"
       id="path12" />
    <path
       d="m 25.303,21.715 c -0.528,-0.126 -0.629,-0.327 -0.704,-1.182 -0.075,-0.905 0.05,-1.182 0.855,-2.087 0.503,-0.553 1.282,-1.257 1.685,-1.559 l 0.754,-0.553 0.578,0.754 c 0.327,0.402 0.603,0.88 0.603,1.031 0,0.503 -2.087,3.294 -2.64,3.545 -0.277,0.126 -0.779,0.151 -1.131,0.05 z"
       id="path14" />
    <path
       d="m 4.258,20.408 c -0.729,-0.754 -1.333,-1.509 -1.333,-1.71 0,-0.427 1.232,-1.76 1.609,-1.76 0.151,0 0.629,0.352 1.081,0.754 0.578,0.528 0.855,1.081 0.955,1.861 0.377,2.514 -0.402,2.791 -2.313,0.855 z"
       id="path16" />
    <path
       d="M 6.42,17.516 C 4.409,15.932 4.107,15.278 4.811,13.895 c 0.377,-0.704 0.402,-0.704 0.855,-0.302 1.584,1.534 2.539,2.917 2.539,3.721 0,1.157 -0.503,1.232 -1.785,0.201 z"
       id="path18" />
    <path
       d="m 24.046,16.837 c 0,-1.333 0.025,-1.383 1.458,-2.64 1.383,-1.182 1.509,-1.232 2.011,-0.88 0.502,0.352 0.503,0.402 0.126,1.483 -0.277,0.855 -0.754,1.433 -1.76,2.263 -0.754,0.629 -1.483,1.131 -1.609,1.131 -0.126,0 -0.226,-0.603 -0.226,-1.358 z"
       id="path20" />
    <path
       d="M 6.496,13.594 C 5.792,12.865 5.44,12.312 5.44,11.834 c 0,-0.83 0.126,-0.855 1.182,-0.025 1.131,0.855 1.659,1.71 1.458,2.364 -0.226,0.704 -0.377,0.654 -1.584,-0.578 z"
       id="path22" />
    <path
       d="m 23.593,14.373 c -0.754,-0.754 -0.201,-1.735 1.559,-2.816 0.578,-0.377 0.754,-0.402 0.93,-0.126 0.402,0.629 0.226,1.131 -0.578,1.886 -1.383,1.282 -1.584,1.383 -1.911,1.056 z"
       id="path24" />
  </g>
  <metadata
     id="metadata259">
    <rdf:RDF>
      <cc:Work
         rdf:about="">
        <dc:title>factions-order-hunters-of-huanchi</dc:title>
      </cc:Work>
    </rdf:RDF>
  </metadata>
</svg>
