<?xml version="1.0" encoding="UTF-8" standalone="no"?>
<svg
   id="Layer_1"
   data-name="Layer 1"
   viewBox="0 0 215.14 215.14"
   version="1.1"
   sodipodi:docname="tarantulos_brood.svg"
   width="215.14"
   height="215.14"
   inkscape:version="1.2.1 (9c6d41e, 2022-07-14)"
   xmlns:inkscape="http://www.inkscape.org/namespaces/inkscape"
   xmlns:sodipodi="http://sodipodi.sourceforge.net/DTD/sodipodi-0.dtd"
   xmlns="http://www.w3.org/2000/svg"
   xmlns:svg="http://www.w3.org/2000/svg"
   xmlns:rdf="http://www.w3.org/1999/02/22-rdf-syntax-ns#"
   xmlns:cc="http://creativecommons.org/ns#"
   xmlns:dc="http://purl.org/dc/elements/1.1/">
  <metadata
     id="metadata12">
    <rdf:RDF>
      <cc:Work
         rdf:about="">
        <dc:format>image/svg+xml</dc:format>
        <dc:type
           rdf:resource="http://purl.org/dc/dcmitype/StillImage" />
        <dc:title />
      </cc:Work>
    </rdf:RDF>
  </metadata>
  <defs
     id="defs10" />
  <sodipodi:namedview
     pagecolor="#ffffff"
     bordercolor="#666666"
     borderopacity="1"
     objecttolerance="10"
     gridtolerance="10"
     guidetolerance="10"
     inkscape:pageopacity="0"
     inkscape:pageshadow="2"
     inkscape:window-width="1309"
     inkscape:window-height="456"
     id="namedview8"
     showgrid="false"
     inkscape:zoom="2.8084705"
     inkscape:cx="160.22956"
     inkscape:cy="88.660358"
     inkscape:window-x="0"
     inkscape:window-y="38"
     inkscape:window-maximized="0"
     inkscape:current-layer="Layer_1"
     inkscape:showpageshadow="2"
     inkscape:pagecheckerboard="0"
     inkscape:deskcolor="#d1d1d1" />
  <g
     id="bdkSyW.tif"
     transform="translate(-0.00500031,0.59741935)"
     style="fill:#000000;fill-opacity:1">
    <path
       fill="#ffffff"
       d="m 2211.27,1603.77 c 5.1,-11.28 7.7,-23 6.6,-35.18 a 101.52,101.52 0 0 0 -4.21,-21.76 c -0.89,-2.79 -5,-4.63 -7.79,-6.7 -5.59,-4.14 -9.55,-1.47 -14.27,2.49 -12,10.11 -24.59,19.7 -40.92,21.87 a 40.66,40.66 0 0 1 -11.59,-0.14 c 1.08,-0.53 2.15,-1.08 3.25,-1.57 16.87,-7.42 29.21,-19.66 38.25,-35.56 2.23,-3.92 2.67,-7.52 0.39,-11.51 -1.3,-2.28 -2.21,-4.79 -3.27,-7.15 -10.81,-1.85 -21.76,-3.37 -32.55,-5.66 -9.81,-2.07 -18.85,-6.14 -26.13,-13.38 a 30,30 0 0 1 -2.28,-2.63 5,5 0 0 1 -0.53,-1.21 c 6.08,1.54 12.12,3.49 18.32,4.56 a 77.27,77.27 0 0 0 40.09,-3.24 c 6.7,-2.43 9.28,-13.4 5.19,-19 -6.65,-9 -13.08,-18.24 -19,-27.76 -5.09,-8.21 -6.81,-17.48 -5.46,-28.52 1.19,2.37 1.91,3.8 2.62,5.24 8,16.46 19.9,29.16 36.29,37.52 4,2 13.74,0.74 16.71,-2.41 0.76,-0.8 0.91,-2.37 0.95,-3.61 a 122.87,122.87 0 0 1 7.11,-37.78 c 3,-8.06 6.91,-15.61 14.67,-20.93 -1.88,7.53 -4.28,14.4 -5.22,21.47 -1.73,13.12 -1,26.38 4.85,38.37 1.66,3.41 7.62,5.12 12,6.63 1.46,0.51 4.2,-1.73 6,-3.17 12.24,-9.87 24.29,-20.09 40.27,-23.47 4.72,-1 9.58,-1.34 14.37,-2 l 0.41,1.55 c -1.49,0.71 -3,1.45 -4.46,2.14 -17,7.75 -29.17,20.46 -37.5,36.92 -3.9,7.69 2.55,17.25 11,17.83 16.88,1.17 33.54,3.56 47.7,14 2.69,2 4.93,4.57 8.24,7.69 -8.07,-2 -14.64,-4.15 -21.39,-5.11 -12.75,-1.82 -25.46,-1.3 -37.71,3.28 -6.51,2.44 -9.36,13.66 -5,18.93 9.7,11.78 19.29,23.7 23.1,38.9 1.27,5.07 1.36,10.44 2,15.84 -6.31,-8.79 -11.34,-17.62 -18.15,-24.74 -6.3,-6.58 -14.38,-11.51 -22,-16.71 -1.61,-1.09 -4.66,-0.51 -6.95,-0.11 -9.93,1.74 -11.81,8.49 -12.53,17.64 -1.34,17.28 -5.06,34.1 -18.67,46.7 a 15.46,15.46 0 0 1 -1.5,1.31 c -0.21,0.24 -0.57,0.13 -1.3,0.13 z m -29.45,-106.48 c -0.56,24 16.88,41.64 41.4,41.56 24.52,-0.08 41.39,-17.45 41.52,-41.33 0.13,-23.4 -16.3,-40.45 -39,-41.62 -26.86,-1.38 -44.68,18.24 -43.92,41.39 z"
       transform="translate(-2116.22,-1389.8)"
       id="path2"
       style="fill:#000000;fill-opacity:1" />
    <path
       fill="#ffffff"
       d="m 2256.12,1497.56 c 1.65,14.53 -11.7,32.8 -31.76,33.09 -18.8,0.28 -32.26,-11.7 -34.19,-29.18 -2.58,-23.29 14.93,-36.91 30.23,-37.34 18.5,-0.52 36.02,10.11 35.72,33.43 z"
       transform="translate(-2116.22,-1389.8)"
       id="path4"
       style="fill:#000000;fill-opacity:1" />
  </g>
</svg>
